<svg xmlns="http://www.w3.org/2000/svg" viewBox="0 0 200 88" preserveAspectRatio="none">
<path d="M0.577271 17.1404H2.35347C2.84192 17.1404 3.06395 17.1848 3.33038 17.3624C3.64121 17.5844 3.81883 17.9397 3.81883 18.3837C3.81883 18.8722 3.59681 19.2718 3.24157 19.4494C3.01954 19.5827 2.75311 19.6271 2.44228 19.6271H0.8437V21.6253H0.577271V17.1404V17.1404ZM2.22025 19.405C2.6199 19.405 2.84192 19.3606 3.01954 19.2718C3.33038 19.0942 3.508 18.7834 3.508 18.4281C3.508 18.0729 3.37478 17.7621 3.10835 17.5844C2.93073 17.4512 2.70871 17.4068 2.26466 17.4068H0.8437V19.4494H2.22025V19.405V19.405Z" fill="#1D1D1B"/>
<path d="M4.48499 17.1404H6.34999C6.79404 17.1404 7.06047 17.1848 7.2825 17.3624C7.59333 17.5844 7.77095 17.8953 7.77095 18.3393C7.77095 18.7834 7.59333 19.0942 7.2825 19.2718C7.14928 19.3606 7.01607 19.405 6.83845 19.4494C7.14928 19.4938 7.3269 19.5827 7.46012 19.7159C7.68214 19.9379 7.68214 20.1155 7.72655 20.8704C7.72655 21.1812 7.77095 21.4477 7.85976 21.6253H7.54893C7.50452 21.5365 7.50452 21.3589 7.46012 20.9592C7.46012 20.3819 7.37131 20.0711 7.19369 19.8491C7.01607 19.6271 6.66083 19.5827 6.17237 19.5827H4.75141V21.6697H4.48499V17.1404V17.1404ZM6.12797 19.3162C6.57202 19.3162 6.88285 19.2718 7.06047 19.1386C7.3269 18.961 7.50452 18.6946 7.50452 18.3393C7.50452 17.9841 7.37131 17.7176 7.10488 17.54C6.92726 17.4068 6.66083 17.3624 6.26118 17.3624H4.75141V19.3162H6.12797V19.3162Z" fill="#1D1D1B"/>
<path d="M8.57019 19.405C8.57019 17.984 9.41389 17.0515 10.746 17.0515C11.9894 17.0515 12.8775 18.0284 12.8775 19.4494C12.8775 20.8703 12.0338 21.7584 10.7016 21.7584C9.41389 21.7584 8.57019 20.7815 8.57019 19.405V19.405ZM12.5666 19.405C12.5666 18.1616 11.8118 17.2735 10.7016 17.2735C9.59151 17.2735 8.83662 18.1172 8.83662 19.405C8.83662 20.6927 9.59151 21.5364 10.7016 21.5364C11.8118 21.492 12.5666 20.6483 12.5666 19.405Z" fill="#1D1D1B"/>
<path d="M13.7212 17.1404H15.231C15.8526 17.1404 16.2967 17.2736 16.6519 17.6288C17.0516 18.0285 17.2736 18.6057 17.2736 19.3606C17.2736 20.1599 17.0516 20.7816 16.6519 21.1812C16.2967 21.5365 15.897 21.6697 15.231 21.6697H13.7212V17.1404V17.1404ZM15.1866 21.4033C15.8082 21.4033 16.1635 21.27 16.4743 21.0036C16.8739 20.6484 17.0516 20.0711 17.0516 19.3606C17.0516 18.6946 16.8739 18.2061 16.5631 17.8509C16.2523 17.54 15.8526 17.4068 15.2754 17.4068H14.032V21.4477H15.1866V21.4033V21.4033Z" fill="#1D1D1B"/>
<path d="M18.1173 19.8935V17.1404H18.3837V19.8935C18.3837 20.9592 18.8278 21.492 19.8935 21.492C20.9592 21.492 21.3145 20.9148 21.3145 19.8491V17.0959H21.5809V19.8491C21.5809 21.0924 21.0036 21.7141 19.8491 21.7141C18.6502 21.7585 18.1173 21.0924 18.1173 19.8935V19.8935Z" fill="#1D1D1B"/>
<path d="M22.4246 19.405C22.4246 17.984 23.2683 17.0515 24.5116 17.0515C25.4885 17.0515 26.2434 17.6732 26.3766 18.5169H26.1102C25.9326 17.762 25.3109 17.3179 24.5116 17.3179C23.4459 17.3179 22.691 18.1616 22.691 19.4494C22.691 20.7371 23.4015 21.5808 24.4672 21.5808C25.3997 21.5808 26.0214 20.9592 26.1546 19.9822H26.421C26.3322 21.0924 25.5329 21.8473 24.4672 21.8473C23.2683 21.7584 22.4246 20.7815 22.4246 19.405V19.405Z" fill="#1D1D1B"/>
<path d="M27.0426 19.405C27.0426 17.984 27.8863 17.0515 29.1296 17.0515C30.1065 17.0515 30.8614 17.6732 30.9946 18.5169H30.7282C30.5506 17.762 29.9289 17.3179 29.1296 17.3179C28.0639 17.3179 27.309 18.1616 27.309 19.4494C27.309 20.7371 28.0195 21.5808 29.0852 21.5808C30.0177 21.5808 30.6394 20.9592 30.7726 19.9822H31.039C30.9502 21.0924 30.1509 21.8473 29.0852 21.8473C27.8863 21.7584 27.0426 20.7815 27.0426 19.405V19.405Z" fill="#1D1D1B"/>
<path d="M31.8828 17.1404H32.1492V21.6697H31.8828V17.1404V17.1404Z" fill="#1D1D1B"/>
<path d="M33.0374 19.405C33.0374 17.984 33.881 17.0515 35.2132 17.0515C36.4565 17.0515 37.3446 18.0284 37.3446 19.4494C37.3446 20.8703 36.5009 21.7584 35.1688 21.7584C33.9255 21.7584 33.0374 20.7815 33.0374 19.405V19.405ZM37.0782 19.405C37.0782 18.1616 36.3233 17.2735 35.2132 17.2735C34.1031 17.2735 33.3482 18.1172 33.3482 19.405C33.3482 20.6927 34.1031 21.5364 35.2132 21.5364C36.3233 21.492 37.0782 20.6483 37.0782 19.405Z" fill="#1D1D1B"/>
<path d="M38.2327 17.1404H38.5435L41.0302 20.6484C41.2078 20.9148 41.341 21.1368 41.4742 21.3144V17.1404H41.7407V21.6697H41.4298L38.8987 18.1173L38.4991 17.4956V21.7141H38.2327V17.1404V17.1404Z" fill="#1D1D1B"/>
<path d="M42.8508 17.1404H45.8704V17.3624H43.1173V19.183H45.6927V19.405H43.1173V21.4033H45.9148V21.6253H42.8508V17.1404V17.1404Z" fill="#1D1D1B"/>
<path d="M46.27 20.1598H46.5365C46.5365 21.0479 47.0693 21.492 48.0906 21.492C48.9787 21.492 49.5116 21.0923 49.5116 20.4707C49.5116 20.1598 49.334 19.8934 49.0675 19.7602C48.8455 19.6714 48.7123 19.627 48.0018 19.4494C47.2913 19.2717 47.0693 19.2273 46.8473 19.0497C46.5809 18.8721 46.4476 18.5613 46.4476 18.206C46.4476 17.4511 47.0249 17.0071 48.0018 17.0071C48.9787 17.0071 49.6004 17.4067 49.6892 18.3836H49.4228C49.334 17.5843 48.8455 17.2291 48.0018 17.2291C47.2025 17.2291 46.7585 17.5843 46.7585 18.1616C46.7585 18.5169 46.9361 18.7389 47.2469 18.8721C47.3949 18.9313 47.765 19.0349 48.3571 19.1829C48.9787 19.3161 49.1563 19.4049 49.3784 19.5382C49.6892 19.7158 49.8224 20.0266 49.8224 20.3819C49.8224 21.1811 49.2007 21.6696 48.135 21.6696C46.9361 21.714 46.27 21.2256 46.27 20.1598V20.1598Z" fill="#1D1D1B"/>
<path d="M3.77442 4.12969V13.4547H0.976909V4.12969H0V3.64124H0.976909V2.53111C0.976909 1.82063 1.24334 1.24337 1.73179 0.754913C2.22025 0.266458 2.79751 0.0444336 3.50799 0.0444336C3.81883 0.0444336 4.17407 0.0888386 4.4849 0.222053C4.79574 0.355268 5.06217 0.532888 5.28419 0.754913L4.92895 1.11015C4.79574 0.932533 4.57371 0.799318 4.39609 0.710508C4.17407 0.621698 3.99645 0.532888 3.77442 0.532888V3.64124H6.03908V4.12969H3.77442V4.12969Z" fill="#1D1D1B"/>
<path d="M7.72645 8.34816V11.1901C7.72645 11.6785 7.90407 12.0782 8.25931 12.4334C8.61455 12.7887 9.01419 12.9663 9.50265 12.9663C10.2575 12.9663 11.0124 12.7887 11.7229 12.389C12.4334 11.9894 12.9662 11.4565 13.3659 10.7904L13.8099 11.0569C13.3659 11.8118 12.7886 12.389 11.9893 12.8331C11.19 13.2771 10.3907 13.4991 9.54705 13.4991C8.2149 13.4991 7.06037 13.0107 6.12787 12.0338C5.19536 11.0569 4.70691 9.90234 4.70691 8.57019C4.70691 7.23804 5.19536 6.08351 6.12787 5.1066C7.06037 4.12969 8.2149 3.64124 9.54705 3.64124C10.2131 3.64124 10.7904 3.73005 11.3233 3.95207C11.8117 4.17409 12.2558 4.44052 12.611 4.84017C13.0994 5.32862 13.4103 5.86148 13.6323 6.48315C13.8099 7.10482 13.9431 7.72649 14.032 8.39257H7.72645V8.34816V8.34816ZM11.3233 6.8828V5.90589C11.3233 5.41743 11.1456 5.01779 10.7904 4.66255C10.4352 4.30731 10.0355 4.12969 9.54705 4.12969C9.0586 4.12969 8.65895 4.30731 8.30371 4.66255C7.94847 5.01779 7.77085 5.41743 7.77085 5.90589V7.85971H11.3233V6.8828V6.8828Z" fill="#1D1D1B"/>
<path d="M17.096 4.12966V12.9663C17.5844 12.9218 18.0285 12.6998 18.3393 12.3002C18.6945 11.9005 18.8278 11.4565 18.8278 10.968V10.6128H19.3162V10.968C19.3162 11.6785 19.0942 12.2558 18.6057 12.7442C18.1173 13.2327 17.54 13.4547 16.8295 13.4547C16.1191 13.4547 15.5418 13.2327 15.0533 12.7442C14.5649 12.2558 14.2985 11.6785 14.2985 10.968V4.12966H13.7212V3.64121H14.3429V0.53286H13.7212V0H14.6093C15.3198 0 15.897 0.222025 16.3855 0.71048C16.8739 1.19893 17.1404 1.7762 17.1404 2.48668V3.64121H18.3837V4.12966H17.096V4.12966Z" fill="#1D1D1B"/>
<path d="M22.9574 12.6998C22.4689 13.1883 21.8917 13.4103 21.1812 13.4103C20.4707 13.4103 19.8935 13.1883 19.405 12.6998C18.9165 12.2114 18.6945 11.6341 18.6945 10.9236V4.08526H18.0284V3.5968H18.9165C19.627 3.5968 20.2043 3.81883 20.6927 4.30728C21.1812 4.79574 21.4032 5.373 21.4032 6.08348V12.9663C21.8917 12.9218 22.3357 12.6998 22.6466 12.3002C23.0018 11.9005 23.135 11.4565 23.135 10.968V10.6128H23.6235V10.968C23.7123 11.6341 23.4459 12.2114 22.9574 12.6998M21.1368 2.53108C20.8704 2.79751 20.5151 2.97513 20.1155 2.97513C19.7158 2.97513 19.3606 2.84192 19.0942 2.53108C18.8277 2.26465 18.6945 1.90941 18.6945 1.50977C18.6945 1.11012 18.8277 0.754885 19.0942 0.44405C19.3606 0.17762 19.7158 0 20.1155 0C20.5151 0 20.8704 0.133215 21.1368 0.44405C21.4032 0.71048 21.5808 1.06572 21.5808 1.50977C21.5808 1.90941 21.4476 2.22025 21.1368 2.53108Z" fill="#1D1D1B"/>
<path d="M29.3517 13.0551C28.73 13.3215 28.1084 13.4103 27.4867 13.4103H27.3091C26.7318 13.3659 26.1989 13.2327 25.6217 13.0107C25.0888 12.7886 24.556 12.4334 24.1563 11.9893C23.6679 11.5009 23.3126 10.968 23.0906 10.3464C22.8686 9.72469 22.7354 9.14742 22.7354 8.48135C22.7354 7.85968 22.8686 7.23801 23.0906 6.61634C23.3126 5.99467 23.6679 5.46181 24.1563 5.01776C24.6448 4.52931 25.1776 4.17407 25.7549 3.95204C26.3322 3.73002 26.9538 3.5968 27.5755 3.5968H27.8863C28.3304 3.64121 28.73 3.68561 29.1741 3.86323C29.6181 3.99645 29.9734 4.21847 30.373 4.4849C30.5506 4.61812 30.6838 4.75133 30.7727 4.92895C30.8615 5.10657 30.9059 5.28419 30.9059 5.46181C30.9059 5.72824 30.8171 5.99467 30.595 6.2611C30.373 6.48313 30.1066 6.61634 29.7513 6.61634C29.3961 6.61634 29.1297 6.48313 28.9076 6.2611C28.6856 6.03908 28.5968 5.72824 28.5968 5.46181C28.5968 5.23979 28.6412 5.06217 28.7744 4.88455C28.8632 4.70693 29.0409 4.57371 29.2629 4.4405C28.9965 4.30728 28.73 4.21847 28.4636 4.17407C28.1972 4.12966 27.8863 4.08526 27.6199 4.08526C27.1314 4.08526 26.7318 4.26288 26.3766 4.61812C26.0213 4.97336 25.8437 5.373 25.8437 5.86146V11.1901C25.8437 11.6785 26.0213 12.0782 26.3766 12.4334C26.7318 12.7886 27.1758 12.9663 27.6199 12.9663C28.1972 12.9663 28.7744 12.833 29.3073 12.611C29.8401 12.389 30.3286 12.0337 30.7282 11.6341L31.0835 11.9893C30.5062 12.4334 29.9734 12.833 29.3517 13.0551Z" fill="#1D1D1B"/>
<path d="M41.4298 11.7673C41.341 12.0782 41.119 12.4334 40.8082 12.7442C40.5861 12.9663 40.3641 13.1439 40.0977 13.2327C39.8312 13.3659 39.6092 13.4103 39.3428 13.4547H39.0764C38.4547 13.4547 37.8774 13.2327 37.3446 12.7886C36.8117 12.3446 36.5897 11.7229 36.5897 10.968V5.3286C36.5897 5.28419 36.5897 5.23979 36.5453 5.15098C36.5009 4.92895 36.3677 4.75133 36.2344 4.57371C36.1012 4.39609 35.9236 4.30728 35.7016 4.30728H35.4352C35.4055 4.30728 35.3759 4.32208 35.3463 4.35169C34.9023 4.52931 34.5915 4.79574 34.325 5.19538C34.0586 5.59503 33.9254 6.03908 33.881 6.48313V13.4547H31.0835V0.53286H30.4618V0H31.3499C32.016 0 32.6376 0.26643 33.1261 0.754885C33.659 1.24334 33.881 1.8206 33.881 2.53108V4.97336C34.1474 4.57371 34.5026 4.26288 34.9467 4.04085C35.3907 3.81883 35.8348 3.68561 36.3233 3.68561C37.1225 3.68561 37.833 3.95204 38.4103 4.52931C38.9875 5.10657 39.254 5.77265 39.254 6.61634V13.0107C39.7424 12.9663 40.1865 12.7442 40.4973 12.3446C40.8526 11.9449 40.9858 11.5009 40.9858 11.0124V10.6128H41.4742C41.563 11.0568 41.5186 11.4121 41.4298 11.7673Z" fill="#1D1D1B"/>
<path d="M43.65 8.34816V11.1901C43.65 11.6785 43.8277 12.0782 44.1829 12.4334C44.5381 12.7887 44.9378 12.9663 45.4262 12.9663C46.1811 12.9663 46.936 12.7887 47.6465 12.389C48.357 11.9894 48.8898 11.4565 49.2895 10.7904L49.7335 11.0569C49.2895 11.8118 48.7122 12.389 47.9129 12.8331C47.1136 13.2771 46.3143 13.4991 45.4706 13.4991C44.1385 13.4991 42.984 13.0107 42.0515 12.0338C41.1189 11.0569 40.6305 9.90234 40.6305 8.57019C40.6305 7.23804 41.0745 6.08351 42.0515 5.1066C42.984 4.12969 44.1385 3.64124 45.4706 3.64124C46.1367 3.64124 46.714 3.73005 47.2468 3.95207C47.7353 4.17409 48.1793 4.44052 48.579 4.84017C49.0674 5.32862 49.3783 5.86148 49.6003 6.48315C49.7779 7.10482 49.9111 7.72649 49.9999 8.39257H43.65V8.34816V8.34816ZM47.2024 6.8828V5.90589C47.2024 5.41743 47.0248 5.01779 46.6696 4.66255C46.3143 4.30731 45.9147 4.12969 45.4262 4.12969C44.9378 4.12969 44.5381 4.30731 44.1829 4.66255C43.8277 5.01779 43.65 5.41743 43.65 5.90589V7.85971H47.2024V6.8828V6.8828Z" fill="#1D1D1B"/>
<path d="M3.77442 4.12969V13.4547H0.976909V4.12969H0V3.64124H0.976909V2.53111C0.976909 1.82063 1.24334 1.24337 1.73179 0.754913C2.22025 0.266458 2.79751 0.0444336 3.50799 0.0444336C3.81883 0.0444336 4.17407 0.0888386 4.4849 0.222053C4.79574 0.355268 5.06217 0.532888 5.28419 0.754913L4.92895 1.11015C4.79574 0.932533 4.57371 0.799318 4.39609 0.710508C4.17407 0.621698 3.99645 0.532888 3.77442 0.532888V3.64124H6.03908V4.12969H3.77442V4.12969Z" fill="#1D1D1B"/>
<path d="M7.72645 8.34816V11.1901C7.72645 11.6785 7.90407 12.0782 8.25931 12.4334C8.61455 12.7887 9.01419 12.9663 9.50265 12.9663C10.2575 12.9663 11.0124 12.7887 11.7229 12.389C12.4334 11.9894 12.9662 11.4565 13.3659 10.7904L13.8099 11.0569C13.3659 11.8118 12.7886 12.389 11.9893 12.8331C11.19 13.2771 10.3907 13.4991 9.54705 13.4991C8.2149 13.4991 7.06037 13.0107 6.12787 12.0338C5.19536 11.0569 4.70691 9.90234 4.70691 8.57019C4.70691 7.23804 5.19536 6.08351 6.12787 5.1066C7.06037 4.12969 8.2149 3.64124 9.54705 3.64124C10.2131 3.64124 10.7904 3.73005 11.3233 3.95207C11.8117 4.17409 12.2558 4.44052 12.611 4.84017C13.0994 5.32862 13.4103 5.86148 13.6323 6.48315C13.8099 7.10482 13.9431 7.72649 14.032 8.39257H7.72645V8.34816V8.34816ZM11.3233 6.8828V5.90589C11.3233 5.41743 11.1456 5.01779 10.7904 4.66255C10.4352 4.30731 10.0355 4.12969 9.54705 4.12969C9.0586 4.12969 8.65895 4.30731 8.30371 4.66255C7.94847 5.01779 7.77085 5.41743 7.77085 5.90589V7.85971H11.3233V6.8828V6.8828Z" fill="#1D1D1B"/>
<path d="M17.096 4.12966V12.9663C17.5844 12.9218 18.0285 12.6998 18.3393 12.3002C18.6945 11.9005 18.8278 11.4565 18.8278 10.968V10.6128H19.3162V10.968C19.3162 11.6785 19.0942 12.2558 18.6057 12.7442C18.1173 13.2327 17.54 13.4547 16.8295 13.4547C16.1191 13.4547 15.5418 13.2327 15.0533 12.7442C14.5649 12.2558 14.2985 11.6785 14.2985 10.968V4.12966H13.7212V3.64121H14.3429V0.53286H13.7212V0H14.6093C15.3198 0 15.897 0.222025 16.3855 0.71048C16.8739 1.19893 17.1404 1.7762 17.1404 2.48668V3.64121H18.3837V4.12966H17.096V4.12966Z" fill="#1D1D1B"/>
<path d="M22.9574 12.6998C22.4689 13.1883 21.8917 13.4103 21.1812 13.4103C20.4707 13.4103 19.8935 13.1883 19.405 12.6998C18.9165 12.2114 18.6945 11.6341 18.6945 10.9236V4.08526H18.0284V3.5968H18.9165C19.627 3.5968 20.2043 3.81883 20.6927 4.30728C21.1812 4.79574 21.4032 5.373 21.4032 6.08348V12.9663C21.8917 12.9218 22.3357 12.6998 22.6466 12.3002C23.0018 11.9005 23.135 11.4565 23.135 10.968V10.6128H23.6235V10.968C23.7123 11.6341 23.4459 12.2114 22.9574 12.6998M21.1368 2.53108C20.8704 2.79751 20.5151 2.97513 20.1155 2.97513C19.7158 2.97513 19.3606 2.84192 19.0942 2.53108C18.8277 2.26465 18.6945 1.90941 18.6945 1.50977C18.6945 1.11012 18.8277 0.754885 19.0942 0.44405C19.3606 0.17762 19.7158 0 20.1155 0C20.5151 0 20.8704 0.133215 21.1368 0.44405C21.4032 0.71048 21.5808 1.06572 21.5808 1.50977C21.5808 1.90941 21.4476 2.22025 21.1368 2.53108Z" fill="#1D1D1B"/>
<path d="M29.3517 13.0551C28.73 13.3215 28.1084 13.4103 27.4867 13.4103H27.3091C26.7318 13.3659 26.1989 13.2327 25.6217 13.0107C25.0888 12.7886 24.556 12.4334 24.1563 11.9893C23.6679 11.5009 23.3126 10.968 23.0906 10.3464C22.8686 9.72469 22.7354 9.14742 22.7354 8.48135C22.7354 7.85968 22.8686 7.23801 23.0906 6.61634C23.3126 5.99467 23.6679 5.46181 24.1563 5.01776C24.6448 4.52931 25.1776 4.17407 25.7549 3.95204C26.3322 3.73002 26.9538 3.5968 27.5755 3.5968H27.8863C28.3304 3.64121 28.73 3.68561 29.1741 3.86323C29.6181 3.99645 29.9734 4.21847 30.373 4.4849C30.5506 4.61812 30.6838 4.75133 30.7727 4.92895C30.8615 5.10657 30.9059 5.28419 30.9059 5.46181C30.9059 5.72824 30.8171 5.99467 30.595 6.2611C30.373 6.48313 30.1066 6.61634 29.7513 6.61634C29.3961 6.61634 29.1297 6.48313 28.9076 6.2611C28.6856 6.03908 28.5968 5.72824 28.5968 5.46181C28.5968 5.23979 28.6412 5.06217 28.7744 4.88455C28.8632 4.70693 29.0409 4.57371 29.2629 4.4405C28.9965 4.30728 28.73 4.21847 28.4636 4.17407C28.1972 4.12966 27.8863 4.08526 27.6199 4.08526C27.1314 4.08526 26.7318 4.26288 26.3766 4.61812C26.0213 4.97336 25.8437 5.373 25.8437 5.86146V11.1901C25.8437 11.6785 26.0213 12.0782 26.3766 12.4334C26.7318 12.7886 27.1758 12.9663 27.6199 12.9663C28.1972 12.9663 28.7744 12.833 29.3073 12.611C29.8401 12.389 30.3286 12.0337 30.7282 11.6341L31.0835 11.9893C30.5062 12.4334 29.9734 12.833 29.3517 13.0551Z" fill="#1D1D1B"/>
<path d="M41.4298 11.7673C41.341 12.0782 41.119 12.4334 40.8082 12.7442C40.5861 12.9663 40.3641 13.1439 40.0977 13.2327C39.8312 13.3659 39.6092 13.4103 39.3428 13.4547H39.0764C38.4547 13.4547 37.8774 13.2327 37.3446 12.7886C36.8117 12.3446 36.5897 11.7229 36.5897 10.968V5.3286C36.5897 5.28419 36.5897 5.23979 36.5453 5.15098C36.5009 4.92895 36.3677 4.75133 36.2344 4.57371C36.1012 4.39609 35.9236 4.30728 35.7016 4.30728H35.4352C35.4055 4.30728 35.3759 4.32208 35.3463 4.35169C34.9023 4.52931 34.5915 4.79574 34.325 5.19538C34.0586 5.59503 33.9254 6.03908 33.881 6.48313V13.4547H31.0835V0.53286H30.4618V0H31.3499C32.016 0 32.6376 0.26643 33.1261 0.754885C33.659 1.24334 33.881 1.8206 33.881 2.53108V4.97336C34.1474 4.57371 34.5026 4.26288 34.9467 4.04085C35.3907 3.81883 35.8348 3.68561 36.3233 3.68561C37.1225 3.68561 37.833 3.95204 38.4103 4.52931C38.9875 5.10657 39.254 5.77265 39.254 6.61634V13.0107C39.7424 12.9663 40.1865 12.7442 40.4973 12.3446C40.8526 11.9449 40.9858 11.5009 40.9858 11.0124V10.6128H41.4742C41.563 11.0568 41.5186 11.4121 41.4298 11.7673Z" fill="#1D1D1B"/>
<path d="M43.65 8.34816V11.1901C43.65 11.6785 43.8277 12.0782 44.1829 12.4334C44.5381 12.7887 44.9378 12.9663 45.4262 12.9663C46.1811 12.9663 46.936 12.7887 47.6465 12.389C48.357 11.9894 48.8898 11.4565 49.2895 10.7904L49.7335 11.0569C49.2895 11.8118 48.7122 12.389 47.9129 12.8331C47.1136 13.2771 46.3143 13.4991 45.4706 13.4991C44.1385 13.4991 42.984 13.0107 42.0515 12.0338C41.1189 11.0569 40.6305 9.90234 40.6305 8.57019C40.6305 7.23804 41.0745 6.08351 42.0515 5.1066C42.984 4.12969 44.1385 3.64124 45.4706 3.64124C46.1367 3.64124 46.714 3.73005 47.2468 3.95207C47.7353 4.17409 48.1793 4.44052 48.579 4.84017C49.0674 5.32862 49.3783 5.86148 49.6003 6.48315C49.7779 7.10482 49.9111 7.72649 49.9999 8.39257H43.65V8.34816V8.34816ZM47.2024 6.8828V5.90589C47.2024 5.41743 47.0248 5.01779 46.6696 4.66255C46.3143 4.30731 45.9147 4.12969 45.4262 4.12969C44.9378 4.12969 44.5381 4.30731 44.1829 4.66255C43.8277 5.01779 43.65 5.41743 43.65 5.90589V7.85971H47.2024V6.8828V6.8828Z" fill="#1D1D1B"/>
</svg>
