<svg width="234" height="164" viewBox="0 0 234 164" fill="none" xmlns="http://www.w3.org/2000/svg">
<path d="M100.12 143.37L9.90997 99.04" stroke="#F7B4B8" stroke-miterlimit="10"/>
<path d="M223.12 92.37L132.91 48.04" stroke="#F7B4B8" stroke-miterlimit="10"/>
<path d="M136.36 81.21L79.34 109.05L50.64 95.05L107.75 67.2L136.36 81.21Z" fill="#C0C0BF"/>
<path d="M136.36 79.86L79.34 107.71L50.64 93.7L107.75 65.86L136.36 79.86Z" fill="#E6E6E6"/>
<path d="M106.742 88.5975C107.138 85.2296 101.491 81.7984 94.1301 80.9337C86.7691 80.069 80.4811 82.0982 80.0854 85.4661C79.6898 88.8339 85.3364 92.2651 92.6974 93.1299C100.058 93.9946 106.347 91.9654 106.742 88.5975Z" fill="white"/>
<path d="M100.45 90.74L98.64 89.91C97.99 90.21 97.35 90.46 96.71 90.64C96.07 90.82 95.44 90.96 94.8 91.06L92.42 89.97C93.07 89.88 93.78 89.75 94.54 89.57C95.3 89.39 95.96 89.18 96.51 88.95L93.71 87.67C92.59 87.87 91.62 88 90.82 88.06C90.02 88.12 89.3 88.1 88.68 88C88.06 87.9 87.44 87.71 86.84 87.44C86.24 87.17 85.83 86.85 85.64 86.52C85.45 86.19 85.45 85.85 85.64 85.49C85.83 85.13 86.2 84.8 86.73 84.47L85.35 83.84L86.33 83.36L87.67 83.98C88.25 83.72 88.84 83.5 89.45 83.33C90.06 83.16 90.73 83.02 91.45 82.91L92.89 84.21C92.3 84.31 91.74 84.43 91.24 84.57C90.74 84.71 90.29 84.86 89.9 85.01L92.56 86.23C93.33 86.08 94.1 85.96 94.87 85.86C95.64 85.76 96.39 85.74 97.13 85.79C97.87 85.84 98.61 86.04 99.33 86.37C100.23 86.78 100.72 87.25 100.81 87.78C100.9 88.31 100.48 88.86 99.56 89.43L101.41 90.28L100.43 90.76L100.45 90.74ZM91.09 86.45L88.97 85.48C88.81 85.59 88.7 85.7 88.65 85.81C88.6 85.92 88.59 86.01 88.65 86.11C88.71 86.21 88.82 86.29 88.99 86.37C89.16 86.45 89.35 86.5 89.55 86.53C89.75 86.56 89.97 86.57 90.22 86.55C90.47 86.53 90.76 86.5 91.1 86.45H91.09ZM97.43 88.43C97.69 88.23 97.81 88.06 97.79 87.9C97.77 87.74 97.62 87.6 97.34 87.47C97.17 87.39 96.99 87.34 96.78 87.32C96.57 87.3 96.34 87.29 96.08 87.31C95.82 87.33 95.52 87.36 95.18 87.41L97.43 88.44V88.43Z" fill="black"/>
<path d="M136.36 77.89L79.34 105.74L50.64 91.73L107.75 63.89L136.36 77.89Z" fill="#C0C0BF"/>
<path d="M136.36 76.55L79.34 104.39L50.64 90.38L107.75 62.54L136.36 76.55Z" fill="#E6E6E6"/>
<path d="M106.735 85.2802C107.13 81.9123 101.484 78.4811 94.1228 77.6164C86.7618 76.7516 80.4737 78.7808 80.0781 82.1487C79.6825 85.5166 85.3291 88.9478 92.6901 89.8125C100.051 90.6772 106.339 88.648 106.735 85.2802Z" fill="white"/>
<path d="M100.45 87.42L98.64 86.59C97.99 86.89 97.35 87.14 96.71 87.32C96.07 87.5 95.44 87.64 94.8 87.74L92.42 86.65C93.07 86.56 93.78 86.43 94.54 86.25C95.3 86.07 95.96 85.86 96.51 85.63L93.71 84.35C92.59 84.55 91.62 84.68 90.82 84.74C90.02 84.8 89.3 84.78 88.68 84.68C88.06 84.58 87.44 84.39 86.84 84.12C86.24 83.85 85.83 83.53 85.64 83.2C85.45 82.87 85.45 82.53 85.64 82.17C85.83 81.81 86.2 81.48 86.73 81.15L85.35 80.52L86.33 80.04L87.67 80.66C88.25 80.4 88.84 80.18 89.45 80.01C90.06 79.84 90.73 79.7 91.45 79.59L92.89 80.89C92.3 80.99 91.74 81.11 91.24 81.25C90.74 81.39 90.29 81.54 89.9 81.69L92.56 82.91C93.33 82.76 94.1 82.64 94.87 82.54C95.64 82.44 96.39 82.42 97.13 82.47C97.87 82.52 98.61 82.72 99.33 83.05C100.23 83.46 100.72 83.93 100.81 84.46C100.9 84.99 100.48 85.54 99.56 86.11L101.41 86.96L100.43 87.44L100.45 87.42ZM91.09 83.13L88.97 82.16C88.81 82.27 88.7 82.38 88.65 82.49C88.6 82.6 88.59 82.69 88.65 82.79C88.71 82.89 88.82 82.97 88.99 83.05C89.16 83.13 89.35 83.18 89.55 83.21C89.75 83.24 89.97 83.25 90.22 83.23C90.47 83.21 90.76 83.18 91.1 83.13H91.09ZM97.43 85.11C97.69 84.91 97.81 84.74 97.79 84.58C97.77 84.42 97.62 84.28 97.34 84.15C97.17 84.07 96.99 84.02 96.78 84C96.57 83.98 96.34 83.97 96.08 83.99C95.82 84.01 95.52 84.04 95.18 84.09L97.43 85.12V85.11Z" fill="black"/>
<path d="M136.36 74.58L79.34 102.42L50.64 88.41L107.75 60.57L136.36 74.58Z" fill="#C0C0BF"/>
<path d="M136.36 73.23L79.34 101.07L50.64 87.07L107.75 59.23L136.36 73.23Z" fill="#E6E6E6"/>
<path d="M106.747 81.964C107.143 78.5961 101.497 75.1649 94.1355 74.3002C86.7744 73.4355 80.4864 75.4647 80.0907 78.8325C79.6951 82.2004 85.3417 85.6316 92.7027 86.4963C100.064 87.3611 106.352 85.3319 106.747 81.964Z" fill="white"/>
<path d="M100.45 84.11L98.64 83.28C97.99 83.58 97.35 83.83 96.71 84.01C96.07 84.19 95.44 84.33 94.8 84.43L92.42 83.34C93.07 83.25 93.78 83.12 94.54 82.94C95.3 82.76 95.96 82.55 96.51 82.32L93.71 81.04C92.59 81.24 91.62 81.37 90.82 81.43C90.02 81.49 89.3 81.47 88.68 81.37C88.06 81.27 87.44 81.08 86.84 80.81C86.24 80.54 85.83 80.22 85.64 79.89C85.45 79.56 85.45 79.22 85.64 78.86C85.83 78.5 86.2 78.17 86.73 77.84L85.35 77.21L86.33 76.73L87.67 77.35C88.25 77.09 88.84 76.87 89.45 76.7C90.06 76.53 90.73 76.39 91.45 76.28L92.89 77.58C92.3 77.68 91.74 77.8 91.24 77.94C90.74 78.08 90.29 78.23 89.9 78.38L92.56 79.6C93.33 79.45 94.1 79.33 94.87 79.23C95.64 79.13 96.39 79.11 97.13 79.16C97.87 79.21 98.61 79.41 99.33 79.74C100.23 80.15 100.72 80.62 100.81 81.15C100.9 81.68 100.48 82.23 99.56 82.8L101.41 83.65L100.43 84.13L100.45 84.11ZM91.09 79.82L88.97 78.85C88.81 78.96 88.7 79.07 88.65 79.18C88.6 79.29 88.59 79.38 88.65 79.48C88.71 79.58 88.82 79.66 88.99 79.74C89.16 79.82 89.35 79.87 89.55 79.9C89.75 79.93 89.97 79.94 90.22 79.92C90.47 79.9 90.76 79.87 91.1 79.82H91.09ZM97.43 81.8C97.69 81.6 97.81 81.43 97.79 81.27C97.77 81.11 97.62 80.97 97.34 80.84C97.17 80.76 96.99 80.71 96.78 80.69C96.57 80.67 96.34 80.66 96.08 80.68C95.82 80.7 95.52 80.73 95.18 80.78L97.43 81.81V81.8Z" fill="black"/>
<path d="M176.81 101.46L119.79 129.3L91.09 115.3L148.2 87.45L176.81 101.46Z" fill="#F7B9BD"/>
<path d="M176.81 100.11L119.79 127.96L91.09 113.95L148.2 86.11L176.81 100.11Z" fill="#E6E6E6"/>
<path d="M147.183 108.846C147.579 105.478 141.932 102.047 134.571 101.183C127.21 100.318 120.922 102.347 120.527 105.715C120.131 109.083 125.777 112.514 133.139 113.379C140.5 114.243 146.788 112.214 147.183 108.846Z" fill="white"/>
<path d="M140.89 110.99L139.08 110.16C138.43 110.46 137.79 110.71 137.15 110.89C136.51 111.07 135.88 111.21 135.24 111.31L132.86 110.22C133.51 110.13 134.22 110 134.98 109.82C135.74 109.64 136.4 109.43 136.95 109.2L134.15 107.92C133.03 108.12 132.06 108.25 131.26 108.31C130.46 108.37 129.74 108.35 129.12 108.25C128.5 108.15 127.88 107.96 127.28 107.69C126.68 107.42 126.27 107.1 126.08 106.77C125.89 106.44 125.89 106.1 126.08 105.74C126.27 105.38 126.64 105.05 127.17 104.72L125.79 104.09L126.77 103.61L128.11 104.23C128.69 103.97 129.28 103.75 129.89 103.58C130.5 103.41 131.17 103.27 131.89 103.16L133.33 104.46C132.74 104.56 132.18 104.68 131.68 104.82C131.18 104.96 130.73 105.11 130.34 105.26L133 106.48C133.77 106.33 134.54 106.21 135.31 106.11C136.08 106.01 136.83 105.99 137.57 106.04C138.31 106.09 139.05 106.29 139.77 106.62C140.67 107.03 141.16 107.5 141.25 108.03C141.34 108.56 140.92 109.11 140 109.68L141.85 110.53L140.87 111.01L140.89 110.99ZM131.53 106.7L129.41 105.73C129.25 105.84 129.14 105.95 129.09 106.06C129.04 106.17 129.03 106.26 129.09 106.36C129.15 106.46 129.26 106.54 129.43 106.62C129.6 106.7 129.79 106.75 129.99 106.78C130.19 106.81 130.41 106.82 130.66 106.8C130.91 106.78 131.2 106.75 131.54 106.7H131.53ZM137.87 108.68C138.13 108.48 138.25 108.31 138.23 108.15C138.21 107.99 138.06 107.85 137.78 107.72C137.61 107.64 137.43 107.59 137.22 107.57C137.01 107.55 136.78 107.54 136.52 107.56C136.26 107.58 135.96 107.61 135.62 107.66L137.87 108.69V108.68Z" fill="black"/>
<path d="M176.81 98.15L119.79 125.99L91.09 111.98L148.2 84.14L176.81 98.15Z" fill="#F7B9BD"/>
<path d="M176.81 96.8L119.79 124.64L91.09 110.63L148.2 82.79L176.81 96.8Z" fill="#E6E6E6"/>
<path d="M147.186 105.529C147.581 102.161 141.935 98.7299 134.574 97.8652C127.213 97.0005 120.925 99.0297 120.529 102.398C120.134 105.765 125.78 109.197 133.141 110.061C140.502 110.926 146.79 108.897 147.186 105.529Z" fill="white"/>
<path d="M140.89 107.68L139.08 106.85C138.43 107.15 137.79 107.4 137.15 107.58C136.51 107.76 135.88 107.9 135.24 108L132.86 106.91C133.51 106.82 134.22 106.69 134.98 106.51C135.74 106.33 136.4 106.12 136.95 105.89L134.15 104.61C133.03 104.81 132.06 104.94 131.26 105C130.46 105.06 129.74 105.04 129.12 104.94C128.5 104.84 127.88 104.65 127.28 104.38C126.68 104.11 126.27 103.79 126.08 103.46C125.89 103.13 125.89 102.79 126.08 102.43C126.27 102.07 126.64 101.74 127.17 101.41L125.79 100.78L126.77 100.3L128.11 100.92C128.69 100.66 129.28 100.44 129.89 100.27C130.5 100.1 131.17 99.96 131.89 99.85L133.33 101.15C132.74 101.25 132.18 101.37 131.68 101.51C131.18 101.65 130.73 101.8 130.34 101.95L133 103.17C133.77 103.02 134.54 102.9 135.31 102.8C136.08 102.7 136.83 102.68 137.57 102.73C138.31 102.78 139.05 102.98 139.77 103.31C140.67 103.72 141.16 104.19 141.25 104.72C141.34 105.25 140.92 105.8 140 106.37L141.85 107.22L140.87 107.7L140.89 107.68ZM131.53 103.39L129.41 102.42C129.25 102.53 129.14 102.64 129.09 102.75C129.04 102.86 129.03 102.95 129.09 103.05C129.15 103.15 129.26 103.23 129.43 103.31C129.6 103.39 129.79 103.44 129.99 103.47C130.19 103.5 130.41 103.51 130.66 103.49C130.91 103.47 131.2 103.44 131.54 103.39H131.53ZM137.87 105.37C138.13 105.17 138.25 105 138.23 104.84C138.21 104.68 138.06 104.54 137.78 104.41C137.61 104.33 137.43 104.28 137.22 104.26C137.01 104.24 136.78 104.23 136.52 104.25C136.26 104.27 135.96 104.3 135.62 104.35L137.87 105.38V105.37Z" fill="black"/>
<path d="M176.81 94.83L119.79 122.67L91.09 108.67L148.2 80.82L176.81 94.83Z" fill="#F7B9BD"/>
<path d="M176.81 93.48L119.79 121.33L91.09 107.32L148.2 79.48L176.81 93.48Z" fill="#E6E6E6"/>
<path d="M147.188 102.213C147.584 98.8449 141.938 95.4137 134.576 94.549C127.215 93.6843 120.927 95.7135 120.532 99.0814C120.136 102.449 125.783 105.88 133.144 106.745C140.505 107.61 146.793 105.581 147.188 102.213Z" fill="white"/>
<path d="M140.89 104.36L139.08 103.53C138.43 103.83 137.79 104.08 137.15 104.26C136.51 104.44 135.88 104.58 135.24 104.68L132.86 103.59C133.51 103.5 134.22 103.37 134.98 103.19C135.74 103.01 136.4 102.8 136.95 102.57L134.15 101.29C133.03 101.49 132.06 101.62 131.26 101.68C130.46 101.74 129.74 101.72 129.12 101.62C128.5 101.52 127.88 101.33 127.28 101.06C126.68 100.79 126.27 100.47 126.08 100.14C125.89 99.81 125.89 99.47 126.08 99.11C126.27 98.75 126.64 98.42 127.17 98.09L125.79 97.46L126.77 96.98L128.11 97.6C128.69 97.34 129.28 97.12 129.89 96.95C130.5 96.78 131.17 96.64 131.89 96.53L133.33 97.83C132.74 97.93 132.18 98.05 131.68 98.19C131.18 98.33 130.73 98.48 130.34 98.63L133 99.85C133.77 99.7 134.54 99.58 135.31 99.48C136.08 99.38 136.83 99.36 137.57 99.41C138.31 99.46 139.05 99.66 139.77 99.99C140.67 100.4 141.16 100.87 141.25 101.4C141.34 101.93 140.92 102.48 140 103.05L141.85 103.9L140.87 104.38L140.89 104.36ZM131.53 100.07L129.41 99.1C129.25 99.21 129.14 99.32 129.09 99.43C129.04 99.54 129.03 99.63 129.09 99.73C129.15 99.83 129.26 99.91 129.43 99.99C129.6 100.07 129.79 100.12 129.99 100.15C130.19 100.18 130.41 100.19 130.66 100.17C130.91 100.15 131.2 100.12 131.54 100.07H131.53ZM137.87 102.05C138.13 101.85 138.25 101.68 138.23 101.52C138.21 101.36 138.06 101.22 137.78 101.09C137.61 101.01 137.43 100.96 137.22 100.94C137.01 100.92 136.78 100.91 136.52 100.93C136.26 100.95 135.96 100.98 135.62 101.03L137.87 102.06V102.05Z" fill="black"/>
<path d="M136.36 71.26L79.34 99.11L50.64 85.1L107.75 57.26L136.36 71.26Z" fill="#C0C0BF"/>
<path d="M136.36 69.92L79.34 97.76L50.64 83.75L107.75 55.91L136.36 69.92Z" fill="#E6E6E6"/>
<path d="M106.74 78.6466C107.136 75.2788 101.489 71.8476 94.1281 70.9828C86.7671 70.1181 80.4791 72.1473 80.0834 75.5152C79.6878 78.8831 85.3344 82.3143 92.6954 83.179C100.056 84.0437 106.344 82.0145 106.74 78.6466Z" fill="white"/>
<path d="M100.45 80.79L98.64 79.96C97.99 80.26 97.35 80.51 96.71 80.69C96.07 80.87 95.44 81.01 94.8 81.11L92.42 80.02C93.07 79.93 93.78 79.8 94.54 79.62C95.3 79.44 95.96 79.23 96.51 79L93.71 77.72C92.59 77.92 91.62 78.05 90.82 78.11C90.02 78.17 89.3 78.15 88.68 78.05C88.06 77.95 87.44 77.76 86.84 77.49C86.24 77.22 85.83 76.9 85.64 76.57C85.45 76.24 85.45 75.9 85.64 75.54C85.83 75.18 86.2 74.85 86.73 74.52L85.35 73.89L86.33 73.41L87.67 74.03C88.25 73.77 88.84 73.55 89.45 73.38C90.06 73.21 90.73 73.07 91.45 72.96L92.89 74.26C92.3 74.36 91.74 74.48 91.24 74.62C90.74 74.76 90.29 74.91 89.9 75.06L92.56 76.28C93.33 76.13 94.1 76.01 94.87 75.91C95.64 75.81 96.39 75.79 97.13 75.84C97.87 75.89 98.61 76.09 99.33 76.42C100.23 76.83 100.72 77.3 100.81 77.83C100.9 78.36 100.48 78.91 99.56 79.48L101.41 80.33L100.43 80.81L100.45 80.79ZM91.09 76.5L88.97 75.53C88.81 75.64 88.7 75.75 88.65 75.86C88.6 75.97 88.59 76.06 88.65 76.16C88.71 76.26 88.82 76.34 88.99 76.42C89.16 76.5 89.35 76.55 89.55 76.58C89.75 76.61 89.97 76.62 90.22 76.6C90.47 76.58 90.76 76.55 91.1 76.5H91.09ZM97.43 78.48C97.69 78.28 97.81 78.11 97.79 77.95C97.77 77.79 97.62 77.65 97.34 77.52C97.17 77.44 96.99 77.39 96.78 77.37C96.57 77.35 96.34 77.34 96.08 77.36C95.82 77.38 95.52 77.41 95.18 77.46L97.43 78.49V78.48Z" fill="black"/>
<path d="M136.36 67.95L79.34 95.79L50.64 81.78L107.75 53.94L136.36 67.95Z" fill="#C0C0BF"/>
<path d="M136.36 66.6L79.34 94.44L50.64 80.44L107.75 52.6L136.36 66.6Z" fill="#E6E6E6"/>
<path d="M106.743 75.3405C107.138 71.9726 101.492 68.5414 94.1307 67.6767C86.7697 66.8119 80.4816 68.8411 80.086 72.209C79.6904 75.5769 85.3369 79.0081 92.698 79.8728C100.059 80.7375 106.347 78.7083 106.743 75.3405Z" fill="white"/>
<path d="M100.45 77.48L98.64 76.65C97.99 76.95 97.35 77.2 96.71 77.38C96.07 77.56 95.44 77.7 94.8 77.8L92.42 76.71C93.07 76.62 93.78 76.49 94.54 76.31C95.3 76.13 95.96 75.92 96.51 75.69L93.71 74.41C92.59 74.61 91.62 74.74 90.82 74.8C90.02 74.86 89.3 74.84 88.68 74.74C88.06 74.64 87.44 74.45 86.84 74.18C86.24 73.91 85.83 73.59 85.64 73.26C85.45 72.93 85.45 72.59 85.64 72.23C85.83 71.87 86.2 71.54 86.73 71.21L85.35 70.58L86.33 70.1L87.67 70.72C88.25 70.46 88.84 70.24 89.45 70.07C90.06 69.9 90.73 69.76 91.45 69.65L92.89 70.95C92.3 71.05 91.74 71.17 91.24 71.31C90.74 71.45 90.29 71.6 89.9 71.75L92.56 72.97C93.33 72.82 94.1 72.7 94.87 72.6C95.64 72.5 96.39 72.48 97.13 72.53C97.87 72.58 98.61 72.78 99.33 73.11C100.23 73.52 100.72 73.99 100.81 74.52C100.9 75.05 100.48 75.6 99.56 76.17L101.41 77.02L100.43 77.5L100.45 77.48ZM91.09 73.19L88.97 72.22C88.81 72.33 88.7 72.44 88.65 72.55C88.6 72.66 88.59 72.75 88.65 72.85C88.71 72.95 88.82 73.03 88.99 73.11C89.16 73.19 89.35 73.24 89.55 73.27C89.75 73.3 89.97 73.31 90.22 73.29C90.47 73.27 90.76 73.24 91.1 73.19H91.09ZM97.43 75.17C97.69 74.97 97.81 74.8 97.79 74.64C97.77 74.48 97.62 74.34 97.34 74.21C97.17 74.13 96.99 74.08 96.78 74.06C96.57 74.04 96.34 74.03 96.08 74.05C95.82 74.07 95.52 74.1 95.18 74.15L97.43 75.18V75.17Z" fill="black"/>
<path d="M136.36 64.63L79.34 92.48L50.64 78.47L107.75 50.63L136.36 64.63Z" fill="#C0C0BF"/>
<path d="M136.36 63.29L79.34 91.13L50.64 77.12L107.75 49.28L136.36 63.29Z" fill="#E6E6E6"/>
<path d="M106.735 72.0231C107.131 68.6552 101.484 65.224 94.1234 64.3593C86.7623 63.4946 80.4743 65.5238 80.0787 68.8917C79.683 72.2595 85.3296 75.6907 92.6907 76.5555C100.052 77.4202 106.34 75.391 106.735 72.0231Z" fill="white"/>
<path d="M100.45 74.16L98.64 73.33C97.99 73.63 97.35 73.88 96.71 74.06C96.07 74.24 95.44 74.38 94.8 74.48L92.42 73.39C93.07 73.3 93.78 73.17 94.54 72.99C95.3 72.81 95.96 72.6 96.51 72.37L93.71 71.09C92.59 71.29 91.62 71.42 90.82 71.48C90.02 71.54 89.3 71.52 88.68 71.42C88.06 71.32 87.44 71.13 86.84 70.86C86.24 70.59 85.83 70.27 85.64 69.94C85.45 69.61 85.45 69.27 85.64 68.91C85.83 68.55 86.2 68.22 86.73 67.89L85.35 67.26L86.33 66.78L87.67 67.4C88.25 67.14 88.84 66.92 89.45 66.75C90.06 66.58 90.73 66.44 91.45 66.33L92.89 67.63C92.3 67.73 91.74 67.85 91.24 67.99C90.74 68.13 90.29 68.28 89.9 68.43L92.56 69.65C93.33 69.5 94.1 69.38 94.87 69.28C95.64 69.18 96.39 69.16 97.13 69.21C97.87 69.26 98.61 69.46 99.33 69.79C100.23 70.2 100.72 70.67 100.81 71.2C100.9 71.73 100.48 72.28 99.56 72.85L101.41 73.7L100.43 74.18L100.45 74.16ZM91.09 69.87L88.97 68.9C88.81 69.01 88.7 69.12 88.65 69.23C88.6 69.34 88.59 69.43 88.65 69.53C88.71 69.63 88.82 69.71 88.99 69.79C89.16 69.87 89.35 69.92 89.55 69.95C89.75 69.98 89.97 69.99 90.22 69.97C90.47 69.95 90.76 69.92 91.1 69.87H91.09ZM97.43 71.85C97.69 71.65 97.81 71.48 97.79 71.32C97.77 71.16 97.62 71.02 97.34 70.89C97.17 70.81 96.99 70.76 96.78 70.74C96.57 70.72 96.34 70.71 96.08 70.73C95.82 70.75 95.52 70.78 95.18 70.83L97.43 71.86V71.85Z" fill="black"/>
<path d="M136.36 61.32L79.34 89.16L50.64 75.15L107.75 47.31L136.36 61.32Z" fill="#C0C0BF"/>
<path d="M136.36 59.97L79.34 87.81L50.64 73.81L107.75 45.97L136.36 59.97Z" fill="#E6E6E6"/>
<path d="M106.748 68.7069C107.144 65.3391 101.497 61.9079 94.136 61.0431C86.775 60.1784 80.4869 62.2076 80.0913 65.5755C79.6957 68.9433 85.3422 72.3746 92.7033 73.2393C100.064 74.104 106.352 72.0748 106.748 68.7069Z" fill="white"/>
<path d="M100.45 70.85L98.64 70.02C97.99 70.32 97.35 70.57 96.71 70.75C96.07 70.93 95.44 71.07 94.8 71.17L92.42 70.08C93.07 69.99 93.78 69.86 94.54 69.68C95.3 69.5 95.96 69.29 96.51 69.06L93.71 67.78C92.59 67.98 91.62 68.11 90.82 68.17C90.02 68.23 89.3 68.21 88.68 68.11C88.06 68.01 87.44 67.82 86.84 67.55C86.24 67.28 85.83 66.96 85.64 66.63C85.45 66.3 85.45 65.96 85.64 65.6C85.83 65.24 86.2 64.91 86.73 64.58L85.35 63.95L86.33 63.47L87.67 64.09C88.25 63.83 88.84 63.61 89.45 63.44C90.06 63.27 90.73 63.13 91.45 63.02L92.89 64.32C92.3 64.42 91.74 64.54 91.24 64.68C90.74 64.82 90.29 64.97 89.9 65.12L92.56 66.34C93.33 66.19 94.1 66.07 94.87 65.97C95.64 65.87 96.39 65.85 97.13 65.9C97.87 65.95 98.61 66.15 99.33 66.48C100.23 66.89 100.72 67.36 100.81 67.89C100.9 68.42 100.48 68.97 99.56 69.54L101.41 70.39L100.43 70.87L100.45 70.85ZM91.09 66.56L88.97 65.59C88.81 65.7 88.7 65.81 88.65 65.92C88.6 66.03 88.59 66.12 88.65 66.22C88.71 66.32 88.82 66.4 88.99 66.48C89.16 66.56 89.35 66.61 89.55 66.64C89.75 66.67 89.97 66.68 90.22 66.66C90.47 66.64 90.76 66.61 91.1 66.56H91.09ZM97.43 68.54C97.69 68.34 97.81 68.17 97.79 68.01C97.77 67.85 97.62 67.71 97.34 67.58C97.17 67.5 96.99 67.45 96.78 67.43C96.57 67.41 96.34 67.4 96.08 67.42C95.82 67.44 95.52 67.47 95.18 67.52L97.43 68.55V68.54Z" fill="black"/>
<path d="M136.36 58L79.34 85.85L50.64 71.84L107.75 44L136.36 58Z" fill="#C0C0BF"/>
<path d="M136.36 56.66L79.34 84.5L50.64 70.49L107.75 42.65L136.36 56.66Z" fill="#E6E6E6"/>
<path d="M106.741 65.3896C107.136 62.0217 101.49 58.5905 94.1287 57.7258C86.7676 56.8611 80.4796 58.8903 80.084 62.2581C79.6883 65.626 85.3349 69.0572 92.696 69.9219C100.057 70.7867 106.345 68.7575 106.741 65.3896Z" fill="white"/>
<path d="M100.45 67.53L98.64 66.7C97.99 67 97.35 67.25 96.71 67.43C96.07 67.61 95.44 67.75 94.8 67.85L92.42 66.76C93.07 66.67 93.78 66.54 94.54 66.36C95.3 66.18 95.96 65.97 96.51 65.74L93.71 64.46C92.59 64.66 91.62 64.79 90.82 64.85C90.02 64.91 89.3 64.89 88.68 64.79C88.06 64.69 87.44 64.5 86.84 64.23C86.24 63.96 85.83 63.64 85.64 63.31C85.45 62.98 85.45 62.64 85.64 62.28C85.83 61.92 86.2 61.59 86.73 61.26L85.35 60.63L86.33 60.15L87.67 60.77C88.25 60.51 88.84 60.29 89.45 60.12C90.06 59.95 90.73 59.81 91.45 59.7L92.89 61C92.3 61.1 91.74 61.22 91.24 61.36C90.74 61.5 90.29 61.65 89.9 61.8L92.56 63.02C93.33 62.87 94.1 62.75 94.87 62.65C95.64 62.55 96.39 62.53 97.13 62.58C97.87 62.63 98.61 62.83 99.33 63.16C100.23 63.57 100.72 64.04 100.81 64.57C100.9 65.1 100.48 65.65 99.56 66.22L101.41 67.07L100.43 67.55L100.45 67.53ZM91.09 63.24L88.97 62.27C88.81 62.38 88.7 62.49 88.65 62.6C88.6 62.71 88.59 62.8 88.65 62.9C88.71 63 88.82 63.08 88.99 63.16C89.16 63.24 89.35 63.29 89.55 63.32C89.75 63.35 89.97 63.36 90.22 63.34C90.47 63.32 90.76 63.29 91.1 63.24H91.09ZM97.43 65.22C97.69 65.02 97.81 64.85 97.79 64.69C97.77 64.53 97.62 64.39 97.34 64.26C97.17 64.18 96.99 64.13 96.78 64.11C96.57 64.09 96.34 64.08 96.08 64.1C95.82 64.12 95.52 64.15 95.18 64.2L97.43 65.23V65.22Z" fill="black"/>
<path d="M136.36 54.69L79.34 82.53L50.64 68.52L107.75 40.68L136.36 54.69Z" fill="#C0C0BF"/>
<path d="M136.36 53.34L79.34 81.18L50.64 67.18L107.75 39.34L136.36 53.34Z" fill="#E6E6E6"/>
<path d="M106.743 62.0734C107.139 58.7055 101.492 55.2743 94.1313 54.4096C86.7703 53.5449 80.4822 55.5741 80.0866 58.9419C79.691 62.3098 85.3375 65.741 92.6986 66.6057C100.06 67.4705 106.348 65.4413 106.743 62.0734Z" fill="white"/>
<path d="M100.45 64.22L98.64 63.39C97.99 63.69 97.35 63.94 96.71 64.12C96.07 64.3 95.44 64.44 94.8 64.54L92.42 63.45C93.07 63.36 93.78 63.23 94.54 63.05C95.3 62.87 95.96 62.66 96.51 62.43L93.71 61.15C92.59 61.35 91.62 61.48 90.82 61.54C90.02 61.6 89.3 61.58 88.68 61.48C88.06 61.38 87.44 61.19 86.84 60.92C86.24 60.65 85.83 60.33 85.64 60C85.45 59.67 85.45 59.33 85.64 58.97C85.83 58.61 86.2 58.28 86.73 57.95L85.35 57.32L86.33 56.84L87.67 57.46C88.25 57.2 88.84 56.98 89.45 56.81C90.06 56.64 90.73 56.5 91.45 56.39L92.89 57.69C92.3 57.79 91.74 57.91 91.24 58.05C90.74 58.19 90.29 58.34 89.9 58.49L92.56 59.71C93.33 59.56 94.1 59.44 94.87 59.34C95.64 59.24 96.39 59.22 97.13 59.27C97.87 59.32 98.61 59.52 99.33 59.85C100.23 60.26 100.72 60.73 100.81 61.26C100.9 61.79 100.48 62.34 99.56 62.91L101.41 63.76L100.43 64.24L100.45 64.22ZM91.09 59.93L88.97 58.96C88.81 59.07 88.7 59.18 88.65 59.29C88.6 59.4 88.59 59.49 88.65 59.59C88.71 59.69 88.82 59.77 88.99 59.85C89.16 59.93 89.35 59.98 89.55 60.01C89.75 60.04 89.97 60.05 90.22 60.03C90.47 60.01 90.76 59.98 91.1 59.93H91.09ZM97.43 61.91C97.69 61.71 97.81 61.54 97.79 61.38C97.77 61.22 97.62 61.08 97.34 60.95C97.17 60.87 96.99 60.82 96.78 60.8C96.57 60.78 96.34 60.77 96.08 60.79C95.82 60.81 95.52 60.84 95.18 60.89L97.43 61.92V61.91Z" fill="black"/>
<path d="M136.36 51.37L79.34 79.22L50.64 65.21L107.75 37.37L136.36 51.37Z" fill="#C0C0BF"/>
<path d="M136.36 50.03L79.34 77.87L50.64 63.86L107.75 36.02L136.36 50.03Z" fill="#E6E6E6"/>
<path d="M106.736 58.7561C107.132 55.3882 101.485 51.957 94.124 51.0923C86.7629 50.2275 80.4749 52.2567 80.0793 55.6246C79.6836 58.9925 85.3302 62.4237 92.6913 63.2884C100.052 64.1531 106.34 62.1239 106.736 58.7561Z" fill="white"/>
<path d="M100.45 60.9L98.64 60.07C97.99 60.37 97.35 60.62 96.71 60.8C96.07 60.98 95.44 61.12 94.8 61.22L92.42 60.13C93.07 60.04 93.78 59.91 94.54 59.73C95.3 59.55 95.96 59.34 96.51 59.11L93.71 57.83C92.59 58.03 91.62 58.16 90.82 58.22C90.02 58.28 89.3 58.26 88.68 58.16C88.06 58.06 87.44 57.87 86.84 57.6C86.24 57.33 85.83 57.01 85.64 56.68C85.45 56.35 85.45 56.01 85.64 55.65C85.83 55.29 86.2 54.96 86.73 54.63L85.35 54L86.33 53.52L87.67 54.14C88.25 53.88 88.84 53.66 89.45 53.49C90.06 53.32 90.73 53.18 91.45 53.07L92.89 54.37C92.3 54.47 91.74 54.59 91.24 54.73C90.74 54.87 90.29 55.02 89.9 55.17L92.56 56.39C93.33 56.24 94.1 56.12 94.87 56.02C95.64 55.92 96.39 55.9 97.13 55.95C97.87 56 98.61 56.2 99.33 56.53C100.23 56.94 100.72 57.41 100.81 57.94C100.9 58.47 100.48 59.02 99.56 59.59L101.41 60.44L100.43 60.92L100.45 60.9ZM91.09 56.61L88.97 55.64C88.81 55.75 88.7 55.86 88.65 55.97C88.6 56.08 88.59 56.17 88.65 56.27C88.71 56.37 88.82 56.45 88.99 56.53C89.16 56.61 89.35 56.66 89.55 56.69C89.75 56.72 89.97 56.73 90.22 56.71C90.47 56.69 90.76 56.66 91.1 56.61H91.09ZM97.43 58.59C97.69 58.39 97.81 58.22 97.79 58.06C97.77 57.9 97.62 57.76 97.34 57.63C97.17 57.55 96.99 57.5 96.78 57.48C96.57 57.46 96.34 57.45 96.08 57.47C95.82 57.49 95.52 57.52 95.18 57.57L97.43 58.6V58.59Z" fill="black"/>
<path d="M136.36 48.06L79.34 75.9L50.64 61.89L107.75 34.05L136.36 48.06Z" fill="#C0C0BF"/>
<path d="M136.36 46.71L79.34 74.55L50.64 60.55L107.75 32.7L136.36 46.71Z" fill="#E6E6E6"/>
<path d="M106.749 55.4499C107.144 52.082 101.498 48.6508 94.1366 47.7861C86.7755 46.9214 80.4875 48.9506 80.0918 52.3184C79.6962 55.6863 85.3428 59.1175 92.7038 59.9822C100.065 60.8469 106.353 58.8177 106.749 55.4499Z" fill="white"/>
<path d="M100.45 57.59L98.64 56.76C97.99 57.06 97.35 57.31 96.71 57.49C96.07 57.67 95.44 57.81 94.8 57.91L92.42 56.82C93.07 56.73 93.78 56.6 94.54 56.42C95.3 56.24 95.96 56.03 96.51 55.8L93.71 54.52C92.59 54.72 91.62 54.85 90.82 54.91C90.02 54.97 89.3 54.95 88.68 54.85C88.06 54.75 87.44 54.56 86.84 54.29C86.24 54.02 85.83 53.7 85.64 53.37C85.45 53.04 85.45 52.7 85.64 52.34C85.83 51.98 86.2 51.65 86.73 51.32L85.35 50.69L86.33 50.21L87.67 50.83C88.25 50.57 88.84 50.35 89.45 50.18C90.06 50.01 90.73 49.87 91.45 49.76L92.89 51.06C92.3 51.16 91.74 51.28 91.24 51.42C90.74 51.56 90.29 51.71 89.9 51.86L92.56 53.08C93.33 52.93 94.1 52.81 94.87 52.71C95.64 52.61 96.39 52.59 97.13 52.64C97.87 52.69 98.61 52.89 99.33 53.22C100.23 53.63 100.72 54.1 100.81 54.63C100.9 55.16 100.48 55.71 99.56 56.28L101.41 57.13L100.43 57.61L100.45 57.59ZM91.09 53.3L88.97 52.33C88.81 52.44 88.7 52.55 88.65 52.66C88.6 52.77 88.59 52.86 88.65 52.96C88.71 53.06 88.82 53.14 88.99 53.22C89.16 53.3 89.35 53.35 89.55 53.38C89.75 53.41 89.97 53.42 90.22 53.4C90.47 53.38 90.76 53.35 91.1 53.3H91.09ZM97.43 55.28C97.69 55.08 97.81 54.91 97.79 54.75C97.77 54.59 97.62 54.45 97.34 54.32C97.17 54.24 96.99 54.19 96.78 54.17C96.57 54.15 96.34 54.14 96.08 54.16C95.82 54.18 95.52 54.21 95.18 54.26L97.43 55.29V55.28Z" fill="black"/>
<path d="M136.36 44.74L79.34 72.59L50.64 58.58L107.75 30.74L136.36 44.74Z" fill="#C0C0BF"/>
<path d="M136.36 43.4L79.34 71.24L50.64 57.23L107.75 29.39L136.36 43.4Z" fill="#E6E6E6"/>
<path d="M106.741 52.1325C107.137 48.7646 101.49 45.3335 94.1292 44.4687C86.7682 43.604 80.4802 45.6332 80.0845 49.0011C79.6889 52.3689 85.3355 55.8001 92.6965 56.6649C100.058 57.5296 106.346 55.5004 106.741 52.1325Z" fill="white"/>
<path d="M100.45 54.27L98.64 53.44C97.99 53.74 97.35 53.99 96.71 54.17C96.07 54.35 95.44 54.49 94.8 54.59L92.42 53.5C93.07 53.41 93.78 53.28 94.54 53.1C95.3 52.92 95.96 52.71 96.51 52.48L93.71 51.2C92.59 51.4 91.62 51.53 90.82 51.59C90.02 51.65 89.3 51.63 88.68 51.53C88.06 51.43 87.44 51.24 86.84 50.97C86.24 50.7 85.83 50.38 85.64 50.05C85.45 49.72 85.45 49.38 85.64 49.02C85.83 48.66 86.2 48.33 86.73 48L85.35 47.37L86.33 46.89L87.67 47.51C88.25 47.25 88.84 47.03 89.45 46.86C90.06 46.69 90.73 46.55 91.45 46.44L92.89 47.74C92.3 47.84 91.74 47.96 91.24 48.1C90.74 48.24 90.29 48.39 89.9 48.54L92.56 49.76C93.33 49.61 94.1 49.49 94.87 49.39C95.64 49.29 96.39 49.27 97.13 49.32C97.87 49.37 98.61 49.57 99.33 49.9C100.23 50.31 100.72 50.78 100.81 51.31C100.9 51.84 100.48 52.39 99.56 52.96L101.41 53.81L100.43 54.29L100.45 54.27ZM91.09 49.98L88.97 49.01C88.81 49.12 88.7 49.23 88.65 49.34C88.6 49.45 88.59 49.54 88.65 49.64C88.71 49.74 88.82 49.82 88.99 49.9C89.16 49.98 89.35 50.03 89.55 50.06C89.75 50.09 89.97 50.1 90.22 50.08C90.47 50.06 90.76 50.03 91.1 49.98H91.09ZM97.43 51.96C97.69 51.76 97.81 51.59 97.79 51.43C97.77 51.27 97.62 51.13 97.34 51C97.17 50.92 96.99 50.87 96.78 50.85C96.57 50.83 96.34 50.82 96.08 50.84C95.82 50.86 95.52 50.89 95.18 50.94L97.43 51.97V51.96Z" fill="black"/>
<path d="M136.36 41.43L79.34 69.27L50.64 55.26L107.75 27.42L136.36 41.43Z" fill="#C0C0BF"/>
<path d="M136.36 40.08L79.34 67.92L50.64 53.92L107.75 26.07L136.36 40.08Z" fill="#E6E6E6"/>
<path d="M106.744 48.8163C107.139 45.4485 101.493 42.0173 94.1319 41.1526C86.7708 40.2878 80.4828 42.317 80.0871 45.6849C79.6915 49.0528 85.3381 52.484 92.6991 53.3487C100.06 54.2134 106.348 52.1842 106.744 48.8163Z" fill="white"/>
<path d="M100.45 50.96L98.64 50.13C97.99 50.43 97.35 50.68 96.71 50.86C96.07 51.04 95.44 51.18 94.8 51.28L92.42 50.19C93.07 50.1 93.78 49.97 94.54 49.79C95.3 49.61 95.96 49.4 96.51 49.17L93.71 47.89C92.59 48.09 91.62 48.22 90.82 48.28C90.02 48.34 89.3 48.32 88.68 48.22C88.06 48.12 87.44 47.93 86.84 47.66C86.24 47.39 85.83 47.07 85.64 46.74C85.45 46.41 85.45 46.07 85.64 45.71C85.83 45.35 86.2 45.02 86.73 44.69L85.35 44.06L86.33 43.58L87.67 44.2C88.25 43.94 88.84 43.72 89.45 43.55C90.06 43.38 90.73 43.24 91.45 43.13L92.89 44.43C92.3 44.53 91.74 44.65 91.24 44.79C90.74 44.93 90.29 45.08 89.9 45.23L92.56 46.45C93.33 46.3 94.1 46.18 94.87 46.08C95.64 45.98 96.39 45.96 97.13 46.01C97.87 46.06 98.61 46.26 99.33 46.59C100.23 47 100.72 47.47 100.81 48C100.9 48.53 100.48 49.08 99.56 49.65L101.41 50.5L100.43 50.98L100.45 50.96ZM91.09 46.67L88.97 45.7C88.81 45.81 88.7 45.92 88.65 46.03C88.6 46.14 88.59 46.23 88.65 46.33C88.71 46.43 88.82 46.51 88.99 46.59C89.16 46.67 89.35 46.72 89.55 46.75C89.75 46.78 89.97 46.79 90.22 46.77C90.47 46.75 90.76 46.72 91.1 46.67H91.09ZM97.43 48.65C97.69 48.45 97.81 48.28 97.79 48.12C97.77 47.96 97.62 47.82 97.34 47.69C97.17 47.61 96.99 47.56 96.78 47.54C96.57 47.52 96.34 47.51 96.08 47.53C95.82 47.55 95.52 47.58 95.18 47.63L97.43 48.66V48.65Z" fill="black"/>
<path d="M136.36 38.11L79.34 65.96L50.64 51.95L107.75 24.11L136.36 38.11Z" fill="#C0C0BF"/>
<path d="M136.36 36.77L79.34 64.61L50.64 50.6L107.75 22.76L136.36 36.77Z" fill="#E6E6E6"/>
<path d="M106.737 45.499C107.132 42.1311 101.486 38.6999 94.1245 37.8352C86.7635 36.9705 80.4755 38.9997 80.0798 42.3676C79.6842 45.7354 85.3308 49.1666 92.6918 50.0314C100.053 50.8961 106.341 48.8669 106.737 45.499Z" fill="white"/>
<path d="M100.45 47.64L98.64 46.81C97.99 47.11 97.35 47.36 96.71 47.54C96.07 47.72 95.44 47.86 94.8 47.96L92.42 46.87C93.07 46.78 93.78 46.65 94.54 46.47C95.3 46.29 95.96 46.08 96.51 45.85L93.71 44.57C92.59 44.77 91.62 44.9 90.82 44.96C90.02 45.02 89.3 45 88.68 44.9C88.06 44.8 87.44 44.61 86.84 44.34C86.24 44.07 85.83 43.75 85.64 43.42C85.45 43.09 85.45 42.75 85.64 42.39C85.83 42.03 86.2 41.7 86.73 41.37L85.35 40.74L86.33 40.26L87.67 40.88C88.25 40.62 88.84 40.4 89.45 40.23C90.06 40.06 90.73 39.92 91.45 39.81L92.89 41.11C92.3 41.21 91.74 41.33 91.24 41.47C90.74 41.61 90.29 41.76 89.9 41.91L92.56 43.13C93.33 42.98 94.1 42.86 94.87 42.76C95.64 42.66 96.39 42.64 97.13 42.69C97.87 42.74 98.61 42.94 99.33 43.27C100.23 43.68 100.72 44.15 100.81 44.68C100.9 45.21 100.48 45.76 99.56 46.33L101.41 47.18L100.43 47.66L100.45 47.64ZM91.09 43.35L88.97 42.38C88.81 42.49 88.7 42.6 88.65 42.71C88.6 42.82 88.59 42.91 88.65 43.01C88.71 43.11 88.82 43.19 88.99 43.27C89.16 43.35 89.35 43.4 89.55 43.43C89.75 43.46 89.97 43.47 90.22 43.45C90.47 43.43 90.76 43.4 91.1 43.35H91.09ZM97.43 45.33C97.69 45.13 97.81 44.96 97.79 44.8C97.77 44.64 97.62 44.5 97.34 44.37C97.17 44.29 96.99 44.24 96.78 44.22C96.57 44.2 96.34 44.19 96.08 44.21C95.82 44.23 95.52 44.26 95.18 44.31L97.43 45.34V45.33Z" fill="black"/>
<path d="M136.36 34.8L79.34 62.64L50.64 48.63L107.75 20.79L136.36 34.8Z" fill="#C0C0BF"/>
<path d="M136.36 33.45L79.34 61.29L50.64 47.29L107.75 19.44L136.36 33.45Z" fill="#E6E6E6"/>
<path d="M106.749 42.1828C107.145 38.8149 101.498 35.3837 94.1371 34.519C86.7761 33.6543 80.488 35.6835 80.0924 39.0514C79.6968 42.4192 85.3433 45.8504 92.7044 46.7152C100.065 47.5799 106.353 45.5507 106.749 42.1828Z" fill="white"/>
<path d="M100.45 44.33L98.64 43.5C97.99 43.8 97.35 44.05 96.71 44.23C96.07 44.41 95.44 44.55 94.8 44.65L92.42 43.56C93.07 43.47 93.78 43.34 94.54 43.16C95.3 42.98 95.96 42.77 96.51 42.54L93.71 41.26C92.59 41.46 91.62 41.59 90.82 41.65C90.02 41.71 89.3 41.69 88.68 41.59C88.06 41.49 87.44 41.3 86.84 41.03C86.24 40.76 85.83 40.44 85.64 40.11C85.45 39.78 85.45 39.44 85.64 39.08C85.83 38.72 86.2 38.39 86.73 38.06L85.35 37.43L86.33 36.95L87.67 37.57C88.25 37.31 88.84 37.09 89.45 36.92C90.06 36.75 90.73 36.61 91.45 36.5L92.89 37.8C92.3 37.9 91.74 38.02 91.24 38.16C90.74 38.3 90.29 38.45 89.9 38.6L92.56 39.82C93.33 39.67 94.1 39.55 94.87 39.45C95.64 39.35 96.39 39.33 97.13 39.38C97.87 39.43 98.61 39.63 99.33 39.96C100.23 40.37 100.72 40.84 100.81 41.37C100.9 41.9 100.48 42.45 99.56 43.02L101.41 43.87L100.43 44.35L100.45 44.33ZM91.09 40.04L88.97 39.07C88.81 39.18 88.7 39.29 88.65 39.4C88.6 39.51 88.59 39.6 88.65 39.7C88.71 39.8 88.82 39.88 88.99 39.96C89.16 40.04 89.35 40.09 89.55 40.12C89.75 40.15 89.97 40.16 90.22 40.14C90.47 40.12 90.76 40.09 91.1 40.04H91.09ZM97.43 42.02C97.69 41.82 97.81 41.65 97.79 41.49C97.77 41.33 97.62 41.19 97.34 41.06C97.17 40.98 96.99 40.93 96.78 40.91C96.57 40.89 96.34 40.88 96.08 40.9C95.82 40.92 95.52 40.95 95.18 41L97.43 42.03V42.02Z" fill="black"/>
<path d="M158.26 67.45V19.44H153.77V67.45H147.84L156.02 75.63L164.2 67.45H158.26Z" fill="#E30613"/>
</svg>
