<svg width="234" height="164" viewBox="0 0 234 164" fill="none" xmlns="http://www.w3.org/2000/svg">
<path d="M128.17 81.35L218.27 125.68" stroke="#F7B4B8" stroke-miterlimit="10"/>
<path d="M16.1699 99.35L106.27 143.68" stroke="#F7B4B8" stroke-miterlimit="10"/>
<path d="M72.7399 90.14L67.9999 97.55L152.12 138.72L158.46 132.3L165.02 132.21L81.53 91.03L72.7399 90.14Z" fill="#C0C0BF"/>
<path d="M165.02 132.21L81.53 91.03L72.7599 27.65L158.46 69.93L165.02 132.21Z" fill="#9C9C9B"/>
<path d="M65.2299 95.84L151.86 139.11L157.41 69.76L70.7199 26.48L65.2299 95.84Z" fill="white" stroke="#C0C0BF" stroke-miterlimit="10"/>
<path d="M82.3699 90.35L130.11 114.15L132.41 85.45L84.6199 61.93L82.3699 90.35Z" fill="white" stroke="#F7B9BD" stroke-miterlimit="10"/>
<path d="M88.28 85L105.75 97.84L129.42 68.22L106.35 90.22L88.28 85Z" fill="#1D1D1B"/>
<path d="M76.6899 43.52L77.0699 38.73L78.34 39.37L78.0399 43.11L79.84 44.02L79.7599 45.06L76.6899 43.51V43.52Z" fill="#E30613"/>
<path d="M89.9899 50.24L89.2999 46.31H89.27C89.27 46.39 89.27 46.51 89.27 46.67C89.27 46.83 89.2699 47 89.2599 47.18C89.2499 47.36 89.2499 47.53 89.2299 47.7L89.0699 49.78L87.95 49.21L88.33 44.42L90.02 45.27L90.7299 49.16H90.7599L91.9899 46.26L93.6799 47.11L93.2999 51.9L92.14 51.31L92.3099 49.21C92.3199 49.06 92.3399 48.9 92.3599 48.73C92.3799 48.56 92.3999 48.4 92.4199 48.25C92.4399 48.1 92.4599 47.98 92.4699 47.9H92.4399L91.2199 50.85L90.0099 50.24H89.9899Z" fill="#E30613"/>
<path d="M102.95 56.79L102.26 52.86H102.23C102.23 52.94 102.23 53.06 102.23 53.22C102.23 53.38 102.23 53.55 102.22 53.73C102.21 53.91 102.21 54.08 102.19 54.25L102.03 56.33L100.91 55.76L101.29 50.97L102.98 51.82L103.69 55.71H103.72L104.95 52.81L106.64 53.66L106.26 58.45L105.1 57.86L105.27 55.76C105.28 55.61 105.3 55.45 105.32 55.28C105.34 55.11 105.36 54.95 105.38 54.8C105.4 54.65 105.42 54.53 105.43 54.45H105.4L104.18 57.4L102.97 56.79H102.95Z" fill="#E30613"/>
<path d="M113.38 63.63C113.24 63.56 113.11 63.49 113.01 63.42C112.91 63.35 112.81 63.29 112.73 63.23L112.81 62.22C112.88 62.27 112.95 62.32 113.02 62.37C113.1 62.43 113.18 62.48 113.27 62.52C113.42 62.6 113.54 62.62 113.63 62.6C113.72 62.58 113.79 62.51 113.83 62.41C113.87 62.31 113.9 62.15 113.92 61.96L114.27 57.53L115.54 58.17L115.2 62.49C115.16 62.97 115.06 63.32 114.9 63.54C114.74 63.76 114.52 63.87 114.26 63.87C114 63.87 113.71 63.79 113.38 63.62V63.63Z" fill="#E30613"/>
<path d="M126.14 63.53L124.23 67.54L122.74 66.79L121.59 61.23L123.01 61.95L123.46 64.7C123.48 64.8 123.49 64.93 123.51 65.09C123.53 65.25 123.55 65.41 123.56 65.56C123.58 65.72 123.58 65.84 123.58 65.93C123.6 65.84 123.62 65.74 123.66 65.61C123.7 65.48 123.73 65.36 123.77 65.23C123.81 65.1 123.85 65 123.88 64.92L124.72 62.81L126.14 63.53V63.53Z" fill="#E30613"/>
<path d="M136.14 72.06C136.12 72.32 136.04 72.53 135.89 72.7C135.74 72.87 135.53 72.96 135.25 72.96C134.97 72.96 134.61 72.86 134.19 72.65C133.98 72.54 133.79 72.44 133.63 72.34C133.47 72.24 133.32 72.13 133.19 72.02C133.06 71.91 132.92 71.77 132.77 71.63L132.86 70.48C133.1 70.74 133.35 70.97 133.61 71.17C133.86 71.37 134.09 71.52 134.3 71.63C134.43 71.69 134.53 71.73 134.61 71.74C134.69 71.74 134.76 71.74 134.8 71.7C134.84 71.67 134.87 71.61 134.87 71.54C134.87 71.46 134.85 71.37 134.8 71.29C134.75 71.21 134.66 71.1 134.54 70.97C134.42 70.84 134.26 70.68 134.07 70.49C133.9 70.32 133.75 70.16 133.62 70C133.49 69.84 133.38 69.68 133.28 69.52C133.19 69.36 133.12 69.19 133.08 69.01C133.04 68.83 133.03 68.64 133.04 68.44C133.06 68.13 133.16 67.91 133.32 67.78C133.48 67.65 133.7 67.59 133.98 67.62C134.25 67.65 134.57 67.75 134.91 67.93C135.22 68.08 135.49 68.26 135.73 68.45C135.97 68.64 136.18 68.83 136.37 69.02L135.9 69.82C135.71 69.62 135.51 69.45 135.32 69.3C135.13 69.15 134.95 69.03 134.78 68.94C134.67 68.88 134.58 68.85 134.51 68.85C134.44 68.85 134.38 68.85 134.35 68.88C134.31 68.91 134.29 68.95 134.29 69.01C134.29 69.08 134.31 69.17 134.36 69.25C134.41 69.33 134.5 69.45 134.63 69.59C134.76 69.73 134.93 69.91 135.16 70.13C135.38 70.35 135.57 70.56 135.72 70.76C135.87 70.96 135.98 71.17 136.05 71.38C136.12 71.59 136.15 71.82 136.13 72.07L136.14 72.06Z" fill="#E30613"/>
<path d="M148.39 77.17C148.35 77.73 148.21 78.14 147.98 78.4C147.75 78.66 147.44 78.8 147.06 78.8C146.68 78.8 146.24 78.67 145.74 78.42L144.22 77.65L144.6 72.86L146.22 73.68C146.72 73.93 147.14 74.24 147.48 74.59C147.82 74.94 148.06 75.34 148.22 75.77C148.38 76.2 148.43 76.67 148.39 77.16V77.17ZM147.07 76.55C147.09 76.26 147.07 76 147.01 75.77C146.95 75.54 146.85 75.34 146.7 75.17C146.56 75 146.37 74.85 146.14 74.74L145.77 74.55L145.56 77.23L145.84 77.37C146.22 77.56 146.52 77.59 146.71 77.46C146.9 77.33 147.02 77.02 147.06 76.55H147.07Z" fill="#E30613"/>
</svg>
