<svg width="36" height="36" viewBox="0 0 36 36" fill="none" xmlns="http://www.w3.org/2000/svg">
<path d="M17.8499 35.82C27.6198 35.82 35.5399 27.8999 35.5399 18.13C35.5399 8.36009 27.6198 0.440002 17.8499 0.440002C8.08 0.440002 0.159912 8.36009 0.159912 18.13C0.159912 27.8999 8.08 35.82 17.8499 35.82Z" fill="#808080"/>
<path d="M23.34 11.44C22.67 11.44 22.1199 11.98 22.1199 12.66C22.1199 13.34 22.66 13.88 23.34 13.88C24.02 13.88 24.5599 13.34 24.5599 12.66C24.5599 11.98 24.02 11.44 23.34 11.44Z" fill="white"/>
<path d="M17.9399 13C15.1199 13 12.83 15.29 12.83 18.11C12.83 20.93 15.1199 23.22 17.9399 23.22C20.7599 23.22 23.0499 20.93 23.0499 18.11C23.0499 15.29 20.7599 13 17.9399 13ZM17.9399 21.38C16.1399 21.38 14.6699 19.91 14.6699 18.11C14.6699 16.31 16.1399 14.84 17.9399 14.84C19.7399 14.84 21.21 16.31 21.21 18.11C21.21 19.91 19.7399 21.38 17.9399 21.38Z" fill="white"/>
<path d="M21.9899 28.48H13.71C10.27 28.48 7.47992 25.69 7.47992 22.25V13.97C7.47992 10.53 10.27 7.74001 13.71 7.74001H21.9899C25.4299 7.74001 28.2199 10.53 28.2199 13.97V22.25C28.2199 25.69 25.4199 28.48 21.9899 28.48V28.48ZM13.71 9.69001C11.35 9.69001 9.42993 11.61 9.42993 13.97V22.25C9.42993 24.61 11.35 26.53 13.71 26.53H21.9899C24.3499 26.53 26.27 24.61 26.27 22.25V13.97C26.27 11.61 24.3499 9.69001 21.9899 9.69001H13.71Z" fill="white"/>
</svg>
