<svg width="234" height="164" viewBox="0 0 234 164" fill="none" xmlns="http://www.w3.org/2000/svg">
<path d="M200.27 115.68L125.12 152.37L34.91 108.04L110.17 71.35L200.27 115.68Z" stroke="#C0C0BF" stroke-miterlimit="10"/>
<path d="M60.32 60.62L58.9 50.77C58.98 50.12 57.88 48.57 57.35 48.24C55.9 47.35 51.64 48.31 50 48.68C50 48.68 45.97 49.99 47.16 54.13C48.55 56.73 51.51 58.52 51.51 58.52" fill="#E30613"/>
<path d="M52.52 54.85C52.45 54.89 52.11 54.51 51.51 54.71C50.85 54.93 51.03 55.5 51.06 55.91C51.08 56.13 51.6 56.8 52.11 56.83C52.26 56.83 52.11 57.07 52.11 57.42C52.11 57.89 51.78 60.4 52.01 61.38C52.53 63.54 51.42 62.52 51.42 62.52C51.42 62.52 58.62 70.76 56.63 62.52C56.63 62.52 55.67 58.34 55.7 58.31C56.11 57.87 59.17 58.43 58.89 53.54C58.78 51.65 58.49 49.64 56.11 48.68C55.83 48.96 54.84 53.65 52.52 54.85V54.85Z" fill="#E8E8E8"/>
<path d="M55.71 58.31L56.01 59.74C55.08 60.03 52.47 58.02 52.11 56.83C52.11 56.83 53.28 58.3 55.71 58.31V58.31Z" fill="#BBBBBB"/>
<path d="M56.04 131.3L55.46 136.91C55.46 136.91 56.84 138.82 57.66 137.75C58 137.3 60.95 137.82 61.23 137.56C61.62 137.19 59.66 136.61 59.28 136.12C59.06 135.83 58.45 135.51 58.62 134.37C58.73 133.62 59.1 131.31 59.1 131.31H56.04V131.3Z" fill="#E8E8E8"/>
<path d="M41.23 131.89L40.6 136.05C40.6 136.05 41.1 138.23 39.77 138.08C37.82 137.87 37.29 136.11 37.29 136.11C37.29 136.11 37.93 135.6 38 135.13C38.09 134.52 37.95 131.78 37.95 131.78L41.23 131.89V131.89Z" fill="#E8E8E8"/>
<path d="M37.02 136.09L32.87 138.92C32.7 139.05 32.82 139.28 33.06 139.28C33.06 139.28 40.94 139.22 41 139.13C41.4 138.48 40.68 136.06 40.6 136.06C40.33 136.06 40.17 137.28 39.6 137.4C38.32 137.66 37.58 136.25 37.43 136.11C37.33 136.01 37.14 136.01 37.03 136.1L37.02 136.09Z" fill="#E30613"/>
<path d="M48.82 76.84C47.33 79.67 46.54 81.74 45.69 85.33C44.7 89.5 37.65 124.44 37.18 132.02C38.5 132.1 41.36 132.4 42.14 132.35C44.6 124.78 51.95 102.11 53.01 97.34C53.17 96.61 52.88 96.77 52.8 97.52C52.2 102.96 54.84 122.87 54.61 132.19C55.25 132.54 58.99 132.37 59.73 132.27C60.54 122.93 64.33 88.16 57.88 76.7C54.93 76.26 51.82 76.75 48.83 76.84H48.82Z" fill="#1D1D1B"/>
<g style="mix-blend-mode:soft-light">
<path d="M57.68 76.44L44.9 88.56C44.9 88.56 46.8 81.05 48.96 76.69L57.68 76.43V76.44Z" fill="black"/>
</g>
<path d="M70.03 69.04C70.03 69.04 62.08 80.87 60.22 79.46C60.22 79.46 58.08 77.84 59.16 71.23C59.16 70.59 59.16 70.14 59.14 70.04C59.14 70.04 58.68 63.51 57.68 62.16C57.57 62.01 57.24 61.74 57.28 61.72C60.33 60.9 61.5 69.14 62.34 72.95C62.37 73.11 68.2 67.02 68.2 67.02C68.2 67.02 71.25 62.69 71.46 62.94C71.77 63.3 70.59 65.23 70.59 65.23C70.59 65.23 70.44 65.34 70.67 65.45C70.9 65.56 71.26 65.84 71.34 66.17C71.42 66.5 71.52 66.85 71.42 67.51C71.39 67.71 70.68 68.53 70.03 69.04V69.04Z" fill="#E8E8E8"/>
<path d="M68.3 67C68.3 67 68.92 65.12 69.17 65.18C69.43 65.24 70.56 65.76 70.53 66.23C70.5 66.7 69.53 66.31 69.53 66.31C69.53 66.31 69.71 67.36 69.22 67.5C68.73 67.64 68.3 67 68.3 67V67Z" fill="#E8E8E8"/>
<path d="M56.55 61.6C56.55 61.6 59.26 61.43 60.04 63.16C60.83 64.89 62.58 72.61 62.58 72.61L67.82 67.02L70.55 69.92C70.55 69.92 62.41 80.67 60.42 80.01C58.43 79.35 56.53 63.96 56.55 61.6V61.6Z" fill="#F18289"/>
<path d="M57.16 63.7C58.42 67.55 60.16 71.32 61.73 75.06C62.21 76.21 62.71 77.36 63.22 78.5C62.26 79.51 61.22 80.27 60.43 80.01C58.64 79.41 56.91 66.83 56.61 62.64C56.79 63 56.98 63.35 57.17 63.7H57.16Z" fill="#E30613"/>
<path d="M56.58 61.69C56.49 61.91 60.05 68.81 59.95 71C59.85 73.21 64.12 93.03 64.23 93.36C64.23 93.36 46.33 93.31 42.53 93.36C46.05 74.38 46.05 66.43 48.1 61.97C48.1 61.97 51.11 60.5 51.85 60.44C51.85 60.44 56.1 63.53 56.57 61.69H56.58Z" fill="#F18289"/>
<path d="M48.1 61.97C48.1 61.97 48.47 61.79 48.98 61.55C49.42 64.45 50.29 67.31 50.95 70.16C51.8 73.83 52.63 77.51 53.44 81.19C54.33 85.24 55.19 89.29 56.03 93.35C50.78 93.35 44.58 93.35 42.52 93.37C46.04 74.39 46.04 66.44 48.09 61.98L48.1 61.97Z" fill="#E30613"/>
<path d="M38.76 72.78C38.21 71.77 38.18 71.12 38.85 70.2C40 68.62 42.27 66.36 45.77 63.34C49.58 60.05 50.71 63.93 50.71 63.93C50.71 63.93 44.19 71.41 43.47 72.13C44.29 73.89 45.82 77.53 46.87 79.16C46.93 79.25 47 79.33 47.06 79.4C47.45 79.8 48.19 83.74 47.83 83.68C47.3 83.59 47.14 82.27 47.14 82.27C47.14 82.27 47.39 85.37 46.56 85.47C46.47 85.38 45.33 83.21 45.33 83.21L45.24 80.96C45.24 80.96 40.73 76.45 38.76 72.78V72.78Z" fill="#E8E8E8"/>
<path d="M43.4699 72.13C43.6299 72.47 46.86 78.63 47.07 79.09C45.89 79.85 45.55 80.7 44.39 81.48C43.73 80.48 38.84 73.72 38.37 72.84C37.82 71.83 38.19 71.14 38.86 70.22C40.01 68.64 42.28 66.38 45.78 63.36C49.59 60.07 50.49 62.47 50.49 62.47C50.49 62.47 55.48 64.65 43.48 72.15L43.4699 72.13Z" fill="#F18289"/>
<path d="M60.16 136.65C57.98 137.21 56.36 136.83 55.46 136.47C55.23 137.13 54.92 137.96 55.08 138.43C55.28 139.01 55.57 139.15 55.82 139.15C57.82 139.2 63.13 139.27 64.65 139.29C64.86 139.29 64.98 139.05 64.84 138.88C64.46 138.43 60.32 136.74 60.16 136.64V136.65Z" fill="#E30613"/>
<path d="M124.79 83.86L146.85 82.32C146.85 82.32 156.65 72.9 156.38 54.69C156.12 36.48 144.36 25.51 144.36 25.51H124.78" fill="#1D1D1B"/>
<path d="M159.98 53.28V121.09" stroke="black" stroke-miterlimit="10"/>
<path d="M159.98 109.82L172.79 123.89" stroke="black" stroke-miterlimit="10"/>
<path d="M159.98 109.82L147.17 123.89" stroke="black" stroke-miterlimit="10"/>
<path d="M151.17 119.88L159.98 121.09L168.82 119.88" stroke="black" stroke-miterlimit="10"/>
<path d="M124.79 83.86V25.51L154.7 52.27V56.86L124.79 83.86Z" fill="#343432"/>
<path d="M166.39 51.65H153.58V57.72H166.39V51.65Z" fill="#4A4A49"/>
<path d="M166.38 51.65H161.24V57.65H166.38V51.65Z" fill="#1D1D1B"/>
<path d="M92.52 87.35L91 110.51H101.09L103.79 64.62L95.16 74.39L92.52 87.35Z" fill="#E30613"/>
<path d="M97.75 36.22C97.08 35.84 97.28 34.78 97.87 34.29C98.68 33.62 100 32.8 101.5 32.83C104.02 32.9 112.23 35.96 113.04 35.05C113.84 34.14 107.53 25.62 107.53 25.62C107.53 25.62 106.15 25.07 105.59 24.32C105.03 23.57 105.76 23.13 105.89 23.2C106.02 23.27 106.14 20.7 106.11 20.12C106.07 19.54 107.18 20.07 107.18 20.07C107.18 20.07 107.71 20.44 108.5 21.81C109.29 23.18 109.4 24.58 109.4 24.58C109.4 24.58 117.88 35.19 117.08 37.07C116.34 38.82 102.4 38.88 97.76 36.21L97.75 36.22Z" fill="#C6C6C6"/>
<path d="M107.44 26.57C107.85 24.71 108.25 22.83 107.17 20.79C106.3 19.13 104.78 18.18 103.04 17.97C98.08 17.38 97.98 25.46 92.93 28.4C92.93 28.4 88.24 30.71 86.79 31.35C84.2 32.5 83.54 32.2 84.01 34.56C84.1 35.01 90.57 32 90.72 32.62C90.83 33.08 84.6 37.12 84.73 37.69C85.88 42.71 87.37 49.16 89.09 48.07C95.4 44.1 102.5 36.09 103.74 34.2C104.93 32.39 107.17 27.76 107.43 26.56L107.44 26.57Z" fill="#E30613"/>
<path d="M109.33 115.54C109.57 115.62 107.86 112.81 107.74 112.67C107.36 112.21 106.61 111.07 106.26 110.67C105.72 110.07 105.63 107.39 105.62 106.91C105.76 104.91 106.37 96.14 107.21 87.39C108.07 78.51 109.31 69.67 109.32 67.83C109.35 63.34 109.3 58.11 109.3 58.11L106.89 57.2L102.31 73L103.38 85.03C103.38 85.03 102.3 88.5 102.17 90.57C102.03 92.64 102.97 107.6 102.97 107.7C103.02 108.83 103.06 110.28 102.93 110.95C102.81 111.58 102.11 112.87 102.43 113.47C102.75 114.06 103.11 114.21 103.11 114.21C103.11 114.21 106.65 114.71 109.34 115.56L109.33 115.54Z" fill="#E8E8E8"/>
<path d="M100.9 27.4C100.9 27.4 100.88 27.51 100.85 27.7C100.68 28.61 100.03 31.62 99.59 32.45C99.06 33.45 103.39 41.07 105.64 40.68C106.31 40.56 103.09 33.32 103.15 33.02C103.26 32.45 103.42 31.67 103.58 30.87C103.67 30.42 103.76 29.96 103.84 29.53C104.08 28.31 104.28 27.31 104.28 27.31L100.9 27.39V27.4Z" fill="#E8E8E8"/>
<path d="M100.84 27.7C100.88 27.51 100.89 27.4 100.89 27.4L104.27 27.32C104.27 27.32 104.07 28.32 103.83 29.54C103.75 29.97 103.66 30.42 103.57 30.87C103.05 30.79 102.5 30.54 101.95 30.06C101.35 29.54 100.96 28.91 100.73 28.24C100.77 28.03 100.81 27.84 100.83 27.7H100.84Z" fill="#BBBBBB"/>
<path d="M102.93 19.36C102.93 19.36 101.55 19.55 100.55 20.84C99.55 22.13 98.47 26.12 100.96 28.29C103.44 30.46 105.9 28 106.26 25.4C106.62 22.8 106.55 19.27 102.93 19.36V19.36Z" fill="#E8E8E8"/>
<path d="M107.06 24.51C106.76 25.08 106.27 25.4 105.95 25.22C105.63 25.04 105.62 24.42 105.91 23.85C106.21 23.28 106.7 22.96 107.02 23.14C107.34 23.32 107.35 23.94 107.06 24.51Z" fill="#E8E8E8"/>
<path d="M100.2 24.17C100.32 24.84 100.07 25.46 99.64 25.55C99.21 25.64 98.76 25.16 98.63 24.49C98.51 23.82 98.76 23.2 99.19 23.11C99.62 23.02 100.07 23.5 100.2 24.17Z" fill="#E8E8E8"/>
<path d="M109.27 115.11C109.27 115.11 103.65 111.88 102.75 111.52C102.52 112.18 102.21 113 102.37 113.47C102.57 114.05 102.85 114.18 103.11 114.19C104.32 114.22 106.67 115.47 107.7 117.1C107.7 117.1 111.13 117.1 111.73 117.1C111.94 117.1 112.06 116.86 111.92 116.69C111.54 116.24 109.27 115.1 109.27 115.1V115.11Z" fill="#1D1D1B"/>
<path d="M103.43 117.1C103.29 116.61 102.37 113.47 102.37 113.47L104.86 114.66L103.73 114.8L103.8 117.09H103.43V117.1Z" fill="#1D1D1B"/>
<path d="M95.87 59.55C95.87 59.55 94.18 65.14 93.5 68.69C92.82 72.24 94.29 79.17 92.98 83.83C92.27 86.35 91.02 90.21 90.62 93.47C90.31 95.94 89.3 108.68 89.3 108.68C89.17 109.66 88.8 111.97 88.09 112.48C87.64 112.8 87.12 113.56 86.78 114.4C86.67 114.56 86.81 114.86 86.78 115.06C86.57 115.76 86.33 116.36 86.57 116.88C86.76 117.29 87.14 117.53 87.57 117.66C88.43 117.93 89.33 117.71 89.99 117.16C90.04 117.14 90.1 117.11 90.15 117.09C90.41 116.97 90.36 116.53 90.43 116.2C90.47 116.13 90.7 116.24 90.74 116.17C91.04 115.49 91.31 114.58 91.36 113.44C91.5 110.53 92.83 104.7 93.13 103.01C93.91 98.75 95.5 92.65 96.26 88.81C96.47 87.77 97.58 85.74 97.95 84.68C99.58 80.02 102.4 65.43 102.4 65.43L103.77 62.78L95.85 59.54L95.87 59.55Z" fill="#C6C6C6"/>
<path d="M91 115.54C89.02 115.9 87.71 114.75 87.02 113.88C86.52 114.86 86.21 116.08 86.58 116.88C86.91 117.59 87.79 117.78 88.54 117.81C89.33 117.84 90.07 117.43 90.47 116.74C90.65 116.42 90.84 116.02 91 115.54V115.54Z" fill="#1D1D1B"/>
<path d="M109.65 56.62C109.59 53.97 106.18 51.94 106.41 46.54C106.53 43.58 108.58 43.31 108.58 41.25C108.58 40.5 107.72 38.82 106.87 37.74C106.02 36.66 105.32 34.61 104.91 33.63C104.6 32.89 99.64 32.45 99.64 32.45C99.64 32.45 96.97 33.7 94.7 35.68C90.7 39.18 99.24 51.01 99.51 53.08C99.78 55.15 96.87 56.75 96.1 58.05C94.78 60.28 94.01 63.33 93.56 66.14C93.48 66.52 93.41 67.06 93.34 67.71C92.95 70.8 92.93 73.28 92.93 73.54C92.65 79.08 92.52 85.44 92.52 85.44L98.29 73.62C99.5 71.77 100.33 68.59 101.1 68.61L98.66 111.07L107.29 110.2L109.19 71.7L109.24 71.68C109.24 71.68 109.78 61.95 109.65 56.63V56.62Z" fill="#1D1D1B"/>
<path d="M96.97 34.5C97.73 34.36 98.27 35.29 98.13 36.05C97.95 37.09 97.48 38.57 96.31 39.51C94.35 41.09 86.58 46.95 86.57 48.16C86.55 49.38 96.87 51.77 96.87 51.77C96.87 51.77 98.28 51.3 99.19 51.5C100.1 51.7 99.83 52.51 99.69 52.55C99.55 52.59 101.12 54.61 101.52 55.03C101.92 55.45 100.74 55.76 100.74 55.76C100.74 55.76 100.1 55.82 98.6 55.29C97.11 54.76 96.12 53.76 96.12 53.76C96.12 53.76 82.79 51.17 82.17 49.22C81.6 47.4 91.7 35.46 96.96 34.49L96.97 34.5Z" fill="#C6C6C6"/>
</svg>
