<svg width="234" height="164" viewBox="0 0 234 164" fill="none" xmlns="http://www.w3.org/2000/svg">
<path d="M199.27 114.68L124.12 151.37L33.91 107.04L109.17 70.35L199.27 114.68Z" stroke="#C0C0BF" stroke-miterlimit="10"/>
<path d="M152.34 58.51C152.04 58.93 149.19 70.41 148.9 71.41C148.9 71.41 148.07 72.45 147.58 73.13C147.09 73.8 146.96 74.67 146.85 74.88C146.83 74.91 146.53 75.64 146.41 76.64C146.31 77.51 146.84 76.75 146.84 76.75C146.84 76.75 147.34 75.2 147.46 75.26C147.56 75.31 147.23 76.14 147.11 77.1C147.08 77.35 147.05 77.59 147.02 77.81C146.95 78.4 147.33 78.63 147.5 78.03C147.56 77.82 147.66 77.47 147.68 77.2C147.71 76.92 147.84 76.67 147.9 76.44C148.03 75.98 148.12 75.64 148.13 75.66C148.15 75.68 148.25 75.61 148.23 75.87C148.2 76.19 147.98 76.83 147.98 77.3C147.98 77.57 147.94 78.12 147.94 78.12C147.94 78.12 148.05 78.98 148.1 78.99C148.4 79.07 148.51 78.47 148.46 78.11C148.56 77.87 148.58 77.29 148.58 77.29C148.58 77.29 148.92 76.14 149.1 76.19C149.18 76.21 149.06 76.95 149.08 77.7C149.09 78.39 149.22 79.1 149.37 79.13C149.62 79.18 149.7 78.41 149.7 78.41C149.7 78.41 149.72 77.87 149.74 77.69C149.77 77.48 149.9 76.86 149.9 76.86C149.9 76.86 150.46 74.74 150.63 74.8C150.8 74.86 151.17 75.18 151.18 75.33C151.2 75.48 151.07 75.75 151.09 75.89C151.11 76.04 151.26 76.22 151.45 76.23C151.64 76.23 151.86 75.53 151.86 75.53C151.86 75.53 152.03 74.95 151.91 74.53C151.5 73.08 151.26 73.19 151.21 73C151.15 72.78 152.24 70.05 152.24 70.05C152.24 70.05 155.39 61.97 155.58 61.54" fill="#BBBBBB"/>
<path d="M149.17 110.22L149.35 113.32C149.41 113.71 149.67 114.68 149.67 115.04C149.67 116.38 143.69 113.9 145.03 113.3C145.15 113.25 145.79 112.84 145.83 112.38C145.89 111.68 146.05 110.25 146.05 110.25L149.18 110.21L149.17 110.22Z" fill="#E8E8E8"/>
<path d="M145.04 113.29C145.04 113.29 146.44 113.7 147.16 113.8C147.88 113.9 148.83 113.04 149.33 113.27C149.89 113.53 149.83 116.06 149.83 116.06C149.83 116.06 142.34 116.5 140.22 115.82C139.38 115.55 142.16 114.24 145.03 113.29H145.04Z" fill="#1D1D1B"/>
<path d="M162.34 110.51L162.52 113.61C162.58 114 162.84 114.98 162.84 115.33C162.84 116.67 156.86 114.19 158.2 113.59C158.32 113.54 159.14 112.82 159.18 112.37C159.24 111.67 159.21 110.54 159.21 110.54L162.34 110.5V110.51Z" fill="#E8E8E8"/>
<path d="M158.21 113.59C158.21 113.59 159.61 114 160.33 114.1C161.05 114.2 162 113.34 162.5 113.57C163.06 113.83 163.08 116.14 163.08 116.14C163.08 116.14 155.07 116.72 153.19 116.18C152.34 115.94 155.33 114.54 158.2 113.59H158.21Z" fill="#1D1D1B"/>
<path d="M152.87 65.8L150.34 66.89L145.03 92.27L145.25 111.3L149.51 111.4C149.51 111.4 151.49 94.76 151.49 93.47C151.49 92.18 160.67 70.9 160.67 70.9L152.87 65.81V65.8Z" fill="#1D1D1B"/>
<path d="M154.82 67.19C154.82 67.19 156.68 86.75 156.68 90.04C156.68 93.33 158.19 111.79 158.19 111.79L162.46 111.77C162.46 111.77 162.77 106.15 163.23 97.87C163.3 96.57 163.14 93.96 163.23 92.62C163.89 82.97 165.21 73.89 164.58 70.29C164.48 69.71 164.29 68.2 163.92 67.81C161.12 64.92 154.82 67.19 154.82 67.19V67.19Z" fill="#1D1D1B"/>
<path d="M161.85 37.95C161.85 37.95 164.8 38.36 165.57 38.93C166.44 39.57 168.3 41.06 168.3 41.06C168.3 41.06 163.79 58.11 163.78 60.99C163.78 63.22 164.56 68.68 164.56 68.68C164.56 68.68 153.63 69.37 149.49 67.74C149.49 67.74 150.8 61.24 150.8 59.53C150.8 57.82 152.36 42.3 152.72 41.21C153.04 40.23 153.63 38.46 155.63 38.02C157.63 37.58 161.84 37.95 161.84 37.95H161.85Z" fill="#E30613"/>
<path d="M161.05 33.34L161.78 38.12C161.78 38.12 159.12 43.81 157.53 43.31C156.2 42.9 157.02 37.86 157.02 37.86C157.02 37.86 157.75 35.16 157.53 33.81C157.31 32.46 161.06 33.34 161.06 33.34H161.05Z" fill="#E8E8E8"/>
<path d="M157.52 33.81C157.3 32.46 161.05 33.34 161.05 33.34L161.11 33.74C161 34.01 160.87 34.23 160.7 34.41C159.86 35.3 158.55 35.84 157.42 35.88C157.53 35.15 157.6 34.37 157.51 33.82L157.52 33.81Z" fill="#BBBBBB"/>
<path d="M161.66 26.59C161.77 26.55 162.51 32.03 161.1 33.54C159.69 35.05 156.94 35.54 155.96 34.35C154.87 33.04 154.92 27.15 157.12 25.6C159.31 24.05 161.67 26.59 161.67 26.59H161.66Z" fill="#E8E8E8"/>
<path d="M157.64 24.54C159.37 24.57 160.08 24.3 161.15 24.47C161.92 24.56 163.5 24.75 164.04 26.76C164.66 29.04 163.75 31.94 162.84 32.55C161.22 33.63 161.78 34.03 161.78 34.03L161.08 34.4C160.9 33.86 160.83 33.29 160.89 32.73C160.93 32.39 161 32.03 161.14 31.73C161.51 30.94 159.88 31.4 159.55 30.74C159.3 30.23 159.75 28.08 159.35 27.24L158.87 26.6C158.87 26.6 157.77 25.75 156.7 25.99C155.63 26.23 155.22 24.5 157.64 24.54V24.54Z" fill="#E30613"/>
<path d="M160.08 30.72C160.07 31.39 160.37 31.94 160.76 31.94C161.15 31.94 161.47 31.41 161.48 30.74C161.49 30.07 161.19 29.52 160.8 29.52C160.41 29.52 160.09 30.05 160.08 30.72Z" fill="#E8E8E8"/>
<path d="M151.88 49.26H149.02C148.738 49.26 148.51 49.4883 148.51 49.77V55.67C148.51 55.9517 148.738 56.18 149.02 56.18H151.88C152.162 56.18 152.39 55.9517 152.39 55.67V49.77C152.39 49.4883 152.162 49.26 151.88 49.26Z" fill="#1D1D1B"/>
<path d="M143.99 55.09L149.04 54.81V51.22L143.99 50.94C143.41 50.91 142.91 51.37 142.91 51.96V54.08C142.91 54.67 143.4 55.13 143.99 55.1V55.09Z" fill="#1D1D1B"/>
<path d="M166.66 41.3C165.67 41.27 164.45 46.66 165.07 47.3C165.7 47.95 165.82 56 165.82 56L156.47 55.77C156.29 55.65 154.33 54.33 154.05 54.05C153.76 53.75 152.33 53.9 151.95 54.31C151.57 54.72 152.79 54.39 153.13 54.61C153.47 54.84 152.88 55.4 152.88 55.4C152.88 55.4 150.51 55.74 150.05 55.25C149.59 54.76 148.35 53.93 148.19 54.42C148.1 54.67 148.74 55.44 149.1 55.76C148.65 55.42 148.12 55.07 147.93 55.13C147.59 55.24 147.73 55.67 147.92 55.8C148.1 55.93 149.98 57.36 150.28 57.46C150.57 57.56 154.94 57.67 155.7 57.83C155.7 57.83 168.04 60.64 168.74 60.46C169.36 60.31 169.97 56.36 169.97 53.33C169.97 50.3 169.78 41.37 166.69 41.28L166.66 41.3Z" fill="#E8E8E8"/>
<path d="M171.1 52.37C170.84 50.04 169.78 42.71 168.42 41.18C166.64 39.18 165.58 41.26 165.58 41.26C165.58 41.26 164.45 43.05 164.66 46.5C164.7 47.18 165.13 50.21 165.13 50.21L165.58 53.99L165.94 55.09H156.42L155.67 59C155.67 59 158.29 59.18 163.85 60.05C167.41 60.61 168.71 60.48 168.71 60.48C168.71 60.48 169.72 60.35 169.94 60.12C170.84 59.18 171.17 55.08 171.17 55.08C171.17 55.08 171.14 52.8 171.09 52.36L171.1 52.37Z" fill="#F18289"/>
<path d="M87.6101 110.69L87.4201 114C87.3501 114.42 87.0801 115.46 87.0801 115.84C87.0801 117.27 93.4601 114.62 92.0301 113.99C91.9001 113.93 91.2201 113.5 91.1801 113.01C91.1101 112.26 90.9501 110.74 90.9501 110.74L87.6101 110.69V110.69Z" fill="#E8E8E8"/>
<path d="M92.0101 113.97C92.0101 113.97 90.5101 114.41 89.7501 114.52C88.9801 114.63 87.9701 113.71 87.4301 113.96C86.8301 114.23 86.8901 116.94 86.8901 116.94C86.8901 116.94 94.8801 117.41 97.1401 116.68C98.0301 116.39 95.0701 115 92.0101 113.98V113.97Z" fill="#1D1D1B"/>
<path d="M73.56 111L73.37 114.31C73.3 114.73 73.03 115.77 73.03 116.15C73.03 117.58 79.41 114.93 77.98 114.3C77.85 114.24 76.97 113.48 76.93 113C76.86 112.25 76.9 111.05 76.9 111.05L73.56 111V111Z" fill="#E8E8E8"/>
<path d="M77.9601 114.29C77.9601 114.29 76.4601 114.73 75.7001 114.84C74.9301 114.95 73.9201 114.03 73.3801 114.28C72.7801 114.55 72.7601 117.02 72.7601 117.02C72.7601 117.02 81.3001 117.64 83.3101 117.06C84.2101 116.8 81.0201 115.32 77.9601 114.29Z" fill="#1D1D1B"/>
<path d="M83.6601 63.29L86.3601 64.45L92.0301 91.53L91.8001 111.83L87.2501 111.94C87.2501 111.94 85.1401 94.18 85.1401 92.8C85.1401 91.42 75.3501 68.71 75.3501 68.71L83.6701 63.28L83.6601 63.29Z" fill="#1D1D1B"/>
<path d="M81.58 64.78C81.58 64.78 79.5901 85.65 79.5901 89.16C79.5901 92.68 77.9801 112.36 77.9801 112.36L73.4201 112.33C73.4201 112.33 73.0901 106.33 72.6001 97.5C72.5201 96.12 72.7001 93.33 72.6001 91.9C71.8901 81.61 70.4901 71.91 71.1601 68.07C71.2701 67.45 71.47 65.83 71.86 65.43C74.84 62.34 81.5701 64.77 81.5701 64.77L81.58 64.78Z" fill="#1D1D1B"/>
<path d="M90.8 55.77C90.8 55.77 102 55.51 102.4 55.7C102.79 55.89 100.21 58.89 100.11 60.07C100.08 60.45 89.75 63.1 87.87 62.18C85.82 61.18 79.47 51.74 79.01 49.95C78.49 47.94 77.95 43.15 79.55 41.84C80.28 41.24 81.83 40.61 82.66 41.06C85.95 42.86 88.04 50.14 90.8 55.79V55.77Z" fill="#E30613"/>
<path d="M88.11 67.79C88.13 67.46 87.35 61.88 87.38 61.34C87.78 54.29 84.96 43.05 82.76 41.1C82.41 40.78 79.48 39.96 79.48 39.96L80.79 41.13C82.08 43.18 81.06 45.54 81.73 47.92C83.69 54.81 84.84 69.09 85.18 69.16C85.55 69.23 88.07 68.53 88.11 67.8V67.79Z" fill="#EB515A"/>
<path d="M80.16 24.41C80.16 24.41 78 23.18 76.49 25.34C76.49 25.34 75.41 25.46 74.6 26.5C74.6 26.5 73.1401 28.25 73.9201 29.61C74.4001 30.44 75.09 34.03 75.09 34.03L75.72 36.06C76.52 36.02 77.54 35.32 78.41 35.7C79.28 36.09 80.66 34.22 80.66 34.22C80.66 34.22 80.98 30.71 82.47 28.49C82.47 28.49 83.79 26.45 82.8 26.55C82.8 26.55 82.4701 25.43 81.9801 25.17C80.9501 24.63 80.16 24.41 80.16 24.41V24.41Z" fill="#07345A"/>
<path d="M79.54 40.03C79.54 40.03 75.65 38.91 75.21 38.89C74.77 38.87 71.16 54.92 70.05 60.97C68.93 67.02 69.5 68.13 69.5 68.13C69.5 68.13 75.06 69.68 79.25 69.52C83.6 69.36 85.19 69.14 85.19 69.14C85.19 69.14 84.54 56.22 83.35 49.65C82.92 47.3 83.02 44.41 81.67 41.96C80.91 40.58 79.55 40.03 79.55 40.03H79.54Z" fill="white"/>
<path d="M79.23 36.85L79.43 39.2C79.43 39.2 79.97 42.6 79.02 43.21C78.08 43.81 75.37 38.9 75.37 38.9L75.98 32.99L79.23 36.85V36.85Z" fill="#E8E8E8"/>
<path d="M75.79 34.91C76.44 36.97 78.16 38.3 79.4 38.85L79.23 36.85L75.98 32.99L75.78 34.9L75.79 34.91Z" fill="#BBBBBB"/>
<path d="M82.36 29.57C82.18 27.66 80.27 26.33 78.4 26.87C76.65 27.37 75.43 29.1 75.15 31.17C74.66 31.15 74.2301 31.61 74.2001 32.22C74.1701 32.83 74.5401 33.33 75.0401 33.36C75.1001 33.36 75.15 33.34 75.21 33.33C75.82 36.3 78.5101 37.8 79.5901 37.85C80.8301 37.91 82.3801 35.33 82.4701 32.6C82.5101 31.46 82.45 30.42 82.37 29.59L82.36 29.57Z" fill="#E8E8E8"/>
<path d="M75.3701 38.88C75.3701 38.88 72.1101 39.91 70.8201 40.58C70.0001 41.01 68.4301 44.98 68.4301 44.98C68.4301 44.98 71.4101 53.08 70.8101 57.37C69.8101 64.49 69.4701 68.94 69.7601 69.27C71.6001 70.56 77.4901 71.02 77.9901 70.3C83.5001 62.36 75.3701 38.88 75.3701 38.88V38.88Z" fill="#EB515A"/>
<path d="M93.3 59.47L99.8 47.59C99.97 47.28 100.33 47.13 100.66 47.22L106.13 48.72C106.61 48.85 106.83 49.4 106.58 49.83L99.83 61.43C99.66 61.72 99.33 61.86 99 61.79L93.79 60.58C93.3 60.47 93.06 59.92 93.3 59.48V59.47Z" fill="#1D1D1B"/>
<path d="M98.38 60.51C98.14 60.49 97.73 60.47 97.44 60.49C97.13 60.52 96.83 60.44 96.56 60.42C96.03 60.39 95.64 60.37 95.65 60.35C95.67 60.32 95.57 60.24 95.86 60.22C96.21 60.19 96.97 60.28 97.47 60.19C97.76 60.14 98.37 60.07 98.37 60.07C98.37 60.07 99.27 59.8 99.27 59.74C99.27 59.43 98.61 59.45 98.23 59.57C97.95 59.52 97.31 59.61 97.31 59.61C97.31 59.61 95.98 59.51 95.99 59.33C95.99 59.25 96.82 59.22 97.63 59.06C98.38 58.92 99.11 58.65 99.1 58.5C99.09 58.25 98.24 58.32 98.24 58.32C98.24 58.32 97.65 58.4 97.45 58.42C97.22 58.44 96.52 58.42 96.52 58.42C96.52 58.42 94.09 58.29 94.11 58.12C94.14 57.95 94.39 57.53 94.54 57.49C94.69 57.45 95.02 57.51 95.17 57.47C95.32 57.43 95.49 57.24 95.45 57.06C95.41 56.87 94.59 56.8 94.59 56.8C94.59 56.8 93.92 56.75 93.5 56.94C92.04 57.61 92.21 57.82 92.02 57.9C91.8 58 88.57 57.48 88.57 57.48C88.57 57.48 79.04 56.02 78.53 55.92L78.01 59.08C78.54 59.29 89.71 60.36 90.87 60.44C90.87 60.44 92.21 61.03 93.06 61.37C93.91 61.71 94.88 61.67 95.14 61.73C95.18 61.73 96.04 61.89 97.16 61.81C98.12 61.74 97.18 61.38 97.18 61.38C97.18 61.38 95.37 61.2 95.41 61.07C95.44 60.97 96.42 61.12 97.49 61.05C97.76 61.03 98.03 61.01 98.28 60.99C98.93 60.94 99.09 60.54 98.4 60.49L98.38 60.51Z" fill="#E8E8E8"/>
<path d="M77.56 54.05C77.56 54.05 88.35 56.93 88.75 57.12C89.14 57.31 88.5 60.1 88.39 61.28C88.36 61.66 76.59 59.8 74.71 58.88C72.66 57.88 68.86 50.4 68.15 48.03C67.56 46.05 67.71 43.58 68.79 41.84C69.44 40.79 71.56 39.99 72.44 40.55C75.95 42.79 77.56 54.05 77.56 54.05V54.05Z" fill="#F18289"/>
<path d="M103.58 56.81C103.58 56.81 103.45 56.75 103.34 56.73C103.38 56.72 103.43 56.71 103.46 56.7C103.68 56.58 103.75 56.31 103.77 56.07C103.79 55.84 103.59 55.65 103.36 55.68C102.57 55.76 100.84 55.97 100.77 56.23C100.72 56.4 101.32 56.59 101.97 56.69C101.27 56.73 100.61 56.84 100.63 57C100.65 57.13 101.07 57.26 101.58 57.37C101.05 57.34 100.6 57.37 100.61 57.53C100.61 57.7 101.09 57.93 101.62 58.1C101.04 58.02 100.44 58.04 100.51 58.26C100.64 58.65 102.37 59.03 102.5 58.91C102.63 58.79 102.66 58.5 102.66 58.5C102.63 58.43 102.54 58.37 102.43 58.32C102.79 58.39 103.08 58.42 103.16 58.37C103.41 58.19 103.42 57.79 103.42 57.79C103.42 57.75 103.36 57.71 103.28 57.67C103.34 57.67 103.39 57.69 103.41 57.69C103.61 57.73 103.58 56.81 103.58 56.81V56.81Z" fill="#E8E8E8"/>
<path d="M75.98 32.31L75.14 31.17L75.78 27.66C75.78 27.66 76.56 27.35 76.38 28.24C76.2 29.13 76.41 30.05 76.41 30.05V32.3H75.98V32.31Z" fill="#07345A"/>
<path d="M121.55 18.7C121.55 18.7 121.69 14.8 123.23 19.79C124.23 23.02 126.07 23.56 126.07 23.56C126.07 23.56 121.34 24.4 120.22 25.04C119.1 25.68 115.34 25.04 115.34 25.04L114.5 20.12L121.55 18.7V18.7Z" fill="#E30613"/>
<path d="M132.76 98.64C132.76 98.64 132.49 102.08 132.71 103.2C132.83 103.8 133.49 105.03 133.19 105.6C132.89 106.16 132.54 106.3 132.54 106.3L124.7 106.43C124.27 106.43 124.56 106.16 124.9 105.91C125.46 105.5 125.92 105.22 127.72 104.35C127.84 104.29 128.26 104.02 128.42 103.93C128.81 103.69 129.2 103.32 129.54 102.94C130.1 102.31 130.15 99.28 130.15 99.28L132.76 98.63V98.64Z" fill="#E8E8E8"/>
<path d="M128.37 103.93C130.44 104.46 131.97 104.1 132.83 103.76C133.05 104.39 133.38 105.17 133.23 105.62C133.04 106.17 132.77 106.3 132.53 106.31C130.64 106.36 125.6 106.43 124.15 106.45C123.95 106.45 123.84 106.22 123.97 106.06C124.33 105.63 128.22 104.03 128.37 103.94V103.93Z" fill="#E30613"/>
<path d="M118.57 31.74L118.09 29.58C118.09 29.58 117.88 29.19 116.98 30.6C116.07 32.01 115.23 34.99 115.28 37.27C115.32 39.2 114.74 44.98 114.6 45.83C114.32 47.54 113.91 50.44 113.87 52.51C113.85 53.36 113.66 58.41 114.21 60.78C114.33 61.29 114.92 63.07 114.92 63.07C114.92 63.07 116.33 56.66 116.09 53.27C115.87 50.14 116.03 43.81 116.54 43.39C117.06 42.97 118.57 31.74 118.57 31.74V31.74Z" fill="#E8E8E8"/>
<path d="M108.74 34.3L109.39 33.98L106.63 28.31C106.27 28.49 106.12 28.92 106.3 29.28L108.75 34.3H108.74Z" fill="#4A4A49"/>
<path d="M121.28 98.64C121.28 98.64 121.01 102.08 121.23 103.2C121.35 103.8 122.01 105.03 121.71 105.6C121.41 106.16 121.06 106.3 121.06 106.3L113.22 106.43C112.79 106.43 113.08 106.16 113.42 105.91C113.98 105.5 114.44 105.22 116.24 104.35C116.36 104.29 116.78 104.02 116.94 103.93C117.33 103.69 117.72 103.32 118.06 102.94C118.62 102.31 118.67 99.28 118.67 99.28L121.28 98.63V98.64Z" fill="#E8E8E8"/>
<path d="M115.16 52.88C115.16 52.88 114.17 58.47 114.82 62.13C115.47 65.79 118.58 99.76 118.58 99.76L122.04 99.95C122.04 99.95 122.76 85.76 122.63 83.79C122.5 81.82 121.47 78.51 121.47 78.51L121.81 67.05L117.45 52L115.15 52.86L115.16 52.88Z" fill="#1D1D1B"/>
<path d="M125.32 51.71C125.32 51.71 128.04 55.8 128.69 59.18C129.34 62.56 128.21 72.96 129.46 77.39C130.13 79.79 131.04 83.47 131.43 86.57C131.82 89.67 133.16 99.63 133.16 99.63L129.71 100.31L123.52 78.22L117.24 59.89L115.61 50.45L125.33 51.72L125.32 51.71Z" fill="#1D1D1B"/>
<path d="M123.11 28.45C123.11 28.45 125.79 29.12 126.69 31.02C127.86 33.49 124.61 44.28 124.35 46.25C124.09 48.22 127.76 56.3 127.76 56.3C127.76 56.3 117.09 58.61 114.67 57.01C114.67 57.01 114.33 38.67 114.59 37.26C114.85 35.85 117.57 30.13 118.09 29.57C118.61 29.01 123.11 28.44 123.11 28.44V28.45Z" fill="#E30613"/>
<path d="M126.48 31.44C126.25 30.75 125.46 30.41 124.79 30.7C123.87 31.1 122.6 31.85 121.98 33.15C120.94 35.31 117.32 42.73 116.19 43.02C115.07 43.3 110.49 35.31 110.49 35.31C110.49 35.31 110.62 33.9 110.23 33.1C109.84 32.3 108.68 31.46 108.5 31.74C108.33 32.02 109.15 32.73 109.15 32.87C109.15 33.01 108.8 33.1 108.33 32.82C107.85 32.54 107.6 31.97 107.6 31.97C107.6 31.97 106.82 33.39 107.64 34.65C108.46 35.92 108.81 36.44 108.81 36.44C108.81 36.44 114.12 48.23 116.07 48.37C117.88 48.5 128.3 36.94 126.49 31.44H126.48Z" fill="#E8E8E8"/>
<path d="M121.91 23.65C121.91 23.65 121.93 23.76 121.96 23.94C122.12 24.8 122.74 27.67 123.16 28.46C123.67 29.41 121.43 32.45 119.28 32.08C118.64 31.97 119.82 29.29 119.76 29C119.65 28.46 119.5 27.71 119.35 26.95C119.26 26.52 119.18 26.09 119.1 25.68C118.87 24.52 118.68 23.57 118.68 23.57L121.9 23.65H121.91Z" fill="#E8E8E8"/>
<path d="M121.82 23.13C121.79 22.95 121.77 22.84 121.77 22.84L118.55 22.76C118.55 22.76 118.74 23.71 118.97 24.87C119.05 25.28 119.38 26.88 119.47 27.31C119.97 27.24 120.52 27.31 121.01 26.54C121.41 25.9 121.7 24.27 121.93 23.64C121.89 23.44 121.86 23.26 121.83 23.13H121.82Z" fill="#BBBBBB"/>
<path d="M118.62 16.76C118.62 16.76 120.97 17.04 121.56 18.71C122.08 20.18 121.91 22.8 121.42 24.22C119.77 29 116.06 25.34 115.59 22.88C115.05 19.99 115.17 16.67 118.62 16.76V16.76Z" fill="#E8E8E8"/>
<path d="M121.22 21.84C121.1 22.48 121.34 23.07 121.75 23.15C122.16 23.23 122.59 22.78 122.71 22.14C122.83 21.5 122.59 20.91 122.18 20.83C121.77 20.75 121.34 21.2 121.22 21.84Z" fill="#E8E8E8"/>
<path d="M116.94 103.93C119.01 104.46 120.54 104.1 121.4 103.76C121.62 104.39 121.91 105.17 121.76 105.62C121.57 106.17 121.3 106.3 121.06 106.31C119.17 106.36 114.13 106.43 112.68 106.45C112.48 106.45 112.37 106.22 112.5 106.06C112.86 105.63 116.79 104.03 116.94 103.94V103.93Z" fill="#E30613"/>
<path d="M114.5 20.13C114.5 20.13 119.1 18.56 120.54 21.1C121.72 23.19 121.67 24.53 121.67 24.53C121.67 24.53 121.89 21.37 122.18 20.14C122.47 18.91 122.6 17.1 121.49 16.18C118.44 13.65 115.56 17.96 115.56 17.96L114.51 20.13H114.5Z" fill="#E30613"/>
<path d="M112.99 37.92L111.44 41.84C111.44 41.84 113.06 47.42 116.07 48.37C119.08 49.33 126.7 36.83 126.7 36.83C126.7 36.83 127.66 30.6 125.39 29.53C123.12 28.45 120.52 33.51 120.24 34.3C119.96 35.09 116.21 43.01 116.21 43.01L113 37.92H112.99Z" fill="#F18289"/>
</svg>
