<svg width="37" height="37" viewBox="0 0 37 37" fill="none" xmlns="http://www.w3.org/2000/svg">
<path d="M31.7648 30.2172C38.2697 22.6998 37.449 11.3327 29.9316 4.82783C22.4143 -1.67699 11.0471 -0.856197 4.54223 6.66117C-1.96257 14.1784 -1.14178 25.5456 6.37558 32.0504C13.8928 38.5553 25.26 37.7345 31.7648 30.2172Z" fill="#808080"/>
<path d="M8.43243 28.625L9.93845 23.0287C9.08374 21.4923 8.64621 19.7727 8.64621 18.0327C8.64621 12.3347 13.2859 7.69485 18.984 7.69485C24.682 7.69485 29.322 12.3347 29.322 18.0327C29.322 23.7308 24.682 28.3706 18.984 28.3706C17.2746 28.3706 15.5856 27.9433 14.0695 27.1191L8.44261 28.625H8.43243ZM14.3442 25.023L14.7004 25.2367C16.0028 26.01 17.4781 26.417 18.984 26.417C23.6035 26.417 27.3684 22.6522 27.3684 18.0327C27.3684 13.4132 23.6035 9.64847 18.984 9.64847C14.3645 9.64847 10.5997 13.4132 10.5997 18.0327C10.5997 19.559 11.0272 21.0649 11.831 22.3775L12.0447 22.7336L11.2103 25.8574L14.3543 25.0128L14.3442 25.023Z" fill="white"/>
<path fill-rule="evenodd" clip-rule="evenodd" d="M22.8303 19.4674C22.4029 19.2131 21.8534 18.9281 21.3446 19.1317C20.958 19.2843 20.7139 19.8948 20.4696 20.2C20.3374 20.3628 20.1847 20.3832 19.9914 20.3018C18.5466 19.7218 17.4374 18.7653 16.6437 17.4324C16.5114 17.2289 16.5318 17.0661 16.6946 16.8728C16.9388 16.5879 17.234 16.2725 17.3052 15.8858C17.3662 15.4991 17.1932 15.0616 17.0304 14.7157C16.8269 14.2781 16.6031 13.6575 16.1656 13.4133C15.7688 13.1894 15.2397 13.3115 14.8835 13.6066C14.273 14.1052 13.9677 14.8886 13.9778 15.6721C13.9778 15.896 14.0085 16.1097 14.0593 16.3233C14.1815 16.8321 14.4257 17.3205 14.6902 17.7682C14.8937 18.1141 15.1074 18.4499 15.3414 18.7653C16.1147 19.8134 17.0712 20.7291 18.1904 21.4109C18.7501 21.7466 19.3402 22.0519 19.9609 22.2554C20.6528 22.4894 21.2735 22.7235 22.0264 22.581C22.8099 22.4284 23.5831 21.9501 23.8985 21.187C23.9901 20.9632 24.0411 20.7088 23.9902 20.4748C23.8783 19.9864 23.2169 19.6913 22.8201 19.4573L22.8303 19.4674Z" fill="white"/>
</svg>
