<?xml version="1.0" encoding="utf-8"?>
<!-- Generator: Adobe Illustrator 26.4.1, SVG Export Plug-In . SVG Version: 6.00 Build 0)  -->
<svg version="1.1" id="Capa_1" xmlns="http://www.w3.org/2000/svg" xmlns:xlink="http://www.w3.org/1999/xlink" x="0px" y="0px"
	 viewBox="0 0 279 522" style="enable-background:new 0 0 279 522;" xml:space="preserve">
<style type="text/css">
	.st0{fill:#E30613;}
	.st1{fill:#808080;}
	.st2{fill:none;stroke:#E30613;stroke-miterlimit:10;}
	.st3{fill:#1D1D1B;}
	.st4{fill:none;stroke:#1D1D1B;stroke-width:1.37;}
	.st5{fill:#FFFFFF;}
</style>
<path class="st0" d="M40.2,122.1c0,1-0.2,1.9-0.6,2.6c-0.4,0.7-1,1.2-1.7,1.6c-0.8,0.4-1.7,0.5-2.7,0.5h-2.6v-9.3h2.9
	c1,0,1.8,0.2,2.5,0.5s1.3,0.9,1.7,1.5C40.1,120.1,40.2,121.1,40.2,122.1z M38.1,122.2c0-0.7-0.1-1.2-0.3-1.7c-0.2-0.4-0.5-0.8-0.9-1
	s-0.9-0.3-1.5-0.3h-1v6h0.8c1,0,1.7-0.3,2.1-0.8C37.9,123.9,38.1,123.2,38.1,122.2z"/>
<path class="st0" d="M47.4,126.8h-5.3v-9.3h5.3v1.6H44v2h3.1v1.6H44v2.4h3.4V126.8z"/>
<path class="st0" d="M54.9,124.3c0,0.5-0.1,1-0.4,1.4c-0.3,0.4-0.7,0.7-1.2,0.9c-0.5,0.2-1.1,0.3-1.9,0.3c-0.3,0-0.6,0-0.9-0.1
	c-0.3-0.1-0.6-0.1-0.9-0.2c-0.3-0.1-0.5-0.2-0.8-0.3v-1.8c0.4,0.2,0.9,0.4,1.4,0.5c0.5,0.2,0.9,0.2,1.4,0.2c0.3,0,0.6,0,0.8-0.1
	s0.3-0.2,0.4-0.3c0.1-0.1,0.1-0.3,0.1-0.5s-0.1-0.4-0.2-0.6c-0.2-0.2-0.4-0.3-0.6-0.5c-0.3-0.1-0.6-0.3-0.9-0.5
	c-0.2-0.1-0.5-0.2-0.7-0.4c-0.3-0.1-0.5-0.3-0.7-0.5s-0.4-0.5-0.6-0.8c-0.1-0.3-0.2-0.7-0.2-1.1c0-0.6,0.1-1,0.4-1.4
	c0.3-0.4,0.6-0.7,1.1-0.9c0.5-0.2,1-0.3,1.7-0.3c0.5,0,0.9,0.1,1.4,0.2c0.4,0.1,0.9,0.3,1.4,0.5l-0.6,1.5c-0.4-0.2-0.8-0.3-1.1-0.4
	s-0.7-0.1-1-0.1c-0.2,0-0.5,0-0.6,0.1c-0.2,0.1-0.3,0.2-0.4,0.3c-0.1,0.1-0.1,0.3-0.1,0.5s0.1,0.4,0.2,0.6c0.1,0.2,0.3,0.3,0.6,0.4
	s0.6,0.3,1,0.5c0.5,0.2,0.9,0.5,1.2,0.7s0.6,0.5,0.8,0.9C54.8,123.4,54.9,123.8,54.9,124.3z"/>
<path class="st0" d="M60.5,119.1c-0.4,0-0.7,0.1-1,0.2s-0.5,0.4-0.7,0.6c-0.2,0.3-0.3,0.6-0.4,1c-0.1,0.4-0.2,0.8-0.2,1.3
	c0,0.7,0.1,1.2,0.2,1.7c0.2,0.5,0.4,0.8,0.8,1.1c0.4,0.3,0.8,0.4,1.3,0.4c0.4,0,0.8,0,1.1-0.1s0.8-0.2,1.2-0.4v1.7
	c-0.4,0.2-0.8,0.3-1.2,0.4s-0.8,0.1-1.3,0.1c-1,0-1.7-0.2-2.4-0.6c-0.6-0.4-1.1-1-1.4-1.7c-0.3-0.7-0.4-1.5-0.4-2.5
	c0-0.7,0.1-1.3,0.3-1.9s0.5-1.1,0.8-1.5s0.8-0.8,1.4-1c0.5-0.2,1.2-0.3,1.9-0.3c0.5,0,0.9,0.1,1.4,0.2s0.9,0.3,1.3,0.5l-0.6,1.6
	c-0.3-0.2-0.7-0.3-1-0.4C61.2,119.1,60.8,119.1,60.5,119.1z"/>
<path class="st0" d="M72.4,117.6v6c0,0.6-0.1,1.2-0.4,1.7s-0.7,0.9-1.3,1.2c-0.6,0.3-1.3,0.5-2.1,0.5c-1.2,0-2.2-0.3-2.8-0.9
	c-0.6-0.6-1-1.5-1-2.5v-6h2v5.7c0,0.8,0.2,1.3,0.5,1.6c0.3,0.3,0.8,0.5,1.4,0.5c0.4,0,0.8-0.1,1.1-0.2c0.3-0.1,0.5-0.4,0.6-0.7
	s0.2-0.7,0.2-1.2v-5.7H72.4L72.4,117.6z"/>
<path class="st0" d="M80,126.8h-5.3v-9.3H80v1.6h-3.4v2h3.1v1.6h-3.1v2.4H80V126.8z"/>
<path class="st0" d="M90.2,126.8h-2.5l-4-7h-0.1c0,0.3,0,0.6,0,0.9s0,0.6,0,0.9s0,0.6,0,0.9v4.4h-1.8v-9.3h2.5l4,7
	c0-0.3,0-0.6,0-0.9s0-0.6,0-0.9s0-0.6,0-0.9v-4.4h1.8L90.2,126.8z"/>
<path class="st0" d="M96.1,126.8h-2v-7.6h-2.5v-1.6h7v1.6h-2.5V126.8z"/>
<path class="st0" d="M108.5,122.2c0,0.7-0.1,1.4-0.3,2c-0.2,0.6-0.4,1.1-0.8,1.5s-0.8,0.7-1.4,1c-0.6,0.2-1.2,0.3-2,0.3
	s-1.4-0.1-2-0.3c-0.6-0.2-1-0.6-1.4-1s-0.6-0.9-0.8-1.5c-0.2-0.6-0.3-1.2-0.3-2c0-1,0.2-1.8,0.5-2.5s0.8-1.3,1.5-1.7
	s1.5-0.6,2.5-0.6s1.8,0.2,2.5,0.6s1.1,0.9,1.4,1.7C108.2,120.5,108.5,121.2,108.5,122.2z M101.7,122.2c0,0.6,0.1,1.2,0.2,1.7
	s0.4,0.8,0.8,1.1c0.3,0.3,0.8,0.4,1.3,0.4c0.6,0,1-0.1,1.4-0.4c0.3-0.3,0.6-0.6,0.8-1.1c0.2-0.5,0.2-1,0.2-1.7c0-1-0.2-1.7-0.5-2.3
	c-0.4-0.6-1-0.8-1.8-0.8c-0.6,0-1,0.1-1.4,0.4c-0.3,0.3-0.6,0.6-0.8,1.1C101.7,121.1,101.7,121.5,101.7,122.2z"/>
<path class="st0" d="M117.3,126.8h-2v-7.6h-2.5v-1.6h7v1.6h-2.5V126.8z"/>
<path class="st0" d="M129.7,122.2c0,0.7-0.1,1.4-0.3,2s-0.4,1.1-0.8,1.5c-0.4,0.4-0.8,0.7-1.4,1c-0.6,0.2-1.2,0.3-2,0.3
	s-1.4-0.1-2-0.3c-0.6-0.2-1-0.6-1.4-1s-0.6-0.9-0.8-1.5c-0.2-0.6-0.3-1.2-0.3-2c0-1,0.2-1.8,0.5-2.5s0.8-1.3,1.5-1.7
	c0.7-0.4,1.5-0.6,2.5-0.6s1.8,0.2,2.5,0.6s1.1,0.9,1.4,1.7C129.4,120.5,129.7,121.2,129.7,122.2z M122.9,122.2
	c0,0.6,0.1,1.2,0.2,1.7s0.4,0.8,0.8,1.1c0.3,0.3,0.8,0.4,1.3,0.4c0.6,0,1-0.1,1.4-0.4c0.3-0.3,0.6-0.6,0.8-1.1
	c0.2-0.5,0.2-1,0.2-1.7c0-1-0.2-1.7-0.5-2.3c-0.4-0.6-1-0.8-1.8-0.8c-0.6,0-1,0.1-1.4,0.4c-0.3,0.3-0.6,0.6-0.8,1.1
	C122.9,121.1,122.9,121.5,122.9,122.2z"/>
<path class="st0" d="M135.2,126.8h-2v-7.6h-2.5v-1.6h7v1.6h-2.5V126.8z"/>
<path class="st0" d="M144.8,126.8l-0.7-2.2h-3.4l-0.7,2.2h-2.1l3.3-9.3h2.4l3.3,9.3H144.8z M143.7,123l-0.7-2.2
	c0-0.1-0.1-0.3-0.2-0.6c-0.1-0.2-0.1-0.5-0.2-0.7c-0.1-0.2-0.1-0.4-0.2-0.6c0,0.2-0.1,0.4-0.2,0.6c-0.1,0.3-0.1,0.5-0.2,0.7
	c-0.1,0.2-0.1,0.4-0.1,0.5l-0.7,2.2L143.7,123z"/>
<path class="st0" d="M148.1,126.8v-9.3h2v7.7h3.8v1.6C153.9,126.8,148.1,126.8,148.1,126.8z"/>
<path class="st0" d="M172.9,225.3c2.5,0,4.3,0.9,5.6,2.6c1.3,1.7,1.9,4.1,1.9,7.3c0,3.1-0.6,5.6-1.8,7.3c-1.2,1.8-3.1,2.6-5.7,2.6
	c-2.4,0-4.3-0.9-5.5-2.6c-1.3-1.8-1.9-4.2-1.9-7.3s0.6-5.5,1.8-7.3S170.4,225.3,172.9,225.3z M173,229.8c-0.7,0-1.2,0.4-1.6,1.3
	c-0.4,0.9-0.5,2.2-0.5,4.1c0,1.9,0.2,3.2,0.5,4.1c0.3,0.9,0.8,1.4,1.6,1.4s1.2-0.4,1.6-1.3c0.3-0.9,0.5-2.3,0.5-4.1
	s-0.2-3.2-0.5-4.1C174.3,230.3,173.7,229.8,173,229.8z M195.3,225.7l-17.5,31.5h-5.2l17.5-31.5L195.3,225.7L195.3,225.7z M195,237.9
	c2.5,0,4.3,0.9,5.6,2.6c1.3,1.7,1.9,4.1,1.9,7.3c0,3.1-0.6,5.5-1.8,7.3c-1.2,1.8-3.1,2.6-5.7,2.6c-2.4,0-4.3-0.9-5.5-2.6
	c-1.3-1.8-1.9-4.2-1.9-7.3s0.6-5.5,1.8-7.3S192.4,237.9,195,237.9z M195.1,242.4c-0.7,0-1.2,0.4-1.6,1.3c-0.3,0.9-0.5,2.2-0.5,4.1
	c0,1.9,0.2,3.2,0.5,4.1c0.3,0.9,0.8,1.4,1.6,1.4c0.7,0,1.2-0.4,1.6-1.3c0.3-0.9,0.5-2.3,0.5-4.1s-0.2-3.2-0.5-4.1
	C196.3,242.8,195.8,242.4,195.1,242.4z"/>
<path class="st0" d="M173.9,268.2c0,1.3-0.3,2.4-0.8,3.3s-1.2,1.5-2.2,2c-1,0.4-2.1,0.7-3.5,0.7h-3.3v-11.7h3.7
	c1.2,0,2.3,0.2,3.2,0.7s1.6,1.1,2.1,1.9C173.7,265.9,173.9,267,173.9,268.2z M171.3,268.3c0-0.9-0.1-1.6-0.4-2.1
	c-0.3-0.6-0.6-1-1.1-1.2c-0.5-0.3-1.1-0.4-1.8-0.4h-1.3v7.6h1.1c1.2,0,2.1-0.3,2.7-1C171,270.6,171.3,269.6,171.3,268.3z"/>
<path class="st0" d="M181.2,264.4c-0.5,0-0.9,0.1-1.3,0.3c-0.4,0.2-0.7,0.4-0.9,0.8c-0.2,0.3-0.4,0.8-0.6,1.3
	c-0.2,0.5-0.2,1-0.2,1.7c0,0.8,0.1,1.5,0.3,2.1s0.5,1,1,1.3c0.4,0.3,1,0.5,1.7,0.5c0.5,0,1-0.1,1.4-0.2c0.5-0.1,1-0.3,1.6-0.5v2.1
	c-0.5,0.2-1,0.4-1.5,0.5s-1.1,0.1-1.7,0.1c-1.2,0-2.2-0.2-3-0.7s-1.4-1.2-1.7-2.1c-0.4-0.9-0.6-2-0.6-3.2c0-0.9,0.1-1.7,0.4-2.4
	c0.2-0.7,0.6-1.4,1.1-1.9s1-1,1.7-1.2s1.5-0.4,2.4-0.4c0.6,0,1.2,0.1,1.8,0.2s1.1,0.3,1.7,0.6l-0.8,2c-0.4-0.2-0.9-0.4-1.3-0.5
	C182,264.5,181.6,264.4,181.2,264.4z"/>
<path class="st0" d="M191,274.2h-2.5v-9.6h-3.2v-2.1h8.8v2.1h-3.2L191,274.2z"/>
<path class="st0" d="M206.5,268.3c0,0.9-0.1,1.7-0.3,2.5c-0.2,0.7-0.6,1.4-1,1.9c-0.5,0.5-1,0.9-1.7,1.2c-0.7,0.3-1.5,0.4-2.5,0.4
	s-1.8-0.1-2.5-0.4s-1.3-0.7-1.7-1.2c-0.5-0.5-0.8-1.2-1-1.9c-0.2-0.7-0.3-1.6-0.3-2.5c0-1.2,0.2-2.3,0.6-3.2c0.4-0.9,1-1.6,1.8-2.1
	s1.9-0.7,3.2-0.7s2.3,0.2,3.1,0.7s1.4,1.2,1.8,2.1C206.3,266.1,206.5,267.1,206.5,268.3z M197.9,268.3c0,0.8,0.1,1.5,0.3,2.1
	s0.5,1,1,1.4c0.4,0.3,1,0.5,1.7,0.5s1.3-0.2,1.7-0.5s0.8-0.8,1-1.4s0.3-1.3,0.3-2.1c0-1.2-0.2-2.2-0.7-2.9c-0.5-0.7-1.2-1.1-2.3-1.1
	c-0.7,0-1.3,0.2-1.7,0.5s-0.8,0.8-1,1.4S197.9,267.5,197.9,268.3z"/>
<path class="st0" d="M208.2,273.1c0-0.5,0.1-0.9,0.4-1.1c0.3-0.2,0.6-0.3,1-0.3s0.7,0.1,1,0.3c0.3,0.2,0.4,0.6,0.4,1.1
	s-0.1,0.8-0.4,1c-0.3,0.2-0.6,0.3-1,0.3s-0.7-0.1-1-0.3C208.4,273.9,208.2,273.6,208.2,273.1z"/>
<path class="st1" d="M119.1,50.3h8.3V55h-8.3v8.3h-4.7V55h-8.3v-4.7h8.3v-8.4h4.7V50.3z"/>
<path class="st1" d="M81.4,43.1c0.9,0,1.5,0.3,2,0.9s0.7,1.5,0.7,2.5s-0.2,1.9-0.6,2.6c-0.4,0.6-1.1,0.9-2,0.9s-1.5-0.3-1.9-0.9
	c-0.4-0.6-0.7-1.5-0.7-2.6s0.2-1.9,0.6-2.5S80.5,43.1,81.4,43.1z M81.4,44.7c-0.2,0-0.4,0.2-0.5,0.5s-0.2,0.8-0.2,1.4
	c0,0.6,0.1,1.1,0.2,1.4s0.3,0.5,0.5,0.5s0.4-0.2,0.5-0.5s0.2-0.8,0.2-1.4c0-0.6-0.1-1.1-0.2-1.4C81.9,44.9,81.7,44.7,81.4,44.7z
	 M89.3,43.3l-6.1,11h-1.9l6.1-11H89.3z M89.2,47.5c0.9,0,1.5,0.3,2,0.9c0.4,0.6,0.7,1.5,0.7,2.5c0,1.1-0.2,1.9-0.6,2.6
	c-0.4,0.6-1.1,0.9-2,0.9s-1.5-0.3-1.9-0.9s-0.7-1.5-0.7-2.6s0.2-1.9,0.6-2.5C87.6,47.8,88.2,47.5,89.2,47.5z M89.2,49.1
	c-0.2,0-0.4,0.2-0.5,0.5s-0.2,0.8-0.2,1.4s0.1,1.1,0.2,1.4c0.1,0.3,0.3,0.5,0.5,0.5s0.4-0.2,0.5-0.5s0.2-0.8,0.2-1.4
	s-0.1-1.1-0.2-1.4C89.6,49.3,89.4,49.1,89.2,49.1z"/>
<path class="st1" d="M81.8,58.2c0,0.5-0.1,0.8-0.3,1.2c-0.2,0.4-0.4,0.5-0.8,0.7s-0.7,0.2-1.2,0.2h-1.2v-4.1h1.3
	c0.4,0,0.8,0.1,1.1,0.2c0.3,0.1,0.6,0.4,0.7,0.7C81.7,57.4,81.8,57.7,81.8,58.2z M80.9,58.2c0-0.3,0-0.6-0.1-0.7
	c-0.1-0.2-0.2-0.3-0.4-0.4C80.2,57,80,57,79.8,57h-0.5v2.7h0.4c0.4,0,0.7-0.1,0.9-0.3C80.7,59,80.9,58.6,80.9,58.2z"/>
<path class="st1" d="M84.3,56.8c-0.2,0-0.3,0-0.4,0.1s-0.2,0.2-0.3,0.3c-0.1,0.1-0.2,0.3-0.2,0.4c0,0.2-0.1,0.4-0.1,0.6
	c0,0.3,0,0.5,0.1,0.7s0.2,0.4,0.3,0.5c0.2,0.1,0.3,0.2,0.6,0.2c0.2,0,0.3,0,0.5-0.1c0.2,0,0.3-0.1,0.5-0.2V60
	c-0.2,0.1-0.4,0.1-0.5,0.2c-0.2,0-0.4,0-0.6,0c-0.4,0-0.8-0.1-1-0.3c-0.3-0.2-0.5-0.4-0.6-0.7s-0.2-0.7-0.2-1.1c0-0.3,0-0.6,0.1-0.9
	s0.2-0.5,0.4-0.7c0.2-0.2,0.4-0.3,0.6-0.4c0.2-0.1,0.5-0.2,0.8-0.2c0.2,0,0.4,0,0.6,0.1s0.4,0.1,0.6,0.2l-0.3,0.7
	c-0.2-0.1-0.3-0.1-0.5-0.2C84.6,56.9,84.4,56.8,84.3,56.8z"/>
<path class="st1" d="M87.7,60.3h-0.9v-3.4h-1.1v-0.7h3.1v0.7h-1.1V60.3z"/>
<path class="st1" d="M93.2,58.2c0,0.3,0,0.6-0.1,0.9c-0.1,0.3-0.2,0.5-0.4,0.7c-0.2,0.2-0.4,0.3-0.6,0.4c-0.2,0.1-0.5,0.1-0.9,0.1
	s-0.6,0-0.9-0.1c-0.2-0.1-0.4-0.2-0.6-0.4s-0.3-0.4-0.4-0.7s-0.1-0.5-0.1-0.9s0.1-0.8,0.2-1.1s0.4-0.6,0.6-0.7
	c0.3-0.2,0.7-0.3,1.1-0.3s0.8,0.1,1.1,0.3c0.3,0.2,0.5,0.4,0.6,0.7C93.1,57.4,93.2,57.8,93.2,58.2z M90.2,58.2c0,0.3,0,0.5,0.1,0.7
	s0.2,0.4,0.3,0.5c0.1,0.1,0.4,0.2,0.6,0.2s0.4-0.1,0.6-0.2c0.2-0.1,0.3-0.3,0.3-0.5s0.1-0.5,0.1-0.7c0-0.4-0.1-0.8-0.2-1
	c-0.2-0.2-0.4-0.4-0.8-0.4c-0.2,0-0.4,0.1-0.6,0.2c-0.2,0.1-0.3,0.3-0.3,0.5C90.2,57.7,90.2,57.9,90.2,58.2z"/>
<path class="st1" d="M93.8,59.9c0-0.2,0-0.3,0.1-0.4s0.2-0.1,0.3-0.1c0.1,0,0.2,0,0.3,0.1s0.1,0.2,0.1,0.4s0,0.3-0.1,0.4
	c-0.1,0.1-0.2,0.1-0.3,0.1c-0.1,0-0.3,0-0.3-0.1C93.8,60.2,93.8,60,93.8,59.9z"/>
<path class="st0" d="M192.4,42.1c0.9,0,1.5,0.3,2,0.9s0.7,1.5,0.7,2.5s-0.2,1.9-0.6,2.6c-0.4,0.6-1.1,0.9-2,0.9s-1.5-0.3-1.9-0.9
	c-0.4-0.6-0.7-1.5-0.7-2.6s0.2-1.9,0.6-2.5S191.5,42.1,192.4,42.1z M192.4,43.7c-0.2,0-0.4,0.2-0.5,0.5s-0.2,0.8-0.2,1.4
	c0,0.6,0.1,1.1,0.2,1.4c0.1,0.3,0.3,0.5,0.5,0.5s0.4-0.2,0.5-0.5s0.2-0.8,0.2-1.4c0-0.6-0.1-1.1-0.2-1.4
	C192.9,43.9,192.7,43.7,192.4,43.7z M200.3,42.3l-6.1,11h-1.8l6.1-11H200.3z M200.2,46.5c0.9,0,1.5,0.3,2,0.9
	c0.4,0.6,0.7,1.5,0.7,2.5c0,1.1-0.2,1.9-0.6,2.6c-0.4,0.6-1.1,0.9-2,0.9s-1.5-0.3-1.9-0.9c-0.4-0.6-0.7-1.5-0.7-2.6s0.2-1.9,0.6-2.5
	C198.6,46.8,199.2,46.5,200.2,46.5z M200.2,48.1c-0.2,0-0.4,0.2-0.5,0.5s-0.2,0.8-0.2,1.4s0.1,1.1,0.2,1.4c0.1,0.3,0.3,0.5,0.5,0.5
	s0.4-0.2,0.5-0.5s0.2-0.8,0.2-1.4s-0.1-1.1-0.2-1.4C200.6,48.3,200.4,48.1,200.2,48.1z"/>
<path class="st0" d="M192.8,57.2c0,0.5-0.1,0.8-0.3,1.2s-0.4,0.5-0.8,0.7c-0.4,0.2-0.7,0.2-1.2,0.2h-1.2v-4.1h1.3
	c0.4,0,0.8,0.1,1.1,0.2c0.3,0.1,0.6,0.4,0.7,0.7C192.7,56.4,192.8,56.7,192.8,57.2z M191.9,57.2c0-0.3,0-0.6-0.1-0.7
	c-0.1-0.2-0.2-0.3-0.4-0.4c-0.2-0.1-0.4-0.1-0.6-0.1h-0.5v2.7h0.4c0.4,0,0.7-0.1,0.9-0.3C191.7,58,191.9,57.6,191.9,57.2z"/>
<path class="st0" d="M195.3,55.8c-0.2,0-0.3,0-0.4,0.1c-0.1,0.1-0.2,0.2-0.3,0.3s-0.2,0.3-0.2,0.4c0,0.2-0.1,0.4-0.1,0.6
	c0,0.3,0,0.5,0.1,0.7s0.2,0.4,0.3,0.5c0.2,0.1,0.3,0.2,0.6,0.2c0.2,0,0.3,0,0.5-0.1c0.2,0,0.3-0.1,0.5-0.2V59
	c-0.2,0.1-0.4,0.1-0.5,0.2c-0.2,0-0.4,0-0.6,0c-0.4,0-0.8-0.1-1-0.3c-0.3-0.2-0.5-0.4-0.6-0.7s-0.2-0.7-0.2-1.1c0-0.3,0-0.6,0.1-0.9
	s0.2-0.5,0.4-0.7s0.4-0.3,0.6-0.4c0.2-0.1,0.5-0.2,0.8-0.2c0.2,0,0.4,0,0.6,0.1c0.2,0.1,0.4,0.1,0.6,0.2l-0.3,0.7
	c-0.2-0.1-0.3-0.1-0.5-0.2C195.6,55.9,195.4,55.8,195.3,55.8z"/>
<path class="st0" d="M198.7,59.3h-0.9v-3.4h-1.1v-0.7h3.1v0.7h-1.1V59.3z"/>
<path class="st0" d="M204.2,57.2c0,0.3,0,0.6-0.1,0.9c-0.1,0.3-0.2,0.5-0.4,0.7s-0.4,0.3-0.6,0.4c-0.2,0.1-0.5,0.1-0.9,0.1
	s-0.6,0-0.9-0.1c-0.2-0.1-0.4-0.2-0.6-0.4s-0.3-0.4-0.4-0.7c-0.1-0.3-0.1-0.5-0.1-0.9s0.1-0.8,0.2-1.1c0.1-0.3,0.4-0.6,0.6-0.7
	c0.3-0.2,0.7-0.3,1.1-0.3c0.4,0,0.8,0.1,1.1,0.3s0.5,0.4,0.6,0.7C204.1,56.4,204.2,56.8,204.2,57.2z M201.2,57.2
	c0,0.3,0,0.5,0.1,0.7s0.2,0.4,0.3,0.5s0.4,0.2,0.6,0.2s0.4-0.1,0.6-0.2c0.2-0.1,0.3-0.3,0.3-0.5s0.1-0.5,0.1-0.7
	c0-0.4-0.1-0.8-0.2-1c-0.2-0.2-0.4-0.4-0.8-0.4c-0.2,0-0.4,0.1-0.6,0.2c-0.2,0.1-0.3,0.3-0.3,0.5C201.2,56.7,201.2,56.9,201.2,57.2z
	"/>
<path class="st0" d="M204.8,58.9c0-0.2,0-0.3,0.1-0.4c0.1-0.1,0.2-0.1,0.3-0.1s0.2,0,0.3,0.1s0.1,0.2,0.1,0.4s0,0.3-0.1,0.4
	c-0.1,0.1-0.2,0.1-0.3,0.1s-0.3,0-0.3-0.1C204.8,59.2,204.8,59,204.8,58.9z"/>
<path class="st0" d="M146.9,71.1c0,0.5-0.1,0.9-0.4,1.3s-0.6,0.7-1.1,0.9c-0.5,0.2-1,0.3-1.7,0.3c-0.3,0-0.6,0-0.9-0.1
	s-0.6-0.1-0.8-0.2s-0.5-0.2-0.7-0.3v-1.7c0.4,0.2,0.8,0.3,1.3,0.5s0.9,0.2,1.3,0.2c0.3,0,0.5,0,0.7-0.1s0.3-0.2,0.4-0.3
	s0.1-0.3,0.1-0.5s-0.1-0.4-0.2-0.6c-0.1-0.2-0.3-0.3-0.6-0.4s-0.5-0.3-0.9-0.4c-0.2-0.1-0.4-0.2-0.7-0.3s-0.5-0.3-0.7-0.5
	s-0.4-0.4-0.5-0.7c-0.1-0.3-0.2-0.6-0.2-1c0-0.5,0.1-0.9,0.4-1.3s0.6-0.6,1-0.8c0.4-0.2,1-0.3,1.5-0.3c0.4,0,0.9,0.1,1.3,0.2
	s0.8,0.3,1.3,0.4l-0.6,1.4c-0.4-0.2-0.7-0.3-1.1-0.4c-0.4-0.1-0.6-0.1-1-0.1c-0.2,0-0.4,0-0.6,0.1s-0.3,0.2-0.4,0.3
	c-0.1,0.1-0.1,0.3-0.1,0.5s0.1,0.4,0.2,0.5c0.1,0.1,0.3,0.3,0.5,0.4s0.5,0.3,0.9,0.5s0.8,0.4,1.1,0.6s0.5,0.5,0.7,0.8
	C146.6,70.3,146.9,70.7,146.9,71.1z"/>
<path class="st0" d="M150.9,66.8c0.6,0,1.1,0.1,1.6,0.3c0.5,0.2,0.8,0.6,1,1s0.4,1,0.4,1.6v0.9h-4.2c0,0.5,0.2,0.9,0.5,1.2
	c0.3,0.3,0.7,0.4,1.2,0.4c0.4,0,0.8,0,1.1-0.1s0.7-0.2,1.1-0.4v1.4c-0.3,0.2-0.7,0.3-1,0.4s-0.8,0.1-1.3,0.1c-0.7,0-1.2-0.1-1.7-0.4
	s-0.9-0.6-1.2-1.1S148,71,148,70.2s0.1-1.4,0.4-1.9c0.3-0.5,0.6-0.9,1.1-1.1C150,67,150.3,66.8,150.9,66.8z M150.9,68.1
	c-0.3,0-0.6,0.1-0.9,0.3c-0.3,0.2-0.4,0.6-0.4,1h2.5c0-0.3-0.1-0.5-0.1-0.7s-0.2-0.4-0.4-0.5C151.4,68.1,151.2,68.1,150.9,68.1z"/>
<path class="st0" d="M159.7,71.5c0,0.4-0.1,0.8-0.3,1.1c-0.2,0.3-0.5,0.5-0.9,0.7s-0.9,0.2-1.5,0.2c-0.5,0-0.8,0-1.2-0.1
	s-0.7-0.2-1-0.3v-1.5c0.4,0.2,0.7,0.3,1.1,0.4c0.4,0.1,0.8,0.2,1.1,0.2s0.6-0.1,0.7-0.2c0.1-0.1,0.2-0.2,0.2-0.4
	c0-0.1,0-0.2-0.1-0.3c-0.1-0.1-0.2-0.2-0.4-0.3c-0.2-0.1-0.5-0.3-0.9-0.4c-0.4-0.2-0.7-0.3-1-0.5s-0.5-0.4-0.6-0.6s-0.2-0.5-0.2-0.9
	c0-0.6,0.2-1.1,0.7-1.4s1.1-0.5,1.9-0.5c0.4,0,0.8,0,1.2,0.1s0.7,0.2,1.1,0.4l-0.5,1.3c-0.3-0.1-0.6-0.3-0.9-0.3s-0.6-0.1-0.9-0.1
	s-0.5,0-0.6,0.1s-0.2,0.2-0.2,0.3s0,0.2,0.1,0.3c0.1,0.1,0.2,0.2,0.4,0.3s0.5,0.2,0.9,0.4c0.4,0.2,0.7,0.3,1,0.5s0.5,0.4,0.6,0.6
	C159.6,70.8,159.7,71.2,159.7,71.5z"/>
<path class="st0" d="M161.8,64.4c0.3,0,0.5,0.1,0.7,0.2s0.3,0.4,0.3,0.7c0,0.3-0.1,0.6-0.3,0.7s-0.4,0.2-0.7,0.2s-0.5-0.1-0.7-0.2
	s-0.3-0.4-0.3-0.7c0-0.3,0.1-0.6,0.3-0.7S161.6,64.4,161.8,64.4z M162.7,66.9v6.6h-1.8v-6.6H162.7z"/>
<path class="st0" d="M170.4,70.2c0,0.5-0.1,1-0.2,1.5c-0.1,0.5-0.4,0.8-0.6,1.1c-0.2,0.3-0.6,0.5-1,0.7s-0.8,0.2-1.3,0.2
	s-0.9-0.1-1.3-0.2s-0.7-0.4-1-0.7c-0.3-0.3-0.5-0.6-0.7-1.1s-0.2-0.9-0.2-1.5c0-0.7,0.1-1.3,0.4-1.8s0.6-0.9,1.1-1.1s1-0.4,1.7-0.4
	c0.6,0,1.2,0.1,1.6,0.4c0.4,0.3,0.8,0.6,1.1,1.1S170.4,69.5,170.4,70.2z M165.9,70.2c0,0.4,0,0.8,0.1,1.1c0.1,0.3,0.2,0.5,0.4,0.7
	s0.5,0.2,0.8,0.2s0.6-0.1,0.8-0.2s0.3-0.4,0.4-0.7c0.1-0.3,0.1-0.7,0.1-1.1s0-0.8-0.1-1.1c-0.1-0.3-0.2-0.5-0.4-0.6
	s-0.5-0.2-0.8-0.2c-0.5,0-0.8,0.2-1,0.5C166,69.1,165.9,69.6,165.9,70.2z M169.5,64.3c-0.1,0.2-0.3,0.3-0.4,0.5
	c-0.1,0.2-0.4,0.3-0.6,0.5c-0.2,0.2-0.4,0.3-0.6,0.5c-0.2,0.2-0.4,0.3-0.5,0.4h-1.2V66c0.1-0.1,0.3-0.3,0.4-0.5
	c0.1-0.2,0.3-0.4,0.5-0.6s0.3-0.4,0.4-0.6H169.5L169.5,64.3z"/>
<path class="st0" d="M175.4,66.8c0.7,0,1.3,0.2,1.7,0.6s0.6,1,0.6,1.8v4.3h-1.8v-3.8c0-0.5-0.1-0.8-0.3-1.1
	c-0.2-0.3-0.4-0.4-0.8-0.4c-0.5,0-0.9,0.2-1.1,0.6c-0.2,0.4-0.3,0.9-0.3,1.6v3.1h-1.8v-6.6h1.4l0.2,0.8h0.1c0.1-0.2,0.3-0.4,0.5-0.6
	s0.4-0.2,0.7-0.3C174.8,66.7,175.2,66.8,175.4,66.8z"/>
<path class="st0" d="M144.4,88c-0.6,0-1.2-0.1-1.7-0.4s-0.8-0.6-1-1.1s-0.4-1.1-0.4-1.9s0.1-1.5,0.4-2s0.6-0.9,1.1-1.1
	s1-0.4,1.7-0.4c0.5,0,0.8,0,1.2,0.1s0.6,0.2,0.9,0.3l-0.5,1.4c-0.3-0.1-0.5-0.2-0.8-0.3s-0.5-0.1-0.7-0.1c-0.3,0-0.6,0.1-0.8,0.2
	s-0.4,0.4-0.5,0.7c-0.1,0.3-0.2,0.7-0.2,1.1s0.1,0.8,0.2,1.1c0.1,0.3,0.3,0.5,0.5,0.6s0.5,0.2,0.8,0.2c0.4,0,0.7,0,1-0.1
	s0.6-0.2,0.8-0.4v1.5c-0.3,0.2-0.6,0.3-0.9,0.4C145.2,87.9,144.9,88,144.4,88z"/>
<path class="st0" d="M153.7,84.6c0,0.5-0.1,1-0.2,1.5s-0.4,0.8-0.6,1.1c-0.2,0.3-0.6,0.5-1,0.7s-0.8,0.2-1.3,0.2s-0.9-0.1-1.3-0.2
	c-0.4-0.1-0.7-0.4-1-0.7c-0.3-0.3-0.5-0.6-0.7-1.1s-0.2-0.9-0.2-1.5c0-0.7,0.1-1.3,0.4-1.8s0.6-0.9,1.1-1.1s1-0.4,1.7-0.4
	c0.6,0,1.2,0.1,1.6,0.4c0.4,0.3,0.8,0.6,1.1,1.1S153.7,83.9,153.7,84.6z M149.2,84.6c0,0.4,0,0.8,0.1,1.1c0.1,0.3,0.2,0.5,0.4,0.7
	s0.5,0.2,0.8,0.2s0.6-0.1,0.8-0.2s0.3-0.4,0.4-0.7c0.1-0.3,0.1-0.7,0.1-1.1s0-0.8-0.1-1.1c-0.1-0.3-0.2-0.5-0.4-0.6
	s-0.5-0.2-0.8-0.2c-0.5,0-0.8,0.2-1,0.5C149.3,83.5,149.2,84,149.2,84.6z"/>
<path class="st0" d="M162.7,81.2c0.7,0,1.3,0.2,1.7,0.6s0.6,1,0.6,1.8v4.3h-1.8v-3.8c0-0.5-0.1-0.8-0.2-1.1s-0.4-0.4-0.7-0.4
	c-0.5,0-0.8,0.2-1,0.5s-0.3,0.8-0.3,1.5v3.3h-1.8v-3.8c0-0.3,0-0.6-0.1-0.8c-0.1-0.2-0.2-0.4-0.3-0.5s-0.3-0.2-0.6-0.2
	s-0.6,0.1-0.8,0.2s-0.3,0.4-0.4,0.7s-0.1,0.7-0.1,1.2v3.1h-1.8v-6.6h1.4l0.2,0.8h0.1c0.1-0.2,0.3-0.4,0.5-0.6s0.4-0.2,0.7-0.3
	s0.5-0.1,0.7-0.1c0.5,0,0.9,0.1,1.2,0.2s0.6,0.4,0.8,0.7h0.2c0.2-0.3,0.5-0.6,0.8-0.7C162,81.1,162.3,81.2,162.7,81.2z"/>
<path class="st0" d="M170.3,81.2c0.7,0,1.3,0.3,1.8,0.9s0.7,1.4,0.7,2.5c0,0.7-0.1,1.4-0.3,1.9s-0.5,0.9-0.9,1.1s-0.8,0.4-1.3,0.4
	c-0.3,0-0.6,0-0.8-0.1s-0.4-0.2-0.6-0.3c-0.2-0.1-0.3-0.3-0.4-0.4h-0.1c0,0.2,0.1,0.3,0.1,0.5s0,0.3,0,0.5v2.6h-1.8v-9.4h1.5
	l0.3,0.8h0.1c0.1-0.2,0.3-0.3,0.4-0.5c0.1-0.2,0.4-0.3,0.6-0.4C169.8,81.2,170,81.2,170.3,81.2z M169.7,82.6c-0.3,0-0.6,0.1-0.7,0.2
	c-0.1,0.1-0.3,0.3-0.4,0.6c-0.1,0.3-0.1,0.6-0.1,1v0.2c0,0.4,0,0.8,0.1,1.1c0.1,0.3,0.2,0.5,0.4,0.7s0.5,0.2,0.8,0.2
	s0.5-0.1,0.7-0.2s0.3-0.4,0.4-0.7c0.1-0.3,0.1-0.7,0.1-1.1c0-0.6-0.1-1.1-0.3-1.4C170.5,82.9,170.1,82.6,169.7,82.6z"/>
<path class="st0" d="M176.8,81.2c0.9,0,1.6,0.2,2,0.6s0.7,1,0.7,1.7v4.4h-1.2L178,87c-0.2,0.2-0.4,0.4-0.6,0.6
	c-0.2,0.2-0.4,0.3-0.7,0.3s-0.6,0.1-0.9,0.1c-0.4,0-0.7-0.1-1-0.2s-0.5-0.4-0.7-0.7c-0.2-0.3-0.3-0.7-0.3-1.2c0-0.7,0.2-1.2,0.7-1.5
	s1.2-0.5,2.2-0.5h1.1v-0.3c0-0.3-0.1-0.6-0.3-0.8c-0.2-0.2-0.4-0.2-0.8-0.2c-0.3,0-0.6,0-0.9,0.1c-0.3,0.1-0.6,0.2-0.9,0.3l-0.6-1.2
	c0.3-0.2,0.7-0.3,1.2-0.4S176.3,81.2,176.8,81.2z M177.7,84.9H177c-0.6,0-1,0.1-1.2,0.3c-0.2,0.2-0.3,0.4-0.3,0.8
	c0,0.3,0.1,0.5,0.2,0.6c0.1,0.1,0.4,0.2,0.6,0.2c0.4,0,0.7-0.1,1-0.3s0.4-0.5,0.4-1V84.9z"/>
<path class="st0" d="M184.8,81.2c0.1,0,0.2,0,0.3,0s0.2,0,0.3,0l-0.1,1.7c-0.1,0-0.1,0-0.2,0c-0.1,0-0.2,0-0.3,0
	c-0.2,0-0.5,0-0.7,0.1s-0.4,0.2-0.6,0.3c-0.2,0.1-0.3,0.3-0.4,0.5c-0.1,0.2-0.1,0.5-0.1,0.8v3.3h-1.8v-6.6h1.4l0.3,1.1h0.1
	c0.1-0.2,0.3-0.4,0.5-0.6s0.4-0.3,0.7-0.4S184.5,81.2,184.8,81.2z"/>
<path class="st0" d="M189.2,86.6c0.2,0,0.4,0,0.6-0.1s0.4-0.1,0.6-0.1v1.3c-0.2,0.1-0.4,0.2-0.7,0.2s-0.6,0.1-0.9,0.1
	c-0.4,0-0.7-0.1-1.1-0.2c-0.4-0.1-0.6-0.3-0.7-0.7s-0.3-0.8-0.3-1.3v-3.2h-0.9v-0.8l1-0.6l0.5-1.4h1.1v1.4h1.8v1.3h-1.8v3.2
	c0,0.2,0.1,0.4,0.2,0.6C188.7,86.5,189,86.6,189.2,86.6z"/>
<path class="st0" d="M192.4,78.8c0.3,0,0.5,0.1,0.7,0.2s0.3,0.4,0.3,0.7c0,0.3-0.1,0.6-0.3,0.7s-0.4,0.2-0.7,0.2s-0.5-0.1-0.7-0.2
	s-0.3-0.4-0.3-0.7c0-0.3,0.1-0.6,0.3-0.7S192.2,78.8,192.4,78.8z M193.3,81.3v6.6h-1.8v-6.6H193.3z"/>
<path class="st0" d="M197.1,88c-0.7,0-1.3-0.3-1.8-0.9s-0.7-1.4-0.7-2.5s0.2-2,0.7-2.5s1.1-0.9,1.8-0.9c0.3,0,0.6,0,0.8,0.1
	s0.4,0.2,0.6,0.3s0.3,0.3,0.4,0.5h0.1c0-0.1-0.1-0.3-0.1-0.6s0-0.5,0-0.8v-2.1h1.8v9.1h-1.4l-0.3-0.8h-0.1c-0.1,0.2-0.3,0.3-0.4,0.5
	c-0.1,0.2-0.4,0.3-0.6,0.3S197.4,88,197.1,88z M197.7,86.6c0.5,0,0.8-0.1,1-0.4s0.3-0.7,0.3-1.3v-0.2c0-0.6-0.1-1.1-0.3-1.5
	s-0.6-0.5-1.1-0.5c-0.4,0-0.7,0.2-0.9,0.5s-0.3,0.8-0.3,1.5s0.1,1.1,0.3,1.4S197.3,86.6,197.7,86.6z"/>
<path class="st0" d="M205.2,81.2c0.9,0,1.6,0.2,2,0.6s0.7,1,0.7,1.7v4.4h-1.2l-0.4-0.9c-0.2,0.2-0.4,0.4-0.6,0.6
	c-0.2,0.2-0.4,0.3-0.7,0.3s-0.6,0.1-0.9,0.1c-0.4,0-0.7-0.1-1-0.2s-0.5-0.4-0.7-0.7c-0.2-0.3-0.3-0.7-0.3-1.2c0-0.7,0.2-1.2,0.7-1.5
	s1.2-0.5,2.2-0.5h1.1v-0.3c0-0.3-0.1-0.6-0.3-0.8c-0.2-0.2-0.4-0.2-0.8-0.2c-0.3,0-0.6,0-0.9,0.1c-0.3,0.1-0.6,0.2-0.9,0.3l-0.6-1.2
	c0.3-0.2,0.7-0.3,1.2-0.4S204.7,81.2,205.2,81.2z M206.1,84.9h-0.7c-0.6,0-1,0.1-1.2,0.3c-0.2,0.2-0.3,0.4-0.3,0.8
	c0,0.3,0.1,0.5,0.2,0.6c0.1,0.1,0.4,0.2,0.6,0.2c0.4,0,0.7-0.1,1-0.3s0.4-0.5,0.4-1V84.9z"/>
<path class="st0" d="M213.9,84.5l-2.1-3.2h2l1.3,2.1l1.3-2.1h2l-2.1,3.2l2.2,3.3h-2l-1.4-2.2l-1.4,2.2h-2L213.9,84.5z"/>
<path class="st0" d="M225,86.1h-1v1.8h-1.8v-1.8h-3.7v-1.3l3.8-5.5h1.7v5.4h1V86.1z M222.2,84.7v-1.5c0-0.1,0-0.3,0-0.5s0-0.4,0-0.6
	s0-0.4,0-0.5s0-0.2,0-0.3c-0.1,0.2-0.2,0.3-0.2,0.5s-0.2,0.3-0.3,0.5l-1.6,2.4H222.2L222.2,84.7z"/>
<path class="st1" d="M31.9,65.9h2.7c1.1,0,2,0.2,2.6,0.5s0.9,0.9,0.9,1.7c0,0.3-0.1,0.6-0.2,0.9c-0.1,0.3-0.3,0.5-0.4,0.6
	s-0.4,0.3-0.7,0.3V70c0.3,0.1,0.5,0.2,0.8,0.3c0.3,0.1,0.4,0.3,0.6,0.6c0.2,0.3,0.2,0.6,0.2,1.1s-0.1,1-0.4,1.3
	c-0.3,0.3-0.6,0.7-1.1,0.9c-0.5,0.2-1,0.3-1.7,0.3H32L31.9,65.9z M33.7,69.3h1.1c0.5,0,0.9-0.1,1.1-0.2c0.2-0.1,0.3-0.4,0.3-0.7
	c0-0.3-0.1-0.6-0.4-0.7c-0.3-0.1-0.6-0.2-1.1-0.2h-1C33.7,67.5,33.7,69.3,33.7,69.3z M33.7,70.8V73h1.2c0.5,0,0.9-0.1,1.1-0.3
	c0.2-0.2,0.3-0.5,0.3-0.8c0-0.2,0-0.4-0.1-0.6s-0.3-0.3-0.5-0.4s-0.5-0.1-0.9-0.1L33.7,70.8L33.7,70.8z"/>
<path class="st1" d="M42.3,67.8c0.9,0,1.6,0.2,2,0.6s0.7,1,0.7,1.7v4.4h-1.2l-0.3-0.9c-0.2,0.2-0.4,0.4-0.6,0.6
	c-0.2,0.2-0.4,0.3-0.7,0.3s-0.6,0.1-0.9,0.1c-0.4,0-0.7-0.1-1-0.2s-0.5-0.4-0.7-0.7c-0.2-0.3-0.3-0.7-0.3-1.2c0-0.7,0.2-1.2,0.7-1.5
	s1.2-0.5,2.2-0.5h1.1v-0.3c0-0.3-0.1-0.6-0.3-0.8c-0.2-0.2-0.4-0.2-0.8-0.2c-0.3,0-0.6,0-0.9,0.1c-0.3,0.1-0.6,0.2-0.9,0.3l-0.6-1.2
	c0.3-0.2,0.7-0.3,1.2-0.4S41.9,67.8,42.3,67.8z M43.3,71.5h-0.7c-0.6,0-1,0.1-1.2,0.3c-0.2,0.2-0.3,0.4-0.3,0.8
	c0,0.3,0.1,0.5,0.2,0.6c0.1,0.1,0.4,0.2,0.6,0.2c0.4,0,0.7-0.1,1-0.3c0.3-0.2,0.4-0.5,0.4-1V71.5z"/>
<path class="st1" d="M51.3,72.5c0,0.4-0.1,0.8-0.3,1.1c-0.2,0.3-0.5,0.5-0.9,0.7s-0.9,0.2-1.5,0.2c-0.5,0-0.8,0-1.2-0.1
	s-0.7-0.2-1-0.3v-1.5c0.4,0.2,0.7,0.3,1.1,0.4s0.8,0.2,1.1,0.2s0.6-0.1,0.7-0.2c0.1-0.1,0.2-0.2,0.2-0.4c0-0.1,0-0.2-0.1-0.3
	c-0.1-0.1-0.2-0.2-0.4-0.3s-0.5-0.3-0.9-0.4c-0.4-0.2-0.7-0.3-1-0.5s-0.5-0.4-0.6-0.6s-0.2-0.5-0.2-0.9c0-0.6,0.2-1.1,0.7-1.4
	s1.1-0.5,1.9-0.5c0.4,0,0.8,0,1.2,0.1s0.7,0.2,1.1,0.4l-0.5,1.3c-0.3-0.1-0.6-0.3-0.9-0.3s-0.6-0.1-0.9-0.1c-0.3,0-0.5,0-0.6,0.1
	s-0.2,0.2-0.2,0.3s0,0.2,0.1,0.3c0.1,0.1,0.2,0.2,0.4,0.3c0.2,0.1,0.5,0.2,0.9,0.4s0.7,0.3,1,0.5s0.5,0.4,0.6,0.6
	C51.2,71.8,51.3,72.2,51.3,72.5z"/>
<path class="st1" d="M55.2,67.8c0.6,0,1.1,0.1,1.6,0.3c0.5,0.2,0.8,0.6,1,1s0.4,1,0.4,1.6v0.9H54c0,0.5,0.2,0.9,0.5,1.2
	c0.3,0.3,0.7,0.4,1.2,0.4c0.4,0,0.8,0,1.1-0.1s0.7-0.2,1.1-0.4v1.4c-0.3,0.2-0.7,0.3-1,0.4s-0.8,0.1-1.3,0.1c-0.7,0-1.2-0.1-1.7-0.4
	s-0.9-0.6-1.2-1.1s-0.4-1.1-0.4-1.9s0.1-1.4,0.4-1.9s0.6-0.9,1.1-1.1C54.3,68,54.6,67.8,55.2,67.8z M55.3,69.1
	c-0.3,0-0.6,0.1-0.9,0.3c-0.3,0.2-0.4,0.6-0.4,1h2.5c0-0.3-0.1-0.5-0.1-0.7s-0.2-0.4-0.4-0.5C55.8,69.1,55.5,69.1,55.3,69.1z"/>
<path class="st1" d="M62.6,65.9h2.7c1.1,0,2,0.2,2.6,0.5s0.9,0.9,0.9,1.7c0,0.3-0.1,0.6-0.2,0.9s-0.3,0.5-0.4,0.6s-0.4,0.3-0.7,0.3
	V70c0.3,0.1,0.5,0.2,0.8,0.3c0.3,0.1,0.4,0.3,0.6,0.6c0.2,0.3,0.2,0.6,0.2,1.1s-0.1,1-0.4,1.3s-0.6,0.7-1.1,0.9
	c-0.5,0.2-1,0.3-1.7,0.3h-3.2L62.6,65.9z M64.4,69.3h1.1c0.5,0,0.9-0.1,1.1-0.2s0.3-0.4,0.3-0.7c0-0.3-0.1-0.6-0.4-0.7
	s-0.6-0.2-1.1-0.2h-1V69.3L64.4,69.3z M64.4,70.8V73h1.2c0.5,0,0.9-0.1,1.1-0.3c0.2-0.2,0.3-0.5,0.3-0.8c0-0.2,0-0.4-0.1-0.6
	s-0.3-0.3-0.5-0.4s-0.5-0.1-0.9-0.1L64.4,70.8L64.4,70.8z"/>
<path class="st1" d="M72.1,74.5h-1.8v-9.1h1.8V74.5z"/>
<path class="st1" d="M76.5,67.8c0.9,0,1.6,0.2,2,0.6s0.7,1,0.7,1.7v4.4H78l-0.3-0.9c-0.2,0.2-0.4,0.4-0.6,0.6s-0.4,0.3-0.7,0.3
	c-0.3,0-0.6,0.1-0.9,0.1c-0.4,0-0.7-0.1-1-0.2S74,74,73.8,73.7s-0.3-0.7-0.3-1.2c0-0.7,0.2-1.2,0.7-1.5s1.2-0.5,2.2-0.5h1.1v-0.3
	c0-0.3-0.1-0.6-0.3-0.8c-0.2-0.2-0.4-0.2-0.8-0.2c-0.3,0-0.6,0-0.9,0.1s-0.6,0.2-0.9,0.3L74,68.4c0.3-0.2,0.7-0.3,1.2-0.4
	S76.1,67.8,76.5,67.8z M77.5,71.5h-0.7c-0.6,0-1,0.1-1.2,0.3c-0.2,0.2-0.3,0.4-0.3,0.8c0,0.3,0.1,0.5,0.2,0.6s0.4,0.2,0.6,0.2
	c0.4,0,0.7-0.1,1-0.3c0.3-0.2,0.4-0.5,0.4-1V71.5z"/>
<path class="st1" d="M83.6,74.6c-0.6,0-1.2-0.1-1.7-0.4s-0.8-0.6-1-1.1s-0.4-1.1-0.4-1.9s0.1-1.5,0.4-2s0.6-0.9,1.1-1.1
	s1-0.4,1.7-0.4c0.5,0,0.8,0,1.2,0.1c0.4,0.1,0.6,0.2,0.9,0.3l-0.5,1.4c-0.3-0.1-0.5-0.2-0.8-0.3c-0.3-0.1-0.5-0.1-0.7-0.1
	c-0.3,0-0.6,0.1-0.8,0.2c-0.2,0.1-0.4,0.4-0.5,0.7s-0.2,0.7-0.2,1.1s0.1,0.8,0.2,1.1c0.1,0.3,0.3,0.5,0.5,0.6s0.5,0.2,0.8,0.2
	c0.4,0,0.7,0,1-0.1s0.6-0.2,0.8-0.4V74c-0.3,0.2-0.6,0.3-0.9,0.4C84.4,74.5,84.1,74.6,83.6,74.6z"/>
<path class="st1" d="M88.7,65.4v4.1c0,0.2,0,0.5,0,0.7s0,0.5-0.1,0.7c0.1-0.2,0.2-0.3,0.4-0.5c0.2-0.2,0.3-0.3,0.4-0.5l1.8-2h2
	l-2.6,2.8l2.8,3.7h-2.1l-1.9-2.7l-0.8,0.6v2h-1.8v-9.1h1.9L88.7,65.4L88.7,65.4z"/>
<path class="st1" d="M35.5,88.9l-2.1-6.7h-0.1c0,0.2,0,0.4,0,0.7c0,0.3,0,0.7,0,1s0,0.7,0,1v4h-1.6v-8.6h2.5l2,6.6l2.2-6.6h2.5v8.6
	h-1.6v-4.1c0-0.3,0-0.6,0-0.9s0-0.7,0-1s0-0.6,0-0.7h-0.1L37,88.9H35.5z"/>
<path class="st1" d="M48.8,85.6c0,0.5-0.1,1-0.2,1.5c-0.1,0.5-0.4,0.8-0.6,1.1c-0.2,0.3-0.6,0.5-1,0.7s-0.8,0.2-1.3,0.2
	s-0.9-0.1-1.3-0.2c-0.4-0.1-0.7-0.4-1-0.7c-0.3-0.3-0.5-0.6-0.7-1.1s-0.2-0.9-0.2-1.5c0-0.7,0.1-1.3,0.4-1.8
	c0.3-0.5,0.6-0.9,1.1-1.1s1-0.4,1.7-0.4c0.6,0,1.2,0.1,1.6,0.4c0.4,0.3,0.8,0.6,1.1,1.1C48.7,84.3,48.8,84.9,48.8,85.6z M44.3,85.6
	c0,0.4,0,0.8,0.1,1.1c0.1,0.3,0.2,0.5,0.4,0.7s0.5,0.2,0.8,0.2s0.6-0.1,0.8-0.2s0.3-0.4,0.4-0.7c0.1-0.3,0.1-0.7,0.1-1.1
	s0-0.8-0.1-1.1c-0.1-0.3-0.2-0.5-0.4-0.6s-0.5-0.2-0.8-0.2c-0.5,0-0.8,0.2-1,0.5C44.4,84.5,44.3,85,44.3,85.6z"/>
<path class="st1" d="M53.9,82.2c0.7,0,1.3,0.2,1.7,0.6s0.6,1,0.6,1.8v4.3h-1.8v-3.8c0-0.5-0.1-0.8-0.3-1.1c-0.2-0.3-0.4-0.4-0.8-0.4
	c-0.5,0-0.9,0.2-1.1,0.6c-0.2,0.4-0.3,0.9-0.3,1.6v3.1h-1.8v-6.6h1.4l0.2,0.8h0.1c0.1-0.2,0.3-0.4,0.5-0.6s0.4-0.2,0.7-0.3
	C53.3,82.1,53.6,82.2,53.9,82.2z"/>
<path class="st1" d="M60,89c-0.7,0-1.3-0.3-1.8-0.9s-0.7-1.4-0.7-2.5s0.2-2,0.7-2.5s1.1-0.9,1.8-0.9c0.3,0,0.6,0,0.8,0.1
	s0.4,0.2,0.6,0.3c0.2,0.1,0.3,0.3,0.4,0.5h0.1c0-0.1-0.1-0.3-0.1-0.6s0-0.5,0-0.8v-2.1h1.8v9.1h-1.3L62,87.9h-0.1
	c-0.1,0.2-0.3,0.3-0.4,0.5c-0.1,0.2-0.4,0.3-0.6,0.3C60.7,88.7,60.3,89,60,89z M60.6,87.6c0.5,0,0.8-0.1,1-0.4s0.3-0.7,0.3-1.3v-0.2
	c0-0.6-0.1-1.1-0.3-1.5s-0.6-0.5-1.1-0.5c-0.4,0-0.7,0.2-0.9,0.5s-0.3,0.8-0.3,1.4s0.1,1.1,0.3,1.4S60.2,87.6,60.6,87.6z"/>
<path class="st1" d="M68,82.2c0.9,0,1.6,0.2,2,0.6s0.7,1,0.7,1.7v4.4h-1.2L69.2,88c-0.2,0.2-0.4,0.4-0.6,0.6s-0.4,0.3-0.7,0.3
	c-0.3,0-0.6,0.1-1,0.1s-0.7-0.1-1-0.2s-0.5-0.4-0.7-0.7c-0.2-0.3-0.3-0.7-0.3-1.2c0-0.7,0.2-1.2,0.7-1.5s1.2-0.5,2.2-0.5h1.1v-0.3
	c0-0.3-0.1-0.6-0.3-0.8c-0.2-0.2-0.4-0.2-0.8-0.2c-0.3,0-0.6,0-0.9,0.1S66.3,83.9,66,84l-0.6-1.2c0.3-0.2,0.7-0.3,1.2-0.4
	S67.6,82.2,68,82.2z M69,85.9h-0.7c-0.6,0-1,0.1-1.2,0.3c-0.2,0.2-0.3,0.4-0.3,0.8c0,0.3,0.1,0.5,0.2,0.6s0.4,0.2,0.6,0.2
	c0.4,0,0.7-0.1,1-0.3c0.3-0.2,0.4-0.5,0.4-1V85.9z"/>
<path class="st1" d="M71.5,82.3h2l1.2,3.7c0,0.1,0.1,0.2,0.1,0.4c0,0.2,0.1,0.2,0.1,0.4c0,0.2,0,0.3,0,0.4c0-0.2,0.1-0.4,0.1-0.6
	s0.1-0.4,0.2-0.5l1.2-3.7h1.9l-2.8,7.4c-0.2,0.5-0.4,0.8-0.7,1.1c-0.3,0.3-0.6,0.5-0.9,0.7s-0.7,0.2-1.2,0.2c-0.2,0-0.4,0-0.5,0
	s-0.3,0-0.4-0.1v-1.4c0.1,0,0.2,0,0.3,0.1s0.3,0,0.4,0c0.2,0,0.5-0.1,0.6-0.2s0.3-0.2,0.5-0.4c0.2-0.2,0.2-0.4,0.3-0.6l0.1-0.3
	L71.5,82.3z"/>
<path class="st2" d="M30.8,291.4h232"/>
<path class="st2" d="M30.8,106.4h232"/>
<path class="st3" d="M95.4,140.6H29.5v31.3h65.9V140.6z"/>
<path class="st4" d="M95.4,140.6H29.5v31.3h65.9V140.6z"/>
<path class="st5" d="M38.7,153.2h3.6c0.8,0,1.3,0.1,1.7,0.3c0.6,0.3,1,1,1,1.7s-0.4,1.3-1.1,1.6c0.4,0.1,0.5,0.2,0.7,0.3
	c0.5,0.4,0.8,0.9,0.8,1.6c0,0.9-0.4,1.6-1.1,2c-0.5,0.3-1,0.4-1.7,0.4h-3.9V153.2z M42,156.4c0.9,0,1.3-0.3,1.3-0.9
	s-0.4-0.9-1.3-0.9h-1.6v1.9H42V156.4z M42.1,159.8c0.5,0,0.9-0.1,1.1-0.2c0.3-0.2,0.4-0.5,0.4-0.9c0-0.5-0.2-0.8-0.5-1
	c-0.2-0.1-0.5-0.1-1-0.1h-1.7v2.2H42.1z"/>
<path class="st5" d="M49.1,153.2h1.7v6.5h3.9v1.5h-5.6C49.1,161.2,49.1,153.2,49.1,153.2z"/>
<path class="st5" d="M60.6,153.2h1.8l3,8h-1.8l-0.6-1.8h-3l-0.6,1.8h-1.8L60.6,153.2z M62.5,158.1l-0.5-1.4
	c-0.3-0.8-0.4-1.2-0.5-1.7c-0.1,0.5-0.3,0.9-0.6,1.7l-0.5,1.4H62.5z"/>
<path class="st5" d="M68.4,157.1c0-2.5,1.6-4.2,3.9-4.2c1.9,0,3.3,1.2,3.5,2.9h-1.7c-0.2-0.9-0.8-1.4-1.8-1.4
	c-1.3,0-2.1,1.1-2.1,2.7c0,1.7,0.8,2.7,2.1,2.7c1,0,1.7-0.6,1.8-1.8h1.7c-0.2,2-1.5,3.3-3.6,3.3C69.9,161.3,68.4,159.7,68.4,157.1z"
	/>
<path class="st5" d="M79.4,153.2h1.7v3.4l3.1-3.4h2.2l-3.1,3.2l3.4,4.8h-2.2l-2.4-3.6l-1,1v2.6h-1.7V153.2z"/>
<path class="st3" d="M104.8,153.2h1.4l0.8,5c0.1,0.8,0.2,1.5,0.3,1.9c0.2-0.5,0.4-0.8,0.8-1.5l3.2-5.4h1.5l-1.7,8h-1l0.7-3.5
	c0.3-1.5,0.4-1.7,0.9-3.6c-0.3,0.6-0.5,1-1.3,2.2l-2.9,4.9h-0.9l-0.9-5.1c-0.1-0.4-0.2-1-0.3-2c-0.2,1.2-0.4,2.6-0.7,3.7l-0.7,3.4
	h-1L104.8,153.2z"/>
<path class="st3" d="M115.8,157.8c0-1.6,0.7-3.2,1.8-4c0.7-0.5,1.6-0.8,2.5-0.8c2.1,0,3.3,1.3,3.3,3.4c0,1.3-0.4,2.5-1.2,3.4
	c-0.8,1-1.9,1.5-3.2,1.5C117.1,161.3,115.8,160,115.8,157.8z M122.5,156.4c0-0.7-0.2-1.4-0.6-1.8c-0.4-0.5-1-0.7-1.8-0.7
	c-1.9,0-3.3,1.6-3.3,4c0,1.6,0.9,2.6,2.4,2.6C121.1,160.4,122.5,158.7,122.5,156.4z"/>
<path class="st3" d="M128.3,153.2h1.1l2.2,5.3c0.3,0.7,0.5,1.2,0.6,1.6c0.1-0.9,0.3-1.9,0.5-2.7l0.9-4.2h1l-1.7,8h-1.2l-2.2-5.3
	c-0.3-0.8-0.4-1-0.6-1.5c0,0.5-0.2,1.1-0.4,2.3l-1,4.5h-1L128.3,153.2z"/>
<path class="st3" d="M139.1,153.2h1.9c1,0,1.4,0,1.8,0.1c1.3,0.3,2.1,1.5,2.1,3.1c0,1.2-0.4,2.5-1.2,3.4c-0.5,0.6-1.1,1-1.8,1.2
	c-0.5,0.2-1,0.2-2.1,0.2h-2.3L139.1,153.2z M139.9,160.2c1,0,1.4,0,1.8-0.2c1.2-0.5,2.1-2,2.1-3.7c0-1-0.3-1.7-1-2
	c-0.4-0.2-0.7-0.2-1.5-0.2h-1.4l-1.3,6.2h1.3L139.9,160.2L139.9,160.2z"/>
<path class="st3" d="M151.8,153.2h1.2l1.4,8h-1.1l-0.4-2.4h-3.3l-1.4,2.4H147L151.8,153.2z M152.8,157.8l-0.3-1.5
	c-0.2-1.1-0.3-1.8-0.3-2.3c-0.3,0.6-0.6,1.2-1.3,2.3l-0.9,1.5H152.8z"/>
<path class="st3" d="M160.7,157.9l-2.1-4.7h1.1l1.1,2.6c0.4,0.8,0.4,1,0.5,1.3c0.3-0.4,0.4-0.6,0.8-1l2.2-2.8h1.2l-3.9,4.8l-0.7,3.2
	h-1L160.7,157.9z"/>
<path class="st3" d="M173.2,157.9c0-1.2,0.4-2.5,1.1-3.4c0.8-1,1.9-1.5,3.2-1.5c1.8,0,3,1,3,2.6c0,0,0,0.1,0,0.2h-1
	c-0.1-1.3-0.7-1.9-2.1-1.9c-0.7,0-1.3,0.2-1.8,0.6c-0.8,0.7-1.4,2-1.4,3.3c0,1.6,0.9,2.6,2.3,2.6c1.3,0,2.2-0.7,2.5-2h1.1
	c-0.4,1.8-1.7,2.9-3.6,2.9C174.4,161.3,173.2,160,173.2,157.9z"/>
<path class="st3" d="M183.8,157.8c0-1.6,0.7-3.2,1.8-4c0.7-0.5,1.6-0.8,2.5-0.8c2.1,0,3.3,1.3,3.3,3.4c0,1.3-0.4,2.5-1.2,3.4
	c-0.8,1-1.9,1.5-3.2,1.5C185,161.3,183.8,160,183.8,157.8z M190.4,156.4c0-0.7-0.2-1.4-0.6-1.8c-0.4-0.5-1-0.7-1.8-0.7
	c-1.9,0-3.3,1.6-3.3,4c0,1.6,0.9,2.6,2.4,2.6C189.1,160.4,190.4,158.7,190.4,156.4z"/>
<path class="st3" d="M196.3,153.2h1.4l0.8,5c0.1,0.8,0.2,1.5,0.3,1.9c0.2-0.5,0.4-0.8,0.8-1.5l3.2-5.4h1.5l-1.7,8h-1l0.7-3.5
	c0.3-1.5,0.4-1.7,0.9-3.6c-0.3,0.6-0.5,1-1.3,2.2l-2.9,4.9h-0.9l-0.9-5.1c-0.1-0.4-0.2-1-0.3-2c-0.2,1.2-0.4,2.6-0.7,3.7l-0.7,3.4
	h-1L196.3,153.2z"/>
<path class="st3" d="M208.6,153.2h1.4l0.8,5c0.1,0.8,0.2,1.5,0.3,1.9c0.2-0.5,0.4-0.8,0.8-1.5l3.2-5.4h1.5l-1.7,8h-1l0.7-3.5
	c0.3-1.5,0.4-1.7,0.9-3.6c-0.3,0.6-0.5,1-1.3,2.2l-2.9,4.9h-0.9l-0.9-5.1c-0.1-0.4-0.2-1-0.3-2c-0.2,1.2-0.4,2.6-0.7,3.7l-0.7,3.4
	h-1L208.6,153.2z"/>
<path class="st3" d="M219.7,158.9c0-0.3,0-0.7,0.2-1.2l1-4.6h1l-1,4.7c-0.1,0.6-0.2,0.8-0.2,1.1c0,1,0.7,1.5,1.9,1.5
	c0.9,0,1.6-0.3,2-0.9c0.2-0.3,0.4-0.7,0.6-1.7l1-4.7h1l-1,4.8c-0.3,1.2-0.5,1.7-0.8,2.2c-0.5,0.8-1.5,1.1-2.7,1.1
	C220.8,161.3,219.7,160.4,219.7,158.9z"/>
<path class="st3" d="M231.4,153.2h1.1l2.2,5.3c0.3,0.7,0.5,1.2,0.6,1.6c0.1-0.9,0.3-1.9,0.5-2.7l0.9-4.2h1l-1.7,8h-1.2l-2.2-5.3
	c-0.3-0.8-0.4-1-0.6-1.5c0,0.5-0.2,1.1-0.4,2.3l-1,4.5h-1L231.4,153.2z"/>
<path class="st3" d="M242.2,153.2h1l-1.7,8h-1L242.2,153.2z"/>
<path class="st3" d="M249.3,154.1h-2.7l0.2-0.9h6.4l-0.2,0.9h-2.7l-1.5,7.1h-1L249.3,154.1z"/>
<path class="st3" d="M257.9,157.9l-2.1-4.7h1.1l1.1,2.6c0.4,0.8,0.4,1,0.5,1.3c0.3-0.4,0.4-0.6,0.8-1l2.2-2.8h1.2l-3.9,4.8l-0.7,3.2
	h-1L257.9,157.9z"/>
<path class="st3" d="M20.8,159.1h-1.5l0.2-0.8H21l0.4-1.3h-1.5l0.2-0.8h1.5l0.7-2.2h0.8l-0.7,2.2h1.4l0.6-2.2h0.8l-0.6,2.2h1.5
	l-0.2,0.8h-1.5l-0.4,1.3h1.5l-0.2,0.8h-1.5l-0.7,2.4h-0.8l0.7-2.4h-1.4l-0.7,2.4h-0.8L20.8,159.1z M23.3,158.3l0.4-1.3h-1.4
	l-0.4,1.3H23.3z"/>
<g>
	<path class="st0" d="M64.3,222c5.3,0,10,1,14.2,3c4.1,2,7.4,5,9.8,8.9c2.4,3.9,3.6,8.7,3.6,14.5c0,6.3-1.3,11.6-3.9,16.2
		c-2.6,4.5-6.4,8-11.6,10.4c-5.1,2.4-11.5,3.6-19.1,3.6c-4.6,0-8.8-0.4-12.8-1.2c-4-0.8-7.5-1.9-10.5-3.5v-15.8
		c3,1.6,6.6,2.9,10.8,4s8.2,1.6,11.9,1.6c3.6,0,6.7-0.5,9.2-1.5c2.5-1,4.4-2.5,5.7-4.5c1.3-2,1.9-4.6,1.9-7.8c0-4.2-1.4-7.5-4.3-9.7
		c-2.8-2.3-7.2-3.4-13.1-3.4c-2.3,0-4.6,0.2-7,0.7c-2.4,0.4-4.5,0.9-6.1,1.3l-7.3-3.9l3.3-44.2h47.1v15.6h-31l-1.6,17
		c1.3-0.3,2.8-0.6,4.4-0.8C59.2,222.2,61.4,222,64.3,222z"/>
	<path class="st0" d="M124.7,222c5.3,0,10,1,14.2,3c4.1,2,7.4,5,9.8,8.9c2.4,3.9,3.6,8.7,3.6,14.5c0,6.3-1.3,11.6-3.9,16.2
		c-2.6,4.5-6.4,8-11.6,10.4c-5.1,2.4-11.5,3.6-19.1,3.6c-4.6,0-8.8-0.4-12.8-1.2c-4-0.8-7.5-1.9-10.5-3.5v-15.8
		c3,1.6,6.6,2.9,10.8,4s8.2,1.6,11.9,1.6c3.6,0,6.7-0.5,9.2-1.5c2.5-1,4.4-2.5,5.7-4.5c1.3-2,1.9-4.6,1.9-7.8c0-4.2-1.4-7.5-4.3-9.7
		c-2.8-2.3-7.2-3.4-13.1-3.4c-2.3,0-4.6,0.2-7,0.7c-2.4,0.4-4.5,0.9-6.1,1.3l-7.3-3.9l3.3-44.2h47.1v15.6h-31l-1.6,17
		c1.3-0.3,2.8-0.6,4.4-0.8C119.6,222.2,121.8,222,124.7,222z"/>
</g>
<g>
	<path class="st1" d="M53.6,61.4H32.3v-4.5l7.6-7.7c1.5-1.6,2.8-2.9,3.7-4c0.9-1.1,1.6-2,2-2.9s0.6-1.8,0.6-2.8c0-1.2-0.3-2.1-1-2.7
		c-0.7-0.6-1.6-0.9-2.7-0.9c-1.2,0-2.3,0.3-3.4,0.8c-1.1,0.5-2.3,1.3-3.5,2.3l-3.5-4.1c0.9-0.7,1.8-1.5,2.8-2.1
		c1-0.7,2.1-1.2,3.4-1.6c1.3-0.4,2.9-0.6,4.7-0.6c2,0,3.7,0.4,5.1,1.1s2.5,1.7,3.3,2.9s1.2,2.6,1.2,4.2c0,1.7-0.3,3.2-1,4.6
		c-0.7,1.4-1.6,2.8-2.9,4.1S46,50.4,44.2,52l-3.9,3.7V56h13.2V61.4z"/>
	<path class="st1" d="M74.6,46.2c0,2.5-0.2,4.6-0.6,6.6c-0.4,1.9-1,3.6-1.8,4.9c-0.8,1.3-1.9,2.4-3.3,3.1s-3,1.1-4.9,1.1
		c-2.4,0-4.4-0.6-6-1.9c-1.6-1.2-2.7-3-3.5-5.4c-0.7-2.3-1.1-5.1-1.1-8.4c0-3.3,0.3-6.1,1-8.4c0.7-2.3,1.8-4.1,3.4-5.4
		c1.6-1.2,3.6-1.9,6.2-1.9c2.4,0,4.4,0.6,6,1.9s2.7,3,3.5,5.4C74.2,40.1,74.6,42.9,74.6,46.2z M59.7,46.2c0,2.3,0.1,4.2,0.4,5.8
		c0.3,1.5,0.7,2.7,1.3,3.5c0.6,0.8,1.5,1.2,2.5,1.2c1.1,0,1.9-0.4,2.5-1.2c0.6-0.8,1.1-1.9,1.3-3.5c0.3-1.5,0.4-3.5,0.4-5.8
		c0-2.3-0.1-4.2-0.4-5.8c-0.3-1.6-0.7-2.7-1.3-3.5s-1.5-1.2-2.5-1.2c-1.1,0-1.9,0.4-2.5,1.2c-0.6,0.8-1,2-1.3,3.5
		C59.8,41.9,59.7,43.9,59.7,46.2z"/>
</g>
<g>
	<path class="st0" d="M163.4,36.8c0,1.4-0.3,2.6-0.9,3.6c-0.6,1-1.4,1.9-2.4,2.5c-1,0.7-2.1,1.1-3.3,1.4v0.1
		c2.4,0.3,4.3,1.1,5.6,2.2c1.3,1.2,1.9,2.8,1.9,4.8c0,1.8-0.4,3.4-1.3,4.8c-0.9,1.4-2.2,2.5-4,3.3s-4.1,1.2-7,1.2
		c-1.7,0-3.2-0.1-4.7-0.4c-1.4-0.3-2.8-0.7-4.1-1.2v-5.5c1.3,0.7,2.7,1.2,4.1,1.5s2.8,0.5,4,0.5c2.3,0,3.9-0.4,4.8-1.2
		c0.9-0.8,1.4-1.9,1.4-3.4c0-0.8-0.2-1.6-0.6-2.1s-1.2-1-2.2-1.3c-1.1-0.3-2.5-0.5-4.4-0.5h-2.3v-4.9h2.3c1.9,0,3.3-0.2,4.3-0.5
		c1-0.4,1.6-0.8,2-1.5c0.4-0.6,0.5-1.3,0.5-2.1c0-1.1-0.3-1.9-1-2.5c-0.7-0.6-1.8-0.9-3.3-0.9c-1,0-1.9,0.1-2.7,0.4
		c-0.8,0.2-1.5,0.5-2.2,0.9c-0.6,0.3-1.2,0.7-1.7,1l-3-4.4c1.2-0.9,2.6-1.6,4.2-2.1s3.5-0.9,5.7-0.9c3.1,0,5.6,0.6,7.4,1.9
		C162.5,32.7,163.4,34.5,163.4,36.8z"/>
	<path class="st0" d="M175.5,41c1.9,0,3.5,0.4,5,1.1c1.4,0.7,2.6,1.7,3.4,3.1c0.8,1.4,1.2,3.1,1.2,5.1c0,2.2-0.5,4.1-1.4,5.7
		c-0.9,1.6-2.3,2.8-4.1,3.6c-1.8,0.8-4,1.3-6.7,1.3c-1.6,0-3.1-0.1-4.5-0.4c-1.4-0.3-2.6-0.7-3.7-1.2v-5.6c1.1,0.6,2.3,1,3.8,1.4
		c1.5,0.4,2.9,0.6,4.2,0.6c1.3,0,2.3-0.2,3.2-0.5c0.9-0.3,1.5-0.9,2-1.6c0.5-0.7,0.7-1.6,0.7-2.7c0-1.5-0.5-2.6-1.5-3.4
		c-1-0.8-2.5-1.2-4.6-1.2c-0.8,0-1.6,0.1-2.5,0.2c-0.9,0.2-1.6,0.3-2.1,0.5l-2.6-1.4l1.1-15.5h16.5v5.4h-10.9l-0.6,6
		c0.5-0.1,1-0.2,1.5-0.3S174.5,41,175.5,41z"/>
</g>
<g>
	<g>
		<path d="M51.3,344.6h-3.6v-6.4h3.6v0.7h-2.8v2.1h2.7v0.7h-2.7v2.4h2.8V344.6z"/>
		<path d="M56.3,342.9c0,0.4-0.1,0.7-0.3,1c-0.2,0.3-0.5,0.5-0.8,0.6s-0.7,0.2-1.2,0.2c-0.2,0-0.5,0-0.7,0s-0.4-0.1-0.6-0.1
			c-0.2,0-0.3-0.1-0.5-0.2v-0.7c0.2,0.1,0.5,0.2,0.8,0.3c0.3,0.1,0.6,0.1,1,0.1c0.3,0,0.6,0,0.8-0.1c0.2-0.1,0.4-0.2,0.5-0.4
			c0.1-0.2,0.2-0.4,0.2-0.6c0-0.2,0-0.4-0.1-0.6c-0.1-0.1-0.3-0.3-0.5-0.4c-0.2-0.1-0.5-0.3-0.9-0.4c-0.3-0.1-0.5-0.2-0.7-0.3
			c-0.2-0.1-0.4-0.2-0.5-0.4c-0.1-0.1-0.2-0.3-0.3-0.5c-0.1-0.2-0.1-0.4-0.1-0.7c0-0.3,0.1-0.6,0.3-0.9c0.2-0.2,0.4-0.4,0.7-0.6
			c0.3-0.1,0.7-0.2,1.1-0.2c0.3,0,0.7,0,1,0.1c0.3,0.1,0.6,0.2,0.8,0.3l-0.2,0.6c-0.2-0.1-0.5-0.2-0.7-0.2c-0.3-0.1-0.5-0.1-0.8-0.1
			s-0.5,0-0.7,0.1c-0.2,0.1-0.3,0.2-0.4,0.3s-0.1,0.3-0.1,0.5c0,0.2,0,0.4,0.1,0.6c0.1,0.1,0.2,0.3,0.5,0.4c0.2,0.1,0.5,0.2,0.8,0.4
			c0.4,0.1,0.7,0.3,1,0.4c0.3,0.2,0.5,0.3,0.6,0.6C56.2,342.3,56.3,342.5,56.3,342.9z"/>
		<path d="M59.6,344.6h-0.8v-5.8h-2v-0.7h4.8v0.7h-2V344.6z"/>
		<path d="M67.4,338.2v4.2c0,0.5-0.1,0.9-0.3,1.2c-0.2,0.4-0.5,0.6-0.8,0.8c-0.4,0.2-0.8,0.3-1.4,0.3c-0.8,0-1.4-0.2-1.8-0.6
			c-0.4-0.4-0.6-1-0.6-1.7v-4.1h0.8v4.2c0,0.5,0.1,1,0.4,1.3c0.3,0.3,0.7,0.4,1.3,0.4c0.4,0,0.7-0.1,1-0.2c0.3-0.1,0.4-0.3,0.6-0.6
			c0.1-0.3,0.2-0.6,0.2-0.9v-4.2H67.4z"/>
		<path d="M74.2,341.3c0,0.7-0.1,1.3-0.4,1.8c-0.3,0.5-0.6,0.8-1.1,1.1c-0.5,0.2-1.1,0.4-1.8,0.4h-1.7v-6.4h1.9
			c0.7,0,1.2,0.1,1.7,0.4c0.5,0.2,0.8,0.6,1.1,1.1C74.1,340.1,74.2,340.6,74.2,341.3z M73.4,341.3c0-0.6-0.1-1.1-0.3-1.4
			c-0.2-0.4-0.5-0.7-0.8-0.8c-0.4-0.2-0.8-0.3-1.4-0.3h-1.1v5.1h0.9c0.9,0,1.5-0.2,2-0.7C73.2,342.9,73.4,342.2,73.4,341.3z"/>
		<path d="M75.7,344.6v-6.4h0.7v6.4H75.7z"/>
		<path d="M83.7,341.4c0,0.5-0.1,0.9-0.2,1.4c-0.1,0.4-0.3,0.8-0.6,1c-0.2,0.3-0.6,0.5-0.9,0.7s-0.8,0.2-1.3,0.2
			c-0.5,0-0.9-0.1-1.3-0.2c-0.4-0.2-0.7-0.4-0.9-0.7c-0.2-0.3-0.4-0.6-0.5-1.1c-0.1-0.4-0.2-0.9-0.2-1.4c0-0.7,0.1-1.2,0.3-1.7
			s0.5-0.9,1-1.2c0.4-0.3,1-0.4,1.7-0.4c0.6,0,1.2,0.1,1.6,0.4c0.4,0.3,0.8,0.7,1,1.1C83.6,340.1,83.7,340.7,83.7,341.4z
			 M78.6,341.4c0,0.5,0.1,1,0.2,1.4c0.2,0.4,0.4,0.7,0.7,0.9c0.3,0.2,0.7,0.3,1.2,0.3c0.5,0,0.9-0.1,1.2-0.3
			c0.3-0.2,0.6-0.5,0.7-0.9c0.2-0.4,0.2-0.9,0.2-1.4c0-0.8-0.2-1.5-0.5-1.9c-0.3-0.5-0.9-0.7-1.6-0.7c-0.5,0-0.9,0.1-1.2,0.3
			s-0.6,0.5-0.7,0.9C78.7,340.4,78.6,340.8,78.6,341.4z"/>
		<path d="M49.4,355c0.8,0,1.4,0.2,1.8,0.5c0.4,0.3,0.6,0.8,0.6,1.4c0,0.3,0,0.5-0.1,0.8c-0.1,0.2-0.2,0.5-0.4,0.6
			c-0.2,0.2-0.5,0.3-0.8,0.4c-0.3,0.1-0.7,0.2-1.2,0.2h-0.8v2.5h-0.7V355H49.4z M49.3,355.6h-0.9v2.6h0.7c0.4,0,0.8,0,1-0.1
			c0.3-0.1,0.5-0.2,0.6-0.4c0.1-0.2,0.2-0.5,0.2-0.8c0-0.4-0.1-0.7-0.4-1C50.3,355.7,49.9,355.6,49.3,355.6z"/>
		<path d="M54.8,355c0.5,0,1,0.1,1.3,0.2c0.3,0.1,0.6,0.3,0.8,0.6s0.3,0.6,0.3,1c0,0.3-0.1,0.6-0.2,0.9c-0.1,0.2-0.3,0.4-0.5,0.6
			s-0.4,0.2-0.6,0.3l1.8,2.9h-0.9l-1.6-2.7h-1.3v2.7h-0.7V355H54.8z M54.8,355.6h-0.9v2.5h1c0.5,0,0.9-0.1,1.2-0.3
			c0.2-0.2,0.4-0.5,0.4-0.9c0-0.4-0.1-0.7-0.4-0.9C55.7,355.7,55.3,355.6,54.8,355.6z"/>
		<path d="M64.2,358.2c0,0.5-0.1,0.9-0.2,1.4c-0.1,0.4-0.3,0.8-0.6,1c-0.2,0.3-0.6,0.5-0.9,0.7s-0.8,0.2-1.3,0.2
			c-0.5,0-0.9-0.1-1.3-0.2c-0.4-0.2-0.7-0.4-0.9-0.7c-0.2-0.3-0.4-0.6-0.5-1.1c-0.1-0.4-0.2-0.9-0.2-1.4c0-0.7,0.1-1.2,0.3-1.7
			s0.5-0.9,1-1.2c0.4-0.3,1-0.4,1.7-0.4c0.6,0,1.2,0.1,1.6,0.4c0.4,0.3,0.8,0.7,1,1.1C64.1,356.9,64.2,357.5,64.2,358.2z
			 M59.1,358.2c0,0.5,0.1,1,0.2,1.4c0.2,0.4,0.4,0.7,0.7,0.9c0.3,0.2,0.7,0.3,1.2,0.3c0.5,0,0.9-0.1,1.2-0.3
			c0.3-0.2,0.6-0.5,0.7-0.9c0.2-0.4,0.2-0.9,0.2-1.4c0-0.8-0.2-1.5-0.5-1.9c-0.3-0.5-0.9-0.7-1.6-0.7c-0.5,0-0.9,0.1-1.2,0.3
			s-0.6,0.5-0.7,0.9C59.2,357.2,59.1,357.6,59.1,358.2z"/>
		<path d="M70.7,358.1c0,0.7-0.1,1.3-0.4,1.8c-0.3,0.5-0.6,0.8-1.1,1.1c-0.5,0.2-1.1,0.4-1.8,0.4h-1.7V355h1.9
			c0.7,0,1.2,0.1,1.7,0.4c0.5,0.2,0.8,0.6,1.1,1.1C70.6,356.9,70.7,357.4,70.7,358.1z M70,358.1c0-0.6-0.1-1.1-0.3-1.4
			c-0.2-0.4-0.5-0.7-0.8-0.8c-0.4-0.2-0.8-0.3-1.4-0.3h-1.1v5.1h0.9c0.9,0,1.5-0.2,2-0.7C69.7,359.7,70,359,70,358.1z"/>
		<path d="M77,355v4.2c0,0.5-0.1,0.9-0.3,1.2c-0.2,0.4-0.5,0.6-0.8,0.8c-0.4,0.2-0.8,0.3-1.4,0.3c-0.8,0-1.4-0.2-1.8-0.6
			c-0.4-0.4-0.6-1-0.6-1.7V355h0.8v4.2c0,0.5,0.1,1,0.4,1.3c0.3,0.3,0.7,0.4,1.3,0.4c0.4,0,0.7-0.1,1-0.2c0.3-0.1,0.4-0.3,0.6-0.6
			c0.1-0.3,0.2-0.6,0.2-0.9V355H77z"/>
		<path d="M81.5,355.5c-0.4,0-0.7,0.1-1,0.2c-0.3,0.1-0.5,0.3-0.7,0.5c-0.2,0.2-0.3,0.5-0.5,0.8s-0.2,0.7-0.2,1.1
			c0,0.5,0.1,1,0.3,1.4c0.2,0.4,0.4,0.7,0.8,0.9c0.3,0.2,0.8,0.3,1.3,0.3c0.3,0,0.6,0,0.8-0.1c0.3,0,0.5-0.1,0.7-0.2v0.7
			c-0.2,0.1-0.5,0.2-0.7,0.2c-0.3,0-0.6,0.1-0.9,0.1c-0.7,0-1.2-0.1-1.6-0.4c-0.4-0.3-0.8-0.7-1-1.1c-0.2-0.5-0.3-1.1-0.3-1.8
			c0-0.5,0.1-0.9,0.2-1.3c0.1-0.4,0.3-0.8,0.6-1c0.3-0.3,0.6-0.5,1-0.7c0.4-0.2,0.8-0.2,1.3-0.2c0.3,0,0.6,0,0.9,0.1
			s0.6,0.2,0.8,0.3l-0.3,0.6c-0.2-0.1-0.4-0.2-0.7-0.2C82,355.6,81.8,355.5,81.5,355.5z"/>
		<path d="M86.4,361.4h-0.8v-5.8h-2V355h4.8v0.7h-2V361.4z"/>
		<path d="M94.9,358.2c0,0.5-0.1,0.9-0.2,1.4c-0.1,0.4-0.3,0.8-0.6,1c-0.2,0.3-0.6,0.5-0.9,0.7s-0.8,0.2-1.3,0.2
			c-0.5,0-0.9-0.1-1.3-0.2c-0.4-0.2-0.7-0.4-0.9-0.7c-0.2-0.3-0.4-0.6-0.5-1.1c-0.1-0.4-0.2-0.9-0.2-1.4c0-0.7,0.1-1.2,0.3-1.7
			s0.5-0.9,1-1.2c0.4-0.3,1-0.4,1.7-0.4c0.6,0,1.2,0.1,1.6,0.4c0.4,0.3,0.8,0.7,1,1.1C94.8,356.9,94.9,357.5,94.9,358.2z
			 M89.8,358.2c0,0.5,0.1,1,0.2,1.4c0.2,0.4,0.4,0.7,0.7,0.9c0.3,0.2,0.7,0.3,1.2,0.3c0.5,0,0.9-0.1,1.2-0.3
			c0.3-0.2,0.6-0.5,0.7-0.9c0.2-0.4,0.2-0.9,0.2-1.4c0-0.8-0.2-1.5-0.5-1.9c-0.3-0.5-0.9-0.7-1.6-0.7c-0.5,0-0.9,0.1-1.2,0.3
			s-0.6,0.5-0.7,0.9C89.9,357.2,89.8,357.6,89.8,358.2z"/>
		<path d="M98.1,355c0.5,0,1,0.1,1.3,0.2c0.3,0.1,0.6,0.3,0.8,0.6s0.3,0.6,0.3,1c0,0.3-0.1,0.6-0.2,0.9c-0.1,0.2-0.3,0.4-0.5,0.6
			s-0.4,0.2-0.6,0.3l1.8,2.9H100l-1.6-2.7h-1.3v2.7h-0.7V355H98.1z M98.1,355.6h-0.9v2.5h1c0.5,0,0.9-0.1,1.2-0.3
			c0.2-0.2,0.4-0.5,0.4-0.9c0-0.4-0.1-0.7-0.4-0.9C99,355.7,98.6,355.6,98.1,355.6z"/>
		<path d="M50.4,368.8h2.2v3.1c-0.3,0.1-0.7,0.2-1,0.3c-0.4,0.1-0.8,0.1-1.2,0.1c-0.7,0-1.2-0.1-1.7-0.4c-0.5-0.3-0.8-0.6-1-1.1
			c-0.2-0.5-0.4-1.1-0.4-1.8c0-0.7,0.1-1.2,0.4-1.7c0.3-0.5,0.6-0.9,1.1-1.2c0.5-0.3,1.1-0.4,1.8-0.4c0.4,0,0.7,0,1,0.1
			c0.3,0.1,0.6,0.2,0.9,0.3l-0.3,0.7c-0.2-0.1-0.5-0.2-0.8-0.3c-0.3-0.1-0.6-0.1-0.9-0.1c-0.5,0-1,0.1-1.3,0.3
			c-0.4,0.2-0.7,0.5-0.9,0.9c-0.2,0.4-0.3,0.9-0.3,1.4c0,0.5,0.1,1,0.3,1.4c0.2,0.4,0.4,0.7,0.8,0.9s0.8,0.3,1.4,0.3
			c0.3,0,0.5,0,0.7,0c0.2,0,0.4-0.1,0.6-0.1v-2h-1.5V368.8z"/>
		<path d="M57.8,372.2h-3.6v-6.4h3.6v0.7H55v2.1h2.7v0.7H55v2.4h2.8V372.2z"/>
		<path d="M64.2,372.2h-0.9l-3.5-5.4h0c0,0.1,0,0.3,0,0.5c0,0.2,0,0.4,0,0.6c0,0.2,0,0.4,0,0.6v3.7h-0.7v-6.4h0.9l3.5,5.4h0
			c0-0.1,0-0.2,0-0.4c0-0.2,0-0.4,0-0.6c0-0.2,0-0.4,0-0.6v-3.7h0.7V372.2z"/>
		<path d="M69.6,372.2H66v-6.4h3.6v0.7h-2.8v2.1h2.7v0.7h-2.7v2.4h2.8V372.2z"/>
		<path d="M72.7,365.8c0.5,0,1,0.1,1.3,0.2c0.3,0.1,0.6,0.3,0.8,0.6s0.3,0.6,0.3,1c0,0.3-0.1,0.6-0.2,0.9c-0.1,0.2-0.3,0.4-0.5,0.6
			s-0.4,0.2-0.6,0.3l1.8,2.9h-0.9l-1.6-2.7h-1.3v2.7H71v-6.4H72.7z M72.7,366.4h-0.9v2.5h1c0.5,0,0.9-0.1,1.2-0.3
			c0.2-0.2,0.4-0.5,0.4-0.9c0-0.4-0.1-0.7-0.4-0.9C73.6,366.5,73.2,366.4,72.7,366.4z"/>
		<path d="M80.6,372.2l-0.8-2h-2.6l-0.8,2h-0.8l2.5-6.5h0.7l2.5,6.5H80.6z M79.6,369.5l-0.8-2c0-0.1,0-0.1-0.1-0.3
			c0-0.1-0.1-0.2-0.1-0.4s-0.1-0.2-0.1-0.3c0,0.1-0.1,0.2-0.1,0.4c0,0.1-0.1,0.2-0.1,0.3c0,0.1-0.1,0.2-0.1,0.3l-0.8,2H79.6z"/>
		<path d="M82.2,372.2v-6.4H83v5.8h2.9v0.7H82.2z"/>
		<path d="M48.4,389h-0.7v-6.4h3.6v0.7h-2.8v2.4h2.7v0.7h-2.7V389z"/>
		<path d="M57.9,385.8c0,0.5-0.1,0.9-0.2,1.4c-0.1,0.4-0.3,0.8-0.6,1c-0.2,0.3-0.6,0.5-0.9,0.7s-0.8,0.2-1.3,0.2
			c-0.5,0-0.9-0.1-1.3-0.2c-0.4-0.2-0.7-0.4-0.9-0.7c-0.2-0.3-0.4-0.6-0.5-1.1c-0.1-0.4-0.2-0.9-0.2-1.4c0-0.7,0.1-1.2,0.3-1.7
			s0.5-0.9,1-1.2c0.4-0.3,1-0.4,1.7-0.4c0.6,0,1.2,0.1,1.6,0.4c0.4,0.3,0.8,0.7,1,1.1C57.8,384.5,57.9,385.1,57.9,385.8z
			 M52.8,385.8c0,0.5,0.1,1,0.2,1.4c0.2,0.4,0.4,0.7,0.7,0.9c0.3,0.2,0.7,0.3,1.2,0.3c0.5,0,0.9-0.1,1.2-0.3
			c0.3-0.2,0.6-0.5,0.7-0.9c0.2-0.4,0.2-0.9,0.2-1.4c0-0.8-0.2-1.5-0.5-1.9c-0.3-0.5-0.9-0.7-1.6-0.7c-0.5,0-0.9,0.1-1.2,0.3
			s-0.6,0.5-0.7,0.9C52.9,384.8,52.8,385.2,52.8,385.8z"/>
		<path d="M61.3,389h-0.8v-5.8h-2v-0.7h4.8v0.7h-2V389z"/>
		<path d="M69.9,385.8c0,0.5-0.1,0.9-0.2,1.4c-0.1,0.4-0.3,0.8-0.6,1c-0.2,0.3-0.6,0.5-0.9,0.7s-0.8,0.2-1.3,0.2
			c-0.5,0-0.9-0.1-1.3-0.2c-0.4-0.2-0.7-0.4-0.9-0.7c-0.2-0.3-0.4-0.6-0.5-1.1c-0.1-0.4-0.2-0.9-0.2-1.4c0-0.7,0.1-1.2,0.3-1.7
			s0.5-0.9,1-1.2c0.4-0.3,1-0.4,1.7-0.4c0.6,0,1.2,0.1,1.6,0.4c0.4,0.3,0.8,0.7,1,1.1C69.7,384.5,69.9,385.1,69.9,385.8z
			 M64.7,385.8c0,0.5,0.1,1,0.2,1.4c0.2,0.4,0.4,0.7,0.7,0.9c0.3,0.2,0.7,0.3,1.2,0.3c0.5,0,0.9-0.1,1.2-0.3
			c0.3-0.2,0.6-0.5,0.7-0.9c0.2-0.4,0.2-0.9,0.2-1.4c0-0.8-0.2-1.5-0.5-1.9c-0.3-0.5-0.9-0.7-1.6-0.7c-0.5,0-0.9,0.1-1.2,0.3
			s-0.6,0.5-0.7,0.9C64.8,384.8,64.7,385.2,64.7,385.8z M68.2,380.5L68.2,380.5c-0.1,0.2-0.1,0.3-0.2,0.4c-0.1,0.1-0.2,0.2-0.3,0.4
			c-0.1,0.1-0.2,0.3-0.4,0.4c-0.1,0.1-0.2,0.2-0.3,0.3h-0.5v-0.1c0.1-0.1,0.2-0.2,0.3-0.4c0.1-0.2,0.2-0.3,0.3-0.5
			c0.1-0.2,0.2-0.3,0.3-0.5H68.2z"/>
		<path d="M74,385.6h2.2v3.1c-0.3,0.1-0.7,0.2-1,0.3c-0.4,0.1-0.8,0.1-1.2,0.1c-0.7,0-1.2-0.1-1.7-0.4c-0.5-0.3-0.8-0.6-1-1.1
			c-0.2-0.5-0.4-1.1-0.4-1.8c0-0.7,0.1-1.2,0.4-1.7c0.3-0.5,0.6-0.9,1.1-1.2c0.5-0.3,1.1-0.4,1.8-0.4c0.4,0,0.7,0,1,0.1
			c0.3,0.1,0.6,0.2,0.9,0.3l-0.3,0.7c-0.2-0.1-0.5-0.2-0.8-0.3c-0.3-0.1-0.6-0.1-0.9-0.1c-0.5,0-1,0.1-1.3,0.3
			c-0.4,0.2-0.7,0.5-0.9,0.9c-0.2,0.4-0.3,0.9-0.3,1.4c0,0.5,0.1,1,0.3,1.4c0.2,0.4,0.4,0.7,0.8,0.9s0.8,0.3,1.4,0.3
			c0.3,0,0.5,0,0.7,0c0.2,0,0.4-0.1,0.6-0.1v-2H74V385.6z"/>
		<path d="M79.6,382.6c0.5,0,1,0.1,1.3,0.2c0.3,0.1,0.6,0.3,0.8,0.6s0.3,0.6,0.3,1c0,0.3-0.1,0.6-0.2,0.9c-0.1,0.2-0.3,0.4-0.5,0.6
			s-0.4,0.2-0.6,0.3l1.8,2.9h-0.9l-1.6-2.7h-1.3v2.7h-0.7v-6.4H79.6z M79.5,383.2h-0.9v2.5h1c0.5,0,0.9-0.1,1.2-0.3
			c0.2-0.2,0.4-0.5,0.4-0.9c0-0.4-0.1-0.7-0.4-0.9C80.5,383.3,80.1,383.2,79.5,383.2z"/>
		<path d="M87.4,389l-0.8-2H84l-0.8,2h-0.8l2.5-6.5h0.7l2.5,6.5H87.4z M86.4,386.3l-0.8-2c0-0.1,0-0.1-0.1-0.3
			c0-0.1-0.1-0.2-0.1-0.4s-0.1-0.2-0.1-0.3c0,0.1-0.1,0.2-0.1,0.4c0,0.1-0.1,0.2-0.1,0.3c0,0.1-0.1,0.2-0.1,0.3l-0.8,2H86.4z"/>
		<path d="M89.8,389h-0.7v-6.4h3.6v0.7h-2.8v2.4h2.7v0.7h-2.7V389z"/>
		<path d="M99.3,385.8c0,0.5-0.1,0.9-0.2,1.4c-0.1,0.4-0.3,0.8-0.6,1c-0.2,0.3-0.6,0.5-0.9,0.7s-0.8,0.2-1.3,0.2
			c-0.5,0-0.9-0.1-1.3-0.2c-0.4-0.2-0.7-0.4-0.9-0.7c-0.2-0.3-0.4-0.6-0.5-1.1c-0.1-0.4-0.2-0.9-0.2-1.4c0-0.7,0.1-1.2,0.3-1.7
			s0.5-0.9,1-1.2c0.4-0.3,1-0.4,1.7-0.4c0.6,0,1.2,0.1,1.6,0.4c0.4,0.3,0.8,0.7,1,1.1C99.2,384.5,99.3,385.1,99.3,385.8z
			 M94.2,385.8c0,0.5,0.1,1,0.2,1.4c0.2,0.4,0.4,0.7,0.7,0.9c0.3,0.2,0.7,0.3,1.2,0.3c0.5,0,0.9-0.1,1.2-0.3
			c0.3-0.2,0.6-0.5,0.7-0.9c0.2-0.4,0.2-0.9,0.2-1.4c0-0.8-0.2-1.5-0.5-1.9c-0.3-0.5-0.9-0.7-1.6-0.7c-0.5,0-0.9,0.1-1.2,0.3
			s-0.6,0.5-0.7,0.9C94.3,384.8,94.2,385.2,94.2,385.8z"/>
		<path d="M51.7,405.8l-0.8-2h-2.6l-0.8,2h-0.8l2.5-6.5H50l2.5,6.5H51.7z M50.7,403.1l-0.8-2c0-0.1,0-0.1-0.1-0.3
			c0-0.1-0.1-0.2-0.1-0.4s-0.1-0.2-0.1-0.3c0,0.1-0.1,0.2-0.1,0.4c0,0.1-0.1,0.2-0.1,0.3c0,0.1-0.1,0.2-0.1,0.3l-0.8,2H50.7z"/>
		<path d="M57,404.1c0,0.4-0.1,0.7-0.3,1c-0.2,0.3-0.5,0.5-0.8,0.6s-0.7,0.2-1.2,0.2c-0.2,0-0.5,0-0.7,0s-0.4-0.1-0.6-0.1
			c-0.2,0-0.3-0.1-0.5-0.2v-0.7c0.2,0.1,0.5,0.2,0.8,0.3c0.3,0.1,0.6,0.1,1,0.1c0.3,0,0.6,0,0.8-0.1c0.2-0.1,0.4-0.2,0.5-0.4
			c0.1-0.2,0.2-0.4,0.2-0.6c0-0.2,0-0.4-0.1-0.6c-0.1-0.1-0.3-0.3-0.5-0.4c-0.2-0.1-0.5-0.3-0.9-0.4c-0.3-0.1-0.5-0.2-0.7-0.3
			c-0.2-0.1-0.4-0.2-0.5-0.4c-0.1-0.1-0.2-0.3-0.3-0.5c-0.1-0.2-0.1-0.4-0.1-0.7c0-0.3,0.1-0.6,0.3-0.9c0.2-0.2,0.4-0.4,0.7-0.6
			c0.3-0.1,0.7-0.2,1.1-0.2c0.3,0,0.7,0,1,0.1c0.3,0.1,0.6,0.2,0.8,0.3l-0.2,0.6c-0.2-0.1-0.5-0.2-0.7-0.2c-0.3-0.1-0.5-0.1-0.8-0.1
			s-0.5,0-0.7,0.1c-0.2,0.1-0.3,0.2-0.4,0.3s-0.1,0.3-0.1,0.5c0,0.2,0,0.4,0.1,0.6c0.1,0.1,0.2,0.3,0.5,0.4c0.2,0.1,0.5,0.2,0.8,0.4
			c0.4,0.1,0.7,0.3,1,0.4c0.3,0.2,0.5,0.3,0.6,0.6C56.9,403.5,57,403.7,57,404.1z"/>
		<path d="M58.3,405.8v-6.4h0.7v6.4H58.3z"/>
		<path d="M64.4,404.1c0,0.4-0.1,0.7-0.3,1c-0.2,0.3-0.5,0.5-0.8,0.6s-0.7,0.2-1.2,0.2c-0.2,0-0.5,0-0.7,0s-0.4-0.1-0.6-0.1
			c-0.2,0-0.3-0.1-0.5-0.2v-0.7c0.2,0.1,0.5,0.2,0.8,0.3c0.3,0.1,0.6,0.1,1,0.1c0.3,0,0.6,0,0.8-0.1c0.2-0.1,0.4-0.2,0.5-0.4
			c0.1-0.2,0.2-0.4,0.2-0.6c0-0.2,0-0.4-0.1-0.6c-0.1-0.1-0.3-0.3-0.5-0.4c-0.2-0.1-0.5-0.3-0.9-0.4c-0.3-0.1-0.5-0.2-0.7-0.3
			c-0.2-0.1-0.4-0.2-0.5-0.4c-0.1-0.1-0.2-0.3-0.3-0.5c-0.1-0.2-0.1-0.4-0.1-0.7c0-0.3,0.1-0.6,0.3-0.9c0.2-0.2,0.4-0.4,0.7-0.6
			c0.3-0.1,0.7-0.2,1.1-0.2c0.3,0,0.7,0,1,0.1c0.3,0.1,0.6,0.2,0.8,0.3l-0.2,0.6c-0.2-0.1-0.5-0.2-0.7-0.2c-0.3-0.1-0.5-0.1-0.8-0.1
			s-0.5,0-0.7,0.1c-0.2,0.1-0.3,0.2-0.4,0.3s-0.1,0.3-0.1,0.5c0,0.2,0,0.4,0.1,0.6c0.1,0.1,0.2,0.3,0.5,0.4c0.2,0.1,0.5,0.2,0.8,0.4
			c0.4,0.1,0.7,0.3,1,0.4c0.3,0.2,0.5,0.3,0.6,0.6C64.4,403.5,64.4,403.7,64.4,404.1z"/>
		<path d="M67.7,405.8H67V400h-2v-0.7h4.8v0.7h-2V405.8z"/>
		<path d="M74.3,405.8h-3.6v-6.4h3.6v0.7h-2.8v2.1h2.7v0.7h-2.7v2.4h2.8V405.8z"/>
		<path d="M80.7,405.8h-0.9l-3.5-5.4h0c0,0.1,0,0.3,0,0.5c0,0.2,0,0.4,0,0.6c0,0.2,0,0.4,0,0.6v3.7h-0.7v-6.4h0.9l3.5,5.4h0
			c0-0.1,0-0.2,0-0.4c0-0.2,0-0.4,0-0.6c0-0.2,0-0.4,0-0.6v-3.7h0.7V405.8z"/>
		<path d="M84.5,405.8h-0.8V400h-2v-0.7h4.8v0.7h-2V405.8z"/>
		<path d="M91,405.8h-3.6v-6.4H91v0.7h-2.8v2.1h2.7v0.7h-2.7v2.4H91V405.8z"/>
		<path d="M48.4,416.6h-0.7v-6.4h3.6v0.7h-2.8v2.4h2.7v0.7h-2.7V416.6z"/>
		<path d="M57.9,413.4c0,0.5-0.1,0.9-0.2,1.4c-0.1,0.4-0.3,0.8-0.6,1c-0.2,0.3-0.6,0.5-0.9,0.7s-0.8,0.2-1.3,0.2
			c-0.5,0-0.9-0.1-1.3-0.2c-0.4-0.2-0.7-0.4-0.9-0.7c-0.2-0.3-0.4-0.6-0.5-1.1c-0.1-0.4-0.2-0.9-0.2-1.4c0-0.7,0.1-1.2,0.3-1.7
			s0.5-0.9,1-1.2c0.4-0.3,1-0.4,1.7-0.4c0.6,0,1.2,0.1,1.6,0.4c0.4,0.3,0.8,0.7,1,1.1C57.8,412.1,57.9,412.7,57.9,413.4z
			 M52.8,413.4c0,0.5,0.1,1,0.2,1.4c0.2,0.4,0.4,0.7,0.7,0.9c0.3,0.2,0.7,0.3,1.2,0.3c0.5,0,0.9-0.1,1.2-0.3
			c0.3-0.2,0.6-0.5,0.7-0.9c0.2-0.4,0.2-0.9,0.2-1.4c0-0.8-0.2-1.5-0.5-1.9c-0.3-0.5-0.9-0.7-1.6-0.7c-0.5,0-0.9,0.1-1.2,0.3
			s-0.6,0.5-0.7,0.9C52.9,412.4,52.8,412.8,52.8,413.4z"/>
		<path d="M61.3,416.6h-0.8v-5.8h-2v-0.7h4.8v0.7h-2V416.6z"/>
		<path d="M69.9,413.4c0,0.5-0.1,0.9-0.2,1.4c-0.1,0.4-0.3,0.8-0.6,1c-0.2,0.3-0.6,0.5-0.9,0.7s-0.8,0.2-1.3,0.2
			c-0.5,0-0.9-0.1-1.3-0.2c-0.4-0.2-0.7-0.4-0.9-0.7c-0.2-0.3-0.4-0.6-0.5-1.1c-0.1-0.4-0.2-0.9-0.2-1.4c0-0.7,0.1-1.2,0.3-1.7
			s0.5-0.9,1-1.2c0.4-0.3,1-0.4,1.7-0.4c0.6,0,1.2,0.1,1.6,0.4c0.4,0.3,0.8,0.7,1,1.1C69.7,412.1,69.9,412.7,69.9,413.4z
			 M64.7,413.4c0,0.5,0.1,1,0.2,1.4c0.2,0.4,0.4,0.7,0.7,0.9c0.3,0.2,0.7,0.3,1.2,0.3c0.5,0,0.9-0.1,1.2-0.3
			c0.3-0.2,0.6-0.5,0.7-0.9c0.2-0.4,0.2-0.9,0.2-1.4c0-0.8-0.2-1.5-0.5-1.9c-0.3-0.5-0.9-0.7-1.6-0.7c-0.5,0-0.9,0.1-1.2,0.3
			s-0.6,0.5-0.7,0.9C64.8,412.4,64.7,412.8,64.7,413.4z M68.2,408.1L68.2,408.1c-0.1,0.2-0.1,0.3-0.2,0.4c-0.1,0.1-0.2,0.2-0.3,0.4
			c-0.1,0.1-0.2,0.3-0.4,0.4c-0.1,0.1-0.2,0.2-0.3,0.3h-0.5v-0.1c0.1-0.1,0.2-0.2,0.3-0.4c0.1-0.2,0.2-0.3,0.3-0.5
			c0.1-0.2,0.2-0.3,0.3-0.5H68.2z"/>
		<path d="M74,413.2h2.2v3.1c-0.3,0.1-0.7,0.2-1,0.3c-0.4,0.1-0.8,0.1-1.2,0.1c-0.7,0-1.2-0.1-1.7-0.4c-0.5-0.3-0.8-0.6-1-1.1
			c-0.2-0.5-0.4-1.1-0.4-1.8c0-0.7,0.1-1.2,0.4-1.7c0.3-0.5,0.6-0.9,1.1-1.2c0.5-0.3,1.1-0.4,1.8-0.4c0.4,0,0.7,0,1,0.1
			c0.3,0.1,0.6,0.2,0.9,0.3l-0.3,0.7c-0.2-0.1-0.5-0.2-0.8-0.3c-0.3-0.1-0.6-0.1-0.9-0.1c-0.5,0-1,0.1-1.3,0.3
			c-0.4,0.2-0.7,0.5-0.9,0.9c-0.2,0.4-0.3,0.9-0.3,1.4c0,0.5,0.1,1,0.3,1.4c0.2,0.4,0.4,0.7,0.8,0.9s0.8,0.3,1.4,0.3
			c0.3,0,0.5,0,0.7,0c0.2,0,0.4-0.1,0.6-0.1v-2H74V413.2z"/>
		<path d="M79.6,410.2c0.5,0,1,0.1,1.3,0.2c0.3,0.1,0.6,0.3,0.8,0.6s0.3,0.6,0.3,1c0,0.3-0.1,0.6-0.2,0.9c-0.1,0.2-0.3,0.4-0.5,0.6
			s-0.4,0.2-0.6,0.3l1.8,2.9h-0.9l-1.6-2.7h-1.3v2.7h-0.7v-6.4H79.6z M79.5,410.8h-0.9v2.5h1c0.5,0,0.9-0.1,1.2-0.3
			c0.2-0.2,0.4-0.5,0.4-0.9c0-0.4-0.1-0.7-0.4-0.9C80.5,410.9,80.1,410.8,79.5,410.8z"/>
		<path d="M87.4,416.6l-0.8-2H84l-0.8,2h-0.8l2.5-6.5h0.7l2.5,6.5H87.4z M86.4,413.9l-0.8-2c0-0.1,0-0.1-0.1-0.3
			c0-0.1-0.1-0.2-0.1-0.4s-0.1-0.2-0.1-0.3c0,0.1-0.1,0.2-0.1,0.4c0,0.1-0.1,0.2-0.1,0.3c0,0.1-0.1,0.2-0.1,0.3l-0.8,2H86.4z"/>
		<path d="M89.8,416.6h-0.7v-6.4h3.6v0.7h-2.8v2.4h2.7v0.7h-2.7V416.6z"/>
		<path d="M99.3,413.4c0,0.5-0.1,0.9-0.2,1.4c-0.1,0.4-0.3,0.8-0.6,1c-0.2,0.3-0.6,0.5-0.9,0.7s-0.8,0.2-1.3,0.2
			c-0.5,0-0.9-0.1-1.3-0.2c-0.4-0.2-0.7-0.4-0.9-0.7c-0.2-0.3-0.4-0.6-0.5-1.1c-0.1-0.4-0.2-0.9-0.2-1.4c0-0.7,0.1-1.2,0.3-1.7
			s0.5-0.9,1-1.2c0.4-0.3,1-0.4,1.7-0.4c0.6,0,1.2,0.1,1.6,0.4c0.4,0.3,0.8,0.7,1,1.1C99.2,412.1,99.3,412.7,99.3,413.4z
			 M94.2,413.4c0,0.5,0.1,1,0.2,1.4c0.2,0.4,0.4,0.7,0.7,0.9c0.3,0.2,0.7,0.3,1.2,0.3c0.5,0,0.9-0.1,1.2-0.3
			c0.3-0.2,0.6-0.5,0.7-0.9c0.2-0.4,0.2-0.9,0.2-1.4c0-0.8-0.2-1.5-0.5-1.9c-0.3-0.5-0.9-0.7-1.6-0.7c-0.5,0-0.9,0.1-1.2,0.3
			s-0.6,0.5-0.7,0.9C94.3,412.4,94.2,412.8,94.2,413.4z"/>
		<path d="M49.4,427c0.8,0,1.4,0.2,1.8,0.5c0.4,0.3,0.6,0.8,0.6,1.4c0,0.3,0,0.5-0.1,0.8c-0.1,0.2-0.2,0.5-0.4,0.6
			c-0.2,0.2-0.5,0.3-0.8,0.4c-0.3,0.1-0.7,0.2-1.2,0.2h-0.8v2.5h-0.7V427H49.4z M49.3,427.6h-0.9v2.6h0.7c0.4,0,0.8,0,1-0.1
			c0.3-0.1,0.5-0.2,0.6-0.4c0.1-0.2,0.2-0.5,0.2-0.8c0-0.4-0.1-0.7-0.4-1C50.3,427.7,49.9,427.6,49.3,427.6z"/>
		<path d="M54.8,427c0.5,0,1,0.1,1.3,0.2c0.3,0.1,0.6,0.3,0.8,0.6s0.3,0.6,0.3,1c0,0.3-0.1,0.6-0.2,0.9c-0.1,0.2-0.3,0.4-0.5,0.6
			s-0.4,0.2-0.6,0.3l1.8,2.9h-0.9l-1.6-2.7h-1.3v2.7h-0.7V427H54.8z M54.8,427.6h-0.9v2.5h1c0.5,0,0.9-0.1,1.2-0.3
			c0.2-0.2,0.4-0.5,0.4-0.9c0-0.4-0.1-0.7-0.4-0.9C55.7,427.7,55.3,427.6,54.8,427.6z"/>
		<path d="M64.2,430.2c0,0.5-0.1,0.9-0.2,1.4c-0.1,0.4-0.3,0.8-0.6,1c-0.2,0.3-0.6,0.5-0.9,0.7s-0.8,0.2-1.3,0.2
			c-0.5,0-0.9-0.1-1.3-0.2c-0.4-0.2-0.7-0.4-0.9-0.7c-0.2-0.3-0.4-0.6-0.5-1.1c-0.1-0.4-0.2-0.9-0.2-1.4c0-0.7,0.1-1.2,0.3-1.7
			s0.5-0.9,1-1.2c0.4-0.3,1-0.4,1.7-0.4c0.6,0,1.2,0.1,1.6,0.4c0.4,0.3,0.8,0.7,1,1.1C64.1,428.9,64.2,429.5,64.2,430.2z
			 M59.1,430.2c0,0.5,0.1,1,0.2,1.4c0.2,0.4,0.4,0.7,0.7,0.9c0.3,0.2,0.7,0.3,1.2,0.3c0.5,0,0.9-0.1,1.2-0.3
			c0.3-0.2,0.6-0.5,0.7-0.9c0.2-0.4,0.2-0.9,0.2-1.4c0-0.8-0.2-1.5-0.5-1.9c-0.3-0.5-0.9-0.7-1.6-0.7c-0.5,0-0.9,0.1-1.2,0.3
			s-0.6,0.5-0.7,0.9C59.2,429.2,59.1,429.6,59.1,430.2z"/>
		<path d="M70.7,430.1c0,0.7-0.1,1.3-0.4,1.8c-0.3,0.5-0.6,0.8-1.1,1.1c-0.5,0.2-1.1,0.4-1.8,0.4h-1.7V427h1.9
			c0.7,0,1.2,0.1,1.7,0.4c0.5,0.2,0.8,0.6,1.1,1.1C70.6,428.9,70.7,429.4,70.7,430.1z M70,430.1c0-0.6-0.1-1.1-0.3-1.4
			c-0.2-0.4-0.5-0.7-0.8-0.8c-0.4-0.2-0.8-0.3-1.4-0.3h-1.1v5.1h0.9c0.9,0,1.5-0.2,2-0.7C69.7,431.7,70,431,70,430.1z"/>
		<path d="M77,427v4.2c0,0.5-0.1,0.9-0.3,1.2c-0.2,0.4-0.5,0.6-0.8,0.8c-0.4,0.2-0.8,0.3-1.4,0.3c-0.8,0-1.4-0.2-1.8-0.6
			c-0.4-0.4-0.6-1-0.6-1.7V427h0.8v4.2c0,0.5,0.1,1,0.4,1.3c0.3,0.3,0.7,0.4,1.3,0.4c0.4,0,0.7-0.1,1-0.2c0.3-0.1,0.4-0.3,0.6-0.6
			c0.1-0.3,0.2-0.6,0.2-0.9V427H77z"/>
		<path d="M81.5,427.5c-0.4,0-0.7,0.1-1,0.2c-0.3,0.1-0.5,0.3-0.7,0.5c-0.2,0.2-0.3,0.5-0.5,0.8s-0.2,0.7-0.2,1.1
			c0,0.5,0.1,1,0.3,1.4c0.2,0.4,0.4,0.7,0.8,0.9c0.3,0.2,0.8,0.3,1.3,0.3c0.3,0,0.6,0,0.8-0.1c0.3,0,0.5-0.1,0.7-0.2v0.7
			c-0.2,0.1-0.5,0.2-0.7,0.2c-0.3,0-0.6,0.1-0.9,0.1c-0.7,0-1.2-0.1-1.6-0.4c-0.4-0.3-0.8-0.7-1-1.1c-0.2-0.5-0.3-1.1-0.3-1.8
			c0-0.5,0.1-0.9,0.2-1.3c0.1-0.4,0.3-0.8,0.6-1c0.3-0.3,0.6-0.5,1-0.7c0.4-0.2,0.8-0.2,1.3-0.2c0.3,0,0.6,0,0.9,0.1
			s0.6,0.2,0.8,0.3l-0.3,0.6c-0.2-0.1-0.4-0.2-0.7-0.2C82,427.6,81.8,427.5,81.5,427.5z"/>
		<path d="M86.4,433.4h-0.8v-5.8h-2V427h4.8v0.7h-2V433.4z"/>
		<path d="M94.9,430.2c0,0.5-0.1,0.9-0.2,1.4c-0.1,0.4-0.3,0.8-0.6,1c-0.2,0.3-0.6,0.5-0.9,0.7s-0.8,0.2-1.3,0.2
			c-0.5,0-0.9-0.1-1.3-0.2c-0.4-0.2-0.7-0.4-0.9-0.7c-0.2-0.3-0.4-0.6-0.5-1.1c-0.1-0.4-0.2-0.9-0.2-1.4c0-0.7,0.1-1.2,0.3-1.7
			s0.5-0.9,1-1.2c0.4-0.3,1-0.4,1.7-0.4c0.6,0,1.2,0.1,1.6,0.4c0.4,0.3,0.8,0.7,1,1.1C94.8,428.9,94.9,429.5,94.9,430.2z
			 M89.8,430.2c0,0.5,0.1,1,0.2,1.4c0.2,0.4,0.4,0.7,0.7,0.9c0.3,0.2,0.7,0.3,1.2,0.3c0.5,0,0.9-0.1,1.2-0.3
			c0.3-0.2,0.6-0.5,0.7-0.9c0.2-0.4,0.2-0.9,0.2-1.4c0-0.8-0.2-1.5-0.5-1.9c-0.3-0.5-0.9-0.7-1.6-0.7c-0.5,0-0.9,0.1-1.2,0.3
			s-0.6,0.5-0.7,0.9C89.9,429.2,89.8,429.6,89.8,430.2z"/>
		<path d="M98.1,427c0.5,0,1,0.1,1.3,0.2c0.3,0.1,0.6,0.3,0.8,0.6s0.3,0.6,0.3,1c0,0.3-0.1,0.6-0.2,0.9c-0.1,0.2-0.3,0.4-0.5,0.6
			s-0.4,0.2-0.6,0.3l1.8,2.9H100l-1.6-2.7h-1.3v2.7h-0.7V427H98.1z M98.1,427.6h-0.9v2.5h1c0.5,0,0.9-0.1,1.2-0.3
			c0.2-0.2,0.4-0.5,0.4-0.9c0-0.4-0.1-0.7-0.4-0.9C99,427.7,98.6,427.6,98.1,427.6z"/>
		<path d="M106,433.4l-0.8-2h-2.6l-0.8,2H101l2.5-6.5h0.7l2.5,6.5H106z M104.9,430.7l-0.8-2c0-0.1,0-0.1-0.1-0.3
			c0-0.1-0.1-0.2-0.1-0.4s-0.1-0.2-0.1-0.3c0,0.1-0.1,0.2-0.1,0.4c0,0.1-0.1,0.2-0.1,0.3c0,0.1-0.1,0.2-0.1,0.3l-0.8,2H104.9z"/>
		<path d="M52.8,440.9c0,0.7-0.1,1.3-0.4,1.8c-0.3,0.5-0.6,0.8-1.1,1.1c-0.5,0.2-1.1,0.4-1.8,0.4h-1.7v-6.4h1.9
			c0.7,0,1.2,0.1,1.7,0.4c0.5,0.2,0.8,0.6,1.1,1.1C52.7,439.7,52.8,440.2,52.8,440.9z M52,440.9c0-0.6-0.1-1.1-0.3-1.4
			c-0.2-0.4-0.5-0.7-0.8-0.8c-0.4-0.2-0.8-0.3-1.4-0.3h-1.1v5.1h0.9c0.9,0,1.5-0.2,2-0.7C51.8,442.5,52,441.8,52,440.9z"/>
		<path d="M57.8,444.2h-3.6v-6.4h3.6v0.7H55v2.1h2.7v0.7H55v2.4h2.8V444.2z"/>
		<path d="M64.4,444.2l-2.2-5.7h0c0,0.1,0,0.3,0,0.4s0,0.4,0,0.6c0,0.2,0,0.4,0,0.6v4.1h-0.7v-6.4h1.1l2,5.3h0l2.1-5.3h1.1v6.4h-0.7
			v-4.1c0-0.2,0-0.4,0-0.6c0-0.2,0-0.4,0-0.5c0-0.2,0-0.3,0-0.4h0l-2.2,5.7H64.4z"/>
		<path d="M75.2,441c0,0.5-0.1,0.9-0.2,1.4c-0.1,0.4-0.3,0.8-0.6,1c-0.2,0.3-0.6,0.5-0.9,0.7s-0.8,0.2-1.3,0.2
			c-0.5,0-0.9-0.1-1.3-0.2c-0.4-0.2-0.7-0.4-0.9-0.7c-0.2-0.3-0.4-0.6-0.5-1.1c-0.1-0.4-0.2-0.9-0.2-1.4c0-0.7,0.1-1.2,0.3-1.7
			s0.5-0.9,1-1.2c0.4-0.3,1-0.4,1.7-0.4c0.6,0,1.2,0.1,1.6,0.4c0.4,0.3,0.8,0.7,1,1.1C75.1,439.7,75.2,440.3,75.2,441z M70.1,441
			c0,0.5,0.1,1,0.2,1.4c0.2,0.4,0.4,0.7,0.7,0.9c0.3,0.2,0.7,0.3,1.2,0.3c0.5,0,0.9-0.1,1.2-0.3c0.3-0.2,0.6-0.5,0.7-0.9
			c0.2-0.4,0.2-0.9,0.2-1.4c0-0.8-0.2-1.5-0.5-1.9c-0.3-0.5-0.9-0.7-1.6-0.7c-0.5,0-0.9,0.1-1.2,0.3s-0.6,0.5-0.7,0.9
			C70.2,440,70.1,440.4,70.1,441z"/>
		<path d="M81.7,440.9c0,0.7-0.1,1.3-0.4,1.8c-0.3,0.5-0.6,0.8-1.1,1.1c-0.5,0.2-1.1,0.4-1.8,0.4h-1.7v-6.4h1.9
			c0.7,0,1.2,0.1,1.7,0.4c0.5,0.2,0.8,0.6,1.1,1.1C81.6,439.7,81.7,440.2,81.7,440.9z M81,440.9c0-0.6-0.1-1.1-0.3-1.4
			c-0.2-0.4-0.5-0.7-0.8-0.8c-0.4-0.2-0.8-0.3-1.4-0.3h-1.1v5.1h0.9c0.9,0,1.5-0.2,2-0.7C80.7,442.5,81,441.8,81,440.9z"/>
		<path d="M87.2,444.2l-0.8-2h-2.6l-0.8,2h-0.8l2.5-6.5h0.7l2.5,6.5H87.2z M86.2,441.5l-0.8-2c0-0.1,0-0.1-0.1-0.3
			c0-0.1-0.1-0.2-0.1-0.4s-0.1-0.2-0.1-0.3c0,0.1-0.1,0.2-0.1,0.4c0,0.1-0.1,0.2-0.1,0.3c0,0.1-0.1,0.2-0.1,0.3l-0.8,2H86.2z"/>
		<path d="M51.7,461l-0.8-2h-2.6l-0.8,2h-0.8l2.5-6.5H50l2.5,6.5H51.7z M50.7,458.3l-0.8-2c0-0.1,0-0.1-0.1-0.3
			c0-0.1-0.1-0.2-0.1-0.4s-0.1-0.2-0.1-0.3c0,0.1-0.1,0.2-0.1,0.4c0,0.1-0.1,0.2-0.1,0.3c0,0.1-0.1,0.2-0.1,0.3l-0.8,2H50.7z"/>
		<path d="M57,459.3c0,0.4-0.1,0.7-0.3,1c-0.2,0.3-0.5,0.5-0.8,0.6s-0.7,0.2-1.2,0.2c-0.2,0-0.5,0-0.7,0s-0.4-0.1-0.6-0.1
			c-0.2,0-0.3-0.1-0.5-0.2v-0.7c0.2,0.1,0.5,0.2,0.8,0.3c0.3,0.1,0.6,0.1,1,0.1c0.3,0,0.6,0,0.8-0.1c0.2-0.1,0.4-0.2,0.5-0.4
			c0.1-0.2,0.2-0.4,0.2-0.6c0-0.2,0-0.4-0.1-0.6c-0.1-0.1-0.3-0.3-0.5-0.4c-0.2-0.1-0.5-0.3-0.9-0.4c-0.3-0.1-0.5-0.2-0.7-0.3
			c-0.2-0.1-0.4-0.2-0.5-0.4c-0.1-0.1-0.2-0.3-0.3-0.5c-0.1-0.2-0.1-0.4-0.1-0.7c0-0.3,0.1-0.6,0.3-0.9c0.2-0.2,0.4-0.4,0.7-0.6
			c0.3-0.1,0.7-0.2,1.1-0.2c0.3,0,0.7,0,1,0.1c0.3,0.1,0.6,0.2,0.8,0.3l-0.2,0.6c-0.2-0.1-0.5-0.2-0.7-0.2c-0.3-0.1-0.5-0.1-0.8-0.1
			s-0.5,0-0.7,0.1c-0.2,0.1-0.3,0.2-0.4,0.3s-0.1,0.3-0.1,0.5c0,0.2,0,0.4,0.1,0.6c0.1,0.1,0.2,0.3,0.5,0.4c0.2,0.1,0.5,0.2,0.8,0.4
			c0.4,0.1,0.7,0.3,1,0.4c0.3,0.2,0.5,0.3,0.6,0.6C56.9,458.7,57,458.9,57,459.3z"/>
		<path d="M58.3,461v-6.4h0.7v6.4H58.3z"/>
		<path d="M64.4,459.3c0,0.4-0.1,0.7-0.3,1c-0.2,0.3-0.5,0.5-0.8,0.6s-0.7,0.2-1.2,0.2c-0.2,0-0.5,0-0.7,0s-0.4-0.1-0.6-0.1
			c-0.2,0-0.3-0.1-0.5-0.2v-0.7c0.2,0.1,0.5,0.2,0.8,0.3c0.3,0.1,0.6,0.1,1,0.1c0.3,0,0.6,0,0.8-0.1c0.2-0.1,0.4-0.2,0.5-0.4
			c0.1-0.2,0.2-0.4,0.2-0.6c0-0.2,0-0.4-0.1-0.6c-0.1-0.1-0.3-0.3-0.5-0.4c-0.2-0.1-0.5-0.3-0.9-0.4c-0.3-0.1-0.5-0.2-0.7-0.3
			c-0.2-0.1-0.4-0.2-0.5-0.4c-0.1-0.1-0.2-0.3-0.3-0.5c-0.1-0.2-0.1-0.4-0.1-0.7c0-0.3,0.1-0.6,0.3-0.9c0.2-0.2,0.4-0.4,0.7-0.6
			c0.3-0.1,0.7-0.2,1.1-0.2c0.3,0,0.7,0,1,0.1c0.3,0.1,0.6,0.2,0.8,0.3l-0.2,0.6c-0.2-0.1-0.5-0.2-0.7-0.2c-0.3-0.1-0.5-0.1-0.8-0.1
			s-0.5,0-0.7,0.1c-0.2,0.1-0.3,0.2-0.4,0.3s-0.1,0.3-0.1,0.5c0,0.2,0,0.4,0.1,0.6c0.1,0.1,0.2,0.3,0.5,0.4c0.2,0.1,0.5,0.2,0.8,0.4
			c0.4,0.1,0.7,0.3,1,0.4c0.3,0.2,0.5,0.3,0.6,0.6C64.4,458.7,64.4,458.9,64.4,459.3z"/>
		<path d="M67.7,461H67v-5.8h-2v-0.7h4.8v0.7h-2V461z"/>
		<path d="M74.3,461h-3.6v-6.4h3.6v0.7h-2.8v2.1h2.7v0.7h-2.7v2.4h2.8V461z"/>
		<path d="M80.7,461h-0.9l-3.5-5.4h0c0,0.1,0,0.3,0,0.5c0,0.2,0,0.4,0,0.6c0,0.2,0,0.4,0,0.6v3.7h-0.7v-6.4h0.9l3.5,5.4h0
			c0-0.1,0-0.2,0-0.4c0-0.2,0-0.4,0-0.6c0-0.2,0-0.4,0-0.6v-3.7h0.7V461z"/>
		<path d="M84.5,461h-0.8v-5.8h-2v-0.7h4.8v0.7h-2V461z"/>
		<path d="M91,461h-3.6v-6.4H91v0.7h-2.8v2.1h2.7v0.7h-2.7v2.4H91V461z"/>
		<path d="M52.2,465.4l-2.3,6.4h-0.8l-2.3-6.4h0.8l1.5,4.2c0.1,0.2,0.1,0.3,0.2,0.5c0,0.2,0.1,0.3,0.1,0.4s0.1,0.3,0.1,0.4
			c0-0.1,0.1-0.3,0.1-0.4c0-0.1,0.1-0.3,0.1-0.5c0-0.2,0.1-0.3,0.2-0.5l1.5-4.2H52.2z"/>
		<path d="M56.6,471.8H53v-6.4h3.6v0.7h-2.8v2.1h2.7v0.7h-2.7v2.4h2.8V471.8z"/>
		<path d="M61.7,470.1c0,0.4-0.1,0.7-0.3,1c-0.2,0.3-0.5,0.5-0.8,0.6s-0.7,0.2-1.2,0.2c-0.2,0-0.5,0-0.7,0s-0.4-0.1-0.6-0.1
			c-0.2,0-0.3-0.1-0.5-0.2v-0.7c0.2,0.1,0.5,0.2,0.8,0.3c0.3,0.1,0.6,0.1,1,0.1c0.3,0,0.6,0,0.8-0.1c0.2-0.1,0.4-0.2,0.5-0.4
			c0.1-0.2,0.2-0.4,0.2-0.6c0-0.2,0-0.4-0.1-0.6c-0.1-0.1-0.3-0.3-0.5-0.4c-0.2-0.1-0.5-0.3-0.9-0.4c-0.3-0.1-0.5-0.2-0.7-0.3
			c-0.2-0.1-0.4-0.2-0.5-0.4c-0.1-0.1-0.2-0.3-0.3-0.5c-0.1-0.2-0.1-0.4-0.1-0.7c0-0.3,0.1-0.6,0.3-0.9c0.2-0.2,0.4-0.4,0.7-0.6
			c0.3-0.1,0.7-0.2,1.1-0.2c0.3,0,0.7,0,1,0.1c0.3,0.1,0.6,0.2,0.8,0.3l-0.2,0.6c-0.2-0.1-0.5-0.2-0.7-0.2c-0.3-0.1-0.5-0.1-0.8-0.1
			s-0.5,0-0.7,0.1c-0.2,0.1-0.3,0.2-0.4,0.3s-0.1,0.3-0.1,0.5c0,0.2,0,0.4,0.1,0.6c0.1,0.1,0.2,0.3,0.5,0.4c0.2,0.1,0.5,0.2,0.8,0.4
			c0.4,0.1,0.7,0.3,1,0.4c0.3,0.2,0.5,0.3,0.6,0.6C61.6,469.5,61.7,469.7,61.7,470.1z"/>
		<path d="M65,471.8h-0.8V466h-2v-0.7H67v0.7h-2V471.8z"/>
		<path d="M72.8,465.4v4.2c0,0.5-0.1,0.9-0.3,1.2c-0.2,0.4-0.5,0.6-0.8,0.8c-0.4,0.2-0.8,0.3-1.4,0.3c-0.8,0-1.4-0.2-1.8-0.6
			c-0.4-0.4-0.6-1-0.6-1.7v-4.1h0.8v4.2c0,0.5,0.1,1,0.4,1.3c0.3,0.3,0.7,0.4,1.3,0.4c0.4,0,0.7-0.1,1-0.2c0.3-0.1,0.4-0.3,0.6-0.6
			c0.1-0.3,0.2-0.6,0.2-0.9v-4.2H72.8z"/>
		<path d="M78.5,471.8l-0.8-2h-2.6l-0.8,2h-0.8l2.5-6.5h0.7l2.5,6.5H78.5z M77.5,469.1l-0.8-2c0-0.1,0-0.1-0.1-0.3
			c0-0.1-0.1-0.2-0.1-0.4s-0.1-0.2-0.1-0.3c0,0.1-0.1,0.2-0.1,0.4c0,0.1-0.1,0.2-0.1,0.3c0,0.1-0.1,0.2-0.1,0.3l-0.8,2H77.5z"/>
		<path d="M81.9,465.4c0.5,0,1,0.1,1.3,0.2c0.3,0.1,0.6,0.3,0.8,0.6s0.3,0.6,0.3,1c0,0.3-0.1,0.6-0.2,0.9c-0.1,0.2-0.3,0.4-0.5,0.6
			s-0.4,0.2-0.6,0.3l1.8,2.9h-0.9l-1.6-2.7h-1.3v2.7h-0.7v-6.4H81.9z M81.9,466h-0.9v2.5h1c0.5,0,0.9-0.1,1.2-0.3
			c0.2-0.2,0.4-0.5,0.4-0.9c0-0.4-0.1-0.7-0.4-0.9C82.8,466.1,82.4,466,81.9,466z"/>
		<path d="M85.7,471.8v-6.4h0.7v6.4H85.7z"/>
		<path d="M91.9,470.1c0,0.4-0.1,0.7-0.3,1c-0.2,0.3-0.5,0.5-0.8,0.6s-0.7,0.2-1.2,0.2c-0.2,0-0.5,0-0.7,0s-0.4-0.1-0.6-0.1
			c-0.2,0-0.3-0.1-0.5-0.2v-0.7c0.2,0.1,0.5,0.2,0.8,0.3c0.3,0.1,0.6,0.1,1,0.1c0.3,0,0.6,0,0.8-0.1c0.2-0.1,0.4-0.2,0.5-0.4
			c0.1-0.2,0.2-0.4,0.2-0.6c0-0.2,0-0.4-0.1-0.6c-0.1-0.1-0.3-0.3-0.5-0.4c-0.2-0.1-0.5-0.3-0.9-0.4c-0.3-0.1-0.5-0.2-0.7-0.3
			c-0.2-0.1-0.4-0.2-0.5-0.4c-0.1-0.1-0.2-0.3-0.3-0.5c-0.1-0.2-0.1-0.4-0.1-0.7c0-0.3,0.1-0.6,0.3-0.9c0.2-0.2,0.4-0.4,0.7-0.6
			c0.3-0.1,0.7-0.2,1.1-0.2c0.3,0,0.7,0,1,0.1c0.3,0.1,0.6,0.2,0.8,0.3l-0.2,0.6c-0.2-0.1-0.5-0.2-0.7-0.2c-0.3-0.1-0.5-0.1-0.8-0.1
			s-0.5,0-0.7,0.1c-0.2,0.1-0.3,0.2-0.4,0.3s-0.1,0.3-0.1,0.5c0,0.2,0,0.4,0.1,0.6c0.1,0.1,0.2,0.3,0.5,0.4c0.2,0.1,0.5,0.2,0.8,0.4
			c0.4,0.1,0.7,0.3,1,0.4c0.3,0.2,0.5,0.3,0.6,0.6C91.8,469.5,91.9,469.7,91.9,470.1z"/>
		<path d="M95.2,471.8h-0.8V466h-2v-0.7h4.8v0.7h-2V471.8z"/>
		<path d="M102.2,471.8l-0.8-2h-2.6l-0.8,2h-0.8l2.5-6.5h0.7l2.5,6.5H102.2z M101.2,469.1l-0.8-2c0-0.1,0-0.1-0.1-0.3
			c0-0.1-0.1-0.2-0.1-0.4s-0.1-0.2-0.1-0.3c0,0.1-0.1,0.2-0.1,0.4c0,0.1-0.1,0.2-0.1,0.3c0,0.1-0.1,0.2-0.1,0.3l-0.8,2H101.2z"/>
	</g>
	<g>
		<g>
			<path d="M38.8,338v8h-8v-8H38.8 M39.8,337h-10v10h10V337L39.8,337z"/>
		</g>
		<polygon class="st0" points="28.3,340.5 34.8,345.1 42.3,334.5 34.8,342.3 		"/>
	</g>
	<g>
		<g>
			<path d="M38.8,355v8h-8v-8H38.8 M39.8,354h-10v10h10V354L39.8,354z"/>
		</g>
		<polygon class="st0" points="28.3,357.5 34.8,362.1 42.3,351.5 34.8,359.3 		"/>
	</g>
	<g>
		<g>
			<path d="M38.8,382v8h-8v-8H38.8 M39.8,381h-10v10h10V381L39.8,381z"/>
		</g>
		<polygon class="st0" points="28.3,384.5 34.8,389.1 42.3,378.5 34.8,386.3 		"/>
	</g>
	<g>
		<g>
			<path d="M38.8,400v8h-8v-8H38.8 M39.8,399h-10v10h10V399L39.8,399z"/>
		</g>
		<polygon class="st0" points="28.3,402.5 34.8,407.1 42.3,396.5 34.8,404.3 		"/>
	</g>
	<g>
		<g>
			<path d="M38.8,427v8h-8v-8H38.8 M39.8,426h-10v10h10V426L39.8,426z"/>
		</g>
		<polygon class="st0" points="28.3,429.5 34.8,434.1 42.3,423.5 34.8,431.3 		"/>
	</g>
	<g>
		<g>
			<path d="M38.8,455v8h-8v-8H38.8 M39.8,454h-10v10h10V454L39.8,454z"/>
		</g>
		<polygon class="st0" points="28.3,457.5 34.8,462.1 42.3,451.5 34.8,459.3 		"/>
	</g>
	<g>
		<path d="M158.8,343.8l-2.2-5.7h0c0,0.1,0,0.3,0,0.4c0,0.2,0,0.4,0,0.6c0,0.2,0,0.4,0,0.6v4.1H156v-6.4h1.1l2,5.3h0l2.1-5.3h1.1
			v6.4h-0.7v-4.1c0-0.2,0-0.4,0-0.6s0-0.4,0-0.5c0-0.2,0-0.3,0-0.4h0l-2.2,5.7H158.8z"/>
		<path d="M169.6,340.6c0,0.5-0.1,0.9-0.2,1.3c-0.1,0.4-0.3,0.8-0.6,1c-0.2,0.3-0.6,0.5-0.9,0.7s-0.8,0.2-1.3,0.2
			c-0.5,0-0.9-0.1-1.3-0.2c-0.4-0.2-0.7-0.4-0.9-0.7c-0.2-0.3-0.4-0.6-0.5-1.1c-0.1-0.4-0.2-0.9-0.2-1.4c0-0.7,0.1-1.2,0.3-1.7
			c0.2-0.5,0.5-0.9,1-1.2c0.4-0.3,1-0.4,1.7-0.4c0.6,0,1.2,0.1,1.6,0.4c0.4,0.3,0.8,0.7,1,1.1C169.5,339.3,169.6,339.9,169.6,340.6z
			 M164.5,340.6c0,0.5,0.1,1,0.2,1.4s0.4,0.7,0.7,0.9c0.3,0.2,0.7,0.3,1.2,0.3c0.5,0,0.9-0.1,1.2-0.3c0.3-0.2,0.6-0.5,0.7-0.9
			s0.2-0.9,0.2-1.4c0-0.8-0.2-1.5-0.5-1.9c-0.3-0.5-0.9-0.7-1.6-0.7c-0.5,0-0.9,0.1-1.2,0.3c-0.3,0.2-0.6,0.5-0.7,0.9
			C164.6,339.6,164.5,340,164.5,340.6z"/>
		<path d="M176.1,340.5c0,0.7-0.1,1.3-0.4,1.8c-0.3,0.5-0.6,0.8-1.1,1.1c-0.5,0.2-1.1,0.4-1.8,0.4H171v-6.4h1.9
			c0.7,0,1.2,0.1,1.7,0.4c0.5,0.2,0.8,0.6,1.1,1.1C176,339.3,176.1,339.8,176.1,340.5z M175.4,340.5c0-0.6-0.1-1.1-0.3-1.4
			c-0.2-0.4-0.5-0.7-0.8-0.8c-0.4-0.2-0.8-0.3-1.4-0.3h-1.1v5.1h0.9c0.9,0,1.5-0.2,2-0.7C175.1,342.1,175.4,341.4,175.4,340.5z"/>
		<path d="M181.2,343.8h-3.6v-6.4h3.6v0.7h-2.8v2.1h2.7v0.7h-2.7v2.4h2.8V343.8z"/>
		<path d="M182.6,343.8v-6.4h0.7v5.8h2.9v0.7H182.6z"/>
		<path d="M192.8,340.6c0,0.5-0.1,0.9-0.2,1.3c-0.1,0.4-0.3,0.8-0.6,1c-0.2,0.3-0.6,0.5-0.9,0.7s-0.8,0.2-1.3,0.2
			c-0.5,0-0.9-0.1-1.3-0.2c-0.4-0.2-0.7-0.4-0.9-0.7c-0.2-0.3-0.4-0.6-0.5-1.1c-0.1-0.4-0.2-0.9-0.2-1.4c0-0.7,0.1-1.2,0.3-1.7
			c0.2-0.5,0.5-0.9,1-1.2c0.4-0.3,1-0.4,1.7-0.4c0.6,0,1.2,0.1,1.6,0.4c0.4,0.3,0.8,0.7,1,1.1C192.7,339.3,192.8,339.9,192.8,340.6z
			 M187.7,340.6c0,0.5,0.1,1,0.2,1.4s0.4,0.7,0.7,0.9c0.3,0.2,0.7,0.3,1.2,0.3c0.5,0,0.9-0.1,1.2-0.3c0.3-0.2,0.6-0.5,0.7-0.9
			s0.2-0.9,0.2-1.4c0-0.8-0.2-1.5-0.5-1.9c-0.3-0.5-0.9-0.7-1.6-0.7c-0.5,0-0.9,0.1-1.2,0.3c-0.3,0.2-0.6,0.5-0.7,0.9
			C187.8,339.6,187.7,340,187.7,340.6z"/>
		<path d="M159.5,360.6H156v-6.4h3.6v0.7h-2.8v2.1h2.7v0.7h-2.7v2.4h2.8V360.6z"/>
		<path d="M166.5,357.4c0,0.5-0.1,1-0.2,1.4c-0.1,0.4-0.4,0.8-0.6,1.1c-0.3,0.3-0.6,0.5-1.1,0.6l1.5,1.6h-1.1l-1.2-1.4
			c0,0-0.1,0-0.1,0c0,0-0.1,0-0.1,0c-0.5,0-0.9-0.1-1.3-0.2c-0.4-0.2-0.7-0.4-0.9-0.7c-0.2-0.3-0.4-0.6-0.5-1.1
			c-0.1-0.4-0.2-0.9-0.2-1.4c0-0.7,0.1-1.2,0.3-1.7c0.2-0.5,0.5-0.9,1-1.2c0.4-0.3,1-0.4,1.7-0.4c0.6,0,1.2,0.1,1.6,0.4
			c0.4,0.3,0.8,0.7,1,1.2C166.4,356.1,166.5,356.7,166.5,357.4z M161.4,357.4c0,0.5,0.1,1,0.2,1.4c0.2,0.4,0.4,0.7,0.7,0.9
			c0.3,0.2,0.7,0.3,1.2,0.3c0.5,0,0.9-0.1,1.2-0.3c0.3-0.2,0.6-0.5,0.7-0.9c0.2-0.4,0.2-0.9,0.2-1.4c0-0.8-0.2-1.5-0.5-1.9
			c-0.3-0.5-0.9-0.7-1.6-0.7c-0.5,0-0.9,0.1-1.2,0.3c-0.3,0.2-0.6,0.5-0.7,0.9C161.5,356.4,161.4,356.8,161.4,357.4z"/>
		<path d="M172.8,354.2v4.2c0,0.5-0.1,0.9-0.3,1.2c-0.2,0.4-0.5,0.6-0.8,0.8s-0.8,0.3-1.4,0.3c-0.8,0-1.4-0.2-1.8-0.6
			c-0.4-0.4-0.6-1-0.6-1.7v-4.1h0.8v4.2c0,0.5,0.1,1,0.4,1.3c0.3,0.3,0.7,0.4,1.3,0.4c0.4,0,0.7-0.1,1-0.2c0.3-0.1,0.4-0.3,0.6-0.6
			c0.1-0.3,0.2-0.6,0.2-0.9v-4.2H172.8z"/>
		<path d="M174.5,360.6v-6.4h0.7v6.4H174.5z"/>
		<path d="M178.7,354.2c0.8,0,1.4,0.2,1.8,0.5c0.4,0.3,0.6,0.8,0.6,1.4c0,0.3,0,0.5-0.1,0.8c-0.1,0.2-0.2,0.5-0.4,0.6
			c-0.2,0.2-0.5,0.3-0.8,0.4c-0.3,0.1-0.7,0.2-1.2,0.2h-0.8v2.5H177v-6.4H178.7z M178.6,354.8h-0.9v2.6h0.7c0.4,0,0.8,0,1-0.1
			c0.3-0.1,0.5-0.2,0.6-0.4c0.1-0.2,0.2-0.5,0.2-0.8c0-0.4-0.1-0.7-0.4-1C179.6,354.9,179.2,354.8,178.6,354.8z"/>
		<path d="M188,357.4c0,0.5-0.1,0.9-0.2,1.4s-0.3,0.8-0.6,1c-0.2,0.3-0.6,0.5-0.9,0.7s-0.8,0.2-1.3,0.2c-0.5,0-0.9-0.1-1.3-0.2
			c-0.4-0.2-0.7-0.4-0.9-0.7c-0.2-0.3-0.4-0.6-0.5-1.1c-0.1-0.4-0.2-0.9-0.2-1.4c0-0.7,0.1-1.2,0.3-1.7c0.2-0.5,0.5-0.9,1-1.2
			c0.4-0.3,1-0.4,1.7-0.4c0.6,0,1.2,0.1,1.6,0.4c0.4,0.3,0.8,0.7,1,1.2C187.9,356.1,188,356.7,188,357.4z M182.9,357.4
			c0,0.5,0.1,1,0.2,1.4c0.2,0.4,0.4,0.7,0.7,0.9c0.3,0.2,0.7,0.3,1.2,0.3c0.5,0,0.9-0.1,1.2-0.3c0.3-0.2,0.6-0.5,0.7-0.9
			c0.2-0.4,0.2-0.9,0.2-1.4c0-0.8-0.2-1.5-0.5-1.9c-0.3-0.5-0.9-0.7-1.6-0.7c-0.5,0-0.9,0.1-1.2,0.3c-0.3,0.2-0.6,0.5-0.7,0.9
			C183,356.4,182.9,356.8,182.9,357.4z"/>
		<path d="M156.7,371.4H156V365h3.6v0.7h-2.8v2.4h2.7v0.7h-2.7V371.4z"/>
		<path d="M166.2,368.2c0,0.5-0.1,0.9-0.2,1.4s-0.3,0.8-0.6,1c-0.2,0.3-0.6,0.5-0.9,0.7s-0.8,0.2-1.3,0.2c-0.5,0-0.9-0.1-1.3-0.2
			c-0.4-0.2-0.7-0.4-0.9-0.7c-0.2-0.3-0.4-0.6-0.5-1.1c-0.1-0.4-0.2-0.9-0.2-1.4c0-0.7,0.1-1.2,0.3-1.7c0.2-0.5,0.5-0.9,1-1.2
			c0.4-0.3,1-0.4,1.7-0.4c0.6,0,1.2,0.1,1.6,0.4c0.4,0.3,0.8,0.7,1,1.2C166.1,366.9,166.2,367.5,166.2,368.2z M161.1,368.2
			c0,0.5,0.1,1,0.2,1.4c0.2,0.4,0.4,0.7,0.7,0.9c0.3,0.2,0.7,0.3,1.2,0.3c0.5,0,0.9-0.1,1.2-0.3c0.3-0.2,0.6-0.5,0.7-0.9
			c0.2-0.4,0.2-0.9,0.2-1.4c0-0.8-0.2-1.5-0.5-1.9c-0.3-0.5-0.9-0.7-1.6-0.7c-0.5,0-0.9,0.1-1.2,0.3c-0.3,0.2-0.6,0.5-0.7,0.9
			C161.1,367.2,161.1,367.6,161.1,368.2z"/>
		<path d="M169.6,371.4h-0.8v-5.8h-2V365h4.8v0.7h-2V371.4z"/>
		<path d="M178.1,368.2c0,0.5-0.1,0.9-0.2,1.4s-0.3,0.8-0.6,1c-0.2,0.3-0.6,0.5-0.9,0.7s-0.8,0.2-1.3,0.2c-0.5,0-0.9-0.1-1.3-0.2
			c-0.4-0.2-0.7-0.4-0.9-0.7c-0.2-0.3-0.4-0.6-0.5-1.1c-0.1-0.4-0.2-0.9-0.2-1.4c0-0.7,0.1-1.2,0.3-1.7c0.2-0.5,0.5-0.9,1-1.2
			c0.4-0.3,1-0.4,1.7-0.4c0.6,0,1.2,0.1,1.6,0.4c0.4,0.3,0.8,0.7,1,1.2C178,366.9,178.1,367.5,178.1,368.2z M173,368.2
			c0,0.5,0.1,1,0.2,1.4c0.2,0.4,0.4,0.7,0.7,0.9c0.3,0.2,0.7,0.3,1.2,0.3c0.5,0,0.9-0.1,1.2-0.3c0.3-0.2,0.6-0.5,0.7-0.9
			c0.2-0.4,0.2-0.9,0.2-1.4c0-0.8-0.2-1.5-0.5-1.9c-0.3-0.5-0.9-0.7-1.6-0.7c-0.5,0-0.9,0.1-1.2,0.3c-0.3,0.2-0.6,0.5-0.7,0.9
			C173.1,367.2,173,367.6,173,368.2z"/>
		<path d="M182.3,368h2.2v3.1c-0.3,0.1-0.7,0.2-1,0.3c-0.4,0.1-0.8,0.1-1.2,0.1c-0.7,0-1.2-0.1-1.7-0.4c-0.5-0.3-0.8-0.6-1-1.1
			c-0.2-0.5-0.4-1.1-0.4-1.8c0-0.7,0.1-1.2,0.4-1.7c0.3-0.5,0.6-0.9,1.1-1.2c0.5-0.3,1.1-0.4,1.8-0.4c0.4,0,0.7,0,1,0.1
			c0.3,0.1,0.6,0.2,0.9,0.3l-0.3,0.7c-0.2-0.1-0.5-0.2-0.8-0.3c-0.3-0.1-0.6-0.1-0.9-0.1c-0.5,0-1,0.1-1.3,0.3
			c-0.4,0.2-0.7,0.5-0.9,0.9c-0.2,0.4-0.3,0.9-0.3,1.4c0,0.5,0.1,1,0.3,1.4s0.4,0.7,0.8,0.9c0.4,0.2,0.8,0.3,1.4,0.3
			c0.3,0,0.5,0,0.7,0c0.2,0,0.4-0.1,0.6-0.1v-2h-1.5V368z"/>
		<path d="M187.8,365c0.5,0,1,0.1,1.3,0.2c0.3,0.1,0.6,0.3,0.8,0.6c0.2,0.3,0.3,0.6,0.3,1c0,0.3-0.1,0.6-0.2,0.8s-0.3,0.4-0.5,0.6
			s-0.4,0.2-0.6,0.3l1.8,2.9h-0.9l-1.6-2.7h-1.3v2.7h-0.7V365H187.8z M187.8,365.6h-0.9v2.5h1c0.5,0,0.9-0.1,1.2-0.3
			c0.2-0.2,0.4-0.5,0.4-0.9c0-0.4-0.1-0.7-0.4-0.9C188.7,365.7,188.3,365.6,187.8,365.6z"/>
		<path d="M195.7,371.4l-0.8-2h-2.6l-0.8,2h-0.8l2.5-6.5h0.7l2.5,6.5H195.7z M194.7,368.7l-0.8-2c0-0.1,0-0.1-0.1-0.3
			c0-0.1-0.1-0.2-0.1-0.4s-0.1-0.2-0.1-0.3c0,0.1-0.1,0.2-0.1,0.4c0,0.1-0.1,0.2-0.1,0.3c0,0.1-0.1,0.2-0.1,0.3l-0.8,2H194.7z
			 M194.9,362.9L194.9,362.9c-0.1,0.2-0.1,0.3-0.2,0.4c-0.1,0.1-0.2,0.2-0.3,0.4s-0.2,0.3-0.4,0.4c-0.1,0.1-0.2,0.2-0.3,0.3h-0.5
			v-0.1c0.1-0.1,0.2-0.2,0.3-0.4c0.1-0.2,0.2-0.3,0.3-0.5s0.2-0.3,0.3-0.5H194.9z"/>
		<path d="M198.1,371.4h-0.7V365h3.6v0.7h-2.8v2.4h2.7v0.7h-2.7V371.4z"/>
		<path d="M202,371.4V365h0.7v6.4H202z"/>
		<path d="M207.2,365.5c-0.4,0-0.7,0.1-1,0.2c-0.3,0.1-0.5,0.3-0.7,0.5c-0.2,0.2-0.3,0.5-0.5,0.8c-0.1,0.3-0.2,0.7-0.2,1.1
			c0,0.5,0.1,1,0.3,1.4c0.2,0.4,0.4,0.7,0.8,0.9c0.3,0.2,0.8,0.3,1.3,0.3c0.3,0,0.6,0,0.8-0.1c0.3,0,0.5-0.1,0.7-0.2v0.7
			c-0.2,0.1-0.5,0.2-0.7,0.2c-0.3,0-0.6,0.1-0.9,0.1c-0.7,0-1.2-0.1-1.6-0.4c-0.4-0.3-0.8-0.7-1-1.1c-0.2-0.5-0.3-1.1-0.3-1.8
			c0-0.5,0.1-0.9,0.2-1.3c0.1-0.4,0.3-0.8,0.6-1c0.3-0.3,0.6-0.5,1-0.7c0.4-0.2,0.8-0.2,1.3-0.2c0.3,0,0.6,0,0.9,0.1
			s0.6,0.2,0.8,0.3l-0.3,0.6c-0.2-0.1-0.4-0.2-0.7-0.2C207.8,365.6,207.5,365.5,207.2,365.5z"/>
		<path d="M215.7,368.2c0,0.5-0.1,0.9-0.2,1.4s-0.3,0.8-0.6,1c-0.2,0.3-0.6,0.5-0.9,0.7s-0.8,0.2-1.3,0.2c-0.5,0-0.9-0.1-1.3-0.2
			c-0.4-0.2-0.7-0.4-0.9-0.7c-0.2-0.3-0.4-0.6-0.5-1.1c-0.1-0.4-0.2-0.9-0.2-1.4c0-0.7,0.1-1.2,0.3-1.7c0.2-0.5,0.5-0.9,1-1.2
			c0.4-0.3,1-0.4,1.7-0.4c0.6,0,1.2,0.1,1.6,0.4c0.4,0.3,0.8,0.7,1,1.2C215.6,366.9,215.7,367.5,215.7,368.2z M210.6,368.2
			c0,0.5,0.1,1,0.2,1.4c0.2,0.4,0.4,0.7,0.7,0.9c0.3,0.2,0.7,0.3,1.2,0.3c0.5,0,0.9-0.1,1.2-0.3c0.3-0.2,0.6-0.5,0.7-0.9
			c0.2-0.4,0.2-0.9,0.2-1.4c0-0.8-0.2-1.5-0.5-1.9c-0.3-0.5-0.9-0.7-1.6-0.7c-0.5,0-0.9,0.1-1.2,0.3c-0.3,0.2-0.6,0.5-0.7,0.9
			C210.7,367.2,210.6,367.6,210.6,368.2z"/>
		<path d="M159.5,388.2H156v-6.4h3.6v0.7h-2.8v2.1h2.7v0.7h-2.7v2.4h2.8V388.2z"/>
		<path d="M166.1,384.9c0,0.7-0.1,1.3-0.4,1.8c-0.3,0.5-0.6,0.8-1.1,1.1c-0.5,0.2-1.1,0.4-1.8,0.4H161v-6.4h1.9
			c0.7,0,1.2,0.1,1.7,0.4c0.5,0.2,0.8,0.6,1.1,1.1C165.9,383.7,166.1,384.2,166.1,384.9z M165.3,384.9c0-0.6-0.1-1.1-0.3-1.4
			c-0.2-0.4-0.5-0.7-0.8-0.8c-0.4-0.2-0.8-0.3-1.4-0.3h-1.1v5.1h0.9c0.9,0,1.5-0.2,2-0.7C165,386.5,165.3,385.8,165.3,384.9z"/>
		<path d="M167.5,388.2v-6.4h0.7v6.4H167.5z"/>
		<path d="M172.7,382.3c-0.4,0-0.7,0.1-1,0.2c-0.3,0.1-0.5,0.3-0.7,0.5c-0.2,0.2-0.3,0.5-0.5,0.8c-0.1,0.3-0.2,0.7-0.2,1.1
			c0,0.5,0.1,1,0.3,1.4c0.2,0.4,0.4,0.7,0.8,0.9c0.3,0.2,0.8,0.3,1.3,0.3c0.3,0,0.6,0,0.8-0.1c0.3,0,0.5-0.1,0.7-0.2v0.7
			c-0.2,0.1-0.5,0.2-0.7,0.2s-0.6,0.1-0.9,0.1c-0.7,0-1.2-0.1-1.6-0.4c-0.4-0.3-0.8-0.7-1-1.2c-0.2-0.5-0.3-1.1-0.3-1.8
			c0-0.5,0.1-0.9,0.2-1.3c0.1-0.4,0.3-0.8,0.6-1c0.3-0.3,0.6-0.5,1-0.7c0.4-0.2,0.8-0.2,1.3-0.2c0.3,0,0.6,0,0.9,0.1
			s0.6,0.2,0.8,0.3l-0.3,0.6c-0.2-0.1-0.4-0.2-0.7-0.2C173.3,382.4,173,382.3,172.7,382.3z"/>
		<path d="M175.7,388.2v-6.4h0.7v6.4H175.7z"/>
		<path d="M183.8,385c0,0.5-0.1,0.9-0.2,1.3c-0.1,0.4-0.3,0.8-0.6,1c-0.2,0.3-0.6,0.5-0.9,0.7s-0.8,0.2-1.3,0.2
			c-0.5,0-0.9-0.1-1.3-0.2c-0.4-0.2-0.7-0.4-0.9-0.7c-0.2-0.3-0.4-0.6-0.5-1.1c-0.1-0.4-0.2-0.9-0.2-1.4c0-0.7,0.1-1.2,0.3-1.7
			c0.2-0.5,0.5-0.9,1-1.2c0.4-0.3,1-0.4,1.7-0.4c0.6,0,1.2,0.1,1.6,0.4c0.4,0.3,0.8,0.7,1,1.1C183.6,383.7,183.8,384.3,183.8,385z
			 M178.6,385c0,0.5,0.1,1,0.2,1.4s0.4,0.7,0.7,0.9c0.3,0.2,0.7,0.3,1.2,0.3c0.5,0,0.9-0.1,1.2-0.3c0.3-0.2,0.6-0.5,0.7-0.9
			s0.2-0.9,0.2-1.4c0-0.8-0.2-1.5-0.5-1.9c-0.3-0.5-0.9-0.7-1.6-0.7c-0.5,0-0.9,0.1-1.2,0.3c-0.3,0.2-0.6,0.5-0.7,0.9
			C178.7,384,178.6,384.4,178.6,385z M182.1,379.7L182.1,379.7c-0.1,0.2-0.1,0.3-0.2,0.4c-0.1,0.1-0.2,0.2-0.3,0.4
			c-0.1,0.1-0.2,0.3-0.4,0.4c-0.1,0.1-0.2,0.2-0.3,0.3h-0.5V381c0.1-0.1,0.2-0.2,0.3-0.4s0.2-0.3,0.3-0.5c0.1-0.2,0.2-0.3,0.3-0.4
			H182.1z"/>
		<path d="M190.2,388.2h-0.9l-3.5-5.4h0c0,0.1,0,0.3,0,0.5c0,0.2,0,0.4,0,0.6c0,0.2,0,0.4,0,0.6v3.7h-0.7v-6.4h0.9l3.5,5.4h0
			c0-0.1,0-0.2,0-0.4c0-0.2,0-0.4,0-0.6c0-0.2,0-0.4,0-0.6v-3.7h0.7V388.2z"/>
		<path d="M156.7,399H156v-6.4h3.6v0.7h-2.8v2.4h2.7v0.7h-2.7V399z"/>
		<path d="M166.2,395.8c0,0.5-0.1,0.9-0.2,1.4s-0.3,0.8-0.6,1c-0.2,0.3-0.6,0.5-0.9,0.7s-0.8,0.2-1.3,0.2c-0.5,0-0.9-0.1-1.3-0.2
			c-0.4-0.2-0.7-0.4-0.9-0.7c-0.2-0.3-0.4-0.6-0.5-1.1c-0.1-0.4-0.2-0.9-0.2-1.4c0-0.7,0.1-1.2,0.3-1.7c0.2-0.5,0.5-0.9,1-1.2
			c0.4-0.3,1-0.4,1.7-0.4c0.6,0,1.2,0.1,1.6,0.4c0.4,0.3,0.8,0.7,1,1.2C166.1,394.5,166.2,395.1,166.2,395.8z M161.1,395.8
			c0,0.5,0.1,1,0.2,1.4c0.2,0.4,0.4,0.7,0.7,0.9c0.3,0.2,0.7,0.3,1.2,0.3c0.5,0,0.9-0.1,1.2-0.3c0.3-0.2,0.6-0.5,0.7-0.9
			c0.2-0.4,0.2-0.9,0.2-1.4c0-0.8-0.2-1.5-0.5-1.9c-0.3-0.5-0.9-0.7-1.6-0.7c-0.5,0-0.9,0.1-1.2,0.3c-0.3,0.2-0.6,0.5-0.7,0.9
			C161.1,394.8,161.1,395.2,161.1,395.8z"/>
		<path d="M169.6,399h-0.8v-5.8h-2v-0.7h4.8v0.7h-2V399z"/>
		<path d="M178.1,395.8c0,0.5-0.1,0.9-0.2,1.4s-0.3,0.8-0.6,1c-0.2,0.3-0.6,0.5-0.9,0.7s-0.8,0.2-1.3,0.2c-0.5,0-0.9-0.1-1.3-0.2
			c-0.4-0.2-0.7-0.4-0.9-0.7c-0.2-0.3-0.4-0.6-0.5-1.1c-0.1-0.4-0.2-0.9-0.2-1.4c0-0.7,0.1-1.2,0.3-1.7c0.2-0.5,0.5-0.9,1-1.2
			c0.4-0.3,1-0.4,1.7-0.4c0.6,0,1.2,0.1,1.6,0.4c0.4,0.3,0.8,0.7,1,1.2C178,394.5,178.1,395.1,178.1,395.8z M173,395.8
			c0,0.5,0.1,1,0.2,1.4c0.2,0.4,0.4,0.7,0.7,0.9c0.3,0.2,0.7,0.3,1.2,0.3c0.5,0,0.9-0.1,1.2-0.3c0.3-0.2,0.6-0.5,0.7-0.9
			c0.2-0.4,0.2-0.9,0.2-1.4c0-0.8-0.2-1.5-0.5-1.9c-0.3-0.5-0.9-0.7-1.6-0.7c-0.5,0-0.9,0.1-1.2,0.3c-0.3,0.2-0.6,0.5-0.7,0.9
			C173.1,394.8,173,395.2,173,395.8z"/>
		<path d="M182.3,395.6h2.2v3.1c-0.3,0.1-0.7,0.2-1,0.3c-0.4,0.1-0.8,0.1-1.2,0.1c-0.7,0-1.2-0.1-1.7-0.4c-0.5-0.3-0.8-0.6-1-1.1
			c-0.2-0.5-0.4-1.1-0.4-1.8c0-0.7,0.1-1.2,0.4-1.7c0.3-0.5,0.6-0.9,1.1-1.2c0.5-0.3,1.1-0.4,1.8-0.4c0.4,0,0.7,0,1,0.1
			c0.3,0.1,0.6,0.2,0.9,0.3l-0.3,0.7c-0.2-0.1-0.5-0.2-0.8-0.3c-0.3-0.1-0.6-0.1-0.9-0.1c-0.5,0-1,0.1-1.3,0.3
			c-0.4,0.2-0.7,0.5-0.9,0.9c-0.2,0.4-0.3,0.9-0.3,1.4c0,0.5,0.1,1,0.3,1.4s0.4,0.7,0.8,0.9c0.4,0.2,0.8,0.3,1.4,0.3
			c0.3,0,0.5,0,0.7,0c0.2,0,0.4-0.1,0.6-0.1v-2h-1.5V395.6z"/>
		<path d="M187.8,392.6c0.5,0,1,0.1,1.3,0.2c0.3,0.1,0.6,0.3,0.8,0.6c0.2,0.3,0.3,0.6,0.3,1c0,0.3-0.1,0.6-0.2,0.8s-0.3,0.4-0.5,0.6
			s-0.4,0.2-0.6,0.3l1.8,2.9h-0.9l-1.6-2.7h-1.3v2.7h-0.7v-6.4H187.8z M187.8,393.2h-0.9v2.5h1c0.5,0,0.9-0.1,1.2-0.3
			c0.2-0.2,0.4-0.5,0.4-0.9c0-0.4-0.1-0.7-0.4-0.9C188.7,393.3,188.3,393.2,187.8,393.2z"/>
		<path d="M195.7,399l-0.8-2h-2.6l-0.8,2h-0.8l2.5-6.5h0.7l2.5,6.5H195.7z M194.7,396.3l-0.8-2c0-0.1,0-0.1-0.1-0.3
			c0-0.1-0.1-0.2-0.1-0.4s-0.1-0.2-0.1-0.3c0,0.1-0.1,0.2-0.1,0.4c0,0.1-0.1,0.2-0.1,0.3c0,0.1-0.1,0.2-0.1,0.3l-0.8,2H194.7z
			 M194.9,390.5L194.9,390.5c-0.1,0.2-0.1,0.3-0.2,0.4c-0.1,0.1-0.2,0.2-0.3,0.4s-0.2,0.3-0.4,0.4c-0.1,0.1-0.2,0.2-0.3,0.3h-0.5
			v-0.1c0.1-0.1,0.2-0.2,0.3-0.4c0.1-0.2,0.2-0.3,0.3-0.5s0.2-0.3,0.3-0.5H194.9z"/>
		<path d="M198.1,399h-0.7v-6.4h3.6v0.7h-2.8v2.4h2.7v0.7h-2.7V399z"/>
		<path d="M202,399v-6.4h0.7v6.4H202z"/>
		<path d="M207.2,393.1c-0.4,0-0.7,0.1-1,0.2c-0.3,0.1-0.5,0.3-0.7,0.5c-0.2,0.2-0.3,0.5-0.5,0.8c-0.1,0.3-0.2,0.7-0.2,1.1
			c0,0.5,0.1,1,0.3,1.4c0.2,0.4,0.4,0.7,0.8,0.9c0.3,0.2,0.8,0.3,1.3,0.3c0.3,0,0.6,0,0.8-0.1c0.3,0,0.5-0.1,0.7-0.2v0.7
			c-0.2,0.1-0.5,0.2-0.7,0.2c-0.3,0-0.6,0.1-0.9,0.1c-0.7,0-1.2-0.1-1.6-0.4c-0.4-0.3-0.8-0.7-1-1.1c-0.2-0.5-0.3-1.1-0.3-1.8
			c0-0.5,0.1-0.9,0.2-1.3c0.1-0.4,0.3-0.8,0.6-1c0.3-0.3,0.6-0.5,1-0.7c0.4-0.2,0.8-0.2,1.3-0.2c0.3,0,0.6,0,0.9,0.1
			s0.6,0.2,0.8,0.3l-0.3,0.6c-0.2-0.1-0.4-0.2-0.7-0.2C207.8,393.2,207.5,393.1,207.2,393.1z"/>
		<path d="M214.2,399l-0.8-2h-2.6l-0.8,2h-0.8l2.5-6.5h0.7l2.5,6.5H214.2z M213.2,396.3l-0.8-2c0-0.1,0-0.1-0.1-0.3
			c0-0.1-0.1-0.2-0.1-0.4s-0.1-0.2-0.1-0.3c0,0.1-0.1,0.2-0.1,0.4c0,0.1-0.1,0.2-0.1,0.3c0,0.1-0.1,0.2-0.1,0.3l-0.8,2H213.2z"/>
		<path d="M158.8,415.8l-2.2-5.7h0c0,0.1,0,0.3,0,0.4c0,0.2,0,0.4,0,0.6c0,0.2,0,0.4,0,0.6v4.1H156v-6.4h1.1l2,5.3h0l2.1-5.3h1.1
			v6.4h-0.7v-4.1c0-0.2,0-0.4,0-0.6s0-0.4,0-0.5c0-0.2,0-0.3,0-0.4h0l-2.2,5.7H158.8z"/>
		<path d="M168.1,415.8l-0.8-2h-2.6l-0.8,2h-0.8l2.5-6.5h0.7l2.5,6.5H168.1z M167.1,413.1l-0.8-2c0-0.1,0-0.1-0.1-0.3
			c0-0.1-0.1-0.2-0.1-0.4s-0.1-0.2-0.1-0.3c0,0.1-0.1,0.2-0.1,0.4c0,0.1-0.1,0.2-0.1,0.3s-0.1,0.2-0.1,0.3l-0.8,2H167.1z"/>
		<path d="M174.4,415.8h-0.9l-2.3-3.1l-0.7,0.6v2.5h-0.7v-6.4h0.7v3.2c0.2-0.2,0.3-0.4,0.5-0.6s0.3-0.4,0.5-0.6l1.9-2.1h0.9
			l-2.6,2.8L174.4,415.8z"/>
		<path d="M178.8,415.8h-3.6v-6.4h3.6v0.7H176v2.1h2.7v0.7H176v2.4h2.8V415.8z"/>
		<path d="M185.1,409.4v4.2c0,0.5-0.1,0.9-0.3,1.2c-0.2,0.4-0.5,0.6-0.8,0.8c-0.4,0.2-0.8,0.3-1.4,0.3c-0.8,0-1.4-0.2-1.8-0.6
			c-0.4-0.4-0.6-1-0.6-1.7v-4.1h0.8v4.2c0,0.5,0.1,1,0.4,1.3c0.3,0.3,0.7,0.4,1.3,0.4c0.4,0,0.7-0.1,1-0.2c0.3-0.1,0.4-0.3,0.6-0.6
			c0.1-0.3,0.2-0.6,0.2-0.9v-4.2H185.1z"/>
		<path d="M188.5,409.4c0.8,0,1.4,0.2,1.8,0.5c0.4,0.3,0.6,0.8,0.6,1.4c0,0.3,0,0.5-0.1,0.8c-0.1,0.2-0.2,0.5-0.4,0.6
			s-0.5,0.3-0.8,0.4c-0.3,0.1-0.7,0.2-1.2,0.2h-0.8v2.5h-0.7v-6.4H188.5z M188.4,410h-0.9v2.6h0.7c0.4,0,0.8,0,1-0.1
			c0.3-0.1,0.5-0.2,0.6-0.4c0.1-0.2,0.2-0.5,0.2-0.8c0-0.4-0.1-0.7-0.4-1C189.4,410.1,189,410,188.4,410z"/>
		<path d="M196.2,412.6l1.7-3.2h0.8l-2.1,3.9v2.5h-0.7v-2.5l-2.1-4h0.8L196.2,412.6z"/>
		<path d="M203.6,409.4c0.8,0,1.4,0.2,1.8,0.5c0.4,0.3,0.6,0.8,0.6,1.4c0,0.3,0,0.5-0.1,0.8c-0.1,0.2-0.2,0.5-0.4,0.6
			s-0.5,0.3-0.8,0.4c-0.3,0.1-0.7,0.2-1.2,0.2h-0.8v2.5h-0.7v-6.4H203.6z M203.5,410h-0.9v2.6h0.7c0.4,0,0.8,0,1-0.1
			c0.3-0.1,0.5-0.2,0.6-0.4c0.1-0.2,0.2-0.5,0.2-0.8c0-0.4-0.1-0.7-0.4-1C204.5,410.1,204.1,410,203.5,410z"/>
		<path d="M210.9,415.8h-3.6v-6.4h3.6v0.7h-2.8v2.1h2.7v0.7h-2.7v2.4h2.8V415.8z"/>
		<path d="M212.3,415.8v-6.4h0.7v5.8h2.9v0.7H212.3z"/>
		<path d="M222.6,412.6c0,0.5-0.1,0.9-0.2,1.3c-0.1,0.4-0.3,0.8-0.6,1c-0.2,0.3-0.6,0.5-0.9,0.7s-0.8,0.2-1.3,0.2
			c-0.5,0-0.9-0.1-1.3-0.2c-0.4-0.2-0.7-0.4-0.9-0.7c-0.2-0.3-0.4-0.6-0.5-1.1c-0.1-0.4-0.2-0.9-0.2-1.4c0-0.7,0.1-1.2,0.3-1.7
			c0.2-0.5,0.5-0.9,1-1.2c0.4-0.3,1-0.4,1.7-0.4c0.6,0,1.2,0.1,1.6,0.4c0.4,0.3,0.8,0.7,1,1.1C222.5,411.3,222.6,411.9,222.6,412.6z
			 M217.5,412.6c0,0.5,0.1,1,0.2,1.4s0.4,0.7,0.7,0.9c0.3,0.2,0.7,0.3,1.2,0.3c0.5,0,0.9-0.1,1.2-0.3c0.3-0.2,0.6-0.5,0.7-0.9
			s0.2-0.9,0.2-1.4c0-0.8-0.2-1.5-0.5-1.9c-0.3-0.5-0.9-0.7-1.6-0.7c-0.5,0-0.9,0.1-1.2,0.3c-0.3,0.2-0.6,0.5-0.7,0.9
			C217.6,411.6,217.5,412,217.5,412.6z"/>
		<path d="M160,432.6l-0.8-2h-2.6l-0.8,2h-0.8l2.5-6.5h0.7l2.5,6.5H160z M159,429.9l-0.8-2c0-0.1,0-0.1-0.1-0.3
			c0-0.1-0.1-0.2-0.1-0.4s-0.1-0.2-0.1-0.3c0,0.1-0.1,0.2-0.1,0.4c0,0.1-0.1,0.2-0.1,0.3c0,0.1-0.1,0.2-0.1,0.3l-0.8,2H159z"/>
		<path d="M165.3,430.9c0,0.4-0.1,0.7-0.3,1c-0.2,0.3-0.5,0.5-0.8,0.6s-0.7,0.2-1.2,0.2c-0.2,0-0.5,0-0.7,0s-0.4-0.1-0.6-0.1
			c-0.2,0-0.3-0.1-0.5-0.2v-0.7c0.2,0.1,0.5,0.2,0.8,0.3s0.6,0.1,1,0.1c0.3,0,0.6,0,0.8-0.1s0.4-0.2,0.5-0.4
			c0.1-0.2,0.2-0.4,0.2-0.6c0-0.2,0-0.4-0.1-0.6s-0.3-0.3-0.5-0.4c-0.2-0.1-0.5-0.2-0.9-0.4c-0.3-0.1-0.5-0.2-0.7-0.3
			s-0.4-0.2-0.5-0.4c-0.1-0.1-0.2-0.3-0.3-0.5c-0.1-0.2-0.1-0.4-0.1-0.7c0-0.3,0.1-0.6,0.3-0.9c0.2-0.2,0.4-0.4,0.7-0.6
			c0.3-0.1,0.7-0.2,1.1-0.2c0.3,0,0.7,0,1,0.1c0.3,0.1,0.6,0.2,0.8,0.3l-0.2,0.6c-0.2-0.1-0.5-0.2-0.7-0.2c-0.3-0.1-0.5-0.1-0.8-0.1
			c-0.3,0-0.5,0-0.7,0.1c-0.2,0.1-0.3,0.2-0.4,0.3s-0.1,0.3-0.1,0.5c0,0.2,0,0.4,0.1,0.6c0.1,0.1,0.2,0.3,0.5,0.4
			c0.2,0.1,0.5,0.2,0.8,0.4c0.4,0.1,0.7,0.3,1,0.4s0.5,0.3,0.6,0.6S165.3,430.5,165.3,430.9z"/>
		<path d="M166.6,432.6v-6.4h0.7v6.4H166.6z"/>
		<path d="M172.7,430.9c0,0.4-0.1,0.7-0.3,1c-0.2,0.3-0.5,0.5-0.8,0.6s-0.7,0.2-1.2,0.2c-0.2,0-0.5,0-0.7,0s-0.4-0.1-0.6-0.1
			c-0.2,0-0.3-0.1-0.5-0.2v-0.7c0.2,0.1,0.5,0.2,0.8,0.3s0.6,0.1,1,0.1c0.3,0,0.6,0,0.8-0.1s0.4-0.2,0.5-0.4
			c0.1-0.2,0.2-0.4,0.2-0.6c0-0.2,0-0.4-0.1-0.6s-0.3-0.3-0.5-0.4c-0.2-0.1-0.5-0.2-0.9-0.4c-0.3-0.1-0.5-0.2-0.7-0.3
			s-0.4-0.2-0.5-0.4c-0.1-0.1-0.2-0.3-0.3-0.5c-0.1-0.2-0.1-0.4-0.1-0.7c0-0.3,0.1-0.6,0.3-0.9c0.2-0.2,0.4-0.4,0.7-0.6
			c0.3-0.1,0.7-0.2,1.1-0.2c0.3,0,0.7,0,1,0.1c0.3,0.1,0.6,0.2,0.8,0.3l-0.2,0.6c-0.2-0.1-0.5-0.2-0.7-0.2c-0.3-0.1-0.5-0.1-0.8-0.1
			c-0.3,0-0.5,0-0.7,0.1c-0.2,0.1-0.3,0.2-0.4,0.3s-0.1,0.3-0.1,0.5c0,0.2,0,0.4,0.1,0.6c0.1,0.1,0.2,0.3,0.5,0.4
			c0.2,0.1,0.5,0.2,0.8,0.4c0.4,0.1,0.7,0.3,1,0.4s0.5,0.3,0.6,0.6S172.7,430.5,172.7,430.9z"/>
		<path d="M176,432.6h-0.8v-5.8h-2v-0.7h4.8v0.7h-2V432.6z"/>
		<path d="M182.6,432.6H179v-6.4h3.6v0.7h-2.8v2.1h2.7v0.7h-2.7v2.4h2.8V432.6z"/>
		<path d="M189,432.6h-0.9l-3.5-5.4h0c0,0.1,0,0.3,0,0.5s0,0.4,0,0.6c0,0.2,0,0.4,0,0.6v3.7H184v-6.4h0.9l3.5,5.4h0
			c0-0.1,0-0.2,0-0.4c0-0.2,0-0.4,0-0.6c0-0.2,0-0.4,0-0.6v-3.7h0.7V432.6z"/>
		<path d="M192.7,432.6H192v-5.8h-2v-0.7h4.8v0.7h-2V432.6z"/>
		<path d="M199.3,432.6h-3.6v-6.4h3.6v0.7h-2.8v2.1h2.7v0.7h-2.7v2.4h2.8V432.6z"/>
		<path d="M158.8,443.4l-2.2-5.7h0c0,0.1,0,0.3,0,0.4c0,0.2,0,0.4,0,0.6s0,0.4,0,0.6v4.1H156V437h1.1l2,5.3h0l2.1-5.3h1.1v6.4h-0.7
			v-4.1c0-0.2,0-0.4,0-0.6c0-0.2,0-0.4,0-0.5c0-0.2,0-0.3,0-0.4h0l-2.2,5.7H158.8z"/>
		<path d="M168.1,443.4l-0.8-2h-2.6l-0.8,2h-0.8l2.5-6.5h0.7l2.5,6.5H168.1z M167.1,440.7l-0.8-2c0-0.1,0-0.1-0.1-0.3
			c0-0.1-0.1-0.2-0.1-0.4s-0.1-0.2-0.1-0.3c0,0.1-0.1,0.2-0.1,0.4c0,0.1-0.1,0.2-0.1,0.3c0,0.1-0.1,0.2-0.1,0.3l-0.8,2H167.1z"/>
		<path d="M174.4,443.4h-0.9l-2.3-3.1l-0.7,0.6v2.5h-0.7V437h0.7v3.2c0.2-0.2,0.3-0.4,0.5-0.6c0.2-0.2,0.3-0.4,0.5-0.6l1.9-2.1h0.9
			l-2.6,2.8L174.4,443.4z"/>
		<path d="M178.8,443.4h-3.6V437h3.6v0.7H176v2.1h2.7v0.7H176v2.4h2.8V443.4z"/>
		<path d="M185.1,437v4.2c0,0.5-0.1,0.9-0.3,1.2c-0.2,0.4-0.5,0.6-0.8,0.8s-0.8,0.3-1.4,0.3c-0.8,0-1.4-0.2-1.8-0.6
			c-0.4-0.4-0.6-1-0.6-1.7V437h0.8v4.2c0,0.5,0.1,1,0.4,1.3c0.3,0.3,0.7,0.4,1.3,0.4c0.4,0,0.7-0.1,1-0.2c0.3-0.1,0.4-0.3,0.6-0.6
			c0.1-0.3,0.2-0.6,0.2-0.9V437H185.1z"/>
		<path d="M188.5,437c0.8,0,1.4,0.2,1.8,0.5c0.4,0.3,0.6,0.8,0.6,1.4c0,0.3,0,0.5-0.1,0.8c-0.1,0.2-0.2,0.5-0.4,0.6
			c-0.2,0.2-0.5,0.3-0.8,0.4c-0.3,0.1-0.7,0.2-1.2,0.2h-0.8v2.5h-0.7V437H188.5z M188.4,437.6h-0.9v2.6h0.7c0.4,0,0.8,0,1-0.1
			c0.3-0.1,0.5-0.2,0.6-0.4c0.1-0.2,0.2-0.5,0.2-0.8c0-0.4-0.1-0.7-0.4-1C189.4,437.7,189,437.6,188.4,437.6z"/>
		<path d="M159.7,460.2h-4.2v-0.6l1.7-1.7c0.3-0.3,0.6-0.6,0.8-0.9c0.2-0.3,0.4-0.5,0.5-0.7c0.1-0.2,0.2-0.5,0.2-0.8
			c0-0.4-0.1-0.6-0.3-0.8c-0.2-0.2-0.5-0.3-0.9-0.3c-0.3,0-0.6,0.1-0.8,0.2c-0.2,0.1-0.5,0.3-0.7,0.4l-0.4-0.5
			c0.2-0.1,0.4-0.3,0.6-0.4c0.2-0.1,0.4-0.2,0.6-0.3c0.2-0.1,0.5-0.1,0.7-0.1c0.4,0,0.7,0.1,1,0.2c0.3,0.1,0.5,0.3,0.7,0.6
			c0.2,0.3,0.2,0.6,0.2,0.9c0,0.3-0.1,0.7-0.2,0.9s-0.3,0.6-0.6,0.9s-0.5,0.6-0.9,0.9l-1.4,1.4v0h3.3V460.2z"/>
		<path d="M165.1,453.8c0.8,0,1.4,0.2,1.8,0.5c0.4,0.3,0.6,0.8,0.6,1.4c0,0.3,0,0.5-0.1,0.8c-0.1,0.2-0.2,0.5-0.4,0.6
			s-0.5,0.3-0.8,0.4c-0.3,0.1-0.7,0.2-1.2,0.2h-0.8v2.5h-0.7v-6.4H165.1z M165,454.4h-0.9v2.6h0.7c0.4,0,0.8,0,1-0.1
			c0.3-0.1,0.5-0.2,0.6-0.4c0.1-0.2,0.2-0.5,0.2-0.8c0-0.4-0.1-0.7-0.4-1C166,454.5,165.6,454.4,165,454.4z"/>
		<path d="M172.4,460.2h-3.6v-6.4h3.6v0.7h-2.8v2.1h2.7v0.7h-2.7v2.4h2.8V460.2z"/>
		<path d="M175.6,453.8c0.5,0,1,0.1,1.3,0.2c0.3,0.1,0.6,0.3,0.8,0.6c0.2,0.3,0.3,0.6,0.3,1c0,0.3-0.1,0.6-0.2,0.9
			c-0.1,0.2-0.3,0.4-0.5,0.6s-0.4,0.2-0.6,0.3l1.8,2.9h-0.9l-1.6-2.7h-1.3v2.7h-0.7v-6.4H175.6z M175.5,454.4h-0.9v2.5h1
			c0.5,0,0.9-0.1,1.2-0.3c0.2-0.2,0.4-0.5,0.4-0.9c0-0.4-0.1-0.7-0.4-0.9C176.5,454.5,176.1,454.4,175.5,454.4z"/>
		<path d="M182.2,454.3c-0.4,0-0.7,0.1-1,0.2c-0.3,0.1-0.5,0.3-0.7,0.5c-0.2,0.2-0.3,0.5-0.5,0.8c-0.1,0.3-0.2,0.7-0.2,1.1
			c0,0.5,0.1,1,0.3,1.4c0.2,0.4,0.4,0.7,0.8,0.9c0.3,0.2,0.8,0.3,1.3,0.3c0.3,0,0.6,0,0.8-0.1c0.3,0,0.5-0.1,0.7-0.2v0.7
			c-0.2,0.1-0.5,0.2-0.7,0.2s-0.6,0.1-0.9,0.1c-0.7,0-1.2-0.1-1.6-0.4c-0.4-0.3-0.8-0.7-1-1.2c-0.2-0.5-0.3-1.1-0.3-1.8
			c0-0.5,0.1-0.9,0.2-1.3c0.1-0.4,0.3-0.8,0.6-1c0.3-0.3,0.6-0.5,1-0.7c0.4-0.2,0.8-0.2,1.3-0.2c0.3,0,0.6,0,0.9,0.1
			s0.6,0.2,0.8,0.3l-0.3,0.6c-0.2-0.1-0.4-0.2-0.7-0.2C182.7,454.4,182.4,454.3,182.2,454.3z"/>
		<path d="M189.9,460.2h-0.7v-3h-3.4v3h-0.7v-6.4h0.7v2.7h3.4v-2.7h0.7V460.2z"/>
		<path d="M195.3,460.2h-3.6v-6.4h3.6v0.7h-2.8v2.1h2.7v0.7h-2.7v2.4h2.8V460.2z"/>
		<path d="M198.4,453.8c0.5,0,1,0.1,1.3,0.2c0.3,0.1,0.6,0.3,0.8,0.6c0.2,0.3,0.3,0.6,0.3,1c0,0.3-0.1,0.6-0.2,0.9
			c-0.1,0.2-0.3,0.4-0.5,0.6s-0.4,0.2-0.6,0.3l1.8,2.9h-0.9l-1.6-2.7h-1.3v2.7h-0.7v-6.4H198.4z M198.4,454.4h-0.9v2.5h1
			c0.5,0,0.9-0.1,1.2-0.3c0.2-0.2,0.4-0.5,0.4-0.9c0-0.4-0.1-0.7-0.4-0.9C199.4,454.5,198.9,454.4,198.4,454.4z"/>
		<path d="M207.8,457c0,0.5-0.1,0.9-0.2,1.3c-0.1,0.4-0.3,0.8-0.6,1c-0.2,0.3-0.6,0.5-0.9,0.7s-0.8,0.2-1.3,0.2
			c-0.5,0-0.9-0.1-1.3-0.2c-0.4-0.2-0.7-0.4-0.9-0.7c-0.2-0.3-0.4-0.6-0.5-1.1c-0.1-0.4-0.2-0.9-0.2-1.4c0-0.7,0.1-1.2,0.3-1.7
			c0.2-0.5,0.5-0.9,1-1.2c0.4-0.3,1-0.4,1.7-0.4c0.6,0,1.2,0.1,1.6,0.4c0.4,0.3,0.8,0.7,1,1.1C207.7,455.7,207.8,456.3,207.8,457z
			 M202.7,457c0,0.5,0.1,1,0.2,1.4s0.4,0.7,0.7,0.9c0.3,0.2,0.7,0.3,1.2,0.3c0.5,0,0.9-0.1,1.2-0.3c0.3-0.2,0.6-0.5,0.7-0.9
			s0.2-0.9,0.2-1.4c0-0.8-0.2-1.5-0.5-1.9c-0.3-0.5-0.9-0.7-1.6-0.7c-0.5,0-0.9,0.1-1.2,0.3c-0.3,0.2-0.6,0.5-0.7,0.9
			C202.8,456,202.7,456.4,202.7,457z"/>
		<path d="M212.9,458.5c0,0.4-0.1,0.7-0.3,1c-0.2,0.3-0.5,0.5-0.8,0.6s-0.7,0.2-1.2,0.2c-0.2,0-0.5,0-0.7,0s-0.4-0.1-0.6-0.1
			c-0.2,0-0.3-0.1-0.5-0.2v-0.7c0.2,0.1,0.5,0.2,0.8,0.3c0.3,0.1,0.6,0.1,1,0.1c0.3,0,0.6,0,0.8-0.1c0.2-0.1,0.4-0.2,0.5-0.4
			c0.1-0.2,0.2-0.4,0.2-0.6c0-0.2,0-0.4-0.1-0.6c-0.1-0.1-0.3-0.3-0.5-0.4c-0.2-0.1-0.5-0.3-0.9-0.4c-0.3-0.1-0.5-0.2-0.7-0.3
			c-0.2-0.1-0.4-0.2-0.5-0.4s-0.2-0.3-0.3-0.5c-0.1-0.2-0.1-0.4-0.1-0.7c0-0.3,0.1-0.6,0.3-0.9c0.2-0.2,0.4-0.4,0.7-0.6
			c0.3-0.1,0.7-0.2,1.1-0.2c0.3,0,0.7,0,1,0.1c0.3,0.1,0.6,0.2,0.8,0.3l-0.2,0.6c-0.2-0.1-0.5-0.2-0.7-0.2c-0.3-0.1-0.5-0.1-0.8-0.1
			c-0.3,0-0.5,0-0.7,0.1c-0.2,0.1-0.3,0.2-0.4,0.3s-0.1,0.3-0.1,0.5c0,0.2,0,0.4,0.1,0.6c0.1,0.1,0.2,0.3,0.5,0.4
			c0.2,0.1,0.5,0.2,0.8,0.4c0.4,0.1,0.7,0.3,1,0.4c0.3,0.2,0.5,0.3,0.6,0.6C212.8,457.9,212.9,458.1,212.9,458.5z"/>
		<path d="M214.9,459.1l0.1,0.1c-0.1,0.2-0.1,0.4-0.2,0.7c-0.1,0.2-0.2,0.5-0.3,0.7c-0.1,0.2-0.2,0.5-0.3,0.7h-0.5
			c0.1-0.2,0.1-0.5,0.2-0.7c0.1-0.3,0.1-0.5,0.2-0.8c0-0.3,0.1-0.5,0.1-0.7H214.9z"/>
		<path d="M221.7,460.2l-2.2-5.7h0c0,0.1,0,0.3,0,0.4c0,0.2,0,0.4,0,0.6c0,0.2,0,0.4,0,0.6v4.1h-0.7v-6.4h1.1l2,5.3h0l2.1-5.3h1.1
			v6.4h-0.7v-4.1c0-0.2,0-0.4,0-0.6s0-0.4,0-0.5c0-0.2,0-0.3,0-0.4h0l-2.2,5.7H221.7z"/>
		<path d="M230.5,460.2H227v-6.4h3.6v0.7h-2.8v2.1h2.7v0.7h-2.7v2.4h2.8V460.2z"/>
		<path d="M235.6,458.5c0,0.4-0.1,0.7-0.3,1c-0.2,0.3-0.5,0.5-0.8,0.6s-0.7,0.2-1.2,0.2c-0.2,0-0.5,0-0.7,0s-0.4-0.1-0.6-0.1
			c-0.2,0-0.3-0.1-0.5-0.2v-0.7c0.2,0.1,0.5,0.2,0.8,0.3c0.3,0.1,0.6,0.1,1,0.1c0.3,0,0.6,0,0.8-0.1c0.2-0.1,0.4-0.2,0.5-0.4
			c0.1-0.2,0.2-0.4,0.2-0.6c0-0.2,0-0.4-0.1-0.6c-0.1-0.1-0.3-0.3-0.5-0.4c-0.2-0.1-0.5-0.3-0.9-0.4c-0.3-0.1-0.5-0.2-0.7-0.3
			c-0.2-0.1-0.4-0.2-0.5-0.4s-0.2-0.3-0.3-0.5c-0.1-0.2-0.1-0.4-0.1-0.7c0-0.3,0.1-0.6,0.3-0.9c0.2-0.2,0.4-0.4,0.7-0.6
			c0.3-0.1,0.7-0.2,1.1-0.2c0.3,0,0.7,0,1,0.1c0.3,0.1,0.6,0.2,0.8,0.3l-0.2,0.6c-0.2-0.1-0.5-0.2-0.7-0.2c-0.3-0.1-0.5-0.1-0.8-0.1
			c-0.3,0-0.5,0-0.7,0.1c-0.2,0.1-0.3,0.2-0.4,0.3s-0.1,0.3-0.1,0.5c0,0.2,0,0.4,0.1,0.6c0.1,0.1,0.2,0.3,0.5,0.4
			c0.2,0.1,0.5,0.2,0.8,0.4c0.4,0.1,0.7,0.3,1,0.4c0.3,0.2,0.5,0.3,0.6,0.6C235.5,457.9,235.6,458.1,235.6,458.5z"/>
		<path d="M240.9,460.2l-0.8-2h-2.6l-0.8,2H236l2.5-6.5h0.7l2.5,6.5H240.9z M239.9,457.5l-0.8-2c0-0.1,0-0.1-0.1-0.3
			c0-0.1-0.1-0.2-0.1-0.4s-0.1-0.2-0.1-0.3c0,0.1-0.1,0.2-0.1,0.4c0,0.1-0.1,0.2-0.1,0.3s-0.1,0.2-0.1,0.3l-0.8,2H239.9z"/>
		<path d="M157.6,467.8l1.7-3.2h0.8l-2.1,3.9v2.5h-0.7v-2.5l-2.1-4h0.8L157.6,467.8z"/>
		<path d="M166.9,469.3c0,0.4-0.1,0.7-0.3,1c-0.2,0.3-0.5,0.5-0.8,0.6s-0.7,0.2-1.2,0.2c-0.2,0-0.5,0-0.7,0s-0.4-0.1-0.6-0.1
			c-0.2,0-0.3-0.1-0.5-0.2v-0.7c0.2,0.1,0.5,0.2,0.8,0.3s0.6,0.1,1,0.1c0.3,0,0.6,0,0.8-0.1s0.4-0.2,0.5-0.4
			c0.1-0.2,0.2-0.4,0.2-0.6c0-0.2,0-0.4-0.1-0.6s-0.3-0.3-0.5-0.4c-0.2-0.1-0.5-0.2-0.9-0.4c-0.3-0.1-0.5-0.2-0.7-0.3
			s-0.4-0.2-0.5-0.4c-0.1-0.1-0.2-0.3-0.3-0.5c-0.1-0.2-0.1-0.4-0.1-0.7c0-0.3,0.1-0.6,0.3-0.9c0.2-0.2,0.4-0.4,0.7-0.6
			c0.3-0.1,0.7-0.2,1.1-0.2c0.3,0,0.7,0,1,0.1c0.3,0.1,0.6,0.2,0.8,0.3l-0.2,0.6c-0.2-0.1-0.5-0.2-0.7-0.2c-0.3-0.1-0.5-0.1-0.8-0.1
			c-0.3,0-0.5,0-0.7,0.1c-0.2,0.1-0.3,0.2-0.4,0.3s-0.1,0.3-0.1,0.5c0,0.2,0,0.4,0.1,0.6c0.1,0.1,0.2,0.3,0.5,0.4
			c0.2,0.1,0.5,0.2,0.8,0.4c0.4,0.1,0.7,0.3,1,0.4s0.5,0.3,0.6,0.6S166.9,468.9,166.9,469.3z"/>
		<path d="M168.3,471v-6.4h0.7v6.4H168.3z"/>
		<path d="M170.8,471v-6.4h0.7v5.8h2.9v0.7H170.8z"/>
		<path d="M175.5,471v-6.4h0.7v5.8h2.9v0.7H175.5z"/>
		<path d="M184.2,471l-0.8-2h-2.6l-0.8,2h-0.8l2.5-6.5h0.7l2.5,6.5H184.2z M183.2,468.3l-0.8-2c0-0.1,0-0.1-0.1-0.3
			c0-0.1-0.1-0.2-0.1-0.4s-0.1-0.2-0.1-0.3c0,0.1-0.1,0.2-0.1,0.4c0,0.1-0.1,0.2-0.1,0.3c0,0.1-0.1,0.2-0.1,0.3l-0.8,2H183.2z"/>
		<path d="M189.5,469.3c0,0.4-0.1,0.7-0.3,1c-0.2,0.3-0.5,0.5-0.8,0.6s-0.7,0.2-1.2,0.2c-0.2,0-0.5,0-0.7,0s-0.4-0.1-0.6-0.1
			c-0.2,0-0.3-0.1-0.5-0.2v-0.7c0.2,0.1,0.5,0.2,0.8,0.3s0.6,0.1,1,0.1c0.3,0,0.6,0,0.8-0.1s0.4-0.2,0.5-0.4
			c0.1-0.2,0.2-0.4,0.2-0.6c0-0.2,0-0.4-0.1-0.6s-0.3-0.3-0.5-0.4c-0.2-0.1-0.5-0.2-0.9-0.4c-0.3-0.1-0.5-0.2-0.7-0.3
			s-0.4-0.2-0.5-0.4c-0.1-0.1-0.2-0.3-0.3-0.5c-0.1-0.2-0.1-0.4-0.1-0.7c0-0.3,0.1-0.6,0.3-0.9c0.2-0.2,0.4-0.4,0.7-0.6
			c0.3-0.1,0.7-0.2,1.1-0.2c0.3,0,0.7,0,1,0.1c0.3,0.1,0.6,0.2,0.8,0.3l-0.2,0.6c-0.2-0.1-0.5-0.2-0.7-0.2c-0.3-0.1-0.5-0.1-0.8-0.1
			c-0.3,0-0.5,0-0.7,0.1c-0.2,0.1-0.3,0.2-0.4,0.3s-0.1,0.3-0.1,0.5c0,0.2,0,0.4,0.1,0.6c0.1,0.1,0.2,0.3,0.5,0.4
			c0.2,0.1,0.5,0.2,0.8,0.4c0.4,0.1,0.7,0.3,1,0.4s0.5,0.3,0.6,0.6S189.5,468.9,189.5,469.3z"/>
	</g>
	<g>
		<g>
			<path d="M146.8,338v8h-8v-8H146.8 M147.8,337h-10v10h10V337L147.8,337z"/>
		</g>
		<polygon class="st0" points="136.3,340.5 142.8,345.1 150.3,334.5 142.8,342.3 		"/>
	</g>
	<g>
		<g>
			<path d="M146.8,354v8h-8v-8H146.8 M147.8,353h-10v10h10V353L147.8,353z"/>
		</g>
		<polygon class="st0" points="136.3,356.5 142.8,361.1 150.3,350.5 142.8,358.3 		"/>
	</g>
	<g>
		<g>
			<path d="M146.8,383v8h-8v-8H146.8 M147.8,382h-10v10h10V382L147.8,382z"/>
		</g>
		<polygon class="st0" points="136.3,385.5 142.8,390.1 150.3,379.5 142.8,387.3 		"/>
	</g>
	<g>
		<g>
			<path d="M146.8,410v8h-8v-8H146.8 M147.8,409h-10v10h10V409L147.8,409z"/>
		</g>
		<polygon class="st0" points="136.3,412.5 142.8,417.1 150.3,406.5 142.8,414.3 		"/>
	</g>
	<g>
		<g>
			<path d="M146.8,427v8h-8v-8H146.8 M147.8,426h-10v10h10V426L147.8,426z"/>
		</g>
		<polygon class="st0" points="136.3,429.5 142.8,434.1 150.3,423.5 142.8,431.3 		"/>
	</g>
	<g>
		<g>
			<path d="M146.8,455v8h-8v-8H146.8 M147.8,454h-10v10h10V454L147.8,454z"/>
		</g>
		<polygon class="st0" points="136.3,457.5 142.8,462.1 150.3,451.5 142.8,459.3 		"/>
	</g>
	<g>
		<path d="M41.3,312.8c0,0.8-0.1,1.6-0.3,2.3s-0.5,1.3-0.9,1.8s-0.9,0.9-1.6,1.2l2.8,3.1h-3.1l-2.1-2.6c0,0-0.1,0-0.1,0
			s-0.1,0-0.1,0c-0.9,0-1.7-0.1-2.4-0.4s-1.2-0.7-1.7-1.2s-0.8-1.1-1-1.9s-0.3-1.5-0.3-2.4c0-1.2,0.2-2.2,0.6-3.1s1-1.6,1.8-2
			s1.8-0.7,3.1-0.7c1.2,0,2.3,0.2,3.1,0.7s1.4,1.2,1.8,2S41.3,311.6,41.3,312.8z M33,312.8c0,0.8,0.1,1.5,0.3,2.1s0.5,1,0.9,1.3
			s1,0.5,1.7,0.5c0.7,0,1.2-0.2,1.7-0.5c0.4-0.3,0.7-0.8,0.9-1.3s0.3-1.3,0.3-2.1c0-1.2-0.2-2.1-0.7-2.8s-1.2-1-2.2-1
			c-0.7,0-1.2,0.2-1.7,0.5s-0.7,0.8-0.9,1.3S33,312,33,312.8z"/>
		<path d="M53,307.1v7.4c0,0.8-0.2,1.5-0.5,2.1s-0.9,1.1-1.6,1.5s-1.6,0.6-2.6,0.6c-1.5,0-2.7-0.4-3.5-1.2s-1.2-1.8-1.2-3.1v-7.4H46
			v7c0,0.9,0.2,1.6,0.6,2s1,0.6,1.7,0.6c0.5,0,1-0.1,1.3-0.3s0.6-0.5,0.7-0.8s0.2-0.9,0.2-1.5v-7H53z"/>
		<path d="M62.4,318.5h-6.6v-11.4h6.6v2h-4.2v2.5h3.9v2h-3.9v2.9h4.2V318.5z M62.2,303.6v0.2c-0.2,0.1-0.3,0.3-0.6,0.5
			s-0.5,0.4-0.8,0.7s-0.6,0.5-0.8,0.7s-0.5,0.4-0.7,0.5h-1.6V306c0.2-0.2,0.4-0.4,0.6-0.7s0.5-0.6,0.7-0.8s0.4-0.6,0.6-0.8H62.2z"/>
		<path d="M68.9,318.5v-11.4h2.4v11.4H68.9z"/>
		<path d="M84.3,318.5h-3.1l-5-8.6h-0.1c0,0.4,0,0.7,0.1,1.1s0,0.7,0,1.1s0,0.7,0,1.1v5.4h-2.2v-11.4h3.1l5,8.6h0.1
			c0-0.4,0-0.7,0-1.1s0-0.7,0-1s0-0.7,0-1v-5.4h2.2V318.5z"/>
		<path d="M92.1,309c-0.5,0-0.9,0.1-1.2,0.3s-0.7,0.4-0.9,0.8s-0.4,0.7-0.6,1.2s-0.2,1-0.2,1.6c0,0.8,0.1,1.5,0.3,2.1s0.5,1,0.9,1.3
			s1,0.4,1.6,0.4c0.5,0,0.9-0.1,1.4-0.2s1-0.3,1.5-0.4v2c-0.5,0.2-1,0.4-1.5,0.4s-1,0.1-1.6,0.1c-1.2,0-2.1-0.2-2.9-0.7
			s-1.3-1.2-1.7-2s-0.5-1.9-0.5-3.1c0-0.9,0.1-1.7,0.4-2.4s0.6-1.3,1-1.9s1-0.9,1.7-1.2s1.4-0.4,2.3-0.4c0.6,0,1.1,0.1,1.7,0.2
			s1.1,0.3,1.6,0.6l-0.8,2c-0.4-0.2-0.9-0.4-1.3-0.5S92.5,309,92.1,309z"/>
		<path d="M97.4,318.5v-11.4h2.4v9.4h4.6v2H97.4z"/>
		<path d="M115.8,307.1v7.4c0,0.8-0.2,1.5-0.5,2.1s-0.9,1.1-1.6,1.5s-1.6,0.6-2.6,0.6c-1.5,0-2.7-0.4-3.5-1.2s-1.2-1.8-1.2-3.1v-7.4
			h2.4v7c0,0.9,0.2,1.6,0.6,2s1,0.6,1.7,0.6c0.5,0,1-0.1,1.3-0.3s0.6-0.5,0.7-0.8s0.2-0.9,0.2-1.5v-7H115.8z"/>
		<path d="M122.1,311.8l2.4-4.7h2.6l-3.8,7v4.4h-2.4v-4.4l-3.8-7.1h2.6L122.1,311.8z"/>
		<path d="M135.1,318.5h-6.6v-11.4h6.6v2H131v2.5h3.9v2H131v2.9h4.2V318.5z"/>
		<path d="M137,311c0-0.5,0.1-0.8,0.4-1s0.6-0.3,1-0.3c0.4,0,0.7,0.1,1,0.3s0.4,0.5,0.4,1c0,0.5-0.1,0.8-0.4,1s-0.6,0.3-1,0.3
			c-0.4,0-0.7-0.1-1-0.3S137,311.4,137,311z M137,317.4c0-0.5,0.1-0.8,0.4-1s0.6-0.3,1-0.3c0.4,0,0.7,0.1,1,0.3s0.4,0.5,0.4,1
			c0,0.5-0.1,0.8-0.4,1s-0.6,0.3-1,0.3c-0.4,0-0.7-0.1-1-0.3S137,317.9,137,317.4z"/>
	</g>
</g>
</svg>
