<?xml version="1.0" encoding="utf-8"?>
<!-- Generator: Adobe Illustrator 26.4.1, SVG Export Plug-In . SVG Version: 6.00 Build 0)  -->
<svg version="1.1" id="Capa_1" xmlns="http://www.w3.org/2000/svg" xmlns:xlink="http://www.w3.org/1999/xlink" x="0px" y="0px"
	 viewBox="0 0 279 522" style="enable-background:new 0 0 279 522;" xml:space="preserve">
<style type="text/css">
	.st0{fill:#E30613;}
	.st1{fill:none;stroke:#E30613;stroke-miterlimit:10;}
	.st2{fill:#1D1D1B;}
	.st3{fill:none;stroke:#1D1D1B;stroke-width:1.37;}
	.st4{fill:#FFFFFF;}
</style>
<path class="st0" d="M40.5,121.7c0,1-0.2,1.9-0.6,2.6c-0.4,0.7-1,1.2-1.7,1.6c-0.8,0.4-1.7,0.5-2.7,0.5h-2.6v-9.3h2.9
	c1,0,1.8,0.2,2.5,0.5s1.3,0.9,1.7,1.5S40.5,120.7,40.5,121.7z M38.5,121.8c0-0.7-0.1-1.2-0.3-1.7c-0.2-0.4-0.5-0.8-0.9-1
	s-0.9-0.3-1.5-0.3h-1v6h0.8c1,0,1.7-0.3,2.1-0.8C38.3,123.5,38.5,122.8,38.5,121.8z"/>
<path class="st0" d="M48.8,126.5h-5.3v-9.3h5.3v1.6h-3.4v2h3.1v1.6h-3.1v2.4h3.4V126.5z"/>
<path class="st0" d="M57.2,123.9c0,0.5-0.1,1-0.4,1.4c-0.3,0.4-0.7,0.7-1.2,0.9c-0.5,0.2-1.1,0.3-1.9,0.3c-0.3,0-0.6,0-0.9-0.1
	c-0.3,0-0.6-0.1-0.9-0.2c-0.3-0.1-0.5-0.2-0.8-0.3v-1.8c0.4,0.2,0.9,0.4,1.4,0.5c0.5,0.2,0.9,0.2,1.4,0.2c0.3,0,0.6,0,0.8-0.1
	s0.3-0.2,0.4-0.3c0.1-0.1,0.1-0.3,0.1-0.5s-0.1-0.4-0.2-0.6c-0.2-0.2-0.4-0.3-0.6-0.5c-0.3-0.1-0.6-0.3-0.9-0.5
	c-0.2-0.1-0.5-0.2-0.7-0.4c-0.3-0.1-0.5-0.3-0.7-0.5s-0.4-0.5-0.6-0.8c-0.1-0.3-0.2-0.7-0.2-1.1c0-0.6,0.1-1,0.4-1.4
	s0.6-0.7,1.1-0.9c0.5-0.2,1-0.3,1.7-0.3c0.5,0,0.9,0.1,1.4,0.2c0.4,0.1,0.9,0.3,1.4,0.5l-0.6,1.5c-0.4-0.2-0.8-0.3-1.1-0.4
	s-0.7-0.1-1-0.1c-0.2,0-0.5,0-0.6,0.1c-0.2,0.1-0.3,0.2-0.4,0.3c-0.1,0.1-0.1,0.3-0.1,0.5s0.1,0.4,0.2,0.6c0.1,0.2,0.3,0.3,0.6,0.4
	s0.6,0.3,1,0.5c0.5,0.2,0.9,0.5,1.2,0.7s0.6,0.5,0.8,0.9C57.1,123,57.2,123.4,57.2,123.9z"/>
<path class="st0" d="M63.8,118.7c-0.4,0-0.7,0.1-1,0.2s-0.5,0.4-0.7,0.6c-0.2,0.3-0.3,0.6-0.4,1c-0.1,0.4-0.2,0.8-0.2,1.3
	c0,0.7,0.1,1.2,0.2,1.7c0.2,0.5,0.4,0.8,0.8,1.1c0.4,0.3,0.8,0.4,1.3,0.4c0.4,0,0.8,0,1.1-0.1c0.3-0.1,0.8-0.2,1.2-0.4v1.7
	c-0.4,0.2-0.8,0.3-1.2,0.4s-0.8,0.1-1.3,0.1c-1,0-1.7-0.2-2.4-0.6c-0.6-0.4-1.1-1-1.4-1.7c-0.3-0.7-0.4-1.5-0.4-2.5
	c0-0.7,0.1-1.3,0.3-1.9s0.5-1.1,0.8-1.5s0.8-0.8,1.4-1c0.5-0.2,1.2-0.3,1.9-0.3c0.5,0,0.9,0.1,1.4,0.2s0.9,0.3,1.3,0.5l-0.6,1.6
	c-0.3-0.2-0.7-0.3-1-0.4C64.5,118.7,64.1,118.7,63.8,118.7z"/>
<path class="st0" d="M76.7,117.2v6c0,0.6-0.1,1.2-0.4,1.7s-0.7,0.9-1.3,1.2c-0.6,0.3-1.3,0.5-2.1,0.5c-1.2,0-2.2-0.3-2.8-0.9
	c-0.6-0.6-1-1.5-1-2.5v-6h2v5.7c0,0.8,0.2,1.3,0.5,1.6c0.3,0.3,0.8,0.5,1.4,0.5c0.4,0,0.8-0.1,1.1-0.2c0.3-0.1,0.5-0.4,0.6-0.7
	c0.1-0.3,0.2-0.7,0.2-1.2v-5.7H76.7L76.7,117.2z"/>
<path class="st0" d="M85.3,126.5H80v-9.3h5.3v1.6h-3.4v2H85v1.6h-3.1v2.4h3.4V126.5L85.3,126.5z"/>
<path class="st0" d="M96.5,126.5H94l-4-7h-0.1c0,0.3,0,0.6,0,0.9s0,0.6,0,0.9s0,0.6,0,0.9v4.4h-1.8v-9.3h2.5l4,7c0-0.3,0-0.6,0-0.9
	s0-0.6,0-0.9s0-0.6,0-0.9v-4.4h1.8L96.5,126.5z"/>
<path class="st0" d="M103.4,126.5h-2v-7.6h-2.5v-1.6h7v1.6h-2.5V126.5z"/>
<path class="st0" d="M116.7,121.8c0,0.7-0.1,1.4-0.3,2c-0.2,0.6-0.4,1.1-0.8,1.5s-0.8,0.7-1.4,1c-0.6,0.2-1.2,0.3-2,0.3
	s-1.4-0.1-2-0.3c-0.6-0.2-1-0.6-1.4-1s-0.6-0.9-0.8-1.5c-0.2-0.6-0.3-1.2-0.3-2c0-1,0.2-1.8,0.5-2.5s0.8-1.3,1.5-1.7
	c0.7-0.4,1.5-0.6,2.5-0.6s1.8,0.2,2.5,0.6s1.1,0.9,1.4,1.7C116.6,120,116.7,120.8,116.7,121.8z M109.9,121.8c0,0.6,0.1,1.2,0.2,1.7
	c0.2,0.5,0.4,0.8,0.8,1.1c0.3,0.3,0.8,0.4,1.3,0.4c0.6,0,1-0.1,1.4-0.4c0.3-0.3,0.6-0.6,0.8-1.1c0.2-0.5,0.2-1,0.2-1.7
	c0-1-0.2-1.7-0.5-2.3c-0.4-0.6-1-0.8-1.8-0.8c-0.6,0-1,0.1-1.4,0.4c-0.3,0.3-0.6,0.6-0.8,1.1C110,120.6,109.9,121.1,109.9,121.8z"/>
<path class="st0" d="M127.6,126.5h-2v-7.6h-2.5v-1.6h7v1.6h-2.5C127.6,118.9,127.6,126.5,127.6,126.5z"/>
<path class="st0" d="M140.9,121.8c0,0.7-0.1,1.4-0.3,2s-0.4,1.1-0.8,1.5c-0.4,0.4-0.8,0.7-1.4,1c-0.6,0.2-1.2,0.3-2,0.3
	s-1.4-0.1-2-0.3c-0.6-0.2-1-0.6-1.4-1s-0.6-0.9-0.8-1.5s-0.3-1.2-0.3-2c0-1,0.2-1.8,0.5-2.5s0.8-1.3,1.5-1.7
	c0.7-0.4,1.5-0.6,2.5-0.6s1.8,0.2,2.5,0.6s1.1,0.9,1.4,1.7C140.6,120.1,140.9,120.8,140.9,121.8z M134.2,121.8
	c0,0.6,0.1,1.2,0.2,1.7c0.1,0.5,0.4,0.8,0.8,1.1c0.3,0.3,0.8,0.4,1.3,0.4c0.6,0,1-0.1,1.4-0.4c0.3-0.3,0.6-0.6,0.8-1.1
	s0.2-1,0.2-1.7c0-1-0.2-1.7-0.5-2.3c-0.4-0.6-1-0.8-1.8-0.8c-0.6,0-1,0.1-1.4,0.4c-0.3,0.3-0.6,0.6-0.8,1.1S134.2,121.1,134.2,121.8
	z"/>
<path class="st0" d="M147.4,126.5h-2v-7.6h-2.5v-1.6h7v1.6h-2.5V126.5z"/>
<path class="st0" d="M158,126.5l-0.7-2.2h-3.4l-0.7,2.2h-2.1l3.3-9.3h2.4l3.3,9.3H158z M156.9,122.6l-0.7-2.2c0-0.1-0.1-0.3-0.2-0.6
	c-0.1-0.2-0.1-0.5-0.2-0.7c-0.1-0.2-0.1-0.4-0.2-0.6c0,0.2-0.1,0.4-0.2,0.6c-0.1,0.2-0.1,0.5-0.2,0.7c-0.1,0.2-0.1,0.4-0.1,0.5
	l-0.7,2.2L156.9,122.6z"/>
<path class="st0" d="M162.3,126.5v-9.3h2v7.7h3.8v1.6C168.1,126.5,162.3,126.5,162.3,126.5z"/>
<path class="st0" d="M173.3,224.9c2.5,0,4.3,0.9,5.6,2.6c1.3,1.7,1.9,4.1,1.9,7.3c0,3.1-0.6,5.6-1.8,7.3c-1.2,1.8-3.1,2.6-5.7,2.6
	c-2.4,0-4.3-0.9-5.5-2.6c-1.3-1.8-1.9-4.2-1.9-7.3s0.6-5.5,1.8-7.3C168.8,225.8,170.7,224.9,173.3,224.9z M173.3,229.4
	c-0.7,0-1.2,0.4-1.6,1.3c-0.4,0.9-0.5,2.2-0.5,4.1c0,1.9,0.2,3.2,0.5,4.1c0.3,0.9,0.8,1.4,1.6,1.4s1.2-0.4,1.6-1.3
	c0.3-0.9,0.5-2.3,0.5-4.1s-0.2-3.2-0.5-4.1C174.6,229.9,174.1,229.4,173.3,229.4z M195.7,225.4l-17.5,31.5H173l17.5-31.5H195.7
	L195.7,225.4z M195.4,237.5c2.5,0,4.3,0.9,5.6,2.6c1.3,1.7,1.9,4.1,1.9,7.3c0,3.1-0.6,5.5-1.8,7.3c-1.2,1.8-3.1,2.6-5.7,2.6
	c-2.4,0-4.3-0.9-5.5-2.6c-1.3-1.8-1.9-4.2-1.9-7.3s0.6-5.5,1.8-7.3C190.9,238.4,192.8,237.5,195.4,237.5z M195.4,242
	c-0.7,0-1.2,0.4-1.6,1.3c-0.3,0.9-0.5,2.2-0.5,4.1c0,1.9,0.2,3.2,0.5,4.1s0.8,1.4,1.6,1.4c0.7,0,1.2-0.4,1.6-1.3
	c0.3-0.9,0.5-2.3,0.5-4.1s-0.2-3.2-0.5-4.1C196.7,242.4,196.1,242,195.4,242z"/>
<path class="st0" d="M174.3,267.9c0,1.3-0.3,2.4-0.8,3.3s-1.2,1.5-2.2,2c-1,0.4-2.1,0.7-3.5,0.7h-3.3v-11.7h3.7
	c1.2,0,2.3,0.2,3.2,0.7s1.6,1.1,2.1,1.9C174,265.6,174.3,266.6,174.3,267.9z M171.7,267.9c0-0.9-0.1-1.6-0.4-2.1
	c-0.3-0.6-0.6-1-1.1-1.2c-0.5-0.3-1.1-0.4-1.8-0.4h-1.3v7.6h1.1c1.2,0,2.1-0.3,2.7-1C171.4,270.2,171.7,269.2,171.7,267.9z"/>
<path class="st0" d="M181.5,264c-0.5,0-0.9,0.1-1.3,0.3c-0.4,0.2-0.7,0.4-0.9,0.8c-0.2,0.3-0.4,0.8-0.6,1.3s-0.2,1-0.2,1.7
	c0,0.8,0.1,1.5,0.3,2.1s0.5,1,1,1.3c0.4,0.3,1,0.5,1.7,0.5c0.5,0,1-0.1,1.4-0.2c0.5-0.1,1-0.3,1.6-0.5v2.1c-0.5,0.2-1,0.4-1.5,0.5
	s-1.1,0.1-1.7,0.1c-1.2,0-2.2-0.2-3-0.7s-1.4-1.2-1.7-2.1c-0.4-0.9-0.6-2-0.6-3.2c0-0.9,0.1-1.7,0.4-2.4c0.2-0.7,0.6-1.4,1.1-1.9
	s1-1,1.7-1.2s1.5-0.4,2.4-0.4c0.6,0,1.2,0.1,1.8,0.2s1.1,0.3,1.7,0.6l-0.8,2c-0.4-0.2-0.9-0.4-1.3-0.5
	C182.4,264.1,181.9,264,181.5,264z"/>
<path class="st0" d="M191.4,273.8h-2.5v-9.6h-3.2v-2.1h8.8v2.1h-3.2L191.4,273.8z"/>
<path class="st0" d="M206.8,268c0,0.9-0.1,1.7-0.3,2.5c-0.2,0.7-0.6,1.4-1,1.9c-0.5,0.5-1,0.9-1.7,1.2c-0.7,0.3-1.5,0.4-2.5,0.4
	s-1.8-0.1-2.5-0.4s-1.3-0.7-1.7-1.2c-0.5-0.5-0.8-1.2-1-1.9c-0.2-0.7-0.3-1.6-0.3-2.5c0-1.2,0.2-2.3,0.6-3.2c0.4-0.9,1-1.6,1.8-2.1
	s1.9-0.7,3.2-0.7s2.3,0.2,3.1,0.7s1.4,1.2,1.8,2.1C206.6,265.7,206.8,266.7,206.8,268z M198.3,268c0,0.8,0.1,1.5,0.3,2.1
	s0.5,1,1,1.4c0.4,0.3,1,0.5,1.7,0.5s1.3-0.2,1.7-0.5s0.8-0.8,1-1.4s0.3-1.3,0.3-2.1c0-1.2-0.2-2.2-0.7-2.9c-0.5-0.7-1.2-1.1-2.3-1.1
	c-0.7,0-1.3,0.2-1.7,0.5s-0.8,0.8-1,1.4C198.4,266.4,198.3,267.1,198.3,268z"/>
<path class="st0" d="M208.6,272.7c0-0.5,0.1-0.9,0.4-1.1c0.3-0.2,0.6-0.3,1-0.3s0.7,0.1,1,0.3c0.3,0.2,0.4,0.6,0.4,1.1
	s-0.1,0.8-0.4,1c-0.3,0.2-0.6,0.3-1,0.3s-0.7-0.1-1-0.3C208.7,273.5,208.6,273.2,208.6,272.7z"/>
<path class="st1" d="M31.2,291h232"/>
<path class="st1" d="M31.2,106h232"/>
<path class="st2" d="M95.8,140.3H29.9v31.3h65.9V140.3L95.8,140.3z"/>
<path class="st3" d="M95.8,140.3H29.9v31.3h65.9V140.3L95.8,140.3z"/>
<path class="st4" d="M39,152.8h3.6c0.8,0,1.3,0.1,1.7,0.3c0.6,0.3,1,1,1,1.7s-0.4,1.3-1.1,1.6c0.4,0.1,0.5,0.2,0.7,0.3
	c0.5,0.4,0.8,0.9,0.8,1.6c0,0.9-0.4,1.6-1.1,2c-0.5,0.3-1,0.4-1.7,0.4H39V152.8z M42.3,156c0.9,0,1.3-0.3,1.3-0.9
	c0-0.6-0.4-0.9-1.3-0.9h-1.6v1.9h1.6V156z M42.5,159.4c0.5,0,0.9-0.1,1.1-0.2c0.3-0.2,0.4-0.5,0.4-0.9c0-0.5-0.2-0.8-0.5-1
	c-0.2-0.1-0.5-0.1-1-0.1h-1.7v2.2H42.5z"/>
<path class="st4" d="M49.5,152.8h1.7v6.5h3.9v1.5h-5.6C49.5,160.8,49.5,152.8,49.5,152.8z"/>
<path class="st4" d="M60.9,152.8h1.8l3,8h-1.8l-0.6-1.8h-3l-0.6,1.8h-1.8L60.9,152.8z M62.9,157.7l-0.5-1.4
	c-0.3-0.8-0.4-1.2-0.5-1.7c-0.1,0.5-0.3,0.9-0.6,1.7l-0.5,1.4H62.9z"/>
<path class="st4" d="M68.7,156.8c0-2.5,1.6-4.2,3.9-4.2c1.9,0,3.3,1.2,3.5,2.9h-1.7c-0.2-0.9-0.8-1.4-1.8-1.4
	c-1.3,0-2.1,1.1-2.1,2.7c0,1.7,0.8,2.7,2.1,2.7c1,0,1.7-0.6,1.8-1.8h1.7c-0.2,2-1.5,3.3-3.6,3.3C70.2,160.9,68.7,159.3,68.7,156.8z"
	/>
<path class="st4" d="M79.7,152.8h1.7v3.4l3.1-3.4h2.2l-3.1,3.2l3.4,4.8h-2.2l-2.4-3.6l-1,1v2.6h-1.7V152.8z"/>
<path class="st2" d="M105.2,152.8h1.4l0.8,5c0.1,0.8,0.2,1.5,0.3,1.9c0.2-0.5,0.4-0.8,0.8-1.5l3.2-5.4h1.5l-1.7,8h-1l0.7-3.5
	c0.3-1.5,0.4-1.7,0.9-3.6c-0.3,0.6-0.5,1-1.3,2.2l-2.9,4.9H107l-0.9-5.1c-0.1-0.4-0.2-1-0.3-2c-0.2,1.2-0.4,2.6-0.7,3.7l-0.7,3.4h-1
	L105.2,152.8z"/>
<path class="st2" d="M116.2,157.4c0-1.6,0.7-3.2,1.8-4c0.7-0.5,1.6-0.8,2.5-0.8c2.1,0,3.3,1.3,3.3,3.4c0,1.3-0.4,2.5-1.2,3.4
	c-0.8,1-1.9,1.5-3.2,1.5C117.5,160.9,116.2,159.6,116.2,157.4z M122.9,156c0-0.7-0.2-1.4-0.6-1.8c-0.4-0.5-1-0.7-1.8-0.7
	c-1.9,0-3.3,1.6-3.3,4c0,1.6,0.9,2.6,2.4,2.6C121.5,160.1,122.9,158.3,122.9,156z"/>
<path class="st2" d="M128.7,152.8h1.1l2.2,5.3c0.3,0.7,0.5,1.2,0.6,1.6c0.1-0.9,0.3-1.9,0.5-2.7l0.9-4.2h1l-1.7,8h-1.2l-2.2-5.3
	c-0.3-0.8-0.4-1-0.6-1.5c0,0.5-0.2,1.1-0.4,2.3l-1,4.5h-1L128.7,152.8z"/>
<path class="st2" d="M139.4,152.8h1.9c1,0,1.4,0,1.8,0.1c1.3,0.3,2.1,1.5,2.1,3.1c0,1.2-0.4,2.5-1.2,3.4c-0.5,0.6-1.1,1-1.8,1.2
	c-0.5,0.2-1,0.2-2.1,0.2h-2.3L139.4,152.8z M140.3,159.9c1,0,1.4,0,1.8-0.2c1.2-0.5,2.1-2,2.1-3.7c0-1-0.3-1.7-1-2
	c-0.4-0.2-0.7-0.2-1.5-0.2h-1.4L139,160h1.3V159.9z"/>
<path class="st2" d="M152.2,152.8h1.2l1.4,8h-1.1l-0.4-2.4H150l-1.4,2.4h-1.2L152.2,152.8z M153.2,157.5l-0.3-1.5
	c-0.2-1.1-0.3-1.8-0.3-2.3c-0.3,0.6-0.6,1.2-1.3,2.3l-0.9,1.5H153.2z"/>
<path class="st2" d="M161.1,157.5l-2.1-4.7h1.1l1.1,2.6c0.4,0.8,0.4,1,0.5,1.3c0.3-0.4,0.4-0.6,0.8-1l2.2-2.8h1.2l-3.9,4.8l-0.7,3.2
	h-1L161.1,157.5z"/>
<path class="st2" d="M173.5,157.5c0-1.2,0.4-2.5,1.1-3.4c0.8-1,1.9-1.5,3.2-1.5c1.8,0,3,1,3,2.6c0,0,0,0.1,0,0.2h-1
	c-0.1-1.3-0.7-1.9-2.1-1.9c-0.7,0-1.3,0.2-1.8,0.6c-0.8,0.7-1.4,2-1.4,3.3c0,1.6,0.9,2.6,2.3,2.6c1.3,0,2.2-0.7,2.5-2h1.1
	c-0.4,1.8-1.7,2.9-3.6,2.9C174.8,160.9,173.5,159.6,173.5,157.5z"/>
<path class="st2" d="M184.1,157.4c0-1.6,0.7-3.2,1.8-4c0.7-0.5,1.6-0.8,2.5-0.8c2.1,0,3.3,1.3,3.3,3.4c0,1.3-0.4,2.5-1.2,3.4
	c-0.8,1-1.9,1.5-3.2,1.5C185.4,160.9,184.1,159.6,184.1,157.4z M190.8,156c0-0.7-0.2-1.4-0.6-1.8c-0.4-0.5-1-0.7-1.8-0.7
	c-1.9,0-3.3,1.6-3.3,4c0,1.6,0.9,2.6,2.4,2.6C189.4,160.1,190.8,158.3,190.8,156z"/>
<path class="st2" d="M196.6,152.8h1.4l0.8,5c0.1,0.8,0.2,1.5,0.3,1.9c0.2-0.5,0.4-0.8,0.8-1.5l3.2-5.4h1.5l-1.7,8h-1l0.7-3.5
	c0.3-1.5,0.4-1.7,0.9-3.6c-0.3,0.6-0.5,1-1.3,2.2l-2.9,4.9h-0.9l-0.9-5.1c-0.1-0.4-0.2-1-0.3-2c-0.2,1.2-0.4,2.6-0.7,3.7l-0.7,3.4
	h-1L196.6,152.8z"/>
<path class="st2" d="M209,152.8h1.4l0.8,5c0.1,0.8,0.2,1.5,0.3,1.9c0.2-0.5,0.4-0.8,0.8-1.5l3.2-5.4h1.5l-1.7,8h-1l0.7-3.5
	c0.3-1.5,0.4-1.7,0.9-3.6c-0.3,0.6-0.5,1-1.3,2.2l-2.9,4.9h-0.9l-0.9-5.1c-0.1-0.4-0.2-1-0.3-2c-0.2,1.2-0.4,2.6-0.7,3.7l-0.7,3.4
	h-1L209,152.8z"/>
<path class="st2" d="M220,158.5c0-0.3,0-0.7,0.2-1.2l1-4.6h1l-1,4.7c-0.1,0.6-0.2,0.8-0.2,1.1c0,1,0.7,1.5,1.9,1.5
	c0.9,0,1.6-0.3,2-0.9c0.2-0.3,0.4-0.7,0.6-1.7l1-4.7h1l-1,4.8c-0.3,1.2-0.5,1.7-0.8,2.2c-0.5,0.8-1.5,1.1-2.7,1.1
	C221.1,160.9,220,160,220,158.5z"/>
<path class="st2" d="M231.8,152.8h1.1l2.2,5.3c0.3,0.7,0.5,1.2,0.6,1.6c0.1-0.9,0.3-1.9,0.5-2.7l0.9-4.2h1l-1.7,8h-1.2l-2.2-5.3
	c-0.3-0.8-0.4-1-0.6-1.5c0,0.5-0.2,1.1-0.4,2.3l-1,4.5h-1L231.8,152.8z"/>
<path class="st2" d="M242.5,152.8h1l-1.7,8h-1L242.5,152.8z"/>
<path class="st2" d="M249.7,153.7H247l0.2-0.9h6.4l-0.2,0.9h-2.7l-1.5,7.1h-1L249.7,153.7z"/>
<path class="st2" d="M258.3,157.5l-2.1-4.7h1.1l1.1,2.6c0.4,0.8,0.4,1,0.5,1.3c0.3-0.4,0.4-0.6,0.8-1l2.2-2.8h1.2l-3.9,4.8l-0.7,3.2
	h-1L258.3,157.5z"/>
<path class="st2" d="M21.1,158.7h-1.5l0.2-0.8h1.5l0.4-1.3h-1.5l0.2-0.8h1.5l0.7-2.2h0.8l-0.7,2.2h1.4l0.6-2.2h0.8l-0.6,2.2h1.5
	l-0.2,0.8h-1.5l-0.4,1.3h1.5l-0.2,0.8h-1.5l-0.7,2.4h-0.8l0.7-2.4h-1.4l-0.7,2.4h-0.8L21.1,158.7z M23.6,157.9l0.4-1.3h-1.4
	l-0.4,1.3H23.6z"/>
<g>
	<path class="st0" d="M53.8,61H32.6v-4.5l7.6-7.7c1.5-1.6,2.8-2.9,3.7-4c0.9-1.1,1.6-2,2-2.9s0.6-1.8,0.6-2.8c0-1.2-0.3-2.1-1-2.7
		c-0.7-0.6-1.6-0.9-2.7-0.9c-1.2,0-2.3,0.3-3.4,0.8c-1.1,0.5-2.3,1.3-3.5,2.3l-3.5-4.1c0.9-0.7,1.8-1.5,2.8-2.1
		c1-0.7,2.1-1.2,3.4-1.6c1.3-0.4,2.9-0.6,4.7-0.6c2,0,3.7,0.4,5.1,1.1s2.5,1.7,3.3,2.9s1.2,2.6,1.2,4.2c0,1.7-0.3,3.2-1,4.6
		c-0.7,1.4-1.6,2.8-2.9,4.1s-2.8,2.9-4.6,4.5l-3.9,3.7v0.3h13.2V61z"/>
	<path class="st0" d="M74.8,45.8c0,2.5-0.2,4.6-0.6,6.6c-0.4,1.9-1,3.6-1.8,4.9c-0.8,1.3-1.9,2.4-3.3,3.1s-3,1.1-4.9,1.1
		c-2.4,0-4.4-0.6-6-1.9c-1.6-1.2-2.7-3-3.5-5.4c-0.7-2.3-1.1-5.1-1.1-8.4c0-3.3,0.3-6.1,1-8.4c0.7-2.3,1.8-4.1,3.4-5.4
		c1.6-1.2,3.6-1.9,6.2-1.9c2.4,0,4.4,0.6,6,1.9s2.7,3,3.5,5.4C74.4,39.6,74.8,42.5,74.8,45.8z M59.9,45.8c0,2.3,0.1,4.2,0.4,5.8
		c0.3,1.5,0.7,2.7,1.3,3.5c0.6,0.8,1.5,1.2,2.5,1.2c1.1,0,1.9-0.4,2.5-1.2c0.6-0.8,1.1-1.9,1.3-3.5c0.3-1.5,0.4-3.5,0.4-5.8
		c0-2.3-0.1-4.2-0.4-5.8c-0.3-1.6-0.7-2.7-1.3-3.5s-1.5-1.2-2.5-1.2c-1.1,0-1.9,0.4-2.5,1.2c-0.6,0.8-1,2-1.3,3.5
		C60.1,41.5,59.9,43.4,59.9,45.8z"/>
</g>
<g>
	<g>
		<path class="st0" d="M81.7,42.7c0.9,0,1.5,0.3,2,0.9s0.7,1.5,0.7,2.5s-0.2,1.9-0.6,2.6c-0.4,0.6-1.1,0.9-2,0.9
			c-0.9,0-1.5-0.3-1.9-0.9s-0.7-1.5-0.7-2.6s0.2-1.9,0.6-2.5C80.1,43,80.8,42.7,81.7,42.7z M81.7,44.2c-0.2,0-0.4,0.2-0.5,0.5
			C81.1,45,81,45.5,81,46.1c0,0.6,0.1,1.1,0.2,1.4c0.1,0.3,0.3,0.5,0.5,0.5c0.2,0,0.4-0.2,0.5-0.5s0.2-0.8,0.2-1.4
			c0-0.6-0.1-1.1-0.2-1.4C82.1,44.4,82,44.2,81.7,44.2z M89.5,42.8l-6.1,11h-1.8l6.1-11H89.5z M89.4,47.1c0.9,0,1.5,0.3,2,0.9
			c0.4,0.6,0.7,1.5,0.7,2.5c0,1.1-0.2,1.9-0.6,2.6c-0.4,0.6-1.1,0.9-2,0.9c-0.9,0-1.5-0.3-1.9-0.9c-0.4-0.6-0.7-1.5-0.7-2.6
			c0-1.1,0.2-1.9,0.6-2.5C87.9,47.4,88.5,47.1,89.4,47.1z M89.5,48.7c-0.2,0-0.4,0.2-0.5,0.5c-0.1,0.3-0.2,0.8-0.2,1.4
			c0,0.6,0.1,1.1,0.2,1.4c0.1,0.3,0.3,0.5,0.5,0.5s0.4-0.2,0.5-0.5c0.1-0.3,0.2-0.8,0.2-1.4c0-0.6-0.1-1.1-0.2-1.4
			C89.9,48.8,89.7,48.7,89.5,48.7z"/>
	</g>
	<g>
		<g>
			<path class="st0" d="M82,57.7c0,0.5-0.1,0.8-0.3,1.2s-0.4,0.5-0.8,0.7s-0.7,0.2-1.2,0.2h-1.2v-4.1h1.3c0.4,0,0.8,0.1,1.1,0.2
				s0.6,0.4,0.7,0.7C82,56.9,82,57.3,82,57.7z M81.1,57.7c0-0.3,0-0.6-0.1-0.7c-0.1-0.2-0.2-0.3-0.4-0.4c-0.2-0.1-0.4-0.1-0.6-0.1
				h-0.5v2.7h0.4c0.4,0,0.7-0.1,0.9-0.3C81,58.5,81.1,58.2,81.1,57.7z"/>
			<path class="st0" d="M84.6,56.4c-0.2,0-0.3,0-0.4,0.1c-0.1,0.1-0.2,0.2-0.3,0.3c-0.1,0.1-0.2,0.3-0.2,0.4c0,0.2-0.1,0.4-0.1,0.6
				c0,0.3,0,0.5,0.1,0.7s0.2,0.4,0.3,0.5c0.2,0.1,0.3,0.2,0.6,0.2c0.2,0,0.3,0,0.5-0.1c0.2,0,0.3-0.1,0.5-0.2v0.7
				c-0.2,0.1-0.4,0.1-0.5,0.2c-0.2,0-0.4,0-0.6,0c-0.4,0-0.8-0.1-1-0.3c-0.3-0.2-0.5-0.4-0.6-0.7s-0.2-0.7-0.2-1.1
				c0-0.3,0-0.6,0.1-0.9c0.1-0.3,0.2-0.5,0.4-0.7c0.2-0.2,0.4-0.3,0.6-0.4c0.2-0.1,0.5-0.2,0.8-0.2c0.2,0,0.4,0,0.6,0.1
				c0.2,0.1,0.4,0.1,0.6,0.2l-0.3,0.7c-0.2-0.1-0.3-0.1-0.5-0.2C84.9,56.4,84.7,56.4,84.6,56.4z"/>
			<path class="st0" d="M88,59.8h-0.9v-3.4H86v-0.7h3.1v0.7H88V59.8z"/>
			<path class="st0" d="M93.4,57.8c0,0.3,0,0.6-0.1,0.9c-0.1,0.3-0.2,0.5-0.4,0.7c-0.2,0.2-0.4,0.3-0.6,0.4
				c-0.2,0.1-0.5,0.1-0.9,0.1s-0.6,0-0.9-0.1c-0.2-0.1-0.4-0.2-0.6-0.4c-0.2-0.2-0.3-0.4-0.4-0.7c-0.1-0.3-0.1-0.5-0.1-0.9
				c0-0.4,0.1-0.8,0.2-1.1c0.1-0.3,0.4-0.6,0.6-0.7c0.3-0.2,0.7-0.3,1.1-0.3c0.4,0,0.8,0.1,1.1,0.3c0.3,0.2,0.5,0.4,0.6,0.7
				C93.4,57,93.4,57.3,93.4,57.8z M90.5,57.8c0,0.3,0,0.5,0.1,0.7c0.1,0.2,0.2,0.4,0.3,0.5s0.4,0.2,0.6,0.2c0.2,0,0.4-0.1,0.6-0.2
				s0.3-0.3,0.3-0.5s0.1-0.5,0.1-0.7c0-0.4-0.1-0.8-0.2-1c-0.2-0.2-0.4-0.4-0.8-0.4c-0.2,0-0.4,0.1-0.6,0.2s-0.3,0.3-0.3,0.5
				C90.5,57.2,90.5,57.5,90.5,57.8z"/>
			<path class="st0" d="M94.1,59.4c0-0.2,0-0.3,0.1-0.4s0.2-0.1,0.3-0.1c0.1,0,0.2,0,0.3,0.1s0.1,0.2,0.1,0.4c0,0.2,0,0.3-0.1,0.4
				c-0.1,0.1-0.2,0.1-0.3,0.1c-0.1,0-0.3,0-0.3-0.1C94.1,59.7,94.1,59.6,94.1,59.4z"/>
		</g>
	</g>
</g>
<g>
	<path class="st0" d="M32.2,65.5h2.7c1.1,0,2,0.2,2.6,0.5s0.9,0.9,0.9,1.7c0,0.3-0.1,0.6-0.2,0.9s-0.3,0.5-0.4,0.6s-0.4,0.3-0.7,0.3
		v0.1c0.3,0.1,0.5,0.2,0.8,0.3s0.4,0.3,0.6,0.6s0.2,0.6,0.2,1.1c0,0.5-0.1,1-0.4,1.3s-0.6,0.7-1.1,0.9S36,74,35.4,74h-3.2V65.5z
		 M34,68.9H35c0.5,0,0.9-0.1,1.1-0.2s0.3-0.4,0.3-0.7c0-0.3-0.1-0.6-0.4-0.7S35.4,67,34.9,67h-1V68.9z M34,70.3v2.2h1.2
		c0.5,0,0.9-0.1,1.1-0.3s0.3-0.5,0.3-0.8c0-0.2,0-0.4-0.1-0.6s-0.3-0.3-0.5-0.4s-0.5-0.1-0.9-0.1H34z"/>
	<path class="st0" d="M42.6,67.4c0.9,0,1.6,0.2,2,0.6s0.7,1,0.7,1.7V74h-1.2l-0.3-0.9h0c-0.2,0.2-0.4,0.4-0.6,0.6S42.7,74,42.4,74
		s-0.6,0.1-0.9,0.1c-0.4,0-0.7-0.1-1-0.2s-0.5-0.4-0.7-0.7s-0.3-0.7-0.3-1.2c0-0.7,0.2-1.2,0.7-1.5s1.2-0.5,2.2-0.5l1.1,0v-0.3
		c0-0.3-0.1-0.6-0.3-0.8s-0.4-0.2-0.8-0.2c-0.3,0-0.6,0-0.9,0.1S41,69,40.7,69.2l-0.6-1.2c0.3-0.2,0.7-0.3,1.2-0.4
		S42.1,67.4,42.6,67.4z M43.6,71l-0.7,0c-0.6,0-1,0.1-1.2,0.3s-0.3,0.4-0.3,0.8c0,0.3,0.1,0.5,0.2,0.6s0.4,0.2,0.6,0.2
		c0.4,0,0.7-0.1,1-0.3s0.4-0.5,0.4-1V71z"/>
	<path class="st0" d="M51.6,72.1c0,0.4-0.1,0.8-0.3,1.1s-0.5,0.5-0.9,0.7s-0.9,0.2-1.5,0.2c-0.5,0-0.8,0-1.2-0.1s-0.7-0.2-1-0.3
		v-1.5c0.4,0.2,0.7,0.3,1.1,0.4s0.8,0.2,1.1,0.2c0.3,0,0.6-0.1,0.7-0.2s0.2-0.2,0.2-0.4c0-0.1,0-0.2-0.1-0.3s-0.2-0.2-0.4-0.3
		s-0.5-0.3-0.9-0.4c-0.4-0.2-0.7-0.3-1-0.5s-0.5-0.4-0.6-0.6s-0.2-0.5-0.2-0.9c0-0.6,0.2-1.1,0.7-1.4s1.1-0.5,1.9-0.5
		c0.4,0,0.8,0,1.2,0.1s0.7,0.2,1.1,0.4L51,69.2c-0.3-0.1-0.6-0.3-0.9-0.3s-0.6-0.1-0.9-0.1c-0.3,0-0.5,0-0.6,0.1s-0.2,0.2-0.2,0.3
		c0,0.1,0,0.2,0.1,0.3s0.2,0.2,0.4,0.3s0.5,0.2,0.9,0.4c0.4,0.2,0.7,0.3,1,0.5s0.5,0.4,0.6,0.6S51.6,71.7,51.6,72.1z"/>
	<path class="st0" d="M55.5,67.4c0.6,0,1.1,0.1,1.6,0.3s0.8,0.6,1,1s0.4,1,0.4,1.6v0.9h-4.2c0,0.5,0.2,0.9,0.5,1.2s0.7,0.4,1.2,0.4
		c0.4,0,0.8,0,1.1-0.1s0.7-0.2,1.1-0.4v1.4c-0.3,0.2-0.7,0.3-1,0.4s-0.8,0.1-1.3,0.1c-0.7,0-1.2-0.1-1.7-0.4s-0.9-0.6-1.2-1.1
		s-0.4-1.1-0.4-1.9c0-0.8,0.1-1.4,0.4-1.9s0.6-0.9,1.1-1.1S54.9,67.4,55.5,67.4z M55.5,68.6c-0.3,0-0.6,0.1-0.9,0.3s-0.4,0.6-0.4,1
		h2.5c0-0.3-0.1-0.5-0.1-0.7s-0.2-0.4-0.4-0.5S55.8,68.6,55.5,68.6z"/>
	<path class="st0" d="M62.9,65.5h2.7c1.1,0,2,0.2,2.6,0.5s0.9,0.9,0.9,1.7c0,0.3-0.1,0.6-0.2,0.9s-0.3,0.5-0.4,0.6s-0.4,0.3-0.7,0.3
		v0.1c0.3,0.1,0.5,0.2,0.8,0.3s0.4,0.3,0.6,0.6s0.2,0.6,0.2,1.1c0,0.5-0.1,1-0.4,1.3s-0.6,0.7-1.1,0.9s-1,0.3-1.7,0.3h-3.2V65.5z
		 M64.7,68.9h1.1c0.5,0,0.9-0.1,1.1-0.2s0.3-0.4,0.3-0.7c0-0.3-0.1-0.6-0.4-0.7S66.2,67,65.6,67h-1V68.9z M64.7,70.3v2.2h1.2
		c0.5,0,0.9-0.1,1.1-0.3s0.3-0.5,0.3-0.8c0-0.2,0-0.4-0.1-0.6s-0.3-0.3-0.5-0.4s-0.5-0.1-0.9-0.1H64.7z"/>
	<path class="st0" d="M72.4,74h-1.8v-9.1h1.8V74z"/>
	<path class="st0" d="M76.8,67.4c0.9,0,1.6,0.2,2,0.6s0.7,1,0.7,1.7V74h-1.2l-0.3-0.9h0c-0.2,0.2-0.4,0.4-0.6,0.6S76.9,74,76.7,74
		s-0.6,0.1-0.9,0.1c-0.4,0-0.7-0.1-1-0.2s-0.5-0.4-0.7-0.7s-0.3-0.7-0.3-1.2c0-0.7,0.2-1.2,0.7-1.5s1.2-0.5,2.2-0.5l1.1,0v-0.3
		c0-0.3-0.1-0.6-0.3-0.8s-0.4-0.2-0.8-0.2c-0.3,0-0.6,0-0.9,0.1s-0.6,0.2-0.9,0.3l-0.6-1.2c0.3-0.2,0.7-0.3,1.2-0.4
		S76.4,67.4,76.8,67.4z M77.8,71l-0.7,0c-0.6,0-1,0.1-1.2,0.3s-0.3,0.4-0.3,0.8c0,0.3,0.1,0.5,0.2,0.6s0.4,0.2,0.6,0.2
		c0.4,0,0.7-0.1,1-0.3s0.4-0.5,0.4-1V71z"/>
	<path class="st0" d="M83.9,74.2c-0.6,0-1.2-0.1-1.7-0.4s-0.8-0.6-1-1.1s-0.4-1.1-0.4-1.9c0-0.8,0.1-1.5,0.4-2s0.6-0.9,1.1-1.1
		s1-0.4,1.7-0.4c0.5,0,0.8,0,1.2,0.1s0.6,0.2,0.9,0.3l-0.5,1.4c-0.3-0.1-0.5-0.2-0.8-0.3s-0.5-0.1-0.7-0.1c-0.3,0-0.6,0.1-0.8,0.2
		s-0.4,0.4-0.5,0.7s-0.2,0.7-0.2,1.1c0,0.4,0.1,0.8,0.2,1.1s0.3,0.5,0.5,0.6s0.5,0.2,0.8,0.2c0.4,0,0.7,0,1-0.1s0.6-0.2,0.8-0.4v1.5
		C85.6,73.8,85.3,74,85,74S84.3,74.2,83.9,74.2z"/>
	<path class="st0" d="M89,64.9V69c0,0.2,0,0.5,0,0.7s0,0.5-0.1,0.7h0c0.1-0.2,0.2-0.3,0.4-0.5s0.3-0.3,0.4-0.5l1.8-2h2L91,70.3
		l2.8,3.7h-2.1l-1.9-2.7L89,72v2h-1.8v-9.1H89z"/>
	<path class="st0" d="M35.8,88.4l-2.1-6.7h-0.1c0,0.2,0,0.4,0,0.7s0,0.7,0,1s0,0.7,0,1v4h-1.6v-8.6h2.5l2,6.6h0l2.2-6.6h2.5v8.6
		h-1.7v-4.1c0-0.3,0-0.6,0-0.9s0-0.7,0-1s0-0.6,0-0.7h-0.1l-2.2,6.7H35.8z"/>
	<path class="st0" d="M49.1,85.1c0,0.5-0.1,1-0.2,1.5s-0.4,0.8-0.6,1.1s-0.6,0.5-1,0.7s-0.8,0.2-1.3,0.2c-0.5,0-0.9-0.1-1.3-0.2
		s-0.7-0.4-1-0.7S43.2,87,43,86.6s-0.2-0.9-0.2-1.5c0-0.7,0.1-1.3,0.4-1.8s0.6-0.9,1.1-1.1s1-0.4,1.7-0.4c0.6,0,1.2,0.1,1.6,0.4
		s0.8,0.6,1.1,1.1S49.1,84.4,49.1,85.1z M44.6,85.1c0,0.4,0,0.8,0.1,1.1s0.2,0.5,0.4,0.7s0.5,0.2,0.8,0.2c0.3,0,0.6-0.1,0.8-0.2
		s0.3-0.4,0.4-0.7s0.1-0.7,0.1-1.1c0-0.4,0-0.8-0.1-1.1s-0.2-0.5-0.4-0.6s-0.5-0.2-0.8-0.2c-0.5,0-0.8,0.2-1,0.5
		S44.6,84.5,44.6,85.1z"/>
	<path class="st0" d="M54.2,81.8c0.7,0,1.3,0.2,1.7,0.6s0.6,1,0.6,1.8v4.3h-1.8v-3.8c0-0.5-0.1-0.8-0.3-1.1s-0.4-0.4-0.8-0.4
		c-0.5,0-0.9,0.2-1.1,0.6s-0.3,0.9-0.3,1.6v3.1h-1.8v-6.6h1.4l0.2,0.8h0.1c0.1-0.2,0.3-0.4,0.5-0.6s0.4-0.2,0.7-0.3
		S53.9,81.8,54.2,81.8z"/>
	<path class="st0" d="M60.3,88.6c-0.7,0-1.3-0.3-1.8-0.9s-0.7-1.4-0.7-2.5c0-1.1,0.2-2,0.7-2.5s1.1-0.9,1.8-0.9c0.3,0,0.6,0,0.8,0.1
		s0.4,0.2,0.6,0.3s0.3,0.3,0.4,0.5h0.1c0-0.1-0.1-0.3-0.1-0.6s0-0.5,0-0.8v-2.1h1.8v9.1h-1.4l-0.3-0.8h-0.1
		c-0.1,0.2-0.3,0.3-0.4,0.5s-0.4,0.3-0.6,0.3S60.6,88.6,60.3,88.6z M60.9,87.1c0.5,0,0.8-0.1,1-0.4s0.3-0.7,0.3-1.3v-0.2
		c0-0.6-0.1-1.1-0.3-1.5s-0.6-0.5-1.1-0.5c-0.4,0-0.7,0.2-0.9,0.5s-0.3,0.8-0.3,1.5s0.1,1.1,0.3,1.4S60.5,87.1,60.9,87.1z"/>
	<path class="st0" d="M68.3,81.8c0.9,0,1.6,0.2,2,0.6s0.7,1,0.7,1.7v4.4h-1.2l-0.3-0.9h0c-0.2,0.2-0.4,0.4-0.6,0.6s-0.4,0.3-0.7,0.3
		s-0.6,0.1-0.9,0.1c-0.4,0-0.7-0.1-1-0.2s-0.5-0.4-0.7-0.7s-0.3-0.7-0.3-1.2c0-0.7,0.2-1.2,0.7-1.5s1.2-0.5,2.2-0.5l1.1,0v-0.3
		c0-0.3-0.1-0.6-0.3-0.8s-0.4-0.2-0.8-0.2c-0.3,0-0.6,0-0.9,0.1s-0.6,0.2-0.9,0.3l-0.6-1.2c0.3-0.2,0.7-0.3,1.2-0.4
		S67.8,81.8,68.3,81.8z M69.2,85.4l-0.7,0c-0.6,0-1,0.1-1.2,0.3S67,86.2,67,86.5c0,0.3,0.1,0.5,0.2,0.6s0.4,0.2,0.6,0.2
		c0.4,0,0.7-0.1,1-0.3s0.4-0.5,0.4-1V85.4z"/>
	<path class="st0" d="M71.8,81.9h2l1.2,3.7c0,0.1,0.1,0.2,0.1,0.4s0.1,0.2,0.1,0.4s0,0.3,0,0.4h0c0-0.2,0.1-0.4,0.1-0.6
		s0.1-0.4,0.2-0.5l1.2-3.7h1.9l-2.8,7.4c-0.2,0.5-0.4,0.8-0.7,1.1s-0.6,0.5-0.9,0.7s-0.7,0.2-1.2,0.2c-0.2,0-0.4,0-0.5,0
		s-0.3,0-0.4-0.1v-1.4c0.1,0,0.2,0,0.3,0.1s0.3,0,0.4,0c0.2,0,0.5-0.1,0.6-0.2s0.3-0.2,0.5-0.4s0.2-0.4,0.3-0.6l0.1-0.3L71.8,81.9z"
		/>
</g>
<g>
	<g>
		<path d="M51.3,344.2h-3.6v-6.4h3.6v0.7h-2.8v2.1h2.7v0.7h-2.7v2.4h2.8V344.2z"/>
		<path d="M56.3,342.5c0,0.4-0.1,0.7-0.3,1c-0.2,0.3-0.5,0.5-0.8,0.6s-0.7,0.2-1.2,0.2c-0.2,0-0.5,0-0.7,0s-0.4-0.1-0.6-0.1
			c-0.2,0-0.3-0.1-0.5-0.2v-0.7c0.2,0.1,0.5,0.2,0.8,0.3c0.3,0.1,0.6,0.1,1,0.1c0.3,0,0.6,0,0.8-0.1c0.2-0.1,0.4-0.2,0.5-0.4
			c0.1-0.2,0.2-0.4,0.2-0.6c0-0.2,0-0.4-0.1-0.6c-0.1-0.1-0.3-0.3-0.5-0.4c-0.2-0.1-0.5-0.3-0.9-0.4c-0.3-0.1-0.5-0.2-0.7-0.3
			c-0.2-0.1-0.4-0.2-0.5-0.4c-0.1-0.1-0.2-0.3-0.3-0.5c-0.1-0.2-0.1-0.4-0.1-0.7c0-0.3,0.1-0.6,0.3-0.9c0.2-0.2,0.4-0.4,0.7-0.6
			c0.3-0.1,0.7-0.2,1.1-0.2c0.3,0,0.7,0,1,0.1c0.3,0.1,0.6,0.2,0.8,0.3l-0.2,0.6c-0.2-0.1-0.5-0.2-0.7-0.2c-0.3-0.1-0.5-0.1-0.8-0.1
			s-0.5,0-0.7,0.1c-0.2,0.1-0.3,0.2-0.4,0.3s-0.1,0.3-0.1,0.5c0,0.2,0,0.4,0.1,0.6c0.1,0.1,0.2,0.3,0.5,0.4c0.2,0.1,0.5,0.2,0.8,0.4
			c0.4,0.1,0.7,0.3,1,0.4c0.3,0.2,0.5,0.3,0.6,0.6C56.2,341.9,56.3,342.1,56.3,342.5z"/>
		<path d="M59.6,344.2h-0.8v-5.8h-2v-0.7h4.8v0.7h-2V344.2z"/>
		<path d="M67.4,337.8v4.2c0,0.5-0.1,0.9-0.3,1.2c-0.2,0.4-0.5,0.6-0.8,0.8c-0.4,0.2-0.8,0.3-1.4,0.3c-0.8,0-1.4-0.2-1.8-0.6
			c-0.4-0.4-0.6-1-0.6-1.7v-4.1h0.8v4.2c0,0.5,0.1,1,0.4,1.3c0.3,0.3,0.7,0.4,1.3,0.4c0.4,0,0.7-0.1,1-0.2c0.3-0.1,0.4-0.3,0.6-0.6
			c0.1-0.3,0.2-0.6,0.2-0.9v-4.2H67.4z"/>
		<path d="M74.2,340.9c0,0.7-0.1,1.3-0.4,1.8c-0.3,0.5-0.6,0.8-1.1,1.1c-0.5,0.2-1.1,0.4-1.8,0.4h-1.7v-6.4h1.9
			c0.7,0,1.2,0.1,1.7,0.4c0.5,0.2,0.8,0.6,1.1,1.1C74.1,339.7,74.2,340.2,74.2,340.9z M73.4,340.9c0-0.6-0.1-1.1-0.3-1.4
			c-0.2-0.4-0.5-0.7-0.8-0.8c-0.4-0.2-0.8-0.3-1.4-0.3h-1.1v5.1h0.9c0.9,0,1.5-0.2,2-0.7C73.2,342.5,73.4,341.8,73.4,340.9z"/>
		<path d="M75.7,344.2v-6.4h0.7v6.4H75.7z"/>
		<path d="M83.7,341c0,0.5-0.1,0.9-0.2,1.4c-0.1,0.4-0.3,0.8-0.6,1c-0.2,0.3-0.6,0.5-0.9,0.7s-0.8,0.2-1.3,0.2
			c-0.5,0-0.9-0.1-1.3-0.2c-0.4-0.2-0.7-0.4-0.9-0.7c-0.2-0.3-0.4-0.6-0.5-1.1c-0.1-0.4-0.2-0.9-0.2-1.4c0-0.7,0.1-1.2,0.3-1.7
			s0.5-0.9,1-1.2c0.4-0.3,1-0.4,1.7-0.4c0.6,0,1.2,0.1,1.6,0.4c0.4,0.3,0.8,0.7,1,1.1C83.6,339.7,83.7,340.3,83.7,341z M78.6,341
			c0,0.5,0.1,1,0.2,1.4c0.2,0.4,0.4,0.7,0.7,0.9c0.3,0.2,0.7,0.3,1.2,0.3c0.5,0,0.9-0.1,1.2-0.3c0.3-0.2,0.6-0.5,0.7-0.9
			c0.2-0.4,0.2-0.9,0.2-1.4c0-0.8-0.2-1.5-0.5-1.9c-0.3-0.5-0.9-0.7-1.6-0.7c-0.5,0-0.9,0.1-1.2,0.3s-0.6,0.5-0.7,0.9
			C78.7,340,78.6,340.4,78.6,341z"/>
		<path d="M49.4,354.6c0.8,0,1.4,0.2,1.8,0.5c0.4,0.3,0.6,0.8,0.6,1.4c0,0.3,0,0.5-0.1,0.8c-0.1,0.2-0.2,0.5-0.4,0.6
			c-0.2,0.2-0.5,0.3-0.8,0.4c-0.3,0.1-0.7,0.2-1.2,0.2h-0.8v2.5h-0.7v-6.4H49.4z M49.3,355.2h-0.9v2.6h0.7c0.4,0,0.8,0,1-0.1
			c0.3-0.1,0.5-0.2,0.6-0.4c0.1-0.2,0.2-0.5,0.2-0.8c0-0.4-0.1-0.7-0.4-1C50.3,355.3,49.9,355.2,49.3,355.2z"/>
		<path d="M54.8,354.6c0.5,0,1,0.1,1.3,0.2c0.3,0.1,0.6,0.3,0.8,0.6s0.3,0.6,0.3,1c0,0.3-0.1,0.6-0.2,0.9c-0.1,0.2-0.3,0.4-0.5,0.6
			s-0.4,0.2-0.6,0.3l1.8,2.9h-0.9l-1.6-2.7h-1.3v2.7h-0.7v-6.4H54.8z M54.8,355.2h-0.9v2.5h1c0.5,0,0.9-0.1,1.2-0.3
			c0.2-0.2,0.4-0.5,0.4-0.9c0-0.4-0.1-0.7-0.4-0.9C55.7,355.3,55.3,355.2,54.8,355.2z"/>
		<path d="M64.2,357.8c0,0.5-0.1,0.9-0.2,1.4c-0.1,0.4-0.3,0.8-0.6,1c-0.2,0.3-0.6,0.5-0.9,0.7s-0.8,0.2-1.3,0.2
			c-0.5,0-0.9-0.1-1.3-0.2c-0.4-0.2-0.7-0.4-0.9-0.7c-0.2-0.3-0.4-0.6-0.5-1.1c-0.1-0.4-0.2-0.9-0.2-1.4c0-0.7,0.1-1.2,0.3-1.7
			s0.5-0.9,1-1.2c0.4-0.3,1-0.4,1.7-0.4c0.6,0,1.2,0.1,1.6,0.4c0.4,0.3,0.8,0.7,1,1.1C64.1,356.5,64.2,357.1,64.2,357.8z
			 M59.1,357.8c0,0.5,0.1,1,0.2,1.4c0.2,0.4,0.4,0.7,0.7,0.9c0.3,0.2,0.7,0.3,1.2,0.3c0.5,0,0.9-0.1,1.2-0.3
			c0.3-0.2,0.6-0.5,0.7-0.9c0.2-0.4,0.2-0.9,0.2-1.4c0-0.8-0.2-1.5-0.5-1.9c-0.3-0.5-0.9-0.7-1.6-0.7c-0.5,0-0.9,0.1-1.2,0.3
			s-0.6,0.5-0.7,0.9C59.2,356.8,59.1,357.2,59.1,357.8z"/>
		<path d="M70.7,357.7c0,0.7-0.1,1.3-0.4,1.8c-0.3,0.5-0.6,0.8-1.1,1.1c-0.5,0.2-1.1,0.4-1.8,0.4h-1.7v-6.4h1.9
			c0.7,0,1.2,0.1,1.7,0.4c0.5,0.2,0.8,0.6,1.1,1.1C70.6,356.5,70.7,357,70.7,357.7z M70,357.7c0-0.6-0.1-1.1-0.3-1.4
			c-0.2-0.4-0.5-0.7-0.8-0.8c-0.4-0.2-0.8-0.3-1.4-0.3h-1.1v5.1h0.9c0.9,0,1.5-0.2,2-0.7C69.7,359.3,70,358.6,70,357.7z"/>
		<path d="M77,354.6v4.2c0,0.5-0.1,0.9-0.3,1.2c-0.2,0.4-0.5,0.6-0.8,0.8c-0.4,0.2-0.8,0.3-1.4,0.3c-0.8,0-1.4-0.2-1.8-0.6
			c-0.4-0.4-0.6-1-0.6-1.7v-4.1h0.8v4.2c0,0.5,0.1,1,0.4,1.3c0.3,0.3,0.7,0.4,1.3,0.4c0.4,0,0.7-0.1,1-0.2c0.3-0.1,0.4-0.3,0.6-0.6
			c0.1-0.3,0.2-0.6,0.2-0.9v-4.2H77z"/>
		<path d="M81.5,355.1c-0.4,0-0.7,0.1-1,0.2c-0.3,0.1-0.5,0.3-0.7,0.5c-0.2,0.2-0.3,0.5-0.5,0.8s-0.2,0.7-0.2,1.1
			c0,0.5,0.1,1,0.3,1.4c0.2,0.4,0.4,0.7,0.8,0.9c0.3,0.2,0.8,0.3,1.3,0.3c0.3,0,0.6,0,0.8-0.1c0.3,0,0.5-0.1,0.7-0.2v0.7
			c-0.2,0.1-0.5,0.2-0.7,0.2c-0.3,0-0.6,0.1-0.9,0.1c-0.7,0-1.2-0.1-1.6-0.4c-0.4-0.3-0.8-0.7-1-1.1c-0.2-0.5-0.3-1.1-0.3-1.8
			c0-0.5,0.1-0.9,0.2-1.3c0.1-0.4,0.3-0.8,0.6-1c0.3-0.3,0.6-0.5,1-0.7c0.4-0.2,0.8-0.2,1.3-0.2c0.3,0,0.6,0,0.9,0.1
			s0.6,0.2,0.8,0.3l-0.3,0.6c-0.2-0.1-0.4-0.2-0.7-0.2C82,355.2,81.8,355.1,81.5,355.1z"/>
		<path d="M86.4,361h-0.8v-5.8h-2v-0.7h4.8v0.7h-2V361z"/>
		<path d="M94.9,357.8c0,0.5-0.1,0.9-0.2,1.4c-0.1,0.4-0.3,0.8-0.6,1c-0.2,0.3-0.6,0.5-0.9,0.7s-0.8,0.2-1.3,0.2
			c-0.5,0-0.9-0.1-1.3-0.2c-0.4-0.2-0.7-0.4-0.9-0.7c-0.2-0.3-0.4-0.6-0.5-1.1c-0.1-0.4-0.2-0.9-0.2-1.4c0-0.7,0.1-1.2,0.3-1.7
			s0.5-0.9,1-1.2c0.4-0.3,1-0.4,1.7-0.4c0.6,0,1.2,0.1,1.6,0.4c0.4,0.3,0.8,0.7,1,1.1C94.8,356.5,94.9,357.1,94.9,357.8z
			 M89.8,357.8c0,0.5,0.1,1,0.2,1.4c0.2,0.4,0.4,0.7,0.7,0.9c0.3,0.2,0.7,0.3,1.2,0.3c0.5,0,0.9-0.1,1.2-0.3
			c0.3-0.2,0.6-0.5,0.7-0.9c0.2-0.4,0.2-0.9,0.2-1.4c0-0.8-0.2-1.5-0.5-1.9c-0.3-0.5-0.9-0.7-1.6-0.7c-0.5,0-0.9,0.1-1.2,0.3
			s-0.6,0.5-0.7,0.9C89.9,356.8,89.8,357.2,89.8,357.8z"/>
		<path d="M98.1,354.6c0.5,0,1,0.1,1.3,0.2c0.3,0.1,0.6,0.3,0.8,0.6s0.3,0.6,0.3,1c0,0.3-0.1,0.6-0.2,0.9c-0.1,0.2-0.3,0.4-0.5,0.6
			s-0.4,0.2-0.6,0.3l1.8,2.9H100l-1.6-2.7h-1.3v2.7h-0.7v-6.4H98.1z M98.1,355.2h-0.9v2.5h1c0.5,0,0.9-0.1,1.2-0.3
			c0.2-0.2,0.4-0.5,0.4-0.9c0-0.4-0.1-0.7-0.4-0.9C99,355.3,98.6,355.2,98.1,355.2z"/>
		<path d="M50.4,368.4h2.2v3.1c-0.3,0.1-0.7,0.2-1,0.3c-0.4,0.1-0.8,0.1-1.2,0.1c-0.7,0-1.2-0.1-1.7-0.4c-0.5-0.3-0.8-0.6-1-1.1
			c-0.2-0.5-0.4-1.1-0.4-1.8c0-0.7,0.1-1.2,0.4-1.7c0.3-0.5,0.6-0.9,1.1-1.2c0.5-0.3,1.1-0.4,1.8-0.4c0.4,0,0.7,0,1,0.1
			c0.3,0.1,0.6,0.2,0.9,0.3l-0.3,0.7c-0.2-0.1-0.5-0.2-0.8-0.3c-0.3-0.1-0.6-0.1-0.9-0.1c-0.5,0-1,0.1-1.3,0.3
			c-0.4,0.2-0.7,0.5-0.9,0.9c-0.2,0.4-0.3,0.9-0.3,1.4c0,0.5,0.1,1,0.3,1.4c0.2,0.4,0.4,0.7,0.8,0.9s0.8,0.3,1.4,0.3
			c0.3,0,0.5,0,0.7,0c0.2,0,0.4-0.1,0.6-0.1v-2h-1.5V368.4z"/>
		<path d="M57.8,371.8h-3.6v-6.4h3.6v0.7H55v2.1h2.7v0.7H55v2.4h2.8V371.8z"/>
		<path d="M64.2,371.8h-0.9l-3.5-5.4h0c0,0.1,0,0.3,0,0.5c0,0.2,0,0.4,0,0.6c0,0.2,0,0.4,0,0.6v3.7h-0.7v-6.4h0.9l3.5,5.4h0
			c0-0.1,0-0.2,0-0.4c0-0.2,0-0.4,0-0.6c0-0.2,0-0.4,0-0.6v-3.7h0.7V371.8z"/>
		<path d="M69.6,371.8H66v-6.4h3.6v0.7h-2.8v2.1h2.7v0.7h-2.7v2.4h2.8V371.8z"/>
		<path d="M72.7,365.4c0.5,0,1,0.1,1.3,0.2c0.3,0.1,0.6,0.3,0.8,0.6s0.3,0.6,0.3,1c0,0.3-0.1,0.6-0.2,0.9c-0.1,0.2-0.3,0.4-0.5,0.6
			s-0.4,0.2-0.6,0.3l1.8,2.9h-0.9l-1.6-2.7h-1.3v2.7H71v-6.4H72.7z M72.7,366h-0.9v2.5h1c0.5,0,0.9-0.1,1.2-0.3
			c0.2-0.2,0.4-0.5,0.4-0.9c0-0.4-0.1-0.7-0.4-0.9C73.6,366.1,73.2,366,72.7,366z"/>
		<path d="M80.6,371.8l-0.8-2h-2.6l-0.8,2h-0.8l2.5-6.5h0.7l2.5,6.5H80.6z M79.6,369.1l-0.8-2c0-0.1,0-0.1-0.1-0.3
			c0-0.1-0.1-0.2-0.1-0.4s-0.1-0.2-0.1-0.3c0,0.1-0.1,0.2-0.1,0.4c0,0.1-0.1,0.2-0.1,0.3c0,0.1-0.1,0.2-0.1,0.3l-0.8,2H79.6z"/>
		<path d="M82.2,371.8v-6.4H83v5.8h2.9v0.7H82.2z"/>
		<path d="M48.4,388.6h-0.7v-6.4h3.6v0.7h-2.8v2.4h2.7v0.7h-2.7V388.6z"/>
		<path d="M57.9,385.4c0,0.5-0.1,0.9-0.2,1.4c-0.1,0.4-0.3,0.8-0.6,1c-0.2,0.3-0.6,0.5-0.9,0.7s-0.8,0.2-1.3,0.2
			c-0.5,0-0.9-0.1-1.3-0.2c-0.4-0.2-0.7-0.4-0.9-0.7c-0.2-0.3-0.4-0.6-0.5-1.1c-0.1-0.4-0.2-0.9-0.2-1.4c0-0.7,0.1-1.2,0.3-1.7
			s0.5-0.9,1-1.2c0.4-0.3,1-0.4,1.7-0.4c0.6,0,1.2,0.1,1.6,0.4c0.4,0.3,0.8,0.7,1,1.1C57.8,384.1,57.9,384.7,57.9,385.4z
			 M52.8,385.4c0,0.5,0.1,1,0.2,1.4c0.2,0.4,0.4,0.7,0.7,0.9c0.3,0.2,0.7,0.3,1.2,0.3c0.5,0,0.9-0.1,1.2-0.3
			c0.3-0.2,0.6-0.5,0.7-0.9c0.2-0.4,0.2-0.9,0.2-1.4c0-0.8-0.2-1.5-0.5-1.9c-0.3-0.5-0.9-0.7-1.6-0.7c-0.5,0-0.9,0.1-1.2,0.3
			s-0.6,0.5-0.7,0.9C52.9,384.4,52.8,384.8,52.8,385.4z"/>
		<path d="M61.3,388.6h-0.8v-5.8h-2v-0.7h4.8v0.7h-2V388.6z"/>
		<path d="M69.9,385.4c0,0.5-0.1,0.9-0.2,1.4c-0.1,0.4-0.3,0.8-0.6,1c-0.2,0.3-0.6,0.5-0.9,0.7s-0.8,0.2-1.3,0.2
			c-0.5,0-0.9-0.1-1.3-0.2c-0.4-0.2-0.7-0.4-0.9-0.7c-0.2-0.3-0.4-0.6-0.5-1.1c-0.1-0.4-0.2-0.9-0.2-1.4c0-0.7,0.1-1.2,0.3-1.7
			s0.5-0.9,1-1.2c0.4-0.3,1-0.4,1.7-0.4c0.6,0,1.2,0.1,1.6,0.4c0.4,0.3,0.8,0.7,1,1.1C69.7,384.1,69.9,384.7,69.9,385.4z
			 M64.7,385.4c0,0.5,0.1,1,0.2,1.4c0.2,0.4,0.4,0.7,0.7,0.9c0.3,0.2,0.7,0.3,1.2,0.3c0.5,0,0.9-0.1,1.2-0.3
			c0.3-0.2,0.6-0.5,0.7-0.9c0.2-0.4,0.2-0.9,0.2-1.4c0-0.8-0.2-1.5-0.5-1.9c-0.3-0.5-0.9-0.7-1.6-0.7c-0.5,0-0.9,0.1-1.2,0.3
			s-0.6,0.5-0.7,0.9C64.8,384.4,64.7,384.8,64.7,385.4z M68.2,380.1L68.2,380.1c-0.1,0.2-0.1,0.3-0.2,0.4c-0.1,0.1-0.2,0.2-0.3,0.4
			c-0.1,0.1-0.2,0.3-0.4,0.4c-0.1,0.1-0.2,0.2-0.3,0.3h-0.5v-0.1c0.1-0.1,0.2-0.2,0.3-0.4c0.1-0.2,0.2-0.3,0.3-0.5
			c0.1-0.2,0.2-0.3,0.3-0.5H68.2z"/>
		<path d="M74,385.2h2.2v3.1c-0.3,0.1-0.7,0.2-1,0.3c-0.4,0.1-0.8,0.1-1.2,0.1c-0.7,0-1.2-0.1-1.7-0.4c-0.5-0.3-0.8-0.6-1-1.1
			c-0.2-0.5-0.4-1.1-0.4-1.8c0-0.7,0.1-1.2,0.4-1.7c0.3-0.5,0.6-0.9,1.1-1.2c0.5-0.3,1.1-0.4,1.8-0.4c0.4,0,0.7,0,1,0.1
			c0.3,0.1,0.6,0.2,0.9,0.3l-0.3,0.7c-0.2-0.1-0.5-0.2-0.8-0.3c-0.3-0.1-0.6-0.1-0.9-0.1c-0.5,0-1,0.1-1.3,0.3
			c-0.4,0.2-0.7,0.5-0.9,0.9c-0.2,0.4-0.3,0.9-0.3,1.4c0,0.5,0.1,1,0.3,1.4c0.2,0.4,0.4,0.7,0.8,0.9s0.8,0.3,1.4,0.3
			c0.3,0,0.5,0,0.7,0c0.2,0,0.4-0.1,0.6-0.1v-2H74V385.2z"/>
		<path d="M79.6,382.2c0.5,0,1,0.1,1.3,0.2c0.3,0.1,0.6,0.3,0.8,0.6s0.3,0.6,0.3,1c0,0.3-0.1,0.6-0.2,0.9c-0.1,0.2-0.3,0.4-0.5,0.6
			s-0.4,0.2-0.6,0.3l1.8,2.9h-0.9l-1.6-2.7h-1.3v2.7h-0.7v-6.4H79.6z M79.5,382.8h-0.9v2.5h1c0.5,0,0.9-0.1,1.2-0.3
			c0.2-0.2,0.4-0.5,0.4-0.9c0-0.4-0.1-0.7-0.4-0.9C80.5,382.9,80.1,382.8,79.5,382.8z"/>
		<path d="M87.4,388.6l-0.8-2H84l-0.8,2h-0.8l2.5-6.5h0.7l2.5,6.5H87.4z M86.4,385.9l-0.8-2c0-0.1,0-0.1-0.1-0.3
			c0-0.1-0.1-0.2-0.1-0.4s-0.1-0.2-0.1-0.3c0,0.1-0.1,0.2-0.1,0.4c0,0.1-0.1,0.2-0.1,0.3c0,0.1-0.1,0.2-0.1,0.3l-0.8,2H86.4z"/>
		<path d="M89.8,388.6h-0.7v-6.4h3.6v0.7h-2.8v2.4h2.7v0.7h-2.7V388.6z"/>
		<path d="M99.3,385.4c0,0.5-0.1,0.9-0.2,1.4c-0.1,0.4-0.3,0.8-0.6,1c-0.2,0.3-0.6,0.5-0.9,0.7s-0.8,0.2-1.3,0.2
			c-0.5,0-0.9-0.1-1.3-0.2c-0.4-0.2-0.7-0.4-0.9-0.7c-0.2-0.3-0.4-0.6-0.5-1.1c-0.1-0.4-0.2-0.9-0.2-1.4c0-0.7,0.1-1.2,0.3-1.7
			s0.5-0.9,1-1.2c0.4-0.3,1-0.4,1.7-0.4c0.6,0,1.2,0.1,1.6,0.4c0.4,0.3,0.8,0.7,1,1.1C99.2,384.1,99.3,384.7,99.3,385.4z
			 M94.2,385.4c0,0.5,0.1,1,0.2,1.4c0.2,0.4,0.4,0.7,0.7,0.9c0.3,0.2,0.7,0.3,1.2,0.3c0.5,0,0.9-0.1,1.2-0.3
			c0.3-0.2,0.6-0.5,0.7-0.9c0.2-0.4,0.2-0.9,0.2-1.4c0-0.8-0.2-1.5-0.5-1.9c-0.3-0.5-0.9-0.7-1.6-0.7c-0.5,0-0.9,0.1-1.2,0.3
			s-0.6,0.5-0.7,0.9C94.3,384.4,94.2,384.8,94.2,385.4z"/>
		<path d="M51.7,405.4l-0.8-2h-2.6l-0.8,2h-0.8l2.5-6.5H50l2.5,6.5H51.7z M50.7,402.7l-0.8-2c0-0.1,0-0.1-0.1-0.3
			c0-0.1-0.1-0.2-0.1-0.4s-0.1-0.2-0.1-0.3c0,0.1-0.1,0.2-0.1,0.4c0,0.1-0.1,0.2-0.1,0.3c0,0.1-0.1,0.2-0.1,0.3l-0.8,2H50.7z"/>
		<path d="M57,403.7c0,0.4-0.1,0.7-0.3,1c-0.2,0.3-0.5,0.5-0.8,0.6s-0.7,0.2-1.2,0.2c-0.2,0-0.5,0-0.7,0s-0.4-0.1-0.6-0.1
			c-0.2,0-0.3-0.1-0.5-0.2v-0.7c0.2,0.1,0.5,0.2,0.8,0.3c0.3,0.1,0.6,0.1,1,0.1c0.3,0,0.6,0,0.8-0.1c0.2-0.1,0.4-0.2,0.5-0.4
			c0.1-0.2,0.2-0.4,0.2-0.6c0-0.2,0-0.4-0.1-0.6c-0.1-0.1-0.3-0.3-0.5-0.4c-0.2-0.1-0.5-0.3-0.9-0.4c-0.3-0.1-0.5-0.2-0.7-0.3
			c-0.2-0.1-0.4-0.2-0.5-0.4c-0.1-0.1-0.2-0.3-0.3-0.5c-0.1-0.2-0.1-0.4-0.1-0.7c0-0.3,0.1-0.6,0.3-0.9c0.2-0.2,0.4-0.4,0.7-0.6
			c0.3-0.1,0.7-0.2,1.1-0.2c0.3,0,0.7,0,1,0.1c0.3,0.1,0.6,0.2,0.8,0.3l-0.2,0.6c-0.2-0.1-0.5-0.2-0.7-0.2c-0.3-0.1-0.5-0.1-0.8-0.1
			s-0.5,0-0.7,0.1c-0.2,0.1-0.3,0.2-0.4,0.3s-0.1,0.3-0.1,0.5c0,0.2,0,0.4,0.1,0.6c0.1,0.1,0.2,0.3,0.5,0.4c0.2,0.1,0.5,0.2,0.8,0.4
			c0.4,0.1,0.7,0.3,1,0.4c0.3,0.2,0.5,0.3,0.6,0.6C56.9,403.1,57,403.3,57,403.7z"/>
		<path d="M58.3,405.4V399h0.7v6.4H58.3z"/>
		<path d="M64.4,403.7c0,0.4-0.1,0.7-0.3,1c-0.2,0.3-0.5,0.5-0.8,0.6s-0.7,0.2-1.2,0.2c-0.2,0-0.5,0-0.7,0s-0.4-0.1-0.6-0.1
			c-0.2,0-0.3-0.1-0.5-0.2v-0.7c0.2,0.1,0.5,0.2,0.8,0.3c0.3,0.1,0.6,0.1,1,0.1c0.3,0,0.6,0,0.8-0.1c0.2-0.1,0.4-0.2,0.5-0.4
			c0.1-0.2,0.2-0.4,0.2-0.6c0-0.2,0-0.4-0.1-0.6c-0.1-0.1-0.3-0.3-0.5-0.4c-0.2-0.1-0.5-0.3-0.9-0.4c-0.3-0.1-0.5-0.2-0.7-0.3
			c-0.2-0.1-0.4-0.2-0.5-0.4c-0.1-0.1-0.2-0.3-0.3-0.5c-0.1-0.2-0.1-0.4-0.1-0.7c0-0.3,0.1-0.6,0.3-0.9c0.2-0.2,0.4-0.4,0.7-0.6
			c0.3-0.1,0.7-0.2,1.1-0.2c0.3,0,0.7,0,1,0.1c0.3,0.1,0.6,0.2,0.8,0.3l-0.2,0.6c-0.2-0.1-0.5-0.2-0.7-0.2c-0.3-0.1-0.5-0.1-0.8-0.1
			s-0.5,0-0.7,0.1c-0.2,0.1-0.3,0.2-0.4,0.3s-0.1,0.3-0.1,0.5c0,0.2,0,0.4,0.1,0.6c0.1,0.1,0.2,0.3,0.5,0.4c0.2,0.1,0.5,0.2,0.8,0.4
			c0.4,0.1,0.7,0.3,1,0.4c0.3,0.2,0.5,0.3,0.6,0.6C64.4,403.1,64.4,403.3,64.4,403.7z"/>
		<path d="M67.7,405.4H67v-5.8h-2V399h4.8v0.7h-2V405.4z"/>
		<path d="M74.3,405.4h-3.6V399h3.6v0.7h-2.8v2.1h2.7v0.7h-2.7v2.4h2.8V405.4z"/>
		<path d="M80.7,405.4h-0.9l-3.5-5.4h0c0,0.1,0,0.3,0,0.5c0,0.2,0,0.4,0,0.6c0,0.2,0,0.4,0,0.6v3.7h-0.7V399h0.9l3.5,5.4h0
			c0-0.1,0-0.2,0-0.4c0-0.2,0-0.4,0-0.6c0-0.2,0-0.4,0-0.6V399h0.7V405.4z"/>
		<path d="M84.5,405.4h-0.8v-5.8h-2V399h4.8v0.7h-2V405.4z"/>
		<path d="M91,405.4h-3.6V399H91v0.7h-2.8v2.1h2.7v0.7h-2.7v2.4H91V405.4z"/>
		<path d="M48.4,416.2h-0.7v-6.4h3.6v0.7h-2.8v2.4h2.7v0.7h-2.7V416.2z"/>
		<path d="M57.9,413c0,0.5-0.1,0.9-0.2,1.4c-0.1,0.4-0.3,0.8-0.6,1c-0.2,0.3-0.6,0.5-0.9,0.7s-0.8,0.2-1.3,0.2
			c-0.5,0-0.9-0.1-1.3-0.2c-0.4-0.2-0.7-0.4-0.9-0.7c-0.2-0.3-0.4-0.6-0.5-1.1c-0.1-0.4-0.2-0.9-0.2-1.4c0-0.7,0.1-1.2,0.3-1.7
			s0.5-0.9,1-1.2c0.4-0.3,1-0.4,1.7-0.4c0.6,0,1.2,0.1,1.6,0.4c0.4,0.3,0.8,0.7,1,1.1C57.8,411.7,57.9,412.3,57.9,413z M52.8,413
			c0,0.5,0.1,1,0.2,1.4c0.2,0.4,0.4,0.7,0.7,0.9c0.3,0.2,0.7,0.3,1.2,0.3c0.5,0,0.9-0.1,1.2-0.3c0.3-0.2,0.6-0.5,0.7-0.9
			c0.2-0.4,0.2-0.9,0.2-1.4c0-0.8-0.2-1.5-0.5-1.9c-0.3-0.5-0.9-0.7-1.6-0.7c-0.5,0-0.9,0.1-1.2,0.3s-0.6,0.5-0.7,0.9
			C52.9,412,52.8,412.4,52.8,413z"/>
		<path d="M61.3,416.2h-0.8v-5.8h-2v-0.7h4.8v0.7h-2V416.2z"/>
		<path d="M69.9,413c0,0.5-0.1,0.9-0.2,1.4c-0.1,0.4-0.3,0.8-0.6,1c-0.2,0.3-0.6,0.5-0.9,0.7s-0.8,0.2-1.3,0.2
			c-0.5,0-0.9-0.1-1.3-0.2c-0.4-0.2-0.7-0.4-0.9-0.7c-0.2-0.3-0.4-0.6-0.5-1.1c-0.1-0.4-0.2-0.9-0.2-1.4c0-0.7,0.1-1.2,0.3-1.7
			s0.5-0.9,1-1.2c0.4-0.3,1-0.4,1.7-0.4c0.6,0,1.2,0.1,1.6,0.4c0.4,0.3,0.8,0.7,1,1.1C69.7,411.7,69.9,412.3,69.9,413z M64.7,413
			c0,0.5,0.1,1,0.2,1.4c0.2,0.4,0.4,0.7,0.7,0.9c0.3,0.2,0.7,0.3,1.2,0.3c0.5,0,0.9-0.1,1.2-0.3c0.3-0.2,0.6-0.5,0.7-0.9
			c0.2-0.4,0.2-0.9,0.2-1.4c0-0.8-0.2-1.5-0.5-1.9c-0.3-0.5-0.9-0.7-1.6-0.7c-0.5,0-0.9,0.1-1.2,0.3s-0.6,0.5-0.7,0.9
			C64.8,412,64.7,412.4,64.7,413z M68.2,407.7L68.2,407.7c-0.1,0.2-0.1,0.3-0.2,0.4c-0.1,0.1-0.2,0.2-0.3,0.4
			c-0.1,0.1-0.2,0.3-0.4,0.4c-0.1,0.1-0.2,0.2-0.3,0.3h-0.5V409c0.1-0.1,0.2-0.2,0.3-0.4c0.1-0.2,0.2-0.3,0.3-0.5
			c0.1-0.2,0.2-0.3,0.3-0.5H68.2z"/>
		<path d="M74,412.8h2.2v3.1c-0.3,0.1-0.7,0.2-1,0.3c-0.4,0.1-0.8,0.1-1.2,0.1c-0.7,0-1.2-0.1-1.7-0.4c-0.5-0.3-0.8-0.6-1-1.1
			c-0.2-0.5-0.4-1.1-0.4-1.8c0-0.7,0.1-1.2,0.4-1.7c0.3-0.5,0.6-0.9,1.1-1.2c0.5-0.3,1.1-0.4,1.8-0.4c0.4,0,0.7,0,1,0.1
			c0.3,0.1,0.6,0.2,0.9,0.3l-0.3,0.7c-0.2-0.1-0.5-0.2-0.8-0.3c-0.3-0.1-0.6-0.1-0.9-0.1c-0.5,0-1,0.1-1.3,0.3
			c-0.4,0.2-0.7,0.5-0.9,0.9c-0.2,0.4-0.3,0.9-0.3,1.4c0,0.5,0.1,1,0.3,1.4c0.2,0.4,0.4,0.7,0.8,0.9s0.8,0.3,1.4,0.3
			c0.3,0,0.5,0,0.7,0c0.2,0,0.4-0.1,0.6-0.1v-2H74V412.8z"/>
		<path d="M79.6,409.8c0.5,0,1,0.1,1.3,0.2c0.3,0.1,0.6,0.3,0.8,0.6s0.3,0.6,0.3,1c0,0.3-0.1,0.6-0.2,0.9c-0.1,0.2-0.3,0.4-0.5,0.6
			s-0.4,0.2-0.6,0.3l1.8,2.9h-0.9l-1.6-2.7h-1.3v2.7h-0.7v-6.4H79.6z M79.5,410.4h-0.9v2.5h1c0.5,0,0.9-0.1,1.2-0.3
			c0.2-0.2,0.4-0.5,0.4-0.9c0-0.4-0.1-0.7-0.4-0.9C80.5,410.5,80.1,410.4,79.5,410.4z"/>
		<path d="M87.4,416.2l-0.8-2H84l-0.8,2h-0.8l2.5-6.5h0.7l2.5,6.5H87.4z M86.4,413.5l-0.8-2c0-0.1,0-0.1-0.1-0.3
			c0-0.1-0.1-0.2-0.1-0.4s-0.1-0.2-0.1-0.3c0,0.1-0.1,0.2-0.1,0.4c0,0.1-0.1,0.2-0.1,0.3c0,0.1-0.1,0.2-0.1,0.3l-0.8,2H86.4z"/>
		<path d="M89.8,416.2h-0.7v-6.4h3.6v0.7h-2.8v2.4h2.7v0.7h-2.7V416.2z"/>
		<path d="M99.3,413c0,0.5-0.1,0.9-0.2,1.4c-0.1,0.4-0.3,0.8-0.6,1c-0.2,0.3-0.6,0.5-0.9,0.7s-0.8,0.2-1.3,0.2
			c-0.5,0-0.9-0.1-1.3-0.2c-0.4-0.2-0.7-0.4-0.9-0.7c-0.2-0.3-0.4-0.6-0.5-1.1c-0.1-0.4-0.2-0.9-0.2-1.4c0-0.7,0.1-1.2,0.3-1.7
			s0.5-0.9,1-1.2c0.4-0.3,1-0.4,1.7-0.4c0.6,0,1.2,0.1,1.6,0.4c0.4,0.3,0.8,0.7,1,1.1C99.2,411.7,99.3,412.3,99.3,413z M94.2,413
			c0,0.5,0.1,1,0.2,1.4c0.2,0.4,0.4,0.7,0.7,0.9c0.3,0.2,0.7,0.3,1.2,0.3c0.5,0,0.9-0.1,1.2-0.3c0.3-0.2,0.6-0.5,0.7-0.9
			c0.2-0.4,0.2-0.9,0.2-1.4c0-0.8-0.2-1.5-0.5-1.9c-0.3-0.5-0.9-0.7-1.6-0.7c-0.5,0-0.9,0.1-1.2,0.3s-0.6,0.5-0.7,0.9
			C94.3,412,94.2,412.4,94.2,413z"/>
		<path d="M49.4,426.6c0.8,0,1.4,0.2,1.8,0.5c0.4,0.3,0.6,0.8,0.6,1.4c0,0.3,0,0.5-0.1,0.8c-0.1,0.2-0.2,0.5-0.4,0.6
			c-0.2,0.2-0.5,0.3-0.8,0.4c-0.3,0.1-0.7,0.2-1.2,0.2h-0.8v2.5h-0.7v-6.4H49.4z M49.3,427.2h-0.9v2.6h0.7c0.4,0,0.8,0,1-0.1
			c0.3-0.1,0.5-0.2,0.6-0.4c0.1-0.2,0.2-0.5,0.2-0.8c0-0.4-0.1-0.7-0.4-1C50.3,427.3,49.9,427.2,49.3,427.2z"/>
		<path d="M54.8,426.6c0.5,0,1,0.1,1.3,0.2c0.3,0.1,0.6,0.3,0.8,0.6s0.3,0.6,0.3,1c0,0.3-0.1,0.6-0.2,0.9c-0.1,0.2-0.3,0.4-0.5,0.6
			s-0.4,0.2-0.6,0.3l1.8,2.9h-0.9l-1.6-2.7h-1.3v2.7h-0.7v-6.4H54.8z M54.8,427.2h-0.9v2.5h1c0.5,0,0.9-0.1,1.2-0.3
			c0.2-0.2,0.4-0.5,0.4-0.9c0-0.4-0.1-0.7-0.4-0.9C55.7,427.3,55.3,427.2,54.8,427.2z"/>
		<path d="M64.2,429.8c0,0.5-0.1,0.9-0.2,1.4c-0.1,0.4-0.3,0.8-0.6,1c-0.2,0.3-0.6,0.5-0.9,0.7s-0.8,0.2-1.3,0.2
			c-0.5,0-0.9-0.1-1.3-0.2c-0.4-0.2-0.7-0.4-0.9-0.7c-0.2-0.3-0.4-0.6-0.5-1.1c-0.1-0.4-0.2-0.9-0.2-1.4c0-0.7,0.1-1.2,0.3-1.7
			s0.5-0.9,1-1.2c0.4-0.3,1-0.4,1.7-0.4c0.6,0,1.2,0.1,1.6,0.4c0.4,0.3,0.8,0.7,1,1.1C64.1,428.5,64.2,429.1,64.2,429.8z
			 M59.1,429.8c0,0.5,0.1,1,0.2,1.4c0.2,0.4,0.4,0.7,0.7,0.9c0.3,0.2,0.7,0.3,1.2,0.3c0.5,0,0.9-0.1,1.2-0.3
			c0.3-0.2,0.6-0.5,0.7-0.9c0.2-0.4,0.2-0.9,0.2-1.4c0-0.8-0.2-1.5-0.5-1.9c-0.3-0.5-0.9-0.7-1.6-0.7c-0.5,0-0.9,0.1-1.2,0.3
			s-0.6,0.5-0.7,0.9C59.2,428.8,59.1,429.2,59.1,429.8z"/>
		<path d="M70.7,429.7c0,0.7-0.1,1.3-0.4,1.8c-0.3,0.5-0.6,0.8-1.1,1.1c-0.5,0.2-1.1,0.4-1.8,0.4h-1.7v-6.4h1.9
			c0.7,0,1.2,0.1,1.7,0.4c0.5,0.2,0.8,0.6,1.1,1.1C70.6,428.5,70.7,429,70.7,429.7z M70,429.7c0-0.6-0.1-1.1-0.3-1.4
			c-0.2-0.4-0.5-0.7-0.8-0.8c-0.4-0.2-0.8-0.3-1.4-0.3h-1.1v5.1h0.9c0.9,0,1.5-0.2,2-0.7C69.7,431.3,70,430.6,70,429.7z"/>
		<path d="M77,426.6v4.2c0,0.5-0.1,0.9-0.3,1.2c-0.2,0.4-0.5,0.6-0.8,0.8c-0.4,0.2-0.8,0.3-1.4,0.3c-0.8,0-1.4-0.2-1.8-0.6
			c-0.4-0.4-0.6-1-0.6-1.7v-4.1h0.8v4.2c0,0.5,0.1,1,0.4,1.3c0.3,0.3,0.7,0.4,1.3,0.4c0.4,0,0.7-0.1,1-0.2c0.3-0.1,0.4-0.3,0.6-0.6
			c0.1-0.3,0.2-0.6,0.2-0.9v-4.2H77z"/>
		<path d="M81.5,427.1c-0.4,0-0.7,0.1-1,0.2c-0.3,0.1-0.5,0.3-0.7,0.5c-0.2,0.2-0.3,0.5-0.5,0.8s-0.2,0.7-0.2,1.1
			c0,0.5,0.1,1,0.3,1.4c0.2,0.4,0.4,0.7,0.8,0.9c0.3,0.2,0.8,0.3,1.3,0.3c0.3,0,0.6,0,0.8-0.1c0.3,0,0.5-0.1,0.7-0.2v0.7
			c-0.2,0.1-0.5,0.2-0.7,0.2c-0.3,0-0.6,0.1-0.9,0.1c-0.7,0-1.2-0.1-1.6-0.4c-0.4-0.3-0.8-0.7-1-1.1c-0.2-0.5-0.3-1.1-0.3-1.8
			c0-0.5,0.1-0.9,0.2-1.3c0.1-0.4,0.3-0.8,0.6-1c0.3-0.3,0.6-0.5,1-0.7c0.4-0.2,0.8-0.2,1.3-0.2c0.3,0,0.6,0,0.9,0.1
			s0.6,0.2,0.8,0.3l-0.3,0.6c-0.2-0.1-0.4-0.2-0.7-0.2C82,427.2,81.8,427.1,81.5,427.1z"/>
		<path d="M86.4,433h-0.8v-5.8h-2v-0.7h4.8v0.7h-2V433z"/>
		<path d="M94.9,429.8c0,0.5-0.1,0.9-0.2,1.4c-0.1,0.4-0.3,0.8-0.6,1c-0.2,0.3-0.6,0.5-0.9,0.7s-0.8,0.2-1.3,0.2
			c-0.5,0-0.9-0.1-1.3-0.2c-0.4-0.2-0.7-0.4-0.9-0.7c-0.2-0.3-0.4-0.6-0.5-1.1c-0.1-0.4-0.2-0.9-0.2-1.4c0-0.7,0.1-1.2,0.3-1.7
			s0.5-0.9,1-1.2c0.4-0.3,1-0.4,1.7-0.4c0.6,0,1.2,0.1,1.6,0.4c0.4,0.3,0.8,0.7,1,1.1C94.8,428.5,94.9,429.1,94.9,429.8z
			 M89.8,429.8c0,0.5,0.1,1,0.2,1.4c0.2,0.4,0.4,0.7,0.7,0.9c0.3,0.2,0.7,0.3,1.2,0.3c0.5,0,0.9-0.1,1.2-0.3
			c0.3-0.2,0.6-0.5,0.7-0.9c0.2-0.4,0.2-0.9,0.2-1.4c0-0.8-0.2-1.5-0.5-1.9c-0.3-0.5-0.9-0.7-1.6-0.7c-0.5,0-0.9,0.1-1.2,0.3
			s-0.6,0.5-0.7,0.9C89.9,428.8,89.8,429.2,89.8,429.8z"/>
		<path d="M98.1,426.6c0.5,0,1,0.1,1.3,0.2c0.3,0.1,0.6,0.3,0.8,0.6s0.3,0.6,0.3,1c0,0.3-0.1,0.6-0.2,0.9c-0.1,0.2-0.3,0.4-0.5,0.6
			s-0.4,0.2-0.6,0.3l1.8,2.9H100l-1.6-2.7h-1.3v2.7h-0.7v-6.4H98.1z M98.1,427.2h-0.9v2.5h1c0.5,0,0.9-0.1,1.2-0.3
			c0.2-0.2,0.4-0.5,0.4-0.9c0-0.4-0.1-0.7-0.4-0.9C99,427.3,98.6,427.2,98.1,427.2z"/>
		<path d="M106,433l-0.8-2h-2.6l-0.8,2H101l2.5-6.5h0.7l2.5,6.5H106z M104.9,430.3l-0.8-2c0-0.1,0-0.1-0.1-0.3
			c0-0.1-0.1-0.2-0.1-0.4s-0.1-0.2-0.1-0.3c0,0.1-0.1,0.2-0.1,0.4c0,0.1-0.1,0.2-0.1,0.3c0,0.1-0.1,0.2-0.1,0.3l-0.8,2H104.9z"/>
		<path d="M52.8,440.5c0,0.7-0.1,1.3-0.4,1.8c-0.3,0.5-0.6,0.8-1.1,1.1c-0.5,0.2-1.1,0.4-1.8,0.4h-1.7v-6.4h1.9
			c0.7,0,1.2,0.1,1.7,0.4c0.5,0.2,0.8,0.6,1.1,1.1C52.7,439.3,52.8,439.8,52.8,440.5z M52,440.5c0-0.6-0.1-1.1-0.3-1.4
			c-0.2-0.4-0.5-0.7-0.8-0.8c-0.4-0.2-0.8-0.3-1.4-0.3h-1.1v5.1h0.9c0.9,0,1.5-0.2,2-0.7C51.8,442.1,52,441.4,52,440.5z"/>
		<path d="M57.8,443.8h-3.6v-6.4h3.6v0.7H55v2.1h2.7v0.7H55v2.4h2.8V443.8z"/>
		<path d="M64.4,443.8l-2.2-5.7h0c0,0.1,0,0.3,0,0.4s0,0.4,0,0.6c0,0.2,0,0.4,0,0.6v4.1h-0.7v-6.4h1.1l2,5.3h0l2.1-5.3h1.1v6.4h-0.7
			v-4.1c0-0.2,0-0.4,0-0.6c0-0.2,0-0.4,0-0.5c0-0.2,0-0.3,0-0.4h0l-2.2,5.7H64.4z"/>
		<path d="M75.2,440.6c0,0.5-0.1,0.9-0.2,1.4c-0.1,0.4-0.3,0.8-0.6,1c-0.2,0.3-0.6,0.5-0.9,0.7s-0.8,0.2-1.3,0.2
			c-0.5,0-0.9-0.1-1.3-0.2c-0.4-0.2-0.7-0.4-0.9-0.7c-0.2-0.3-0.4-0.6-0.5-1.1c-0.1-0.4-0.2-0.9-0.2-1.4c0-0.7,0.1-1.2,0.3-1.7
			s0.5-0.9,1-1.2c0.4-0.3,1-0.4,1.7-0.4c0.6,0,1.2,0.1,1.6,0.4c0.4,0.3,0.8,0.7,1,1.1C75.1,439.3,75.2,439.9,75.2,440.6z
			 M70.1,440.6c0,0.5,0.1,1,0.2,1.4c0.2,0.4,0.4,0.7,0.7,0.9c0.3,0.2,0.7,0.3,1.2,0.3c0.5,0,0.9-0.1,1.2-0.3
			c0.3-0.2,0.6-0.5,0.7-0.9c0.2-0.4,0.2-0.9,0.2-1.4c0-0.8-0.2-1.5-0.5-1.9c-0.3-0.5-0.9-0.7-1.6-0.7c-0.5,0-0.9,0.1-1.2,0.3
			s-0.6,0.5-0.7,0.9C70.2,439.6,70.1,440,70.1,440.6z"/>
		<path d="M81.7,440.5c0,0.7-0.1,1.3-0.4,1.8c-0.3,0.5-0.6,0.8-1.1,1.1c-0.5,0.2-1.1,0.4-1.8,0.4h-1.7v-6.4h1.9
			c0.7,0,1.2,0.1,1.7,0.4c0.5,0.2,0.8,0.6,1.1,1.1C81.6,439.3,81.7,439.8,81.7,440.5z M81,440.5c0-0.6-0.1-1.1-0.3-1.4
			c-0.2-0.4-0.5-0.7-0.8-0.8c-0.4-0.2-0.8-0.3-1.4-0.3h-1.1v5.1h0.9c0.9,0,1.5-0.2,2-0.7C80.7,442.1,81,441.4,81,440.5z"/>
		<path d="M87.2,443.8l-0.8-2h-2.6l-0.8,2h-0.8l2.5-6.5h0.7l2.5,6.5H87.2z M86.2,441.1l-0.8-2c0-0.1,0-0.1-0.1-0.3
			c0-0.1-0.1-0.2-0.1-0.4s-0.1-0.2-0.1-0.3c0,0.1-0.1,0.2-0.1,0.4c0,0.1-0.1,0.2-0.1,0.3c0,0.1-0.1,0.2-0.1,0.3l-0.8,2H86.2z"/>
		<path d="M51.7,460.6l-0.8-2h-2.6l-0.8,2h-0.8l2.5-6.5H50l2.5,6.5H51.7z M50.7,457.9l-0.8-2c0-0.1,0-0.1-0.1-0.3
			c0-0.1-0.1-0.2-0.1-0.4s-0.1-0.2-0.1-0.3c0,0.1-0.1,0.2-0.1,0.4c0,0.1-0.1,0.2-0.1,0.3c0,0.1-0.1,0.2-0.1,0.3l-0.8,2H50.7z"/>
		<path d="M57,458.9c0,0.4-0.1,0.7-0.3,1c-0.2,0.3-0.5,0.5-0.8,0.6s-0.7,0.2-1.2,0.2c-0.2,0-0.5,0-0.7,0s-0.4-0.1-0.6-0.1
			c-0.2,0-0.3-0.1-0.5-0.2v-0.7c0.2,0.1,0.5,0.2,0.8,0.3c0.3,0.1,0.6,0.1,1,0.1c0.3,0,0.6,0,0.8-0.1c0.2-0.1,0.4-0.2,0.5-0.4
			c0.1-0.2,0.2-0.4,0.2-0.6c0-0.2,0-0.4-0.1-0.6c-0.1-0.1-0.3-0.3-0.5-0.4c-0.2-0.1-0.5-0.3-0.9-0.4c-0.3-0.1-0.5-0.2-0.7-0.3
			c-0.2-0.1-0.4-0.2-0.5-0.4c-0.1-0.1-0.2-0.3-0.3-0.5c-0.1-0.2-0.1-0.4-0.1-0.7c0-0.3,0.1-0.6,0.3-0.9c0.2-0.2,0.4-0.4,0.7-0.6
			c0.3-0.1,0.7-0.2,1.1-0.2c0.3,0,0.7,0,1,0.1c0.3,0.1,0.6,0.2,0.8,0.3l-0.2,0.6c-0.2-0.1-0.5-0.2-0.7-0.2c-0.3-0.1-0.5-0.1-0.8-0.1
			s-0.5,0-0.7,0.1c-0.2,0.1-0.3,0.2-0.4,0.3s-0.1,0.3-0.1,0.5c0,0.2,0,0.4,0.1,0.6c0.1,0.1,0.2,0.3,0.5,0.4c0.2,0.1,0.5,0.2,0.8,0.4
			c0.4,0.1,0.7,0.3,1,0.4c0.3,0.2,0.5,0.3,0.6,0.6C56.9,458.3,57,458.5,57,458.9z"/>
		<path d="M58.3,460.6v-6.4h0.7v6.4H58.3z"/>
		<path d="M64.4,458.9c0,0.4-0.1,0.7-0.3,1c-0.2,0.3-0.5,0.5-0.8,0.6s-0.7,0.2-1.2,0.2c-0.2,0-0.5,0-0.7,0s-0.4-0.1-0.6-0.1
			c-0.2,0-0.3-0.1-0.5-0.2v-0.7c0.2,0.1,0.5,0.2,0.8,0.3c0.3,0.1,0.6,0.1,1,0.1c0.3,0,0.6,0,0.8-0.1c0.2-0.1,0.4-0.2,0.5-0.4
			c0.1-0.2,0.2-0.4,0.2-0.6c0-0.2,0-0.4-0.1-0.6c-0.1-0.1-0.3-0.3-0.5-0.4c-0.2-0.1-0.5-0.3-0.9-0.4c-0.3-0.1-0.5-0.2-0.7-0.3
			c-0.2-0.1-0.4-0.2-0.5-0.4c-0.1-0.1-0.2-0.3-0.3-0.5c-0.1-0.2-0.1-0.4-0.1-0.7c0-0.3,0.1-0.6,0.3-0.9c0.2-0.2,0.4-0.4,0.7-0.6
			c0.3-0.1,0.7-0.2,1.1-0.2c0.3,0,0.7,0,1,0.1c0.3,0.1,0.6,0.2,0.8,0.3l-0.2,0.6c-0.2-0.1-0.5-0.2-0.7-0.2c-0.3-0.1-0.5-0.1-0.8-0.1
			s-0.5,0-0.7,0.1c-0.2,0.1-0.3,0.2-0.4,0.3s-0.1,0.3-0.1,0.5c0,0.2,0,0.4,0.1,0.6c0.1,0.1,0.2,0.3,0.5,0.4c0.2,0.1,0.5,0.2,0.8,0.4
			c0.4,0.1,0.7,0.3,1,0.4c0.3,0.2,0.5,0.3,0.6,0.6C64.4,458.3,64.4,458.5,64.4,458.9z"/>
		<path d="M67.7,460.6H67v-5.8h-2v-0.7h4.8v0.7h-2V460.6z"/>
		<path d="M74.3,460.6h-3.6v-6.4h3.6v0.7h-2.8v2.1h2.7v0.7h-2.7v2.4h2.8V460.6z"/>
		<path d="M80.7,460.6h-0.9l-3.5-5.4h0c0,0.1,0,0.3,0,0.5c0,0.2,0,0.4,0,0.6c0,0.2,0,0.4,0,0.6v3.7h-0.7v-6.4h0.9l3.5,5.4h0
			c0-0.1,0-0.2,0-0.4c0-0.2,0-0.4,0-0.6c0-0.2,0-0.4,0-0.6v-3.7h0.7V460.6z"/>
		<path d="M84.5,460.6h-0.8v-5.8h-2v-0.7h4.8v0.7h-2V460.6z"/>
		<path d="M91,460.6h-3.6v-6.4H91v0.7h-2.8v2.1h2.7v0.7h-2.7v2.4H91V460.6z"/>
		<path d="M52.2,465l-2.3,6.4h-0.8l-2.3-6.4h0.8l1.5,4.2c0.1,0.2,0.1,0.3,0.2,0.5c0,0.2,0.1,0.3,0.1,0.4s0.1,0.3,0.1,0.4
			c0-0.1,0.1-0.3,0.1-0.4c0-0.1,0.1-0.3,0.1-0.5c0-0.2,0.1-0.3,0.2-0.5l1.5-4.2H52.2z"/>
		<path d="M56.6,471.4H53V465h3.6v0.7h-2.8v2.1h2.7v0.7h-2.7v2.4h2.8V471.4z"/>
		<path d="M61.7,469.7c0,0.4-0.1,0.7-0.3,1c-0.2,0.3-0.5,0.5-0.8,0.6s-0.7,0.2-1.2,0.2c-0.2,0-0.5,0-0.7,0s-0.4-0.1-0.6-0.1
			c-0.2,0-0.3-0.1-0.5-0.2v-0.7c0.2,0.1,0.5,0.2,0.8,0.3c0.3,0.1,0.6,0.1,1,0.1c0.3,0,0.6,0,0.8-0.1c0.2-0.1,0.4-0.2,0.5-0.4
			c0.1-0.2,0.2-0.4,0.2-0.6c0-0.2,0-0.4-0.1-0.6c-0.1-0.1-0.3-0.3-0.5-0.4c-0.2-0.1-0.5-0.3-0.9-0.4c-0.3-0.1-0.5-0.2-0.7-0.3
			c-0.2-0.1-0.4-0.2-0.5-0.4c-0.1-0.1-0.2-0.3-0.3-0.5c-0.1-0.2-0.1-0.4-0.1-0.7c0-0.3,0.1-0.6,0.3-0.9c0.2-0.2,0.4-0.4,0.7-0.6
			c0.3-0.1,0.7-0.2,1.1-0.2c0.3,0,0.7,0,1,0.1c0.3,0.1,0.6,0.2,0.8,0.3l-0.2,0.6c-0.2-0.1-0.5-0.2-0.7-0.2c-0.3-0.1-0.5-0.1-0.8-0.1
			s-0.5,0-0.7,0.1c-0.2,0.1-0.3,0.2-0.4,0.3s-0.1,0.3-0.1,0.5c0,0.2,0,0.4,0.1,0.6c0.1,0.1,0.2,0.3,0.5,0.4c0.2,0.1,0.5,0.2,0.8,0.4
			c0.4,0.1,0.7,0.3,1,0.4c0.3,0.2,0.5,0.3,0.6,0.6C61.6,469.1,61.7,469.3,61.7,469.7z"/>
		<path d="M65,471.4h-0.8v-5.8h-2V465H67v0.7h-2V471.4z"/>
		<path d="M72.8,465v4.2c0,0.5-0.1,0.9-0.3,1.2c-0.2,0.4-0.5,0.6-0.8,0.8c-0.4,0.2-0.8,0.3-1.4,0.3c-0.8,0-1.4-0.2-1.8-0.6
			c-0.4-0.4-0.6-1-0.6-1.7V465h0.8v4.2c0,0.5,0.1,1,0.4,1.3c0.3,0.3,0.7,0.4,1.3,0.4c0.4,0,0.7-0.1,1-0.2c0.3-0.1,0.4-0.3,0.6-0.6
			c0.1-0.3,0.2-0.6,0.2-0.9V465H72.8z"/>
		<path d="M78.5,471.4l-0.8-2h-2.6l-0.8,2h-0.8l2.5-6.5h0.7l2.5,6.5H78.5z M77.5,468.7l-0.8-2c0-0.1,0-0.1-0.1-0.3
			c0-0.1-0.1-0.2-0.1-0.4s-0.1-0.2-0.1-0.3c0,0.1-0.1,0.2-0.1,0.4c0,0.1-0.1,0.2-0.1,0.3c0,0.1-0.1,0.2-0.1,0.3l-0.8,2H77.5z"/>
		<path d="M81.9,465c0.5,0,1,0.1,1.3,0.2c0.3,0.1,0.6,0.3,0.8,0.6s0.3,0.6,0.3,1c0,0.3-0.1,0.6-0.2,0.9c-0.1,0.2-0.3,0.4-0.5,0.6
			s-0.4,0.2-0.6,0.3l1.8,2.9h-0.9l-1.6-2.7h-1.3v2.7h-0.7V465H81.9z M81.9,465.6h-0.9v2.5h1c0.5,0,0.9-0.1,1.2-0.3
			c0.2-0.2,0.4-0.5,0.4-0.9c0-0.4-0.1-0.7-0.4-0.9C82.8,465.7,82.4,465.6,81.9,465.6z"/>
		<path d="M85.7,471.4V465h0.7v6.4H85.7z"/>
		<path d="M91.9,469.7c0,0.4-0.1,0.7-0.3,1c-0.2,0.3-0.5,0.5-0.8,0.6s-0.7,0.2-1.2,0.2c-0.2,0-0.5,0-0.7,0s-0.4-0.1-0.6-0.1
			c-0.2,0-0.3-0.1-0.5-0.2v-0.7c0.2,0.1,0.5,0.2,0.8,0.3c0.3,0.1,0.6,0.1,1,0.1c0.3,0,0.6,0,0.8-0.1c0.2-0.1,0.4-0.2,0.5-0.4
			c0.1-0.2,0.2-0.4,0.2-0.6c0-0.2,0-0.4-0.1-0.6c-0.1-0.1-0.3-0.3-0.5-0.4c-0.2-0.1-0.5-0.3-0.9-0.4c-0.3-0.1-0.5-0.2-0.7-0.3
			c-0.2-0.1-0.4-0.2-0.5-0.4c-0.1-0.1-0.2-0.3-0.3-0.5c-0.1-0.2-0.1-0.4-0.1-0.7c0-0.3,0.1-0.6,0.3-0.9c0.2-0.2,0.4-0.4,0.7-0.6
			c0.3-0.1,0.7-0.2,1.1-0.2c0.3,0,0.7,0,1,0.1c0.3,0.1,0.6,0.2,0.8,0.3l-0.2,0.6c-0.2-0.1-0.5-0.2-0.7-0.2c-0.3-0.1-0.5-0.1-0.8-0.1
			s-0.5,0-0.7,0.1c-0.2,0.1-0.3,0.2-0.4,0.3s-0.1,0.3-0.1,0.5c0,0.2,0,0.4,0.1,0.6c0.1,0.1,0.2,0.3,0.5,0.4c0.2,0.1,0.5,0.2,0.8,0.4
			c0.4,0.1,0.7,0.3,1,0.4c0.3,0.2,0.5,0.3,0.6,0.6C91.8,469.1,91.9,469.3,91.9,469.7z"/>
		<path d="M95.2,471.4h-0.8v-5.8h-2V465h4.8v0.7h-2V471.4z"/>
		<path d="M102.2,471.4l-0.8-2h-2.6l-0.8,2h-0.8l2.5-6.5h0.7l2.5,6.5H102.2z M101.2,468.7l-0.8-2c0-0.1,0-0.1-0.1-0.3
			c0-0.1-0.1-0.2-0.1-0.4s-0.1-0.2-0.1-0.3c0,0.1-0.1,0.2-0.1,0.4c0,0.1-0.1,0.2-0.1,0.3c0,0.1-0.1,0.2-0.1,0.3l-0.8,2H101.2z"/>
	</g>
	<g>
		<g>
			<path d="M38.8,337.6v8h-8v-8H38.8 M39.8,336.6h-10v10h10V336.6L39.8,336.6z"/>
		</g>
		<polygon class="st0" points="28.3,340.1 34.8,344.7 42.3,334.1 34.8,341.9 		"/>
	</g>
	<g>
		<g>
			<path d="M38.8,354.6v8h-8v-8H38.8 M39.8,353.6h-10v10h10V353.6L39.8,353.6z"/>
		</g>
		<polygon class="st0" points="28.3,357.1 34.8,361.7 42.3,351.1 34.8,358.9 		"/>
	</g>
	<g>
		<g>
			<path d="M38.8,381.6v8h-8v-8H38.8 M39.8,380.6h-10v10h10V380.6L39.8,380.6z"/>
		</g>
		<polygon class="st0" points="28.3,384.1 34.8,388.7 42.3,378.1 34.8,385.9 		"/>
	</g>
	<g>
		<g>
			<path d="M38.8,399.6v8h-8v-8H38.8 M39.8,398.6h-10v10h10V398.6L39.8,398.6z"/>
		</g>
		<polygon class="st0" points="28.3,402.1 34.8,406.7 42.3,396.1 34.8,403.9 		"/>
	</g>
	<g>
		<g>
			<path d="M38.8,426.6v8h-8v-8H38.8 M39.8,425.6h-10v10h10V425.6L39.8,425.6z"/>
		</g>
		<polygon class="st0" points="28.3,429.1 34.8,433.7 42.3,423.1 34.8,430.9 		"/>
	</g>
	<g>
		<g>
			<path d="M38.8,454.6v8h-8v-8H38.8 M39.8,453.6h-10v10h10V453.6L39.8,453.6z"/>
		</g>
		<polygon class="st0" points="28.3,457.1 34.8,461.7 42.3,451.1 34.8,458.9 		"/>
	</g>
	<g>
		<path d="M158.8,343.4l-2.2-5.7h0c0,0.1,0,0.3,0,0.4c0,0.2,0,0.4,0,0.6c0,0.2,0,0.4,0,0.6v4.1H156V337h1.1l2,5.3h0l2.1-5.3h1.1v6.4
			h-0.7v-4.1c0-0.2,0-0.4,0-0.6c0-0.2,0-0.4,0-0.5c0-0.2,0-0.3,0-0.4h0l-2.2,5.7H158.8z"/>
		<path d="M169.6,340.2c0,0.5-0.1,0.9-0.2,1.4c-0.1,0.4-0.3,0.8-0.6,1c-0.2,0.3-0.6,0.5-0.9,0.7s-0.8,0.2-1.3,0.2
			c-0.5,0-0.9-0.1-1.3-0.2c-0.4-0.2-0.7-0.4-0.9-0.7c-0.2-0.3-0.4-0.6-0.5-1.1c-0.1-0.4-0.2-0.9-0.2-1.4c0-0.7,0.1-1.2,0.3-1.7
			c0.2-0.5,0.5-0.9,1-1.2c0.4-0.3,1-0.4,1.7-0.4c0.6,0,1.2,0.1,1.6,0.4c0.4,0.3,0.8,0.7,1,1.1C169.5,338.9,169.6,339.5,169.6,340.2z
			 M164.5,340.2c0,0.5,0.1,1,0.2,1.4c0.2,0.4,0.4,0.7,0.7,0.9c0.3,0.2,0.7,0.3,1.2,0.3c0.5,0,0.9-0.1,1.2-0.3
			c0.3-0.2,0.6-0.5,0.7-0.9c0.2-0.4,0.2-0.9,0.2-1.4c0-0.8-0.2-1.5-0.5-1.9c-0.3-0.5-0.9-0.7-1.6-0.7c-0.5,0-0.9,0.1-1.2,0.3
			s-0.6,0.5-0.7,0.9C164.6,339.2,164.5,339.6,164.5,340.2z"/>
		<path d="M176.1,340.1c0,0.7-0.1,1.3-0.4,1.8c-0.3,0.5-0.6,0.8-1.1,1.1c-0.5,0.2-1.1,0.4-1.8,0.4H171V337h1.9
			c0.7,0,1.2,0.1,1.7,0.4c0.5,0.2,0.8,0.6,1.1,1.1C176,338.9,176.1,339.4,176.1,340.1z M175.4,340.1c0-0.6-0.1-1.1-0.3-1.4
			c-0.2-0.4-0.5-0.7-0.8-0.8c-0.4-0.2-0.8-0.3-1.4-0.3h-1.1v5.1h0.9c0.9,0,1.5-0.2,2-0.7C175.1,341.7,175.4,341,175.4,340.1z"/>
		<path d="M181.2,343.4h-3.6V337h3.6v0.7h-2.8v2.1h2.7v0.7h-2.7v2.4h2.8V343.4z"/>
		<path d="M182.6,343.4V337h0.7v5.8h2.9v0.7H182.6z"/>
		<path d="M192.8,340.2c0,0.5-0.1,0.9-0.2,1.4c-0.1,0.4-0.3,0.8-0.6,1c-0.2,0.3-0.6,0.5-0.9,0.7s-0.8,0.2-1.3,0.2
			c-0.5,0-0.9-0.1-1.3-0.2c-0.4-0.2-0.7-0.4-0.9-0.7c-0.2-0.3-0.4-0.6-0.5-1.1c-0.1-0.4-0.2-0.9-0.2-1.4c0-0.7,0.1-1.2,0.3-1.7
			c0.2-0.5,0.5-0.9,1-1.2c0.4-0.3,1-0.4,1.7-0.4c0.6,0,1.2,0.1,1.6,0.4c0.4,0.3,0.8,0.7,1,1.1C192.7,338.9,192.8,339.5,192.8,340.2z
			 M187.7,340.2c0,0.5,0.1,1,0.2,1.4c0.2,0.4,0.4,0.7,0.7,0.9c0.3,0.2,0.7,0.3,1.2,0.3c0.5,0,0.9-0.1,1.2-0.3
			c0.3-0.2,0.6-0.5,0.7-0.9c0.2-0.4,0.2-0.9,0.2-1.4c0-0.8-0.2-1.5-0.5-1.9c-0.3-0.5-0.9-0.7-1.6-0.7c-0.5,0-0.9,0.1-1.2,0.3
			s-0.6,0.5-0.7,0.9C187.8,339.2,187.7,339.6,187.7,340.2z"/>
		<path d="M159.5,360.2H156v-6.4h3.6v0.7h-2.8v2.1h2.7v0.7h-2.7v2.4h2.8V360.2z"/>
		<path d="M166.5,357c0,0.5-0.1,1-0.2,1.4c-0.1,0.4-0.4,0.8-0.6,1.1c-0.3,0.3-0.6,0.5-1.1,0.6l1.5,1.6h-1.1l-1.2-1.5
			c0,0-0.1,0-0.1,0c0,0-0.1,0-0.1,0c-0.5,0-0.9-0.1-1.3-0.2c-0.4-0.2-0.7-0.4-0.9-0.7c-0.2-0.3-0.4-0.6-0.5-1.1
			c-0.1-0.4-0.2-0.9-0.2-1.4c0-0.7,0.1-1.2,0.3-1.7c0.2-0.5,0.5-0.9,1-1.2c0.4-0.3,1-0.4,1.7-0.4c0.6,0,1.2,0.1,1.6,0.4
			c0.4,0.3,0.8,0.7,1,1.1C166.4,355.7,166.5,356.3,166.5,357z M161.4,357c0,0.5,0.1,1,0.2,1.4c0.2,0.4,0.4,0.7,0.7,0.9
			c0.3,0.2,0.7,0.3,1.2,0.3c0.5,0,0.9-0.1,1.2-0.3c0.3-0.2,0.6-0.5,0.7-0.9c0.2-0.4,0.2-0.9,0.2-1.4c0-0.8-0.2-1.5-0.5-1.9
			c-0.3-0.5-0.9-0.7-1.6-0.7c-0.5,0-0.9,0.1-1.2,0.3s-0.6,0.5-0.7,0.9C161.5,356,161.4,356.4,161.4,357z"/>
		<path d="M172.8,353.8v4.2c0,0.5-0.1,0.9-0.3,1.2c-0.2,0.4-0.5,0.6-0.8,0.8c-0.4,0.2-0.8,0.3-1.4,0.3c-0.8,0-1.4-0.2-1.8-0.6
			c-0.4-0.4-0.6-1-0.6-1.7v-4.1h0.8v4.2c0,0.5,0.1,1,0.4,1.3c0.3,0.3,0.7,0.4,1.3,0.4c0.4,0,0.7-0.1,1-0.2c0.3-0.1,0.4-0.3,0.6-0.6
			c0.1-0.3,0.2-0.6,0.2-0.9v-4.2H172.8z"/>
		<path d="M174.5,360.2v-6.4h0.7v6.4H174.5z"/>
		<path d="M178.7,353.8c0.8,0,1.4,0.2,1.8,0.5c0.4,0.3,0.6,0.8,0.6,1.4c0,0.3,0,0.5-0.1,0.8c-0.1,0.2-0.2,0.5-0.4,0.6
			c-0.2,0.2-0.5,0.3-0.8,0.4c-0.3,0.1-0.7,0.2-1.2,0.2h-0.8v2.5H177v-6.4H178.7z M178.6,354.4h-0.9v2.6h0.7c0.4,0,0.8,0,1-0.1
			c0.3-0.1,0.5-0.2,0.6-0.4c0.1-0.2,0.2-0.5,0.2-0.8c0-0.4-0.1-0.7-0.4-1C179.6,354.5,179.2,354.4,178.6,354.4z"/>
		<path d="M188,357c0,0.5-0.1,0.9-0.2,1.4c-0.1,0.4-0.3,0.8-0.6,1c-0.2,0.3-0.6,0.5-0.9,0.7s-0.8,0.2-1.3,0.2
			c-0.5,0-0.9-0.1-1.3-0.2c-0.4-0.2-0.7-0.4-0.9-0.7c-0.2-0.3-0.4-0.6-0.5-1.1c-0.1-0.4-0.2-0.9-0.2-1.4c0-0.7,0.1-1.2,0.3-1.7
			c0.2-0.5,0.5-0.9,1-1.2c0.4-0.3,1-0.4,1.7-0.4c0.6,0,1.2,0.1,1.6,0.4c0.4,0.3,0.8,0.7,1,1.1C187.9,355.7,188,356.3,188,357z
			 M182.9,357c0,0.5,0.1,1,0.2,1.4c0.2,0.4,0.4,0.7,0.7,0.9c0.3,0.2,0.7,0.3,1.2,0.3c0.5,0,0.9-0.1,1.2-0.3c0.3-0.2,0.6-0.5,0.7-0.9
			c0.2-0.4,0.2-0.9,0.2-1.4c0-0.8-0.2-1.5-0.5-1.9c-0.3-0.5-0.9-0.7-1.6-0.7c-0.5,0-0.9,0.1-1.2,0.3s-0.6,0.5-0.7,0.9
			C183,356,182.9,356.4,182.9,357z"/>
		<path d="M156.7,371H156v-6.4h3.6v0.7h-2.8v2.4h2.7v0.7h-2.7V371z"/>
		<path d="M166.2,367.8c0,0.5-0.1,0.9-0.2,1.4c-0.1,0.4-0.3,0.8-0.6,1c-0.2,0.3-0.6,0.5-0.9,0.7s-0.8,0.2-1.3,0.2
			c-0.5,0-0.9-0.1-1.3-0.2c-0.4-0.2-0.7-0.4-0.9-0.7c-0.2-0.3-0.4-0.6-0.5-1.1c-0.1-0.4-0.2-0.9-0.2-1.4c0-0.7,0.1-1.2,0.3-1.7
			c0.2-0.5,0.5-0.9,1-1.2c0.4-0.3,1-0.4,1.7-0.4c0.6,0,1.2,0.1,1.6,0.4c0.4,0.3,0.8,0.7,1,1.1C166.1,366.5,166.2,367.1,166.2,367.8z
			 M161.1,367.8c0,0.5,0.1,1,0.2,1.4c0.2,0.4,0.4,0.7,0.7,0.9c0.3,0.2,0.7,0.3,1.2,0.3c0.5,0,0.9-0.1,1.2-0.3
			c0.3-0.2,0.6-0.5,0.7-0.9c0.2-0.4,0.2-0.9,0.2-1.4c0-0.8-0.2-1.5-0.5-1.9c-0.3-0.5-0.9-0.7-1.6-0.7c-0.5,0-0.9,0.1-1.2,0.3
			s-0.6,0.5-0.7,0.9C161.1,366.8,161.1,367.2,161.1,367.8z"/>
		<path d="M169.6,371h-0.8v-5.8h-2v-0.7h4.8v0.7h-2V371z"/>
		<path d="M178.1,367.8c0,0.5-0.1,0.9-0.2,1.4c-0.1,0.4-0.3,0.8-0.6,1c-0.2,0.3-0.6,0.5-0.9,0.7s-0.8,0.2-1.3,0.2
			c-0.5,0-0.9-0.1-1.3-0.2c-0.4-0.2-0.7-0.4-0.9-0.7c-0.2-0.3-0.4-0.6-0.5-1.1c-0.1-0.4-0.2-0.9-0.2-1.4c0-0.7,0.1-1.2,0.3-1.7
			c0.2-0.5,0.5-0.9,1-1.2c0.4-0.3,1-0.4,1.7-0.4c0.6,0,1.2,0.1,1.6,0.4c0.4,0.3,0.8,0.7,1,1.1C178,366.5,178.1,367.1,178.1,367.8z
			 M173,367.8c0,0.5,0.1,1,0.2,1.4c0.2,0.4,0.4,0.7,0.7,0.9c0.3,0.2,0.7,0.3,1.2,0.3c0.5,0,0.9-0.1,1.2-0.3c0.3-0.2,0.6-0.5,0.7-0.9
			c0.2-0.4,0.2-0.9,0.2-1.4c0-0.8-0.2-1.5-0.5-1.9c-0.3-0.5-0.9-0.7-1.6-0.7c-0.5,0-0.9,0.1-1.2,0.3s-0.6,0.5-0.7,0.9
			C173.1,366.8,173,367.2,173,367.8z"/>
		<path d="M182.3,367.6h2.2v3.1c-0.3,0.1-0.7,0.2-1,0.3c-0.4,0.1-0.8,0.1-1.2,0.1c-0.7,0-1.2-0.1-1.7-0.4c-0.5-0.3-0.8-0.6-1-1.1
			c-0.2-0.5-0.4-1.1-0.4-1.8c0-0.7,0.1-1.2,0.4-1.7c0.3-0.5,0.6-0.9,1.1-1.2c0.5-0.3,1.1-0.4,1.8-0.4c0.4,0,0.7,0,1,0.1
			c0.3,0.1,0.6,0.2,0.9,0.3l-0.3,0.7c-0.2-0.1-0.5-0.2-0.8-0.3c-0.3-0.1-0.6-0.1-0.9-0.1c-0.5,0-1,0.1-1.3,0.3
			c-0.4,0.2-0.7,0.5-0.9,0.9c-0.2,0.4-0.3,0.9-0.3,1.4c0,0.5,0.1,1,0.3,1.4c0.2,0.4,0.4,0.7,0.8,0.9s0.8,0.3,1.4,0.3
			c0.3,0,0.5,0,0.7,0c0.2,0,0.4-0.1,0.6-0.1v-2h-1.5V367.6z"/>
		<path d="M187.8,364.6c0.5,0,1,0.1,1.3,0.2c0.3,0.1,0.6,0.3,0.8,0.6s0.3,0.6,0.3,1c0,0.3-0.1,0.6-0.2,0.9c-0.1,0.2-0.3,0.4-0.5,0.6
			s-0.4,0.2-0.6,0.3l1.8,2.9h-0.9l-1.6-2.7h-1.3v2.7h-0.7v-6.4H187.8z M187.8,365.2h-0.9v2.5h1c0.5,0,0.9-0.1,1.2-0.3
			c0.2-0.2,0.4-0.5,0.4-0.9c0-0.4-0.1-0.7-0.4-0.9C188.7,365.3,188.3,365.2,187.8,365.2z"/>
		<path d="M195.7,371l-0.8-2h-2.6l-0.8,2h-0.8l2.5-6.5h0.7l2.5,6.5H195.7z M194.7,368.3l-0.8-2c0-0.1,0-0.1-0.1-0.3
			c0-0.1-0.1-0.2-0.1-0.4s-0.1-0.2-0.1-0.3c0,0.1-0.1,0.2-0.1,0.4c0,0.1-0.1,0.2-0.1,0.3c0,0.1-0.1,0.2-0.1,0.3l-0.8,2H194.7z
			 M194.9,362.5L194.9,362.5c-0.1,0.2-0.1,0.3-0.2,0.4c-0.1,0.1-0.2,0.2-0.3,0.4c-0.1,0.1-0.2,0.3-0.4,0.4c-0.1,0.1-0.2,0.2-0.3,0.3
			h-0.5v-0.1c0.1-0.1,0.2-0.2,0.3-0.4c0.1-0.2,0.2-0.3,0.3-0.5c0.1-0.2,0.2-0.3,0.3-0.5H194.9z"/>
		<path d="M198.1,371h-0.7v-6.4h3.6v0.7h-2.8v2.4h2.7v0.7h-2.7V371z"/>
		<path d="M202,371v-6.4h0.7v6.4H202z"/>
		<path d="M207.2,365.1c-0.4,0-0.7,0.1-1,0.2c-0.3,0.1-0.5,0.3-0.7,0.5c-0.2,0.2-0.3,0.5-0.5,0.8s-0.2,0.7-0.2,1.1
			c0,0.5,0.1,1,0.3,1.4c0.2,0.4,0.4,0.7,0.8,0.9c0.3,0.2,0.8,0.3,1.3,0.3c0.3,0,0.6,0,0.8-0.1c0.3,0,0.5-0.1,0.7-0.2v0.7
			c-0.2,0.1-0.5,0.2-0.7,0.2c-0.3,0-0.6,0.1-0.9,0.1c-0.7,0-1.2-0.1-1.6-0.4c-0.4-0.3-0.8-0.7-1-1.1c-0.2-0.5-0.3-1.1-0.3-1.8
			c0-0.5,0.1-0.9,0.2-1.3c0.1-0.4,0.3-0.8,0.6-1c0.3-0.3,0.6-0.5,1-0.7c0.4-0.2,0.8-0.2,1.3-0.2c0.3,0,0.6,0,0.9,0.1
			s0.6,0.2,0.8,0.3l-0.3,0.6c-0.2-0.1-0.4-0.2-0.7-0.2C207.8,365.2,207.5,365.1,207.2,365.1z"/>
		<path d="M215.7,367.8c0,0.5-0.1,0.9-0.2,1.4c-0.1,0.4-0.3,0.8-0.6,1c-0.2,0.3-0.6,0.5-0.9,0.7s-0.8,0.2-1.3,0.2
			c-0.5,0-0.9-0.1-1.3-0.2c-0.4-0.2-0.7-0.4-0.9-0.7c-0.2-0.3-0.4-0.6-0.5-1.1c-0.1-0.4-0.2-0.9-0.2-1.4c0-0.7,0.1-1.2,0.3-1.7
			c0.2-0.5,0.5-0.9,1-1.2c0.4-0.3,1-0.4,1.7-0.4c0.6,0,1.2,0.1,1.6,0.4c0.4,0.3,0.8,0.7,1,1.1C215.6,366.5,215.7,367.1,215.7,367.8z
			 M210.6,367.8c0,0.5,0.1,1,0.2,1.4c0.2,0.4,0.4,0.7,0.7,0.9c0.3,0.2,0.7,0.3,1.2,0.3c0.5,0,0.9-0.1,1.2-0.3
			c0.3-0.2,0.6-0.5,0.7-0.9c0.2-0.4,0.2-0.9,0.2-1.4c0-0.8-0.2-1.5-0.5-1.9c-0.3-0.5-0.9-0.7-1.6-0.7c-0.5,0-0.9,0.1-1.2,0.3
			s-0.6,0.5-0.7,0.9C210.7,366.8,210.6,367.2,210.6,367.8z"/>
		<path d="M159.5,387.8H156v-6.4h3.6v0.7h-2.8v2.1h2.7v0.7h-2.7v2.4h2.8V387.8z"/>
		<path d="M166.1,384.5c0,0.7-0.1,1.3-0.4,1.8c-0.3,0.5-0.6,0.8-1.1,1.1c-0.5,0.2-1.1,0.4-1.8,0.4H161v-6.4h1.9
			c0.7,0,1.2,0.1,1.7,0.4c0.5,0.2,0.8,0.6,1.1,1.1C165.9,383.3,166.1,383.8,166.1,384.5z M165.3,384.5c0-0.6-0.1-1.1-0.3-1.4
			c-0.2-0.4-0.5-0.7-0.8-0.8c-0.4-0.2-0.8-0.3-1.4-0.3h-1.1v5.1h0.9c0.9,0,1.5-0.2,2-0.7C165,386.1,165.3,385.4,165.3,384.5z"/>
		<path d="M167.5,387.8v-6.4h0.7v6.4H167.5z"/>
		<path d="M172.7,381.9c-0.4,0-0.7,0.1-1,0.2c-0.3,0.1-0.5,0.3-0.7,0.5c-0.2,0.2-0.3,0.5-0.5,0.8s-0.2,0.7-0.2,1.1
			c0,0.5,0.1,1,0.3,1.4c0.2,0.4,0.4,0.7,0.8,0.9c0.3,0.2,0.8,0.3,1.3,0.3c0.3,0,0.6,0,0.8-0.1c0.3,0,0.5-0.1,0.7-0.2v0.7
			c-0.2,0.1-0.5,0.2-0.7,0.2c-0.3,0-0.6,0.1-0.9,0.1c-0.7,0-1.2-0.1-1.6-0.4c-0.4-0.3-0.8-0.7-1-1.1c-0.2-0.5-0.3-1.1-0.3-1.8
			c0-0.5,0.1-0.9,0.2-1.3c0.1-0.4,0.3-0.8,0.6-1c0.3-0.3,0.6-0.5,1-0.7c0.4-0.2,0.8-0.2,1.3-0.2c0.3,0,0.6,0,0.9,0.1
			s0.6,0.2,0.8,0.3l-0.3,0.6c-0.2-0.1-0.4-0.2-0.7-0.2C173.3,382,173,381.9,172.7,381.9z"/>
		<path d="M175.7,387.8v-6.4h0.7v6.4H175.7z"/>
		<path d="M183.8,384.6c0,0.5-0.1,0.9-0.2,1.4c-0.1,0.4-0.3,0.8-0.6,1c-0.2,0.3-0.6,0.5-0.9,0.7s-0.8,0.2-1.3,0.2
			c-0.5,0-0.9-0.1-1.3-0.2c-0.4-0.2-0.7-0.4-0.9-0.7c-0.2-0.3-0.4-0.6-0.5-1.1c-0.1-0.4-0.2-0.9-0.2-1.4c0-0.7,0.1-1.2,0.3-1.7
			c0.2-0.5,0.5-0.9,1-1.2c0.4-0.3,1-0.4,1.7-0.4c0.6,0,1.2,0.1,1.6,0.4c0.4,0.3,0.8,0.7,1,1.1C183.6,383.3,183.8,383.9,183.8,384.6z
			 M178.6,384.6c0,0.5,0.1,1,0.2,1.4c0.2,0.4,0.4,0.7,0.7,0.9c0.3,0.2,0.7,0.3,1.2,0.3c0.5,0,0.9-0.1,1.2-0.3
			c0.3-0.2,0.6-0.5,0.7-0.9c0.2-0.4,0.2-0.9,0.2-1.4c0-0.8-0.2-1.5-0.5-1.9c-0.3-0.5-0.9-0.7-1.6-0.7c-0.5,0-0.9,0.1-1.2,0.3
			s-0.6,0.5-0.7,0.9C178.7,383.6,178.6,384,178.6,384.6z M182.1,379.3L182.1,379.3c-0.1,0.2-0.1,0.3-0.2,0.4
			c-0.1,0.1-0.2,0.2-0.3,0.4c-0.1,0.1-0.2,0.3-0.4,0.4c-0.1,0.1-0.2,0.2-0.3,0.3h-0.5v-0.1c0.1-0.1,0.2-0.2,0.3-0.4
			c0.1-0.2,0.2-0.3,0.3-0.5c0.1-0.2,0.2-0.3,0.3-0.5H182.1z"/>
		<path d="M190.2,387.8h-0.9l-3.5-5.4h0c0,0.1,0,0.3,0,0.5c0,0.2,0,0.4,0,0.6c0,0.2,0,0.4,0,0.6v3.7h-0.7v-6.4h0.9l3.5,5.4h0
			c0-0.1,0-0.2,0-0.4c0-0.2,0-0.4,0-0.6c0-0.2,0-0.4,0-0.6v-3.7h0.7V387.8z"/>
		<path d="M156.7,398.6H156v-6.4h3.6v0.7h-2.8v2.4h2.7v0.7h-2.7V398.6z"/>
		<path d="M166.2,395.4c0,0.5-0.1,0.9-0.2,1.4c-0.1,0.4-0.3,0.8-0.6,1c-0.2,0.3-0.6,0.5-0.9,0.7s-0.8,0.2-1.3,0.2
			c-0.5,0-0.9-0.1-1.3-0.2c-0.4-0.2-0.7-0.4-0.9-0.7c-0.2-0.3-0.4-0.6-0.5-1.1c-0.1-0.4-0.2-0.9-0.2-1.4c0-0.7,0.1-1.2,0.3-1.7
			c0.2-0.5,0.5-0.9,1-1.2c0.4-0.3,1-0.4,1.7-0.4c0.6,0,1.2,0.1,1.6,0.4c0.4,0.3,0.8,0.7,1,1.1C166.1,394.1,166.2,394.7,166.2,395.4z
			 M161.1,395.4c0,0.5,0.1,1,0.2,1.4c0.2,0.4,0.4,0.7,0.7,0.9c0.3,0.2,0.7,0.3,1.2,0.3c0.5,0,0.9-0.1,1.2-0.3
			c0.3-0.2,0.6-0.5,0.7-0.9c0.2-0.4,0.2-0.9,0.2-1.4c0-0.8-0.2-1.5-0.5-1.9c-0.3-0.5-0.9-0.7-1.6-0.7c-0.5,0-0.9,0.1-1.2,0.3
			s-0.6,0.5-0.7,0.9C161.1,394.4,161.1,394.8,161.1,395.4z"/>
		<path d="M169.6,398.6h-0.8v-5.8h-2v-0.7h4.8v0.7h-2V398.6z"/>
		<path d="M178.1,395.4c0,0.5-0.1,0.9-0.2,1.4c-0.1,0.4-0.3,0.8-0.6,1c-0.2,0.3-0.6,0.5-0.9,0.7s-0.8,0.2-1.3,0.2
			c-0.5,0-0.9-0.1-1.3-0.2c-0.4-0.2-0.7-0.4-0.9-0.7c-0.2-0.3-0.4-0.6-0.5-1.1c-0.1-0.4-0.2-0.9-0.2-1.4c0-0.7,0.1-1.2,0.3-1.7
			c0.2-0.5,0.5-0.9,1-1.2c0.4-0.3,1-0.4,1.7-0.4c0.6,0,1.2,0.1,1.6,0.4c0.4,0.3,0.8,0.7,1,1.1C178,394.1,178.1,394.7,178.1,395.4z
			 M173,395.4c0,0.5,0.1,1,0.2,1.4c0.2,0.4,0.4,0.7,0.7,0.9c0.3,0.2,0.7,0.3,1.2,0.3c0.5,0,0.9-0.1,1.2-0.3c0.3-0.2,0.6-0.5,0.7-0.9
			c0.2-0.4,0.2-0.9,0.2-1.4c0-0.8-0.2-1.5-0.5-1.9c-0.3-0.5-0.9-0.7-1.6-0.7c-0.5,0-0.9,0.1-1.2,0.3s-0.6,0.5-0.7,0.9
			C173.1,394.4,173,394.8,173,395.4z"/>
		<path d="M182.3,395.2h2.2v3.1c-0.3,0.1-0.7,0.2-1,0.3c-0.4,0.1-0.8,0.1-1.2,0.1c-0.7,0-1.2-0.1-1.7-0.4c-0.5-0.3-0.8-0.6-1-1.1
			c-0.2-0.5-0.4-1.1-0.4-1.8c0-0.7,0.1-1.2,0.4-1.7c0.3-0.5,0.6-0.9,1.1-1.2c0.5-0.3,1.1-0.4,1.8-0.4c0.4,0,0.7,0,1,0.1
			c0.3,0.1,0.6,0.2,0.9,0.3l-0.3,0.7c-0.2-0.1-0.5-0.2-0.8-0.3c-0.3-0.1-0.6-0.1-0.9-0.1c-0.5,0-1,0.1-1.3,0.3
			c-0.4,0.2-0.7,0.5-0.9,0.9c-0.2,0.4-0.3,0.9-0.3,1.4c0,0.5,0.1,1,0.3,1.4c0.2,0.4,0.4,0.7,0.8,0.9s0.8,0.3,1.4,0.3
			c0.3,0,0.5,0,0.7,0c0.2,0,0.4-0.1,0.6-0.1v-2h-1.5V395.2z"/>
		<path d="M187.8,392.2c0.5,0,1,0.1,1.3,0.2c0.3,0.1,0.6,0.3,0.8,0.6s0.3,0.6,0.3,1c0,0.3-0.1,0.6-0.2,0.9c-0.1,0.2-0.3,0.4-0.5,0.6
			s-0.4,0.2-0.6,0.3l1.8,2.9h-0.9l-1.6-2.7h-1.3v2.7h-0.7v-6.4H187.8z M187.8,392.8h-0.9v2.5h1c0.5,0,0.9-0.1,1.2-0.3
			c0.2-0.2,0.4-0.5,0.4-0.9c0-0.4-0.1-0.7-0.4-0.9C188.7,392.9,188.3,392.8,187.8,392.8z"/>
		<path d="M195.7,398.6l-0.8-2h-2.6l-0.8,2h-0.8l2.5-6.5h0.7l2.5,6.5H195.7z M194.7,395.9l-0.8-2c0-0.1,0-0.1-0.1-0.3
			c0-0.1-0.1-0.2-0.1-0.4s-0.1-0.2-0.1-0.3c0,0.1-0.1,0.2-0.1,0.4c0,0.1-0.1,0.2-0.1,0.3c0,0.1-0.1,0.2-0.1,0.3l-0.8,2H194.7z
			 M194.9,390.1L194.9,390.1c-0.1,0.2-0.1,0.3-0.2,0.4c-0.1,0.1-0.2,0.2-0.3,0.4c-0.1,0.1-0.2,0.3-0.4,0.4c-0.1,0.1-0.2,0.2-0.3,0.3
			h-0.5v-0.1c0.1-0.1,0.2-0.2,0.3-0.4c0.1-0.2,0.2-0.3,0.3-0.5c0.1-0.2,0.2-0.3,0.3-0.5H194.9z"/>
		<path d="M198.1,398.6h-0.7v-6.4h3.6v0.7h-2.8v2.4h2.7v0.7h-2.7V398.6z"/>
		<path d="M202,398.6v-6.4h0.7v6.4H202z"/>
		<path d="M207.2,392.7c-0.4,0-0.7,0.1-1,0.2c-0.3,0.1-0.5,0.3-0.7,0.5c-0.2,0.2-0.3,0.5-0.5,0.8s-0.2,0.7-0.2,1.1
			c0,0.5,0.1,1,0.3,1.4c0.2,0.4,0.4,0.7,0.8,0.9c0.3,0.2,0.8,0.3,1.3,0.3c0.3,0,0.6,0,0.8-0.1c0.3,0,0.5-0.1,0.7-0.2v0.7
			c-0.2,0.1-0.5,0.2-0.7,0.2c-0.3,0-0.6,0.1-0.9,0.1c-0.7,0-1.2-0.1-1.6-0.4c-0.4-0.3-0.8-0.7-1-1.1c-0.2-0.5-0.3-1.1-0.3-1.8
			c0-0.5,0.1-0.9,0.2-1.3c0.1-0.4,0.3-0.8,0.6-1c0.3-0.3,0.6-0.5,1-0.7c0.4-0.2,0.8-0.2,1.3-0.2c0.3,0,0.6,0,0.9,0.1
			s0.6,0.2,0.8,0.3l-0.3,0.6c-0.2-0.1-0.4-0.2-0.7-0.2C207.8,392.8,207.5,392.7,207.2,392.7z"/>
		<path d="M214.2,398.6l-0.8-2h-2.6l-0.8,2h-0.8l2.5-6.5h0.7l2.5,6.5H214.2z M213.2,395.9l-0.8-2c0-0.1,0-0.1-0.1-0.3
			c0-0.1-0.1-0.2-0.1-0.4s-0.1-0.2-0.1-0.3c0,0.1-0.1,0.2-0.1,0.4c0,0.1-0.1,0.2-0.1,0.3c0,0.1-0.1,0.2-0.1,0.3l-0.8,2H213.2z"/>
		<path d="M158.8,415.4l-2.2-5.7h0c0,0.1,0,0.3,0,0.4c0,0.2,0,0.4,0,0.6c0,0.2,0,0.4,0,0.6v4.1H156V409h1.1l2,5.3h0l2.1-5.3h1.1v6.4
			h-0.7v-4.1c0-0.2,0-0.4,0-0.6c0-0.2,0-0.4,0-0.5c0-0.2,0-0.3,0-0.4h0l-2.2,5.7H158.8z"/>
		<path d="M168.1,415.4l-0.8-2h-2.6l-0.8,2h-0.8l2.5-6.5h0.7l2.5,6.5H168.1z M167.1,412.7l-0.8-2c0-0.1,0-0.1-0.1-0.3
			c0-0.1-0.1-0.2-0.1-0.4s-0.1-0.2-0.1-0.3c0,0.1-0.1,0.2-0.1,0.4c0,0.1-0.1,0.2-0.1,0.3c0,0.1-0.1,0.2-0.1,0.3l-0.8,2H167.1z"/>
		<path d="M174.4,415.4h-0.9l-2.3-3.1l-0.7,0.6v2.5h-0.7V409h0.7v3.2c0.2-0.2,0.3-0.4,0.5-0.6c0.2-0.2,0.3-0.4,0.5-0.6l1.9-2.1h0.9
			l-2.6,2.8L174.4,415.4z"/>
		<path d="M178.8,415.4h-3.6V409h3.6v0.7H176v2.1h2.7v0.7H176v2.4h2.8V415.4z"/>
		<path d="M185.1,409v4.2c0,0.5-0.1,0.9-0.3,1.2c-0.2,0.4-0.5,0.6-0.8,0.8c-0.4,0.2-0.8,0.3-1.4,0.3c-0.8,0-1.4-0.2-1.8-0.6
			c-0.4-0.4-0.6-1-0.6-1.7V409h0.8v4.2c0,0.5,0.1,1,0.4,1.3c0.3,0.3,0.7,0.4,1.3,0.4c0.4,0,0.7-0.1,1-0.2c0.3-0.1,0.4-0.3,0.6-0.6
			c0.1-0.3,0.2-0.6,0.2-0.9V409H185.1z"/>
		<path d="M188.5,409c0.8,0,1.4,0.2,1.8,0.5c0.4,0.3,0.6,0.8,0.6,1.4c0,0.3,0,0.5-0.1,0.8c-0.1,0.2-0.2,0.5-0.4,0.6
			c-0.2,0.2-0.5,0.3-0.8,0.4c-0.3,0.1-0.7,0.2-1.2,0.2h-0.8v2.5h-0.7V409H188.5z M188.4,409.6h-0.9v2.6h0.7c0.4,0,0.8,0,1-0.1
			c0.3-0.1,0.5-0.2,0.6-0.4c0.1-0.2,0.2-0.5,0.2-0.8c0-0.4-0.1-0.7-0.4-1C189.4,409.7,189,409.6,188.4,409.6z"/>
		<path d="M196.2,412.2l1.7-3.2h0.8l-2.1,3.9v2.5h-0.7v-2.5l-2.1-4h0.8L196.2,412.2z"/>
		<path d="M203.6,409c0.8,0,1.4,0.2,1.8,0.5c0.4,0.3,0.6,0.8,0.6,1.4c0,0.3,0,0.5-0.1,0.8c-0.1,0.2-0.2,0.5-0.4,0.6
			c-0.2,0.2-0.5,0.3-0.8,0.4c-0.3,0.1-0.7,0.2-1.2,0.2h-0.8v2.5h-0.7V409H203.6z M203.5,409.6h-0.9v2.6h0.7c0.4,0,0.8,0,1-0.1
			c0.3-0.1,0.5-0.2,0.6-0.4c0.1-0.2,0.2-0.5,0.2-0.8c0-0.4-0.1-0.7-0.4-1C204.5,409.7,204.1,409.6,203.5,409.6z"/>
		<path d="M210.9,415.4h-3.6V409h3.6v0.7h-2.8v2.1h2.7v0.7h-2.7v2.4h2.8V415.4z"/>
		<path d="M212.3,415.4V409h0.7v5.8h2.9v0.7H212.3z"/>
		<path d="M222.6,412.2c0,0.5-0.1,0.9-0.2,1.4c-0.1,0.4-0.3,0.8-0.6,1c-0.2,0.3-0.6,0.5-0.9,0.7s-0.8,0.2-1.3,0.2
			c-0.5,0-0.9-0.1-1.3-0.2c-0.4-0.2-0.7-0.4-0.9-0.7c-0.2-0.3-0.4-0.6-0.5-1.1c-0.1-0.4-0.2-0.9-0.2-1.4c0-0.7,0.1-1.2,0.3-1.7
			c0.2-0.5,0.5-0.9,1-1.2c0.4-0.3,1-0.4,1.7-0.4c0.6,0,1.2,0.1,1.6,0.4c0.4,0.3,0.8,0.7,1,1.1C222.5,410.9,222.6,411.5,222.6,412.2z
			 M217.5,412.2c0,0.5,0.1,1,0.2,1.4c0.2,0.4,0.4,0.7,0.7,0.9c0.3,0.2,0.7,0.3,1.2,0.3c0.5,0,0.9-0.1,1.2-0.3
			c0.3-0.2,0.6-0.5,0.7-0.9c0.2-0.4,0.2-0.9,0.2-1.4c0-0.8-0.2-1.5-0.5-1.9c-0.3-0.5-0.9-0.7-1.6-0.7c-0.5,0-0.9,0.1-1.2,0.3
			s-0.6,0.5-0.7,0.9C217.6,411.2,217.5,411.6,217.5,412.2z"/>
		<path d="M160,432.2l-0.8-2h-2.6l-0.8,2h-0.8l2.5-6.5h0.7l2.5,6.5H160z M159,429.5l-0.8-2c0-0.1,0-0.1-0.1-0.3
			c0-0.1-0.1-0.2-0.1-0.4s-0.1-0.2-0.1-0.3c0,0.1-0.1,0.2-0.1,0.4c0,0.1-0.1,0.2-0.1,0.3c0,0.1-0.1,0.2-0.1,0.3l-0.8,2H159z"/>
		<path d="M165.3,430.5c0,0.4-0.1,0.7-0.3,1c-0.2,0.3-0.5,0.5-0.8,0.6s-0.7,0.2-1.2,0.2c-0.2,0-0.5,0-0.7,0s-0.4-0.1-0.6-0.1
			c-0.2,0-0.3-0.1-0.5-0.2v-0.7c0.2,0.1,0.5,0.2,0.8,0.3c0.3,0.1,0.6,0.1,1,0.1c0.3,0,0.6,0,0.8-0.1c0.2-0.1,0.4-0.2,0.5-0.4
			c0.1-0.2,0.2-0.4,0.2-0.6c0-0.2,0-0.4-0.1-0.6c-0.1-0.1-0.3-0.3-0.5-0.4c-0.2-0.1-0.5-0.3-0.9-0.4c-0.3-0.1-0.5-0.2-0.7-0.3
			c-0.2-0.1-0.4-0.2-0.5-0.4c-0.1-0.1-0.2-0.3-0.3-0.5c-0.1-0.2-0.1-0.4-0.1-0.7c0-0.3,0.1-0.6,0.3-0.9c0.2-0.2,0.4-0.4,0.7-0.6
			c0.3-0.1,0.7-0.2,1.1-0.2c0.3,0,0.7,0,1,0.1c0.3,0.1,0.6,0.2,0.8,0.3l-0.2,0.6c-0.2-0.1-0.5-0.2-0.7-0.2c-0.3-0.1-0.5-0.1-0.8-0.1
			c-0.3,0-0.5,0-0.7,0.1c-0.2,0.1-0.3,0.2-0.4,0.3s-0.1,0.3-0.1,0.5c0,0.2,0,0.4,0.1,0.6c0.1,0.1,0.2,0.3,0.5,0.4
			c0.2,0.1,0.5,0.2,0.8,0.4c0.4,0.1,0.7,0.3,1,0.4c0.3,0.2,0.5,0.3,0.6,0.6C165.2,429.9,165.3,430.1,165.3,430.5z"/>
		<path d="M166.6,432.2v-6.4h0.7v6.4H166.6z"/>
		<path d="M172.7,430.5c0,0.4-0.1,0.7-0.3,1c-0.2,0.3-0.5,0.5-0.8,0.6s-0.7,0.2-1.2,0.2c-0.2,0-0.5,0-0.7,0s-0.4-0.1-0.6-0.1
			c-0.2,0-0.3-0.1-0.5-0.2v-0.7c0.2,0.1,0.5,0.2,0.8,0.3c0.3,0.1,0.6,0.1,1,0.1c0.3,0,0.6,0,0.8-0.1c0.2-0.1,0.4-0.2,0.5-0.4
			c0.1-0.2,0.2-0.4,0.2-0.6c0-0.2,0-0.4-0.1-0.6c-0.1-0.1-0.3-0.3-0.5-0.4c-0.2-0.1-0.5-0.3-0.9-0.4c-0.3-0.1-0.5-0.2-0.7-0.3
			c-0.2-0.1-0.4-0.2-0.5-0.4c-0.1-0.1-0.2-0.3-0.3-0.5c-0.1-0.2-0.1-0.4-0.1-0.7c0-0.3,0.1-0.6,0.3-0.9c0.2-0.2,0.4-0.4,0.7-0.6
			c0.3-0.1,0.7-0.2,1.1-0.2c0.3,0,0.7,0,1,0.1c0.3,0.1,0.6,0.2,0.8,0.3l-0.2,0.6c-0.2-0.1-0.5-0.2-0.7-0.2c-0.3-0.1-0.5-0.1-0.8-0.1
			c-0.3,0-0.5,0-0.7,0.1c-0.2,0.1-0.3,0.2-0.4,0.3s-0.1,0.3-0.1,0.5c0,0.2,0,0.4,0.1,0.6c0.1,0.1,0.2,0.3,0.5,0.4
			c0.2,0.1,0.5,0.2,0.8,0.4c0.4,0.1,0.7,0.3,1,0.4c0.3,0.2,0.5,0.3,0.6,0.6C172.6,429.9,172.7,430.1,172.7,430.5z"/>
		<path d="M176,432.2h-0.8v-5.8h-2v-0.7h4.8v0.7h-2V432.2z"/>
		<path d="M182.6,432.2H179v-6.4h3.6v0.7h-2.8v2.1h2.7v0.7h-2.7v2.4h2.8V432.2z"/>
		<path d="M189,432.2h-0.9l-3.5-5.4h0c0,0.1,0,0.3,0,0.5c0,0.2,0,0.4,0,0.6c0,0.2,0,0.4,0,0.6v3.7H184v-6.4h0.9l3.5,5.4h0
			c0-0.1,0-0.2,0-0.4c0-0.2,0-0.4,0-0.6c0-0.2,0-0.4,0-0.6v-3.7h0.7V432.2z"/>
		<path d="M192.7,432.2H192v-5.8h-2v-0.7h4.8v0.7h-2V432.2z"/>
		<path d="M199.3,432.2h-3.6v-6.4h3.6v0.7h-2.8v2.1h2.7v0.7h-2.7v2.4h2.8V432.2z"/>
		<path d="M158.8,443l-2.2-5.7h0c0,0.1,0,0.3,0,0.4c0,0.2,0,0.4,0,0.6c0,0.2,0,0.4,0,0.6v4.1H156v-6.4h1.1l2,5.3h0l2.1-5.3h1.1v6.4
			h-0.7v-4.1c0-0.2,0-0.4,0-0.6c0-0.2,0-0.4,0-0.5c0-0.2,0-0.3,0-0.4h0l-2.2,5.7H158.8z"/>
		<path d="M168.1,443l-0.8-2h-2.6l-0.8,2h-0.8l2.5-6.5h0.7l2.5,6.5H168.1z M167.1,440.3l-0.8-2c0-0.1,0-0.1-0.1-0.3
			c0-0.1-0.1-0.2-0.1-0.4s-0.1-0.2-0.1-0.3c0,0.1-0.1,0.2-0.1,0.4c0,0.1-0.1,0.2-0.1,0.3c0,0.1-0.1,0.2-0.1,0.3l-0.8,2H167.1z"/>
		<path d="M174.4,443h-0.9l-2.3-3.1l-0.7,0.6v2.5h-0.7v-6.4h0.7v3.2c0.2-0.2,0.3-0.4,0.5-0.6c0.2-0.2,0.3-0.4,0.5-0.6l1.9-2.1h0.9
			l-2.6,2.8L174.4,443z"/>
		<path d="M178.8,443h-3.6v-6.4h3.6v0.7H176v2.1h2.7v0.7H176v2.4h2.8V443z"/>
		<path d="M185.1,436.6v4.2c0,0.5-0.1,0.9-0.3,1.2c-0.2,0.4-0.5,0.6-0.8,0.8c-0.4,0.2-0.8,0.3-1.4,0.3c-0.8,0-1.4-0.2-1.8-0.6
			c-0.4-0.4-0.6-1-0.6-1.7v-4.1h0.8v4.2c0,0.5,0.1,1,0.4,1.3c0.3,0.3,0.7,0.4,1.3,0.4c0.4,0,0.7-0.1,1-0.2c0.3-0.1,0.4-0.3,0.6-0.6
			c0.1-0.3,0.2-0.6,0.2-0.9v-4.2H185.1z"/>
		<path d="M188.5,436.6c0.8,0,1.4,0.2,1.8,0.5c0.4,0.3,0.6,0.8,0.6,1.4c0,0.3,0,0.5-0.1,0.8c-0.1,0.2-0.2,0.5-0.4,0.6
			c-0.2,0.2-0.5,0.3-0.8,0.4c-0.3,0.1-0.7,0.2-1.2,0.2h-0.8v2.5h-0.7v-6.4H188.5z M188.4,437.2h-0.9v2.6h0.7c0.4,0,0.8,0,1-0.1
			c0.3-0.1,0.5-0.2,0.6-0.4c0.1-0.2,0.2-0.5,0.2-0.8c0-0.4-0.1-0.7-0.4-1C189.4,437.3,189,437.2,188.4,437.2z"/>
		<path d="M159.7,459.8h-4.2v-0.6l1.7-1.7c0.3-0.3,0.6-0.6,0.8-0.9c0.2-0.3,0.4-0.5,0.5-0.7c0.1-0.2,0.2-0.5,0.2-0.8
			c0-0.4-0.1-0.6-0.3-0.8c-0.2-0.2-0.5-0.3-0.9-0.3c-0.3,0-0.6,0.1-0.8,0.2c-0.2,0.1-0.5,0.3-0.7,0.4l-0.4-0.5
			c0.2-0.1,0.4-0.3,0.6-0.4c0.2-0.1,0.4-0.2,0.6-0.3c0.2-0.1,0.5-0.1,0.7-0.1c0.4,0,0.7,0.1,1,0.2s0.5,0.3,0.7,0.6
			c0.2,0.3,0.2,0.6,0.2,0.9c0,0.3-0.1,0.7-0.2,0.9c-0.1,0.3-0.3,0.6-0.6,0.9c-0.2,0.3-0.5,0.6-0.9,0.9l-1.4,1.4v0h3.3V459.8z"/>
		<path d="M165.1,453.4c0.8,0,1.4,0.2,1.8,0.5c0.4,0.3,0.6,0.8,0.6,1.4c0,0.3,0,0.5-0.1,0.8c-0.1,0.2-0.2,0.5-0.4,0.6
			c-0.2,0.2-0.5,0.3-0.8,0.4c-0.3,0.1-0.7,0.2-1.2,0.2h-0.8v2.5h-0.7v-6.4H165.1z M165,454h-0.9v2.6h0.7c0.4,0,0.8,0,1-0.1
			c0.3-0.1,0.5-0.2,0.6-0.4c0.1-0.2,0.2-0.5,0.2-0.8c0-0.4-0.1-0.7-0.4-1C166,454.1,165.6,454,165,454z"/>
		<path d="M172.4,459.8h-3.6v-6.4h3.6v0.7h-2.8v2.1h2.7v0.7h-2.7v2.4h2.8V459.8z"/>
		<path d="M175.6,453.4c0.5,0,1,0.1,1.3,0.2c0.3,0.1,0.6,0.3,0.8,0.6s0.3,0.6,0.3,1c0,0.3-0.1,0.6-0.2,0.9c-0.1,0.2-0.3,0.4-0.5,0.6
			s-0.4,0.2-0.6,0.3l1.8,2.9h-0.9l-1.6-2.7h-1.3v2.7h-0.7v-6.4H175.6z M175.5,454h-0.9v2.5h1c0.5,0,0.9-0.1,1.2-0.3
			c0.2-0.2,0.4-0.5,0.4-0.9c0-0.4-0.1-0.7-0.4-0.9C176.5,454.1,176.1,454,175.5,454z"/>
		<path d="M182.2,453.9c-0.4,0-0.7,0.1-1,0.2c-0.3,0.1-0.5,0.3-0.7,0.5c-0.2,0.2-0.3,0.5-0.5,0.8s-0.2,0.7-0.2,1.1
			c0,0.5,0.1,1,0.3,1.4c0.2,0.4,0.4,0.7,0.8,0.9c0.3,0.2,0.8,0.3,1.3,0.3c0.3,0,0.6,0,0.8-0.1c0.3,0,0.5-0.1,0.7-0.2v0.7
			c-0.2,0.1-0.5,0.2-0.7,0.2c-0.3,0-0.6,0.1-0.9,0.1c-0.7,0-1.2-0.1-1.6-0.4c-0.4-0.3-0.8-0.7-1-1.1c-0.2-0.5-0.3-1.1-0.3-1.8
			c0-0.5,0.1-0.9,0.2-1.3c0.1-0.4,0.3-0.8,0.6-1c0.3-0.3,0.6-0.5,1-0.7c0.4-0.2,0.8-0.2,1.3-0.2c0.3,0,0.6,0,0.9,0.1
			s0.6,0.2,0.8,0.3l-0.3,0.6c-0.2-0.1-0.4-0.2-0.7-0.2C182.7,454,182.4,453.9,182.2,453.9z"/>
		<path d="M189.9,459.8h-0.7v-3h-3.4v3h-0.7v-6.4h0.7v2.7h3.4v-2.7h0.7V459.8z"/>
		<path d="M195.3,459.8h-3.6v-6.4h3.6v0.7h-2.8v2.1h2.7v0.7h-2.7v2.4h2.8V459.8z"/>
		<path d="M198.4,453.4c0.5,0,1,0.1,1.3,0.2c0.3,0.1,0.6,0.3,0.8,0.6s0.3,0.6,0.3,1c0,0.3-0.1,0.6-0.2,0.9c-0.1,0.2-0.3,0.4-0.5,0.6
			s-0.4,0.2-0.6,0.3l1.8,2.9h-0.9l-1.6-2.7h-1.3v2.7h-0.7v-6.4H198.4z M198.4,454h-0.9v2.5h1c0.5,0,0.9-0.1,1.2-0.3
			c0.2-0.2,0.4-0.5,0.4-0.9c0-0.4-0.1-0.7-0.4-0.9C199.4,454.1,198.9,454,198.4,454z"/>
		<path d="M207.8,456.6c0,0.5-0.1,0.9-0.2,1.4c-0.1,0.4-0.3,0.8-0.6,1c-0.2,0.3-0.6,0.5-0.9,0.7s-0.8,0.2-1.3,0.2
			c-0.5,0-0.9-0.1-1.3-0.2c-0.4-0.2-0.7-0.4-0.9-0.7c-0.2-0.3-0.4-0.6-0.5-1.1c-0.1-0.4-0.2-0.9-0.2-1.4c0-0.7,0.1-1.2,0.3-1.7
			c0.2-0.5,0.5-0.9,1-1.2c0.4-0.3,1-0.4,1.7-0.4c0.6,0,1.2,0.1,1.6,0.4c0.4,0.3,0.8,0.7,1,1.1C207.7,455.3,207.8,455.9,207.8,456.6z
			 M202.7,456.6c0,0.5,0.1,1,0.2,1.4c0.2,0.4,0.4,0.7,0.7,0.9c0.3,0.2,0.7,0.3,1.2,0.3c0.5,0,0.9-0.1,1.2-0.3
			c0.3-0.2,0.6-0.5,0.7-0.9c0.2-0.4,0.2-0.9,0.2-1.4c0-0.8-0.2-1.5-0.5-1.9c-0.3-0.5-0.9-0.7-1.6-0.7c-0.5,0-0.9,0.1-1.2,0.3
			s-0.6,0.5-0.7,0.9C202.8,455.6,202.7,456,202.7,456.6z"/>
		<path d="M212.9,458.1c0,0.4-0.1,0.7-0.3,1c-0.2,0.3-0.5,0.5-0.8,0.6s-0.7,0.2-1.2,0.2c-0.2,0-0.5,0-0.7,0s-0.4-0.1-0.6-0.1
			c-0.2,0-0.3-0.1-0.5-0.2v-0.7c0.2,0.1,0.5,0.2,0.8,0.3c0.3,0.1,0.6,0.1,1,0.1c0.3,0,0.6,0,0.8-0.1c0.2-0.1,0.4-0.2,0.5-0.4
			c0.1-0.2,0.2-0.4,0.2-0.6c0-0.2,0-0.4-0.1-0.6c-0.1-0.1-0.3-0.3-0.5-0.4c-0.2-0.1-0.5-0.3-0.9-0.4c-0.3-0.1-0.5-0.2-0.7-0.3
			c-0.2-0.1-0.4-0.2-0.5-0.4c-0.1-0.1-0.2-0.3-0.3-0.5c-0.1-0.2-0.1-0.4-0.1-0.7c0-0.3,0.1-0.6,0.3-0.9c0.2-0.2,0.4-0.4,0.7-0.6
			c0.3-0.1,0.7-0.2,1.1-0.2c0.3,0,0.7,0,1,0.1c0.3,0.1,0.6,0.2,0.8,0.3l-0.2,0.6c-0.2-0.1-0.5-0.2-0.7-0.2c-0.3-0.1-0.5-0.1-0.8-0.1
			c-0.3,0-0.5,0-0.7,0.1c-0.2,0.1-0.3,0.2-0.4,0.3s-0.1,0.3-0.1,0.5c0,0.2,0,0.4,0.1,0.6c0.1,0.1,0.2,0.3,0.5,0.4
			c0.2,0.1,0.5,0.2,0.8,0.4c0.4,0.1,0.7,0.3,1,0.4c0.3,0.2,0.5,0.3,0.6,0.6C212.8,457.5,212.9,457.7,212.9,458.1z"/>
		<path d="M214.9,458.7l0.1,0.1c-0.1,0.2-0.1,0.4-0.2,0.7c-0.1,0.2-0.2,0.5-0.3,0.7c-0.1,0.2-0.2,0.5-0.3,0.7h-0.5
			c0.1-0.2,0.1-0.5,0.2-0.7c0.1-0.3,0.1-0.5,0.2-0.8c0-0.3,0.1-0.5,0.1-0.7H214.9z"/>
		<path d="M221.7,459.8l-2.2-5.7h0c0,0.1,0,0.3,0,0.4c0,0.2,0,0.4,0,0.6c0,0.2,0,0.4,0,0.6v4.1h-0.7v-6.4h1.1l2,5.3h0l2.1-5.3h1.1
			v6.4h-0.7v-4.1c0-0.2,0-0.4,0-0.6c0-0.2,0-0.4,0-0.5c0-0.2,0-0.3,0-0.4h0l-2.2,5.7H221.7z"/>
		<path d="M230.5,459.8H227v-6.4h3.6v0.7h-2.8v2.1h2.7v0.7h-2.7v2.4h2.8V459.8z"/>
		<path d="M235.6,458.1c0,0.4-0.1,0.7-0.3,1c-0.2,0.3-0.5,0.5-0.8,0.6s-0.7,0.2-1.2,0.2c-0.2,0-0.5,0-0.7,0s-0.4-0.1-0.6-0.1
			c-0.2,0-0.3-0.1-0.5-0.2v-0.7c0.2,0.1,0.5,0.2,0.8,0.3c0.3,0.1,0.6,0.1,1,0.1c0.3,0,0.6,0,0.8-0.1c0.2-0.1,0.4-0.2,0.5-0.4
			c0.1-0.2,0.2-0.4,0.2-0.6c0-0.2,0-0.4-0.1-0.6c-0.1-0.1-0.3-0.3-0.5-0.4c-0.2-0.1-0.5-0.3-0.9-0.4c-0.3-0.1-0.5-0.2-0.7-0.3
			c-0.2-0.1-0.4-0.2-0.5-0.4c-0.1-0.1-0.2-0.3-0.3-0.5c-0.1-0.2-0.1-0.4-0.1-0.7c0-0.3,0.1-0.6,0.3-0.9c0.2-0.2,0.4-0.4,0.7-0.6
			c0.3-0.1,0.7-0.2,1.1-0.2c0.3,0,0.7,0,1,0.1c0.3,0.1,0.6,0.2,0.8,0.3l-0.2,0.6c-0.2-0.1-0.5-0.2-0.7-0.2c-0.3-0.1-0.5-0.1-0.8-0.1
			c-0.3,0-0.5,0-0.7,0.1c-0.2,0.1-0.3,0.2-0.4,0.3s-0.1,0.3-0.1,0.5c0,0.2,0,0.4,0.1,0.6c0.1,0.1,0.2,0.3,0.5,0.4
			c0.2,0.1,0.5,0.2,0.8,0.4c0.4,0.1,0.7,0.3,1,0.4c0.3,0.2,0.5,0.3,0.6,0.6C235.5,457.5,235.6,457.7,235.6,458.1z"/>
		<path d="M240.9,459.8l-0.8-2h-2.6l-0.8,2H236l2.5-6.5h0.7l2.5,6.5H240.9z M239.9,457.1l-0.8-2c0-0.1,0-0.1-0.1-0.3
			c0-0.1-0.1-0.2-0.1-0.4s-0.1-0.2-0.1-0.3c0,0.1-0.1,0.2-0.1,0.4c0,0.1-0.1,0.2-0.1,0.3c0,0.1-0.1,0.2-0.1,0.3l-0.8,2H239.9z"/>
		<path d="M157.6,467.4l1.7-3.2h0.8l-2.1,3.9v2.5h-0.7v-2.5l-2.1-4h0.8L157.6,467.4z"/>
		<path d="M166.9,468.9c0,0.4-0.1,0.7-0.3,1c-0.2,0.3-0.5,0.5-0.8,0.6s-0.7,0.2-1.2,0.2c-0.2,0-0.5,0-0.7,0s-0.4-0.1-0.6-0.1
			c-0.2,0-0.3-0.1-0.5-0.2v-0.7c0.2,0.1,0.5,0.2,0.8,0.3c0.3,0.1,0.6,0.1,1,0.1c0.3,0,0.6,0,0.8-0.1c0.2-0.1,0.4-0.2,0.5-0.4
			c0.1-0.2,0.2-0.4,0.2-0.6c0-0.2,0-0.4-0.1-0.6c-0.1-0.1-0.3-0.3-0.5-0.4c-0.2-0.1-0.5-0.3-0.9-0.4c-0.3-0.1-0.5-0.2-0.7-0.3
			c-0.2-0.1-0.4-0.2-0.5-0.4c-0.1-0.1-0.2-0.3-0.3-0.5c-0.1-0.2-0.1-0.4-0.1-0.7c0-0.3,0.1-0.6,0.3-0.9c0.2-0.2,0.4-0.4,0.7-0.6
			c0.3-0.1,0.7-0.2,1.1-0.2c0.3,0,0.7,0,1,0.1c0.3,0.1,0.6,0.2,0.8,0.3l-0.2,0.6c-0.2-0.1-0.5-0.2-0.7-0.2c-0.3-0.1-0.5-0.1-0.8-0.1
			c-0.3,0-0.5,0-0.7,0.1c-0.2,0.1-0.3,0.2-0.4,0.3s-0.1,0.3-0.1,0.5c0,0.2,0,0.4,0.1,0.6c0.1,0.1,0.2,0.3,0.5,0.4
			c0.2,0.1,0.5,0.2,0.8,0.4c0.4,0.1,0.7,0.3,1,0.4c0.3,0.2,0.5,0.3,0.6,0.6C166.9,468.3,166.9,468.5,166.9,468.9z"/>
		<path d="M168.3,470.6v-6.4h0.7v6.4H168.3z"/>
		<path d="M170.8,470.6v-6.4h0.7v5.8h2.9v0.7H170.8z"/>
		<path d="M175.5,470.6v-6.4h0.7v5.8h2.9v0.7H175.5z"/>
		<path d="M184.2,470.6l-0.8-2h-2.6l-0.8,2h-0.8l2.5-6.5h0.7l2.5,6.5H184.2z M183.2,467.9l-0.8-2c0-0.1,0-0.1-0.1-0.3
			c0-0.1-0.1-0.2-0.1-0.4s-0.1-0.2-0.1-0.3c0,0.1-0.1,0.2-0.1,0.4c0,0.1-0.1,0.2-0.1,0.3c0,0.1-0.1,0.2-0.1,0.3l-0.8,2H183.2z"/>
		<path d="M189.5,468.9c0,0.4-0.1,0.7-0.3,1c-0.2,0.3-0.5,0.5-0.8,0.6s-0.7,0.2-1.2,0.2c-0.2,0-0.5,0-0.7,0s-0.4-0.1-0.6-0.1
			c-0.2,0-0.3-0.1-0.5-0.2v-0.7c0.2,0.1,0.5,0.2,0.8,0.3c0.3,0.1,0.6,0.1,1,0.1c0.3,0,0.6,0,0.8-0.1c0.2-0.1,0.4-0.2,0.5-0.4
			c0.1-0.2,0.2-0.4,0.2-0.6c0-0.2,0-0.4-0.1-0.6c-0.1-0.1-0.3-0.3-0.5-0.4c-0.2-0.1-0.5-0.3-0.9-0.4c-0.3-0.1-0.5-0.2-0.7-0.3
			c-0.2-0.1-0.4-0.2-0.5-0.4c-0.1-0.1-0.2-0.3-0.3-0.5c-0.1-0.2-0.1-0.4-0.1-0.7c0-0.3,0.1-0.6,0.3-0.9c0.2-0.2,0.4-0.4,0.7-0.6
			c0.3-0.1,0.7-0.2,1.1-0.2c0.3,0,0.7,0,1,0.1c0.3,0.1,0.6,0.2,0.8,0.3l-0.2,0.6c-0.2-0.1-0.5-0.2-0.7-0.2c-0.3-0.1-0.5-0.1-0.8-0.1
			c-0.3,0-0.5,0-0.7,0.1c-0.2,0.1-0.3,0.2-0.4,0.3s-0.1,0.3-0.1,0.5c0,0.2,0,0.4,0.1,0.6c0.1,0.1,0.2,0.3,0.5,0.4
			c0.2,0.1,0.5,0.2,0.8,0.4c0.4,0.1,0.7,0.3,1,0.4c0.3,0.2,0.5,0.3,0.6,0.6C189.4,468.3,189.5,468.5,189.5,468.9z"/>
	</g>
	<g>
		<g>
			<path d="M146.8,337.6v8h-8v-8H146.8 M147.8,336.6h-10v10h10V336.6L147.8,336.6z"/>
		</g>
		<polygon class="st0" points="136.3,340.1 142.8,344.7 150.3,334.1 142.8,341.9 		"/>
	</g>
	<g>
		<g>
			<path d="M146.8,353.6v8h-8v-8H146.8 M147.8,352.6h-10v10h10V352.6L147.8,352.6z"/>
		</g>
		<polygon class="st0" points="136.3,356.1 142.8,360.7 150.3,350.1 142.8,357.9 		"/>
	</g>
	<g>
		<g>
			<path d="M146.8,382.6v8h-8v-8H146.8 M147.8,381.6h-10v10h10V381.6L147.8,381.6z"/>
		</g>
		<polygon class="st0" points="136.3,385.1 142.8,389.7 150.3,379.1 142.8,386.9 		"/>
	</g>
	<g>
		<g>
			<path d="M146.8,409.6v8h-8v-8H146.8 M147.8,408.6h-10v10h10V408.6L147.8,408.6z"/>
		</g>
		<polygon class="st0" points="136.3,412.1 142.8,416.7 150.3,406.1 142.8,413.9 		"/>
	</g>
	<g>
		<g>
			<path d="M146.8,426.6v8h-8v-8H146.8 M147.8,425.6h-10v10h10V425.6L147.8,425.6z"/>
		</g>
		<polygon class="st0" points="136.3,429.1 142.8,433.7 150.3,423.1 142.8,430.9 		"/>
	</g>
	<g>
		<g>
			<path d="M146.8,454.6v8h-8v-8H146.8 M147.8,453.6h-10v10h10V453.6L147.8,453.6z"/>
		</g>
		<polygon class="st0" points="136.3,457.1 142.8,461.7 150.3,451.1 142.8,458.9 		"/>
	</g>
	<g>
		<path d="M41.3,312.4c0,0.8-0.1,1.6-0.3,2.3s-0.5,1.3-0.9,1.8s-0.9,0.9-1.6,1.2l2.8,3.1h-3.1l-2.1-2.6c0,0-0.1,0-0.1,0
			s-0.1,0-0.1,0c-0.9,0-1.7-0.1-2.4-0.4s-1.2-0.7-1.7-1.2s-0.8-1.1-1-1.9s-0.3-1.5-0.3-2.4c0-1.2,0.2-2.2,0.6-3.1s1-1.6,1.8-2
			s1.8-0.7,3.1-0.7c1.2,0,2.3,0.2,3.1,0.7s1.4,1.2,1.8,2S41.3,311.2,41.3,312.4z M33,312.4c0,0.8,0.1,1.5,0.3,2.1s0.5,1,0.9,1.3
			s1,0.5,1.7,0.5c0.7,0,1.2-0.2,1.7-0.5s0.7-0.8,0.9-1.3s0.3-1.3,0.3-2.1c0-1.2-0.2-2.1-0.7-2.8s-1.2-1-2.2-1
			c-0.7,0-1.2,0.2-1.7,0.5s-0.7,0.8-0.9,1.3S33,311.6,33,312.4z"/>
		<path d="M53,306.7v7.4c0,0.8-0.2,1.5-0.5,2.1s-0.9,1.1-1.6,1.5s-1.6,0.6-2.6,0.6c-1.5,0-2.7-0.4-3.5-1.2s-1.2-1.8-1.2-3.1v-7.4H46
			v7c0,0.9,0.2,1.6,0.6,2s1,0.6,1.7,0.6c0.5,0,1-0.1,1.3-0.3s0.6-0.5,0.7-0.8s0.2-0.9,0.2-1.5v-7H53z"/>
		<path d="M62.4,318.1h-6.6v-11.4h6.6v2h-4.2v2.5h3.9v2h-3.9v2.9h4.2V318.1z M62.2,303.2v0.2c-0.2,0.1-0.3,0.3-0.6,0.5
			s-0.5,0.4-0.8,0.7s-0.6,0.5-0.8,0.7s-0.5,0.4-0.7,0.5h-1.6v-0.2c0.2-0.2,0.4-0.4,0.6-0.7s0.5-0.6,0.7-0.8s0.4-0.6,0.6-0.8H62.2z"
			/>
		<path d="M68.9,318.1v-11.4h2.4v11.4H68.9z"/>
		<path d="M84.3,318.1h-3.1l-5-8.6h-0.1c0,0.4,0,0.7,0.1,1.1s0,0.7,0,1.1s0,0.7,0,1.1v5.4h-2.2v-11.4h3.1l5,8.6h0.1
			c0-0.4,0-0.7,0-1.1s0-0.7,0-1s0-0.7,0-1v-5.4h2.2V318.1z"/>
		<path d="M92.1,308.6c-0.5,0-0.9,0.1-1.2,0.3s-0.7,0.4-0.9,0.8s-0.4,0.7-0.6,1.2s-0.2,1-0.2,1.6c0,0.8,0.1,1.5,0.3,2.1
			s0.5,1,0.9,1.3s1,0.4,1.6,0.4c0.5,0,0.9-0.1,1.4-0.2s1-0.3,1.5-0.4v2c-0.5,0.2-1,0.4-1.5,0.4s-1,0.1-1.6,0.1
			c-1.2,0-2.1-0.2-2.9-0.7s-1.3-1.2-1.7-2s-0.5-1.9-0.5-3.1c0-0.9,0.1-1.7,0.4-2.4s0.6-1.3,1-1.9s1-0.9,1.7-1.2s1.4-0.4,2.3-0.4
			c0.6,0,1.1,0.1,1.7,0.2s1.1,0.3,1.6,0.6l-0.8,2c-0.4-0.2-0.9-0.4-1.3-0.5S92.5,308.6,92.1,308.6z"/>
		<path d="M97.4,318.1v-11.4h2.4v9.4h4.6v2H97.4z"/>
		<path d="M115.8,306.7v7.4c0,0.8-0.2,1.5-0.5,2.1s-0.9,1.1-1.6,1.5s-1.6,0.6-2.6,0.6c-1.5,0-2.7-0.4-3.5-1.2s-1.2-1.8-1.2-3.1v-7.4
			h2.4v7c0,0.9,0.2,1.6,0.6,2s1,0.6,1.7,0.6c0.5,0,1-0.1,1.3-0.3s0.6-0.5,0.7-0.8s0.2-0.9,0.2-1.5v-7H115.8z"/>
		<path d="M122.1,311.4l2.4-4.7h2.6l-3.8,7v4.4h-2.4v-4.4l-3.8-7.1h2.6L122.1,311.4z"/>
		<path d="M135.1,318.1h-6.6v-11.4h6.6v2H131v2.5h3.9v2H131v2.9h4.2V318.1z"/>
		<path d="M137,310.6c0-0.5,0.1-0.8,0.4-1s0.6-0.3,1-0.3c0.4,0,0.7,0.1,1,0.3s0.4,0.5,0.4,1c0,0.5-0.1,0.8-0.4,1s-0.6,0.3-1,0.3
			c-0.4,0-0.7-0.1-1-0.3S137,311,137,310.6z M137,317c0-0.5,0.1-0.8,0.4-1s0.6-0.3,1-0.3c0.4,0,0.7,0.1,1,0.3s0.4,0.5,0.4,1
			c0,0.5-0.1,0.8-0.4,1s-0.6,0.3-1,0.3c-0.4,0-0.7-0.1-1-0.3S137,317.5,137,317z"/>
	</g>
</g>
<g>
	<path class="st0" d="M93.6,277H33v-12.8l21.8-22c4.4-4.5,7.9-8.3,10.6-11.3c2.7-3,4.6-5.8,5.8-8.3c1.2-2.5,1.8-5.2,1.8-8
		c0-3.4-1-6-2.9-7.7c-1.9-1.7-4.5-2.6-7.7-2.6c-3.4,0-6.6,0.8-9.8,2.3c-3.2,1.5-6.5,3.7-9.9,6.6l-10-11.8c2.5-2.1,5.1-4.2,7.9-6.1
		s6-3.4,9.7-4.6c3.7-1.2,8.1-1.8,13.3-1.8c5.7,0,10.6,1,14.7,3.1c4.1,2.1,7.2,4.9,9.5,8.4c2.2,3.5,3.3,7.5,3.3,12
		c0,4.8-0.9,9.2-2.8,13.1c-1.9,4-4.7,7.9-8.3,11.8c-3.6,3.9-8,8.2-13.1,12.9l-11.2,10.5v0.8h37.8V277z"/>
	<path class="st0" d="M157.8,233.6c0,7-0.5,13.3-1.6,18.8c-1.1,5.5-2.8,10.2-5.2,14c-2.4,3.8-5.5,6.8-9.4,8.8s-8.6,3-14.1,3
		c-7,0-12.7-1.8-17.2-5.3c-4.5-3.5-7.8-8.6-9.9-15.3c-2.1-6.7-3.2-14.6-3.2-23.9c0-9.4,1-17.4,2.9-24.1c2-6.7,5.2-11.8,9.6-15.3
		c4.4-3.6,10.3-5.3,17.7-5.3c6.9,0,12.6,1.8,17.1,5.3c4.5,3.5,7.8,8.6,10,15.3C156.7,216.2,157.8,224.2,157.8,233.6z M115.3,233.6
		c0,6.6,0.4,12.1,1.1,16.5c0.7,4.4,2,7.7,3.7,9.9c1.7,2.2,4.2,3.3,7.2,3.3c3,0,5.5-1.1,7.2-3.3c1.8-2.2,3-5.5,3.8-9.9
		c0.8-4.4,1.1-9.9,1.1-16.6c0-6.6-0.4-12.1-1.1-16.6c-0.8-4.4-2-7.8-3.8-10c-1.8-2.2-4.2-3.4-7.2-3.4c-3.1,0-5.5,1.1-7.2,3.4
		c-1.7,2.2-3,5.6-3.7,10C115.7,221.5,115.3,227,115.3,233.6z"/>
</g>
</svg>
