<?xml version="1.0" encoding="utf-8"?>
<!-- Generator: Adobe Illustrator 26.4.1, SVG Export Plug-In . SVG Version: 6.00 Build 0)  -->
<svg version="1.1" id="Capa_1" xmlns="http://www.w3.org/2000/svg" xmlns:xlink="http://www.w3.org/1999/xlink" x="0px" y="0px"
	 viewBox="0 0 279 522" style="enable-background:new 0 0 279 522;" xml:space="preserve">
<style type="text/css">
	.st0{fill:#E30613;}
	.st1{fill:#808080;}
	.st2{fill:none;stroke:#E30613;stroke-miterlimit:10;}
	.st3{fill:#1D1D1B;}
	.st4{fill:none;stroke:#1D1D1B;stroke-width:1.37;}
	.st5{fill:#FFFFFF;}
</style>
<path class="st0" d="M40.5,121.8c0,1-0.2,1.9-0.6,2.6c-0.4,0.7-1,1.2-1.7,1.6c-0.8,0.4-1.7,0.5-2.7,0.5h-2.6v-9.3h2.9
	c1,0,1.8,0.2,2.5,0.5s1.3,0.9,1.7,1.5C40.4,119.8,40.5,120.8,40.5,121.8z M38.4,121.8c0-0.7-0.1-1.2-0.3-1.7c-0.2-0.4-0.5-0.8-0.9-1
	s-0.9-0.3-1.5-0.3h-1v6h0.8c1,0,1.7-0.3,2.1-0.8C38.2,123.6,38.4,122.9,38.4,121.8z"/>
<path class="st0" d="M48.7,126.5h-5.3v-9.3h5.3v1.6h-3.4v2h3.1v1.6h-3.1v2.4h3.4V126.5z"/>
<path class="st0" d="M57.2,123.9c0,0.5-0.1,1-0.4,1.4c-0.3,0.4-0.7,0.7-1.2,0.9c-0.5,0.2-1.1,0.3-1.9,0.3c-0.3,0-0.6,0-0.9-0.1
	c-0.3,0-0.6-0.1-0.9-0.2c-0.3-0.1-0.5-0.2-0.8-0.3v-1.8c0.4,0.2,0.9,0.4,1.4,0.5c0.5,0.2,0.9,0.2,1.4,0.2c0.3,0,0.6,0,0.8-0.1
	s0.3-0.2,0.4-0.3c0.1-0.1,0.1-0.3,0.1-0.5s-0.1-0.4-0.2-0.6c-0.2-0.2-0.4-0.3-0.6-0.5c-0.3-0.1-0.6-0.3-0.9-0.5
	c-0.2-0.1-0.5-0.2-0.7-0.4c-0.3-0.1-0.5-0.3-0.7-0.5s-0.4-0.5-0.6-0.8c-0.1-0.3-0.2-0.7-0.2-1.1c0-0.6,0.1-1,0.4-1.4
	s0.6-0.7,1.1-0.9c0.5-0.2,1-0.3,1.7-0.3c0.5,0,0.9,0.1,1.4,0.2c0.4,0.1,0.9,0.3,1.4,0.5l-0.6,1.5c-0.4-0.2-0.8-0.3-1.1-0.4
	s-0.7-0.1-1-0.1c-0.2,0-0.5,0-0.6,0.1c-0.2,0.1-0.3,0.2-0.4,0.3c-0.1,0.1-0.1,0.3-0.1,0.5s0.1,0.4,0.2,0.6c0.1,0.2,0.3,0.3,0.6,0.4
	s0.6,0.3,1,0.5c0.5,0.2,0.9,0.5,1.2,0.7s0.6,0.5,0.8,0.9C57.1,123.1,57.2,123.5,57.2,123.9z"/>
<path class="st0" d="M63.8,118.7c-0.4,0-0.7,0.1-1,0.2s-0.5,0.4-0.7,0.6c-0.2,0.3-0.3,0.6-0.4,1c-0.1,0.4-0.2,0.8-0.2,1.3
	c0,0.7,0.1,1.2,0.2,1.7c0.2,0.5,0.4,0.8,0.8,1.1c0.4,0.3,0.8,0.4,1.3,0.4c0.4,0,0.8,0,1.1-0.1c0.3-0.1,0.8-0.2,1.2-0.4v1.7
	c-0.4,0.2-0.8,0.3-1.2,0.4s-0.8,0.1-1.3,0.1c-1,0-1.7-0.2-2.4-0.6c-0.6-0.4-1.1-1-1.4-1.7c-0.3-0.7-0.4-1.5-0.4-2.5
	c0-0.7,0.1-1.3,0.3-1.9s0.5-1.1,0.8-1.5s0.8-0.8,1.4-1c0.5-0.2,1.2-0.3,1.9-0.3c0.5,0,0.9,0.1,1.4,0.2s0.9,0.3,1.3,0.5l-0.6,1.6
	c-0.3-0.2-0.7-0.3-1-0.4C64.4,118.8,64.1,118.7,63.8,118.7z"/>
<path class="st0" d="M76.6,117.2v6c0,0.6-0.1,1.2-0.4,1.7s-0.7,0.9-1.3,1.2c-0.6,0.3-1.3,0.5-2.1,0.5c-1.2,0-2.2-0.3-2.8-0.9
	c-0.6-0.6-1-1.5-1-2.5v-6h2v5.7c0,0.8,0.2,1.3,0.5,1.6s0.8,0.5,1.4,0.5c0.4,0,0.8-0.1,1.1-0.2c0.3-0.1,0.5-0.4,0.6-0.7
	c0.1-0.3,0.2-0.7,0.2-1.2v-5.7H76.6L76.6,117.2z"/>
<path class="st0" d="M85.3,126.5H80v-9.3h5.3v1.6h-3.4v2H85v1.6h-3.1v2.4h3.4V126.5L85.3,126.5z"/>
<path class="st0" d="M96.4,126.5h-2.5l-4-7h-0.1c0,0.3,0,0.6,0,0.9s0,0.6,0,0.9s0,0.6,0,0.9v4.4H88v-9.3h2.5l4,7c0-0.3,0-0.6,0-0.9
	s0-0.6,0-0.9s0-0.6,0-0.9v-4.4h1.8L96.4,126.5z"/>
<path class="st0" d="M103.3,126.5h-2v-7.6h-2.5v-1.6h7v1.6h-2.5V126.5z"/>
<path class="st0" d="M116.7,121.9c0,0.7-0.1,1.4-0.3,2c-0.2,0.6-0.4,1.1-0.8,1.5s-0.8,0.7-1.4,1c-0.6,0.2-1.2,0.3-2,0.3
	s-1.4-0.1-2-0.3c-0.6-0.2-1-0.6-1.4-1s-0.6-0.9-0.8-1.5s-0.3-1.2-0.3-2c0-1,0.2-1.8,0.5-2.5s0.8-1.3,1.5-1.7
	c0.7-0.4,1.5-0.6,2.5-0.6s1.8,0.2,2.5,0.6s1.1,0.9,1.4,1.7C116.5,120.1,116.7,120.9,116.7,121.9z M109.9,121.9
	c0,0.6,0.1,1.2,0.2,1.7c0.2,0.5,0.4,0.8,0.8,1.1c0.3,0.3,0.8,0.4,1.3,0.4c0.6,0,1-0.1,1.4-0.4c0.3-0.3,0.6-0.6,0.8-1.1
	c0.2-0.5,0.2-1,0.2-1.7c0-1-0.2-1.7-0.5-2.3c-0.4-0.6-1-0.8-1.8-0.8c-0.6,0-1,0.1-1.4,0.4c-0.3,0.3-0.6,0.6-0.8,1.1
	C110,120.7,109.9,121.2,109.9,121.9z"/>
<path class="st0" d="M127.5,126.5h-2v-7.6H123v-1.6h7v1.6h-2.5V126.5z"/>
<path class="st0" d="M140.9,121.9c0,0.7-0.1,1.4-0.3,2s-0.4,1.1-0.8,1.5c-0.4,0.4-0.8,0.7-1.4,1c-0.6,0.2-1.2,0.3-2,0.3
	s-1.4-0.1-2-0.3c-0.6-0.2-1-0.6-1.4-1s-0.6-0.9-0.8-1.5s-0.3-1.2-0.3-2c0-1,0.2-1.8,0.5-2.5s0.8-1.3,1.5-1.7
	c0.7-0.4,1.5-0.6,2.5-0.6s1.8,0.2,2.5,0.6s1.1,0.9,1.4,1.7C140.6,120.2,140.9,120.9,140.9,121.9z M134.1,121.9
	c0,0.6,0.1,1.2,0.2,1.7c0.1,0.5,0.4,0.8,0.8,1.1c0.3,0.3,0.8,0.4,1.3,0.4c0.6,0,1-0.1,1.4-0.4c0.3-0.3,0.6-0.6,0.8-1.1
	s0.2-1,0.2-1.7c0-1-0.2-1.7-0.5-2.3c-0.4-0.6-1-0.8-1.8-0.8c-0.6,0-1,0.1-1.4,0.4c-0.3,0.3-0.6,0.6-0.8,1.1S134.1,121.2,134.1,121.9
	z"/>
<path class="st0" d="M147.4,126.5h-2v-7.6h-2.5v-1.6h7v1.6h-2.5V126.5z"/>
<path class="st0" d="M158,126.5l-0.7-2.2h-3.4l-0.7,2.2h-2.1l3.3-9.3h2.4l3.3,9.3H158z M156.9,122.7l-0.7-2.2c0-0.1-0.1-0.3-0.2-0.6
	c-0.1-0.2-0.1-0.5-0.2-0.7c-0.1-0.2-0.1-0.4-0.2-0.6c0,0.2-0.1,0.4-0.2,0.6c-0.1,0.2-0.1,0.5-0.2,0.7c-0.1,0.2-0.1,0.4-0.1,0.5
	l-0.7,2.2L156.9,122.7z"/>
<path class="st0" d="M162.3,126.5v-9.3h2v7.7h3.8v1.6C168.1,126.5,162.3,126.5,162.3,126.5z"/>
<path class="st0" d="M173.3,225c2.5,0,4.3,0.9,5.6,2.6c1.3,1.7,1.9,4.1,1.9,7.3c0,3.1-0.6,5.6-1.8,7.3c-1.2,1.8-3.1,2.6-5.7,2.6
	c-2.4,0-4.3-0.9-5.5-2.6c-1.3-1.8-1.9-4.2-1.9-7.3s0.6-5.5,1.8-7.3C168.8,225.8,170.7,225,173.3,225z M173.3,229.5
	c-0.7,0-1.2,0.4-1.6,1.3c-0.4,0.9-0.5,2.2-0.5,4.1c0,1.9,0.2,3.2,0.5,4.1s0.8,1.4,1.6,1.4s1.2-0.4,1.6-1.3c0.3-0.9,0.5-2.3,0.5-4.1
	s-0.2-3.2-0.5-4.1C174.6,230,174,229.5,173.3,229.5z M195.6,225.4l-17.5,31.5h-5.2l17.5-31.5H195.6L195.6,225.4z M195.3,237.6
	c2.5,0,4.3,0.9,5.6,2.6c1.3,1.7,1.9,4.1,1.9,7.3c0,3.1-0.6,5.5-1.8,7.3c-1.2,1.8-3.1,2.6-5.7,2.6c-2.4,0-4.3-0.9-5.5-2.6
	c-1.3-1.8-1.9-4.2-1.9-7.3s0.6-5.5,1.8-7.3S192.8,237.6,195.3,237.6z M195.4,242.1c-0.7,0-1.2,0.4-1.6,1.3c-0.3,0.9-0.5,2.2-0.5,4.1
	s0.2,3.2,0.5,4.1c0.3,0.9,0.8,1.4,1.6,1.4c0.7,0,1.2-0.4,1.6-1.3c0.3-0.9,0.5-2.3,0.5-4.1s-0.2-3.2-0.5-4.1
	C196.6,242.5,196.1,242.1,195.4,242.1z"/>
<path class="st0" d="M174.2,267.9c0,1.3-0.3,2.4-0.8,3.3s-1.2,1.5-2.2,2c-1,0.4-2.1,0.7-3.5,0.7h-3.3v-11.7h3.7
	c1.2,0,2.3,0.2,3.2,0.7s1.6,1.1,2.1,1.9C174,265.6,174.2,266.7,174.2,267.9z M171.6,268c0-0.9-0.1-1.6-0.4-2.1
	c-0.3-0.6-0.6-1-1.1-1.2c-0.5-0.3-1.1-0.4-1.8-0.4H167v7.6h1.1c1.2,0,2.1-0.3,2.7-1C171.3,270.2,171.6,269.3,171.6,268z"/>
<path class="st0" d="M181.5,264.1c-0.5,0-0.9,0.1-1.3,0.3c-0.4,0.2-0.7,0.4-0.9,0.8c-0.2,0.3-0.4,0.8-0.6,1.3s-0.2,1-0.2,1.7
	c0,0.8,0.1,1.5,0.3,2.1s0.5,1,1,1.3c0.4,0.3,1,0.5,1.7,0.5c0.5,0,1-0.1,1.4-0.2c0.5-0.1,1-0.3,1.6-0.5v2.1c-0.5,0.2-1,0.4-1.5,0.5
	s-1.1,0.1-1.7,0.1c-1.2,0-2.2-0.2-3-0.7s-1.4-1.2-1.7-2.1c-0.4-0.9-0.6-2-0.6-3.2c0-0.9,0.1-1.7,0.4-2.4c0.2-0.7,0.6-1.4,1.1-1.9
	s1-1,1.7-1.2s1.5-0.4,2.4-0.4c0.6,0,1.2,0.1,1.8,0.2s1.1,0.3,1.7,0.6l-0.8,2c-0.4-0.2-0.9-0.4-1.3-0.5
	C182.3,264.2,181.9,264.1,181.5,264.1z"/>
<path class="st0" d="M191.3,273.9h-2.5v-9.6h-3.2v-2.1h8.8v2.1h-3.2L191.3,273.9z"/>
<path class="st0" d="M206.8,268c0,0.9-0.1,1.7-0.3,2.5c-0.2,0.7-0.6,1.4-1,1.9c-0.5,0.5-1,0.9-1.7,1.2c-0.7,0.3-1.5,0.4-2.5,0.4
	s-1.8-0.1-2.5-0.4s-1.3-0.7-1.7-1.2c-0.5-0.5-0.8-1.2-1-1.9c-0.2-0.7-0.3-1.6-0.3-2.5c0-1.2,0.2-2.3,0.6-3.2c0.4-0.9,1-1.6,1.8-2.1
	s1.9-0.7,3.2-0.7s2.3,0.2,3.1,0.7s1.4,1.2,1.8,2.1C206.6,265.8,206.8,266.8,206.8,268z M198.2,268c0,0.8,0.1,1.5,0.3,2.1
	s0.5,1,1,1.4c0.4,0.3,1,0.5,1.7,0.5s1.3-0.2,1.7-0.5s0.8-0.8,1-1.4s0.3-1.3,0.3-2.1c0-1.2-0.2-2.2-0.7-2.9c-0.5-0.7-1.2-1.1-2.3-1.1
	c-0.7,0-1.3,0.2-1.7,0.5s-0.8,0.8-1,1.4S198.2,267.2,198.2,268z"/>
<path class="st0" d="M208.5,272.8c0-0.5,0.1-0.9,0.4-1.1c0.3-0.2,0.6-0.3,1-0.3s0.7,0.1,1,0.3c0.3,0.2,0.4,0.6,0.4,1.1
	s-0.1,0.8-0.4,1c-0.3,0.2-0.6,0.3-1,0.3s-0.7-0.1-1-0.3C208.7,273.6,208.5,273.2,208.5,272.8z"/>
<path class="st1" d="M119.4,50h8.3v4.8h-8.3v8.3h-4.7v-8.3h-8.3v-4.7h8.3v-8.4h4.7V50z"/>
<path class="st1" d="M81.7,42.8c0.9,0,1.5,0.3,2,0.9c0.5,0.6,0.7,1.5,0.7,2.5s-0.2,1.9-0.6,2.6c-0.4,0.6-1.1,0.9-2,0.9
	s-1.5-0.3-1.9-0.9c-0.4-0.6-0.7-1.5-0.7-2.6s0.2-1.9,0.6-2.5C80.2,43.1,80.8,42.8,81.7,42.8z M81.8,44.4c-0.2,0-0.4,0.2-0.5,0.5
	s-0.2,0.8-0.2,1.4c0,0.6,0.1,1.1,0.2,1.4c0.1,0.3,0.3,0.5,0.5,0.5s0.4-0.2,0.5-0.5s0.2-0.8,0.2-1.4c0-0.6-0.1-1.1-0.2-1.4
	C82.2,44.5,82,44.4,81.8,44.4z M89.6,43l-6.1,11h-1.9l6.1-11H89.6z M89.5,47.2c0.9,0,1.5,0.3,2,0.9c0.4,0.6,0.7,1.5,0.7,2.5
	c0,1.1-0.2,1.9-0.6,2.6c-0.4,0.6-1.1,0.9-2,0.9s-1.5-0.3-1.9-0.9c-0.4-0.6-0.7-1.5-0.7-2.6s0.2-1.9,0.6-2.5
	C87.9,47.5,88.6,47.2,89.5,47.2z M89.5,48.8c-0.2,0-0.4,0.2-0.5,0.5s-0.2,0.8-0.2,1.4c0,0.6,0.1,1.1,0.2,1.4
	c0.1,0.3,0.3,0.5,0.5,0.5s0.4-0.2,0.5-0.5s0.2-0.8,0.2-1.4c0-0.6-0.1-1.1-0.2-1.4S89.7,48.8,89.5,48.8z"/>
<path class="st1" d="M82.1,57.9c0,0.5-0.1,0.8-0.3,1.2c-0.2,0.4-0.4,0.5-0.8,0.7S80.3,60,79.8,60h-1.2v-4.2h1.3
	c0.4,0,0.8,0.1,1.1,0.2s0.6,0.4,0.7,0.7C82,57,82.1,57.4,82.1,57.9z M81.2,57.9c0-0.3,0-0.6-0.1-0.7c-0.1-0.2-0.2-0.3-0.4-0.4
	c-0.2-0.1-0.4-0.1-0.6-0.1h-0.5v2.7H80c0.4,0,0.7-0.1,0.9-0.3C81.1,58.7,81.2,58.3,81.2,57.9z"/>
<path class="st1" d="M84.6,56.5c-0.2,0-0.3,0-0.4,0.1s-0.2,0.2-0.3,0.3c-0.1,0.1-0.2,0.3-0.2,0.4c0,0.2-0.1,0.4-0.1,0.6
	c0,0.3,0,0.5,0.1,0.7s0.2,0.4,0.3,0.5c0.2,0.1,0.3,0.2,0.6,0.2c0.2,0,0.3,0,0.5-0.1c0.2,0,0.3-0.1,0.5-0.2v0.8
	c-0.2,0.1-0.4,0.1-0.5,0.2c-0.2,0-0.4,0-0.6,0c-0.4,0-0.8-0.1-1-0.3c-0.3-0.2-0.5-0.4-0.6-0.7s-0.2-0.7-0.2-1.1c0-0.3,0-0.6,0.1-0.9
	c0.1-0.3,0.2-0.5,0.4-0.7c0.2-0.2,0.4-0.3,0.6-0.4c0.2-0.1,0.5-0.2,0.8-0.2c0.2,0,0.4,0,0.6,0.1s0.4,0.1,0.6,0.2l-0.3,0.7
	c-0.2-0.1-0.3-0.1-0.5-0.2C84.9,56.5,84.8,56.5,84.6,56.5z"/>
<path class="st1" d="M88.1,59.9h-0.9v-3.4h-1.1v-0.7h3.1v0.7h-1.1V59.9z"/>
<path class="st1" d="M93.5,57.9c0,0.3,0,0.6-0.1,0.9s-0.2,0.5-0.4,0.7s-0.4,0.3-0.6,0.4C92.2,60,91.9,60,91.5,60s-0.6,0-0.9-0.1
	c-0.2-0.1-0.4-0.2-0.6-0.4s-0.3-0.4-0.4-0.7s-0.1-0.5-0.1-0.9s0.1-0.8,0.2-1.1s0.4-0.6,0.6-0.7c0.3-0.2,0.7-0.3,1.1-0.3
	s0.8,0.1,1.1,0.3c0.3,0.2,0.5,0.4,0.6,0.7C93.4,57.1,93.5,57.5,93.5,57.9z M90.5,57.9c0,0.3,0,0.5,0.1,0.7s0.2,0.4,0.3,0.5
	c0.1,0.1,0.4,0.2,0.6,0.2s0.4-0.1,0.6-0.2c0.2-0.1,0.3-0.3,0.3-0.5s0.1-0.5,0.1-0.7c0-0.4-0.1-0.8-0.2-1c-0.2-0.2-0.4-0.4-0.8-0.4
	c-0.2,0-0.4,0.1-0.6,0.2c-0.2,0.1-0.3,0.3-0.3,0.5C90.5,57.4,90.5,57.6,90.5,57.9z"/>
<path class="st1" d="M94.1,59.5c0-0.2,0-0.3,0.1-0.4c0.1-0.1,0.2-0.1,0.3-0.1s0.2,0,0.3,0.1c0.1,0.1,0.1,0.2,0.1,0.4s0,0.3-0.1,0.4
	C94.7,60,94.6,60,94.5,60s-0.3,0-0.3-0.1C94.1,59.8,94.1,59.7,94.1,59.5z"/>
<path class="st0" d="M192.7,41.8c0.9,0,1.5,0.3,2,0.9c0.5,0.6,0.7,1.5,0.7,2.5s-0.2,1.9-0.6,2.6c-0.4,0.6-1.1,0.9-2,0.9
	s-1.5-0.3-1.9-0.9c-0.4-0.6-0.7-1.5-0.7-2.6s0.2-1.9,0.6-2.5C191.2,42.1,191.8,41.8,192.7,41.8z M192.8,43.4c-0.2,0-0.4,0.2-0.5,0.5
	s-0.2,0.8-0.2,1.4c0,0.6,0.1,1.1,0.2,1.4c0.1,0.3,0.3,0.5,0.5,0.5s0.4-0.2,0.5-0.5s0.2-0.8,0.2-1.4c0-0.6-0.1-1.1-0.2-1.4
	C193.2,43.5,193,43.4,192.8,43.4z M200.6,42l-6.1,11h-1.8l6.1-11H200.6z M200.5,46.2c0.9,0,1.5,0.3,2,0.9c0.4,0.6,0.7,1.5,0.7,2.5
	c0,1.1-0.2,1.9-0.6,2.6c-0.4,0.6-1.1,0.9-2,0.9s-1.5-0.3-1.9-0.9c-0.4-0.6-0.7-1.5-0.7-2.6s0.2-1.9,0.6-2.5
	C198.9,46.5,199.6,46.2,200.5,46.2z M200.5,47.8c-0.2,0-0.4,0.2-0.5,0.5s-0.2,0.8-0.2,1.4c0,0.6,0.1,1.1,0.2,1.4
	c0.1,0.3,0.3,0.5,0.5,0.5s0.4-0.2,0.5-0.5s0.2-0.8,0.2-1.4c0-0.6-0.1-1.1-0.2-1.4S200.7,47.8,200.5,47.8z"/>
<path class="st0" d="M193.1,56.9c0,0.5-0.1,0.8-0.3,1.2s-0.4,0.5-0.8,0.7s-0.7,0.2-1.2,0.2h-1.2v-4.2h1.3c0.4,0,0.8,0.1,1.1,0.2
	s0.6,0.4,0.7,0.7C193,56,193.1,56.4,193.1,56.9z M192.2,56.9c0-0.3,0-0.6-0.1-0.7c-0.1-0.2-0.2-0.3-0.4-0.4
	c-0.2-0.1-0.4-0.1-0.6-0.1h-0.5v2.7h0.4c0.4,0,0.7-0.1,0.9-0.3C192.1,57.7,192.2,57.3,192.2,56.9z"/>
<path class="st0" d="M195.6,55.5c-0.2,0-0.3,0-0.4,0.1c-0.1,0.1-0.2,0.2-0.3,0.3s-0.2,0.3-0.2,0.4c0,0.2-0.1,0.4-0.1,0.6
	c0,0.3,0,0.5,0.1,0.7s0.2,0.4,0.3,0.5c0.2,0.1,0.3,0.2,0.6,0.2c0.2,0,0.3,0,0.5-0.1c0.2,0,0.3-0.1,0.5-0.2v0.8
	c-0.2,0.1-0.4,0.1-0.5,0.2c-0.2,0-0.4,0-0.6,0c-0.4,0-0.8-0.1-1-0.3c-0.3-0.2-0.5-0.4-0.6-0.7s-0.2-0.7-0.2-1.1c0-0.3,0-0.6,0.1-0.9
	c0.1-0.3,0.2-0.5,0.4-0.7s0.4-0.3,0.6-0.4c0.2-0.1,0.5-0.2,0.8-0.2c0.2,0,0.4,0,0.6,0.1c0.2,0.1,0.4,0.1,0.6,0.2l-0.3,0.7
	c-0.2-0.1-0.3-0.1-0.5-0.2C195.9,55.5,195.8,55.5,195.6,55.5z"/>
<path class="st0" d="M199.1,58.9h-0.9v-3.4h-1.1v-0.7h3.1v0.7h-1.1V58.9z"/>
<path class="st0" d="M204.5,56.9c0,0.3,0,0.6-0.1,0.9c-0.1,0.3-0.2,0.5-0.4,0.7s-0.4,0.3-0.6,0.4c-0.2,0.1-0.5,0.1-0.9,0.1
	s-0.6,0-0.9-0.1c-0.2-0.1-0.4-0.2-0.6-0.4s-0.3-0.4-0.4-0.7c-0.1-0.3-0.1-0.5-0.1-0.9s0.1-0.8,0.2-1.1c0.1-0.3,0.4-0.6,0.6-0.7
	c0.3-0.2,0.7-0.3,1.1-0.3c0.4,0,0.8,0.1,1.1,0.3s0.5,0.4,0.6,0.7C204.4,56.1,204.5,56.5,204.5,56.9z M201.5,56.9
	c0,0.3,0,0.5,0.1,0.7s0.2,0.4,0.3,0.5s0.4,0.2,0.6,0.2s0.4-0.1,0.6-0.2c0.2-0.1,0.3-0.3,0.3-0.5s0.1-0.5,0.1-0.7
	c0-0.4-0.1-0.8-0.2-1c-0.2-0.2-0.4-0.4-0.8-0.4c-0.2,0-0.4,0.1-0.6,0.2c-0.2,0.1-0.3,0.3-0.3,0.5C201.5,56.4,201.5,56.6,201.5,56.9z
	"/>
<path class="st0" d="M205.1,58.5c0-0.2,0-0.3,0.1-0.4c0.1-0.1,0.2-0.1,0.3-0.1s0.2,0,0.3,0.1s0.1,0.2,0.1,0.4s0,0.3-0.1,0.4
	c-0.1,0.1-0.2,0.1-0.3,0.1s-0.3,0-0.3-0.1C205.1,58.8,205.1,58.7,205.1,58.5z"/>
<path class="st0" d="M147.2,70.8c0,0.5-0.1,0.9-0.4,1.3s-0.6,0.7-1.1,0.9s-1,0.3-1.7,0.3c-0.3,0-0.6,0-0.9-0.1
	c-0.3-0.1-0.6-0.1-0.8-0.2s-0.5-0.2-0.7-0.3V71c0.4,0.2,0.8,0.3,1.3,0.5s0.9,0.2,1.3,0.2c0.3,0,0.5,0,0.7-0.1s0.3-0.2,0.4-0.3
	c0.1-0.1,0.1-0.3,0.1-0.5s-0.1-0.4-0.2-0.6c-0.1-0.2-0.3-0.3-0.6-0.4s-0.5-0.3-0.9-0.4c-0.2-0.1-0.4-0.2-0.7-0.3s-0.5-0.3-0.7-0.5
	s-0.4-0.4-0.5-0.7c-0.1-0.3-0.2-0.6-0.2-1c0-0.5,0.1-0.9,0.4-1.3s0.6-0.6,1-0.8c0.4-0.2,1-0.3,1.5-0.3c0.4,0,0.9,0.1,1.3,0.2
	c0.4,0.1,0.8,0.3,1.3,0.4l-0.6,1.4c-0.4-0.2-0.7-0.3-1.1-0.4c-0.4-0.1-0.6-0.1-1-0.1c-0.2,0-0.4,0-0.6,0.1s-0.3,0.2-0.4,0.3
	c-0.1,0.1-0.1,0.3-0.1,0.5s0.1,0.4,0.2,0.5s0.3,0.3,0.5,0.4s0.5,0.3,0.9,0.5s0.8,0.4,1.1,0.6s0.5,0.5,0.7,0.8
	C146.9,70,147.2,70.3,147.2,70.8z"/>
<path class="st0" d="M151.2,66.5c0.6,0,1.1,0.1,1.6,0.3c0.5,0.2,0.8,0.6,1,1s0.4,1,0.4,1.6v0.9H150c0,0.5,0.2,0.9,0.5,1.2
	s0.7,0.4,1.2,0.4c0.4,0,0.8,0,1.1-0.1s0.7-0.2,1.1-0.4v1.4c-0.3,0.2-0.7,0.3-1,0.4s-0.8,0.1-1.3,0.1c-0.7,0-1.2-0.1-1.7-0.4
	s-0.9-0.6-1.2-1.1s-0.4-1.1-0.4-1.9s0.1-1.4,0.4-1.9s0.6-0.9,1.1-1.1C150.3,66.7,150.6,66.5,151.2,66.5z M151.2,67.8
	c-0.3,0-0.6,0.1-0.9,0.3c-0.3,0.2-0.4,0.6-0.4,1h2.5c0-0.3-0.1-0.5-0.1-0.7s-0.2-0.4-0.4-0.5C151.7,67.8,151.5,67.8,151.2,67.8z"/>
<path class="st0" d="M160,71.2c0,0.4-0.1,0.8-0.3,1.1c-0.2,0.3-0.5,0.5-0.9,0.7s-0.9,0.2-1.5,0.2c-0.5,0-0.8,0-1.2-0.1
	s-0.7-0.2-1-0.3v-1.5c0.4,0.2,0.7,0.3,1.1,0.4c0.4,0.1,0.8,0.2,1.1,0.2s0.6-0.1,0.7-0.2c0.1-0.1,0.2-0.2,0.2-0.4
	c0-0.1,0-0.2-0.1-0.3c-0.1-0.1-0.2-0.2-0.4-0.3c-0.2-0.1-0.5-0.3-0.9-0.4c-0.4-0.2-0.7-0.3-1-0.5s-0.5-0.4-0.6-0.6s-0.2-0.5-0.2-0.9
	c0-0.6,0.2-1.1,0.7-1.4s1.1-0.5,1.9-0.5c0.4,0,0.8,0,1.2,0.1s0.7,0.2,1.1,0.4l-0.5,1.3c-0.3-0.1-0.6-0.3-0.9-0.3s-0.6-0.1-0.9-0.1
	c-0.3,0-0.5,0-0.6,0.1s-0.2,0.2-0.2,0.3c0,0.1,0,0.2,0.1,0.3c0.1,0.1,0.2,0.2,0.4,0.3c0.2,0.1,0.5,0.2,0.9,0.4
	c0.4,0.2,0.7,0.3,1,0.5s0.5,0.4,0.6,0.6C159.9,70.5,160,70.8,160,71.2z"/>
<path class="st0" d="M162.1,64.1c0.3,0,0.5,0.1,0.7,0.2s0.3,0.4,0.3,0.7s-0.1,0.6-0.3,0.7s-0.4,0.2-0.7,0.2s-0.5-0.1-0.7-0.2
	s-0.3-0.4-0.3-0.7s0.1-0.6,0.3-0.7S161.9,64.1,162.1,64.1z M163,66.6v6.6h-1.8v-6.6H163z"/>
<path class="st0" d="M170.7,69.9c0,0.5-0.1,1-0.2,1.5s-0.4,0.8-0.6,1.1c-0.2,0.3-0.6,0.5-1,0.7s-0.8,0.2-1.3,0.2s-0.9-0.1-1.3-0.2
	c-0.4-0.1-0.7-0.4-1-0.7s-0.5-0.6-0.7-1.1s-0.2-0.9-0.2-1.5c0-0.7,0.1-1.3,0.4-1.8s0.6-0.9,1.1-1.1s1-0.4,1.7-0.4
	c0.6,0,1.2,0.1,1.6,0.4c0.4,0.3,0.8,0.6,1.1,1.1S170.7,69.2,170.7,69.9z M166.2,69.9c0,0.4,0,0.8,0.1,1.1c0.1,0.3,0.2,0.5,0.4,0.7
	s0.5,0.2,0.8,0.2s0.6-0.1,0.8-0.2s0.3-0.4,0.4-0.7c0.1-0.3,0.1-0.7,0.1-1.1s0-0.8-0.1-1.1c-0.1-0.3-0.2-0.5-0.4-0.6
	s-0.5-0.2-0.8-0.2c-0.5,0-0.8,0.2-1,0.5S166.2,69.2,166.2,69.9z M169.8,64c-0.1,0.2-0.3,0.3-0.4,0.5c-0.1,0.2-0.4,0.3-0.6,0.5
	s-0.4,0.3-0.6,0.5s-0.4,0.3-0.5,0.4h-1.2v-0.2c0.1-0.1,0.3-0.3,0.4-0.5c0.1-0.2,0.3-0.4,0.5-0.6s0.3-0.4,0.4-0.6L169.8,64L169.8,64z
	"/>
<path class="st0" d="M175.7,66.5c0.7,0,1.3,0.2,1.7,0.6s0.6,1,0.6,1.8v4.3h-1.8v-3.8c0-0.5-0.1-0.8-0.3-1.1
	c-0.2-0.3-0.4-0.4-0.8-0.4c-0.5,0-0.9,0.2-1.1,0.6s-0.3,0.9-0.3,1.6v3.1h-1.8v-6.6h1.4l0.2,0.8h0.1c0.1-0.2,0.3-0.4,0.5-0.6
	s0.4-0.2,0.7-0.3S175.5,66.5,175.7,66.5z"/>
<path class="st0" d="M144.7,87.7c-0.6,0-1.2-0.1-1.7-0.4s-0.8-0.6-1-1.1s-0.4-1.1-0.4-1.9s0.1-1.5,0.4-2s0.6-0.9,1.1-1.1
	s1-0.4,1.7-0.4c0.5,0,0.8,0,1.2,0.1s0.6,0.2,0.9,0.3l-0.5,1.4c-0.3-0.1-0.5-0.2-0.8-0.3c-0.3-0.1-0.5-0.1-0.7-0.1
	c-0.3,0-0.6,0.1-0.8,0.2s-0.4,0.4-0.5,0.7c-0.1,0.3-0.2,0.7-0.2,1.1s0.1,0.8,0.2,1.1c0.1,0.3,0.3,0.5,0.5,0.6s0.5,0.2,0.8,0.2
	c0.4,0,0.7,0,1-0.1s0.6-0.2,0.8-0.4v1.5c-0.3,0.2-0.6,0.3-0.9,0.4S145.2,87.7,144.7,87.7z"/>
<path class="st0" d="M154,84.3c0,0.5-0.1,1-0.2,1.5c-0.1,0.5-0.4,0.8-0.6,1.1c-0.2,0.3-0.6,0.5-1,0.7s-0.8,0.2-1.3,0.2
	s-0.9-0.1-1.3-0.2c-0.4-0.1-0.7-0.4-1-0.7c-0.3-0.3-0.5-0.6-0.7-1.1s-0.2-0.9-0.2-1.5c0-0.7,0.1-1.3,0.4-1.8
	c0.3-0.5,0.6-0.9,1.1-1.1s1-0.4,1.7-0.4c0.6,0,1.2,0.1,1.6,0.4c0.4,0.3,0.8,0.6,1.1,1.1C153.9,83,154,83.6,154,84.3z M149.5,84.3
	c0,0.4,0,0.8,0.1,1.1c0.1,0.3,0.2,0.5,0.4,0.7s0.5,0.2,0.8,0.2s0.6-0.1,0.8-0.2s0.3-0.4,0.4-0.7c0.1-0.3,0.1-0.7,0.1-1.1
	s0-0.8-0.1-1.1c-0.1-0.3-0.2-0.5-0.4-0.6s-0.5-0.2-0.8-0.2c-0.5,0-0.8,0.2-1,0.5C149.6,83.2,149.5,83.6,149.5,84.3z"/>
<path class="st0" d="M163,80.9c0.7,0,1.3,0.2,1.7,0.6s0.6,1,0.6,1.8v4.3h-1.8v-3.8c0-0.5-0.1-0.8-0.2-1.1c-0.1-0.3-0.4-0.4-0.7-0.4
	c-0.5,0-0.8,0.2-1,0.5s-0.3,0.8-0.3,1.5v3.3h-1.8v-3.8c0-0.3,0-0.6-0.1-0.8c-0.1-0.2-0.2-0.4-0.3-0.5s-0.3-0.2-0.6-0.2
	s-0.6,0.1-0.8,0.2s-0.3,0.4-0.4,0.7c-0.1,0.3-0.1,0.7-0.1,1.2v3.1h-1.8v-6.6h1.4l0.2,0.8h0.1c0.1-0.2,0.3-0.4,0.5-0.6
	s0.4-0.2,0.7-0.3c0.3-0.1,0.5-0.1,0.7-0.1c0.5,0,0.9,0.1,1.2,0.2s0.6,0.4,0.8,0.7h0.2c0.2-0.3,0.5-0.6,0.8-0.7S162.7,80.9,163,80.9z
	"/>
<path class="st0" d="M170.6,80.9c0.7,0,1.3,0.3,1.8,0.9s0.7,1.4,0.7,2.5c0,0.7-0.1,1.4-0.3,1.9s-0.5,0.9-0.9,1.1s-0.8,0.4-1.3,0.4
	c-0.3,0-0.6,0-0.8-0.1s-0.4-0.2-0.6-0.3c-0.2-0.1-0.3-0.3-0.4-0.4h-0.1c0,0.2,0.1,0.3,0.1,0.5s0,0.3,0,0.5v2.6H167v-9.4h1.5l0.3,0.8
	h0.1c0.1-0.2,0.3-0.3,0.4-0.5c0.1-0.2,0.4-0.3,0.6-0.4C170.1,80.9,170.3,80.9,170.6,80.9z M170,82.3c-0.3,0-0.6,0.1-0.7,0.2
	c-0.1,0.1-0.3,0.3-0.4,0.6c-0.1,0.3-0.1,0.6-0.1,1v0.2c0,0.4,0,0.8,0.1,1.1c0.1,0.3,0.2,0.5,0.4,0.7s0.5,0.2,0.8,0.2
	s0.5-0.1,0.7-0.2s0.3-0.4,0.4-0.7c0.1-0.3,0.1-0.7,0.1-1.1c0-0.6-0.1-1.1-0.3-1.4C170.8,82.6,170.5,82.3,170,82.3z"/>
<path class="st0" d="M177.1,80.9c0.9,0,1.6,0.2,2,0.6s0.7,1,0.7,1.7v4.4h-1.2l-0.3-0.9c-0.2,0.2-0.4,0.4-0.6,0.6
	c-0.2,0.2-0.4,0.3-0.7,0.3s-0.6,0.1-0.9,0.1c-0.4,0-0.7-0.1-1-0.2s-0.5-0.4-0.7-0.7c-0.2-0.3-0.3-0.7-0.3-1.2c0-0.7,0.2-1.2,0.7-1.5
	s1.2-0.5,2.2-0.5h1.1v-0.3c0-0.3-0.1-0.6-0.3-0.8s-0.4-0.2-0.8-0.2c-0.3,0-0.6,0-0.9,0.1c-0.3,0.1-0.6,0.2-0.9,0.3l-0.6-1.2
	c0.3-0.2,0.7-0.3,1.2-0.4S176.6,80.9,177.1,80.9z M178,84.5h-0.7c-0.6,0-1,0.1-1.2,0.3c-0.2,0.2-0.3,0.4-0.3,0.8
	c0,0.3,0.1,0.5,0.2,0.6c0.1,0.1,0.4,0.2,0.6,0.2c0.4,0,0.7-0.1,1-0.3c0.3-0.2,0.4-0.5,0.4-1V84.5z"/>
<path class="st0" d="M185.2,80.9c0.1,0,0.2,0,0.3,0s0.2,0,0.3,0l-0.1,1.7c-0.1,0-0.1,0-0.2,0s-0.2,0-0.3,0c-0.2,0-0.5,0-0.7,0.1
	s-0.4,0.2-0.6,0.3c-0.2,0.1-0.3,0.3-0.4,0.5s-0.1,0.5-0.1,0.8v3.3h-1.8V81h1.4l0.3,1.1h0.1c0.1-0.2,0.3-0.4,0.5-0.6s0.4-0.3,0.7-0.4
	S184.9,80.9,185.2,80.9z"/>
<path class="st0" d="M189.5,86.3c0.2,0,0.4,0,0.6-0.1c0.2-0.1,0.4-0.1,0.6-0.1v1.3c-0.2,0.1-0.4,0.2-0.7,0.2s-0.6,0.1-0.9,0.1
	c-0.4,0-0.7-0.1-1.1-0.2s-0.6-0.3-0.7-0.7c-0.1-0.4-0.3-0.8-0.3-1.3v-3.2h-0.9v-0.8l1-0.6l0.5-1.4h1.1v1.4h1.8v1.3h-1.8v3.2
	c0,0.2,0.1,0.4,0.2,0.6C189,86.2,189.3,86.3,189.5,86.3z"/>
<path class="st0" d="M192.7,78.5c0.3,0,0.5,0.1,0.7,0.2s0.3,0.4,0.3,0.7c0,0.3-0.1,0.6-0.3,0.7s-0.4,0.2-0.7,0.2s-0.5-0.1-0.7-0.2
	s-0.3-0.4-0.3-0.7c0-0.3,0.1-0.6,0.3-0.7S192.5,78.5,192.7,78.5z M193.6,81v6.6h-1.8V81H193.6z"/>
<path class="st0" d="M197.4,87.7c-0.7,0-1.3-0.3-1.8-0.9s-0.7-1.4-0.7-2.5s0.2-2,0.7-2.5s1.1-0.9,1.8-0.9c0.3,0,0.6,0,0.8,0.1
	s0.4,0.2,0.6,0.3c0.2,0.1,0.3,0.3,0.4,0.5h0.1c0-0.1-0.1-0.3-0.1-0.6c0-0.3,0-0.5,0-0.8v-2.1h1.8v9.1h-1.4l-0.3-0.8h-0.1
	c-0.1,0.2-0.3,0.3-0.4,0.5c-0.1,0.2-0.4,0.3-0.6,0.3S197.7,87.7,197.4,87.7z M198,86.3c0.5,0,0.8-0.1,1-0.4s0.3-0.7,0.3-1.3v-0.2
	c0-0.6-0.1-1.1-0.3-1.5s-0.6-0.5-1.1-0.5c-0.4,0-0.7,0.2-0.9,0.5s-0.3,0.8-0.3,1.5s0.1,1.1,0.3,1.4C197.2,86.1,197.6,86.3,198,86.3z
	"/>
<path class="st0" d="M205.5,80.9c0.9,0,1.6,0.2,2,0.6s0.7,1,0.7,1.7v4.4H207l-0.3-0.9c-0.2,0.2-0.4,0.4-0.6,0.6
	c-0.2,0.2-0.4,0.3-0.7,0.3s-0.6,0.1-0.9,0.1c-0.4,0-0.7-0.1-1-0.2s-0.5-0.4-0.7-0.7c-0.2-0.3-0.3-0.7-0.3-1.2c0-0.7,0.2-1.2,0.7-1.5
	s1.2-0.5,2.2-0.5h1.1v-0.3c0-0.3-0.1-0.6-0.3-0.8s-0.4-0.2-0.8-0.2c-0.3,0-0.6,0-0.9,0.1s-0.6,0.2-0.9,0.3l-0.6-1.2
	c0.3-0.2,0.7-0.3,1.2-0.4S205,80.9,205.5,80.9z M206.4,84.5h-0.7c-0.6,0-1,0.1-1.2,0.3c-0.2,0.2-0.3,0.4-0.3,0.8
	c0,0.3,0.1,0.5,0.2,0.6c0.1,0.1,0.4,0.2,0.6,0.2c0.4,0,0.7-0.1,1-0.3c0.3-0.2,0.4-0.5,0.4-1V84.5z"/>
<path class="st0" d="M214.2,84.2l-2.1-3.2h2l1.3,2.1l1.3-2.1h2l-2.1,3.2l2.2,3.3h-2l-1.4-2.2l-1.4,2.2h-2L214.2,84.2z"/>
<path class="st0" d="M224.8,80.9c0,0.4-0.1,0.7-0.2,1c-0.1,0.3-0.4,0.5-0.7,0.7s-0.6,0.3-0.9,0.4c0.7,0.1,1.2,0.3,1.6,0.6
	c0.4,0.3,0.5,0.8,0.5,1.3s-0.1,0.9-0.4,1.3c-0.3,0.4-0.6,0.7-1.1,0.9c-0.5,0.2-1.2,0.3-2,0.3c-0.5,0-0.9,0-1.3-0.1
	c-0.4-0.1-0.8-0.2-1.2-0.3v-1.5c0.4,0.2,0.8,0.3,1.2,0.4s0.8,0.1,1.1,0.1c0.6,0,1.1-0.1,1.4-0.3c0.3-0.2,0.4-0.5,0.4-0.9
	c0-0.2-0.1-0.4-0.2-0.6c-0.1-0.2-0.3-0.3-0.6-0.4s-0.7-0.1-1.3-0.1h-0.7v-1.4h0.7c0.5,0,0.9,0,1.2-0.1s0.5-0.2,0.6-0.4
	c0.1-0.2,0.1-0.4,0.1-0.6c0-0.3-0.1-0.5-0.3-0.7s-0.5-0.3-0.9-0.3c-0.3,0-0.5,0-0.7,0.1s-0.4,0.2-0.6,0.2s-0.3,0.2-0.5,0.3l-0.8-1.2
	c0.3-0.2,0.7-0.4,1.2-0.6s1-0.2,1.6-0.2c0.9,0,1.6,0.2,2.1,0.5C224.6,79.6,224.8,80.3,224.8,80.9z"/>
<path class="st1" d="M32.2,65.6h2.7c1.1,0,2,0.2,2.6,0.5s0.9,0.9,0.9,1.7c0,0.3-0.1,0.6-0.2,0.9c-0.1,0.3-0.3,0.5-0.4,0.6
	c-0.1,0.1-0.4,0.3-0.7,0.3v0.1c0.3,0.1,0.5,0.2,0.8,0.3c0.3,0.1,0.4,0.3,0.6,0.6c0.2,0.3,0.2,0.6,0.2,1.1s-0.1,1-0.4,1.3
	s-0.6,0.7-1.1,0.9c-0.5,0.2-1,0.3-1.7,0.3h-3.2L32.2,65.6z M34,69h1.1c0.5,0,0.9-0.1,1.1-0.2c0.2-0.1,0.3-0.4,0.3-0.7
	c0-0.3-0.1-0.6-0.4-0.7c-0.3-0.1-0.6-0.2-1.1-0.2h-1C34,67.2,34,69,34,69z M34,70.4v2.2h1.2c0.5,0,0.9-0.1,1.1-0.3
	c0.2-0.2,0.3-0.5,0.3-0.8c0-0.2,0-0.4-0.1-0.6s-0.3-0.3-0.5-0.4s-0.5-0.1-0.9-0.1L34,70.4L34,70.4z"/>
<path class="st1" d="M42.6,67.5c0.9,0,1.6,0.2,2,0.6s0.7,1,0.7,1.7v4.4h-1.2l-0.3-0.9c-0.2,0.2-0.4,0.4-0.6,0.6
	c-0.2,0.2-0.4,0.3-0.7,0.3s-0.6,0.1-0.9,0.1c-0.4,0-0.7-0.1-1-0.2s-0.5-0.4-0.7-0.7c-0.2-0.3-0.3-0.7-0.3-1.2c0-0.7,0.2-1.2,0.7-1.5
	s1.2-0.5,2.2-0.5h1.1v-0.4c0-0.3-0.1-0.6-0.3-0.8s-0.4-0.2-0.7-0.2s-0.6,0-0.9,0.1s-0.6,0.2-0.9,0.3L40.2,68
	c0.3-0.2,0.7-0.3,1.2-0.4S42.2,67.5,42.6,67.5z M43.6,71.1h-0.7c-0.6,0-1,0.1-1.2,0.3c-0.2,0.2-0.3,0.4-0.3,0.8
	c0,0.3,0.1,0.5,0.2,0.6c0.1,0.1,0.4,0.2,0.6,0.2c0.4,0,0.7-0.1,1-0.3c0.3-0.2,0.4-0.5,0.4-1V71.1z"/>
<path class="st1" d="M51.6,72.2c0,0.4-0.1,0.8-0.3,1.1c-0.2,0.3-0.5,0.5-0.9,0.7s-0.9,0.2-1.5,0.2c-0.5,0-0.8,0-1.2-0.1
	s-0.7-0.2-1-0.3v-1.5c0.4,0.2,0.7,0.3,1.1,0.4c0.4,0.1,0.8,0.2,1.1,0.2s0.6-0.1,0.7-0.2c0.1-0.1,0.2-0.2,0.2-0.4
	c0-0.1,0-0.2-0.1-0.3c-0.1-0.1-0.2-0.2-0.4-0.3c-0.2-0.1-0.5-0.3-0.9-0.4c-0.4-0.2-0.7-0.3-1-0.5s-0.5-0.4-0.6-0.6s-0.2-0.5-0.2-0.9
	c0-0.6,0.2-1.1,0.7-1.4s1.1-0.5,1.9-0.5c0.4,0,0.8,0,1.2,0.1s0.7,0.2,1.1,0.4L51,69.2c-0.3-0.1-0.6-0.3-0.9-0.3
	c-0.3,0-0.6-0.1-0.9-0.1s-0.5,0-0.6,0.1s-0.2,0.2-0.2,0.3c0,0.1,0,0.2,0.1,0.3s0.2,0.2,0.4,0.3c0.2,0.1,0.5,0.2,0.9,0.4
	c0.4,0.2,0.7,0.3,1,0.5s0.5,0.4,0.6,0.6C51.5,71.5,51.6,71.8,51.6,72.2z"/>
<path class="st1" d="M55.6,67.5c0.6,0,1.1,0.1,1.6,0.3c0.5,0.2,0.8,0.6,1,1s0.4,1,0.4,1.6v0.9h-4.2c0,0.5,0.2,0.9,0.5,1.2
	c0.3,0.3,0.7,0.4,1.2,0.4c0.4,0,0.8,0,1.1-0.1s0.7-0.2,1.1-0.4v1.4c-0.3,0.2-0.7,0.3-1,0.4s-0.8,0.1-1.3,0.1c-0.7,0-1.2-0.1-1.7-0.4
	s-0.9-0.6-1.2-1.1s-0.4-1.1-0.4-1.9s0.1-1.4,0.4-1.9c0.3-0.5,0.6-0.9,1.1-1.1C54.7,67.7,54.9,67.5,55.6,67.5z M55.6,68.8
	c-0.3,0-0.6,0.1-0.9,0.3c-0.3,0.2-0.4,0.6-0.4,1h2.5c0-0.3-0.1-0.5-0.1-0.7s-0.2-0.4-0.4-0.5S55.9,68.8,55.6,68.8z"/>
<path class="st1" d="M62.9,65.6h2.7c1.1,0,2,0.2,2.6,0.5s0.9,0.9,0.9,1.7c0,0.3-0.1,0.6-0.2,0.9s-0.3,0.5-0.4,0.6s-0.4,0.3-0.7,0.3
	v0.1c0.3,0.1,0.5,0.2,0.8,0.3c0.3,0.1,0.4,0.3,0.6,0.6c0.2,0.3,0.2,0.6,0.2,1.1s-0.1,1-0.4,1.3s-0.6,0.7-1.1,0.9
	c-0.5,0.2-1,0.3-1.7,0.3H63L62.9,65.6z M64.7,69h1.1c0.5,0,0.9-0.1,1.1-0.2s0.3-0.4,0.3-0.7c0-0.3-0.1-0.6-0.4-0.7s-0.6-0.2-1.1-0.2
	h-1V69L64.7,69z M64.7,70.4v2.2h1.2c0.5,0,0.9-0.1,1.1-0.3c0.2-0.2,0.3-0.5,0.3-0.8c0-0.2,0-0.4-0.1-0.6s-0.3-0.3-0.5-0.4
	s-0.5-0.1-0.9-0.1L64.7,70.4L64.7,70.4z"/>
<path class="st1" d="M72.4,74.2h-1.8v-9.1h1.8V74.2z"/>
<path class="st1" d="M76.8,67.5c0.9,0,1.6,0.2,2,0.6s0.7,1,0.7,1.7v4.4h-1.2L78,73.3c-0.2,0.2-0.4,0.4-0.6,0.6s-0.4,0.3-0.7,0.3
	c-0.3,0-0.6,0.1-0.9,0.1c-0.4,0-0.7-0.1-1-0.2s-0.5-0.4-0.7-0.7c-0.2-0.3-0.3-0.7-0.3-1.2c0-0.7,0.2-1.2,0.7-1.5s1.2-0.5,2.2-0.5
	h1.1v-0.4c0-0.3-0.1-0.6-0.3-0.8s-0.4-0.2-0.8-0.2c-0.3,0-0.6,0-0.9,0.1s-0.6,0.2-0.9,0.3L74.3,68c0.3-0.2,0.7-0.3,1.2-0.4
	S76.4,67.5,76.8,67.5z M77.8,71.1h-0.7c-0.6,0-1,0.1-1.2,0.3c-0.2,0.2-0.3,0.4-0.3,0.8c0,0.3,0.1,0.5,0.2,0.6s0.4,0.2,0.6,0.2
	c0.4,0,0.7-0.1,1-0.3c0.3-0.2,0.4-0.5,0.4-1V71.1z"/>
<path class="st1" d="M83.9,74.3c-0.6,0-1.2-0.1-1.7-0.4s-0.8-0.6-1-1.1s-0.4-1.1-0.4-1.9s0.1-1.5,0.4-2s0.6-0.9,1.1-1.1
	s1-0.4,1.7-0.4c0.5,0,0.8,0,1.2,0.1c0.4,0.1,0.6,0.2,0.9,0.3l-0.5,1.4c-0.3-0.1-0.5-0.2-0.8-0.3c-0.3-0.1-0.5-0.1-0.7-0.1
	c-0.3,0-0.6,0.1-0.8,0.2c-0.2,0.1-0.4,0.4-0.5,0.7c-0.1,0.3-0.2,0.7-0.2,1.1s0.1,0.8,0.2,1.1c0.1,0.3,0.3,0.5,0.5,0.6
	s0.5,0.2,0.8,0.2c0.4,0,0.7,0,1-0.1s0.6-0.2,0.8-0.4v1.6c-0.3,0.2-0.6,0.3-0.9,0.4C84.7,74.3,84.4,74.3,83.9,74.3z"/>
<path class="st1" d="M89.1,65.1v4.1c0,0.2,0,0.5,0,0.7s0,0.5-0.1,0.7c0.1-0.2,0.2-0.3,0.4-0.5c0.2-0.2,0.3-0.3,0.4-0.5l1.8-2h2
	L91,70.4l2.8,3.7h-2.1l-1.9-2.7L89,72v2h-1.8v-9.1h1.9V65.1L89.1,65.1z"/>
<path class="st1" d="M35.8,88.6l-2.1-6.7h-0.1c0,0.2,0,0.4,0,0.7c0,0.3,0,0.7,0,1s0,0.7,0,1v4H32V80h2.5l2,6.6l2.2-6.6h2.5v8.6h-1.7
	v-4.1c0-0.3,0-0.6,0-0.9s0-0.7,0-1s0-0.6,0-0.7h-0.1l-2.2,6.7H35.8z"/>
<path class="st1" d="M49.2,85.3c0,0.5-0.1,1-0.2,1.5s-0.4,0.8-0.6,1.1c-0.2,0.3-0.6,0.5-1,0.7s-0.8,0.2-1.3,0.2s-0.9-0.1-1.3-0.2
	c-0.4-0.1-0.7-0.4-1-0.7c-0.3-0.3-0.5-0.6-0.7-1.1s-0.2-0.9-0.2-1.5c0-0.7,0.1-1.3,0.4-1.8s0.6-0.9,1.1-1.1s1-0.4,1.7-0.4
	c0.6,0,1.2,0.1,1.6,0.4c0.4,0.3,0.8,0.6,1.1,1.1S49.2,84.6,49.2,85.3z M44.6,85.3c0,0.4,0,0.8,0.1,1.1c0.1,0.3,0.2,0.5,0.4,0.7
	s0.5,0.2,0.8,0.2s0.6-0.1,0.8-0.2s0.3-0.4,0.4-0.7c0.1-0.3,0.1-0.7,0.1-1.1s0-0.8-0.1-1.1c-0.1-0.3-0.2-0.5-0.4-0.6
	s-0.5-0.2-0.8-0.2c-0.5,0-0.8,0.2-1,0.5C44.7,84.2,44.6,84.6,44.6,85.3z"/>
<path class="st1" d="M54.2,81.9c0.7,0,1.3,0.2,1.7,0.6s0.6,1,0.6,1.8v4.3h-1.8v-3.8c0-0.5-0.1-0.8-0.3-1.1c-0.2-0.3-0.4-0.4-0.8-0.4
	c-0.5,0-0.9,0.2-1.1,0.6s-0.3,0.9-0.3,1.6v3.1h-1.8V82h1.4l0.2,0.8h0.1c0.1-0.2,0.3-0.4,0.5-0.6s0.4-0.2,0.7-0.3
	S53.9,81.9,54.2,81.9z"/>
<path class="st1" d="M60.3,88.7c-0.7,0-1.3-0.3-1.8-0.9s-0.7-1.4-0.7-2.5s0.2-2,0.7-2.5s1.1-0.9,1.8-0.9c0.3,0,0.6,0,0.8,0.1
	s0.4,0.2,0.6,0.3c0.2,0.1,0.3,0.3,0.4,0.5h0.1c0-0.1-0.1-0.3-0.1-0.6c0-0.3,0-0.5,0-0.8v-2.1h1.8v9.1h-1.3l-0.3-0.8h-0.1
	c-0.1,0.2-0.3,0.3-0.4,0.5c-0.1,0.2-0.4,0.3-0.6,0.3S60.6,88.7,60.3,88.7z M60.9,87.3c0.5,0,0.8-0.1,1-0.4s0.3-0.7,0.3-1.3v-0.2
	c0-0.6-0.1-1.1-0.3-1.5s-0.6-0.5-1.1-0.5c-0.4,0-0.7,0.2-0.9,0.5s-0.3,0.8-0.3,1.5s0.1,1.1,0.3,1.4C60.1,87.1,60.5,87.3,60.9,87.3z"
	/>
<path class="st1" d="M68.3,81.9c0.9,0,1.6,0.2,2,0.6s0.7,1,0.7,1.7v4.4h-1.2l-0.3-0.9c-0.2,0.2-0.4,0.4-0.6,0.6s-0.4,0.3-0.7,0.3
	c-0.3,0-0.6,0.1-0.9,0.1c-0.4,0-0.7-0.1-1-0.2s-0.5-0.4-0.7-0.7c-0.2-0.3-0.3-0.7-0.3-1.2c0-0.7,0.2-1.2,0.7-1.5s1.2-0.5,2.2-0.5
	h1.1v-0.3c0-0.3-0.1-0.6-0.3-0.8s-0.4-0.2-0.8-0.2c-0.3,0-0.6,0-0.9,0.1s-0.6,0.2-0.9,0.3l-0.6-1.2c0.3-0.2,0.7-0.3,1.2-0.4
	S67.9,81.9,68.3,81.9z M69.3,85.5h-0.7c-0.6,0-1,0.1-1.2,0.3c-0.2,0.2-0.3,0.4-0.3,0.8c0,0.3,0.1,0.5,0.2,0.6s0.4,0.2,0.6,0.2
	c0.4,0,0.7-0.1,1-0.3c0.3-0.2,0.4-0.5,0.4-1V85.5z"/>
<path class="st1" d="M71.8,82h2l1.2,3.7c0,0.1,0.1,0.2,0.1,0.4c0,0.2,0.1,0.2,0.1,0.4s0,0.3,0,0.4c0-0.2,0.1-0.4,0.1-0.6
	s0.1-0.4,0.2-0.5l1.2-3.7h1.9l-2.8,7.4c-0.2,0.5-0.4,0.8-0.7,1.1c-0.3,0.3-0.6,0.5-0.9,0.7s-0.7,0.2-1.2,0.2c-0.2,0-0.4,0-0.5,0
	s-0.3,0-0.4-0.1V90c0.1,0,0.2,0,0.3,0.1s0.3,0,0.4,0c0.2,0,0.5-0.1,0.6-0.2s0.3-0.2,0.5-0.4c0.2-0.2,0.2-0.4,0.3-0.6l0.1-0.3
	L71.8,82z"/>
<path class="st2" d="M31.1,291.1h232"/>
<path class="st2" d="M31.1,106.1h232"/>
<path class="st3" d="M95.7,140.3H29.8v31.3h65.9V140.3z"/>
<path class="st4" d="M95.7,140.3H29.8v31.3h65.9V140.3z"/>
<path class="st5" d="M39,152.9h3.6c0.8,0,1.3,0.1,1.7,0.3c0.6,0.3,1,1,1,1.7s-0.4,1.3-1.1,1.6c0.4,0.1,0.5,0.2,0.7,0.3
	c0.5,0.4,0.8,0.9,0.8,1.6c0,0.9-0.4,1.6-1.1,2c-0.5,0.3-1,0.4-1.7,0.4H39V152.9z M42.3,156.1c0.9,0,1.3-0.3,1.3-0.9
	c0-0.6-0.4-0.9-1.3-0.9h-1.6v1.9L42.3,156.1z M42.5,159.4c0.5,0,0.9-0.1,1.1-0.2c0.3-0.2,0.4-0.5,0.4-0.9c0-0.5-0.2-0.8-0.5-1
	c-0.2-0.1-0.5-0.1-1-0.1h-1.7v2.2H42.5z"/>
<path class="st5" d="M49.4,152.9h1.7v6.5H55v1.5h-5.6V152.9z"/>
<path class="st5" d="M60.9,152.8h1.8l3,8h-1.8l-0.6-1.8h-3l-0.6,1.8h-1.8L60.9,152.8z M62.8,157.8l-0.5-1.4
	c-0.3-0.8-0.4-1.2-0.5-1.7c-0.1,0.5-0.3,0.9-0.6,1.7l-0.5,1.4H62.8z"/>
<path class="st5" d="M68.7,156.8c0-2.5,1.6-4.2,3.9-4.2c1.9,0,3.3,1.2,3.5,2.9h-1.7c-0.2-0.9-0.8-1.4-1.8-1.4
	c-1.3,0-2.1,1.1-2.1,2.7c0,1.7,0.8,2.7,2.1,2.7c1,0,1.7-0.6,1.8-1.8h1.7c-0.2,2-1.5,3.3-3.6,3.3C70.2,161,68.7,159.4,68.7,156.8z"/>
<path class="st5" d="M79.7,152.9h1.7v3.4l3.1-3.4h2.2l-3.1,3.2l3.4,4.8h-2.2l-2.4-3.6l-1,1v2.6h-1.7V152.9z"/>
<path class="st3" d="M105.1,152.9h1.4l0.8,5c0.1,0.8,0.2,1.5,0.3,1.9c0.2-0.5,0.4-0.8,0.8-1.5l3.2-5.4h1.5l-1.7,8h-1l0.7-3.5
	c0.3-1.5,0.4-1.7,0.9-3.6c-0.3,0.6-0.5,1-1.3,2.2l-2.9,4.9h-0.9l-0.9-5.1c-0.1-0.4-0.2-1-0.3-2c-0.2,1.2-0.4,2.6-0.7,3.7l-0.7,3.4
	h-1L105.1,152.9z"/>
<path class="st3" d="M116.2,157.5c0-1.6,0.7-3.2,1.8-4c0.7-0.5,1.6-0.8,2.5-0.8c2.1,0,3.3,1.3,3.3,3.4c0,1.3-0.4,2.5-1.2,3.4
	c-0.8,1-1.9,1.5-3.2,1.5C117.4,161,116.2,159.7,116.2,157.5z M122.8,156.1c0-0.7-0.2-1.4-0.6-1.8c-0.4-0.5-1-0.7-1.8-0.7
	c-1.9,0-3.3,1.6-3.3,4c0,1.6,0.9,2.6,2.4,2.6C121.5,160.1,122.8,158.4,122.8,156.1z"/>
<path class="st3" d="M128.7,152.9h1.1l2.2,5.3c0.3,0.7,0.5,1.2,0.6,1.6c0.1-0.9,0.3-1.9,0.5-2.7l0.9-4.2h1l-1.7,8h-1.2l-2.2-5.3
	c-0.3-0.8-0.4-1-0.6-1.5c0,0.5-0.2,1.1-0.4,2.3l-1,4.5h-1L128.7,152.9z"/>
<path class="st3" d="M139.4,152.9h1.9c1,0,1.4,0,1.8,0.1c1.3,0.3,2.1,1.5,2.1,3.1c0,1.2-0.4,2.5-1.2,3.4c-0.5,0.6-1.1,1-1.8,1.2
	c-0.5,0.2-1,0.2-2.1,0.2h-2.3L139.4,152.9z M140.2,159.9c1,0,1.4,0,1.8-0.2c1.2-0.5,2.1-2,2.1-3.7c0-1-0.3-1.7-1-2
	c-0.4-0.2-0.7-0.2-1.5-0.2h-1.4l-1.3,6.2h1.3L140.2,159.9L140.2,159.9z"/>
<path class="st3" d="M152.2,152.9h1.2l1.4,8h-1.1l-0.4-2.4H150l-1.4,2.4h-1.2L152.2,152.9z M153.2,157.5l-0.3-1.5
	c-0.2-1.1-0.3-1.8-0.3-2.3c-0.3,0.6-0.6,1.2-1.3,2.3l-0.9,1.5H153.2z"/>
<path class="st3" d="M161,157.6l-2.1-4.7h1.1l1.1,2.6c0.4,0.8,0.4,1,0.5,1.3c0.3-0.4,0.4-0.6,0.8-1l2.2-2.8h1.2l-3.9,4.8l-0.7,3.2
	h-1L161,157.6z"/>
<path class="st3" d="M173.5,157.5c0-1.2,0.4-2.5,1.1-3.4c0.8-1,1.9-1.5,3.2-1.5c1.8,0,3,1,3,2.6c0,0,0,0.1,0,0.2h-1
	c-0.1-1.3-0.7-1.9-2.1-1.9c-0.7,0-1.3,0.2-1.8,0.6c-0.8,0.7-1.4,2-1.4,3.3c0,1.6,0.9,2.6,2.3,2.6c1.3,0,2.2-0.7,2.5-2h1.1
	c-0.4,1.8-1.7,2.9-3.6,2.9C174.7,161,173.5,159.7,173.5,157.5z"/>
<path class="st3" d="M184.1,157.5c0-1.6,0.7-3.2,1.8-4c0.7-0.5,1.6-0.8,2.5-0.8c2.1,0,3.3,1.3,3.3,3.4c0,1.3-0.4,2.5-1.2,3.4
	c-0.8,1-1.9,1.5-3.2,1.5C185.4,161,184.1,159.7,184.1,157.5z M190.8,156.1c0-0.7-0.2-1.4-0.6-1.8c-0.4-0.5-1-0.7-1.8-0.7
	c-1.9,0-3.3,1.6-3.3,4c0,1.6,0.9,2.6,2.4,2.6C189.4,160.1,190.8,158.4,190.8,156.1z"/>
<path class="st3" d="M196.6,152.9h1.4l0.8,5c0.1,0.8,0.2,1.5,0.3,1.9c0.2-0.5,0.4-0.8,0.8-1.5l3.2-5.4h1.5l-1.7,8h-1l0.7-3.5
	c0.3-1.5,0.4-1.7,0.9-3.6c-0.3,0.6-0.5,1-1.3,2.2l-2.9,4.9h-0.9l-0.9-5.1c-0.1-0.4-0.2-1-0.3-2c-0.2,1.2-0.4,2.6-0.7,3.7l-0.7,3.4
	h-1L196.6,152.9z"/>
<path class="st3" d="M208.9,152.9h1.4l0.8,5c0.1,0.8,0.2,1.5,0.3,1.9c0.2-0.5,0.4-0.8,0.8-1.5l3.2-5.4h1.5l-1.7,8h-1l0.7-3.5
	c0.3-1.5,0.4-1.7,0.9-3.6c-0.3,0.6-0.5,1-1.3,2.2l-2.9,4.9h-0.9l-0.9-5.1c-0.1-0.4-0.2-1-0.3-2c-0.2,1.2-0.4,2.6-0.7,3.7l-0.7,3.4
	h-1L208.9,152.9z"/>
<path class="st3" d="M220,158.6c0-0.3,0-0.7,0.2-1.2l1-4.6h1l-1,4.7c-0.1,0.6-0.2,0.8-0.2,1.1c0,1,0.7,1.5,1.9,1.5
	c0.9,0,1.6-0.3,2-0.9c0.2-0.3,0.4-0.7,0.6-1.7l1-4.7h1l-1,4.8c-0.3,1.2-0.5,1.7-0.8,2.2c-0.5,0.8-1.5,1.1-2.7,1.1
	C221.1,161,220,160.1,220,158.6z"/>
<path class="st3" d="M231.7,152.9h1.1l2.2,5.3c0.3,0.7,0.5,1.2,0.6,1.6c0.1-0.9,0.3-1.9,0.5-2.7l0.9-4.2h1l-1.7,8h-1.2l-2.2-5.3
	c-0.3-0.8-0.4-1-0.6-1.5c0,0.5-0.2,1.1-0.4,2.3l-1,4.5h-1L231.7,152.9z"/>
<path class="st3" d="M242.5,152.9h1l-1.7,8h-1L242.5,152.9z"/>
<path class="st3" d="M249.6,153.7h-2.7l0.2-0.9h6.4l-0.2,0.9h-2.7l-1.5,7.1h-1L249.6,153.7z"/>
<path class="st3" d="M258.2,157.6l-2.1-4.7h1.1l1.1,2.6c0.4,0.8,0.4,1,0.5,1.3c0.3-0.4,0.4-0.6,0.8-1l2.2-2.8h1.2l-3.9,4.8l-0.7,3.2
	h-1L258.2,157.6z"/>
<path class="st3" d="M21.1,158.8h-1.5l0.2-0.8h1.5l0.4-1.3h-1.5l0.2-0.8h1.5l0.7-2.2h0.8l-0.7,2.2h1.4l0.6-2.2h0.8l-0.6,2.2h1.5
	l-0.2,0.8h-1.5l-0.4,1.3h1.5l-0.2,0.8h-1.5l-0.7,2.4h-0.8l0.7-2.4h-1.4l-0.7,2.4h-0.8L21.1,158.8z M23.6,158l0.4-1.3h-1.4l-0.4,1.3
	H23.6z"/>
<g>
	<g>
		<path class="st1" d="M962.7,4737.5h-21.2v-4.5l7.6-7.7c1.5-1.6,2.8-2.9,3.7-4c0.9-1.1,1.6-2,2-2.9s0.6-1.8,0.6-2.8
			c0-1.2-0.3-2.1-1-2.7c-0.7-0.6-1.6-0.9-2.7-0.9c-1.2,0-2.3,0.3-3.4,0.8c-1.1,0.5-2.3,1.3-3.5,2.3l-3.5-4.1
			c0.9-0.7,1.8-1.5,2.8-2.1c1-0.7,2.1-1.2,3.4-1.6c1.3-0.4,2.9-0.6,4.7-0.6c2,0,3.7,0.4,5.1,1.1s2.5,1.7,3.3,2.9s1.2,2.6,1.2,4.2
			c0,1.7-0.3,3.2-1,4.6c-0.7,1.4-1.6,2.8-2.9,4.1s-2.8,2.9-4.6,4.5l-3.9,3.7v0.3h13.2V4737.5z"/>
		<path class="st1" d="M983.7,4722.3c0,2.5-0.2,4.6-0.6,6.6c-0.4,1.9-1,3.6-1.8,4.9c-0.8,1.3-1.9,2.4-3.3,3.1s-3,1.1-4.9,1.1
			c-2.4,0-4.4-0.6-6-1.9c-1.6-1.2-2.7-3-3.5-5.4c-0.7-2.3-1.1-5.1-1.1-8.4c0-3.3,0.3-6.1,1-8.4c0.7-2.3,1.8-4.1,3.4-5.4
			c1.6-1.2,3.6-1.9,6.2-1.9c2.4,0,4.4,0.6,6,1.9s2.7,3,3.5,5.4C983.3,4716.2,983.7,4719,983.7,4722.3z M968.9,4722.3
			c0,2.3,0.1,4.2,0.4,5.8c0.3,1.5,0.7,2.7,1.3,3.5c0.6,0.8,1.5,1.2,2.5,1.2c1.1,0,1.9-0.4,2.5-1.2c0.6-0.8,1.1-1.9,1.3-3.5
			c0.3-1.5,0.4-3.5,0.4-5.8c0-2.3-0.1-4.2-0.4-5.8c-0.3-1.6-0.7-2.7-1.3-3.5s-1.5-1.2-2.5-1.2c-1.1,0-1.9,0.4-2.5,1.2
			c-0.6,0.8-1,2-1.3,3.5C969,4718,968.9,4720,968.9,4722.3z"/>
	</g>
</g>
<g>
	<g>
		<path class="st0" d="M1073.7,4736.5h-21.2v-4.5l7.6-7.7c1.5-1.6,2.8-2.9,3.7-4c0.9-1.1,1.6-2,2-2.9s0.6-1.8,0.6-2.8
			c0-1.2-0.3-2.1-1-2.7c-0.7-0.6-1.6-0.9-2.7-0.9c-1.2,0-2.3,0.3-3.4,0.8c-1.1,0.5-2.3,1.3-3.5,2.3l-3.5-4.1
			c0.9-0.7,1.8-1.5,2.8-2.1c1-0.7,2.1-1.2,3.4-1.6c1.3-0.4,2.9-0.6,4.7-0.6c2,0,3.7,0.4,5.1,1.1s2.5,1.7,3.3,2.9s1.2,2.6,1.2,4.2
			c0,1.7-0.3,3.2-1,4.6c-0.7,1.4-1.6,2.8-2.9,4.1s-2.8,2.9-4.6,4.5l-3.9,3.7v0.3h13.2V4736.5z"/>
		<path class="st0" d="M1084.7,4717.1c1.9,0,3.5,0.4,5,1.1c1.4,0.7,2.6,1.7,3.4,3.1c0.8,1.4,1.2,3.1,1.2,5.1c0,2.2-0.5,4.1-1.4,5.7
			c-0.9,1.6-2.3,2.8-4.1,3.6c-1.8,0.8-4,1.3-6.7,1.3c-1.6,0-3.1-0.1-4.5-0.4c-1.4-0.3-2.6-0.7-3.7-1.2v-5.6c1.1,0.6,2.3,1,3.8,1.4
			c1.5,0.4,2.9,0.6,4.2,0.6c1.3,0,2.3-0.2,3.2-0.5c0.9-0.3,1.5-0.9,2-1.6c0.5-0.7,0.7-1.6,0.7-2.7c0-1.5-0.5-2.6-1.5-3.4
			c-1-0.8-2.5-1.2-4.6-1.2c-0.8,0-1.6,0.1-2.5,0.2c-0.9,0.2-1.6,0.3-2.1,0.5l-2.6-1.4l1.1-15.5h16.5v5.4h-10.9l-0.6,6
			c0.5-0.1,1-0.2,1.5-0.3S1083.7,4717.1,1084.7,4717.1z"/>
	</g>
</g>
<g>
	<path class="st1" d="M52.6,61H31.3v-4.5l7.6-7.7c1.5-1.6,2.8-2.9,3.7-4c0.9-1.1,1.6-2,2-2.9s0.6-1.8,0.6-2.8c0-1.2-0.3-2.1-1-2.7
		c-0.7-0.6-1.6-0.9-2.7-0.9c-1.2,0-2.3,0.3-3.4,0.8c-1.1,0.5-2.3,1.3-3.5,2.3l-3.5-4.1c0.9-0.7,1.8-1.5,2.8-2.1
		c1-0.7,2.1-1.2,3.4-1.6c1.3-0.4,2.9-0.6,4.7-0.6c2,0,3.7,0.4,5.1,1.1s2.5,1.7,3.3,2.9s1.2,2.6,1.2,4.2c0,1.7-0.3,3.2-1,4.6
		c-0.7,1.4-1.6,2.8-2.9,4.1s-2.8,2.9-4.6,4.5l-3.9,3.7v0.3h13.2V61z"/>
	<path class="st1" d="M73.6,45.8c0,2.5-0.2,4.6-0.6,6.6c-0.4,1.9-1,3.6-1.8,4.9c-0.8,1.3-1.9,2.4-3.3,3.1s-3,1.1-4.9,1.1
		c-2.4,0-4.4-0.6-6-1.9c-1.6-1.2-2.7-3-3.5-5.4c-0.7-2.3-1.1-5.1-1.1-8.4c0-3.3,0.3-6.1,1-8.4c0.7-2.3,1.8-4.1,3.4-5.4
		c1.6-1.2,3.6-1.9,6.2-1.9c2.4,0,4.4,0.6,6,1.9s2.7,3,3.5,5.4C73.2,39.6,73.6,42.5,73.6,45.8z M58.7,45.8c0,2.3,0.1,4.2,0.4,5.8
		c0.3,1.5,0.7,2.7,1.3,3.5c0.6,0.8,1.5,1.2,2.5,1.2c1.1,0,1.9-0.4,2.5-1.2c0.6-0.8,1.1-1.9,1.3-3.5c0.3-1.5,0.4-3.5,0.4-5.8
		c0-2.3-0.1-4.2-0.4-5.8c-0.3-1.6-0.7-2.7-1.3-3.5s-1.5-1.2-2.5-1.2c-1.1,0-1.9,0.4-2.5,1.2c-0.6,0.8-1,2-1.3,3.5
		C58.8,41.5,58.7,43.4,58.7,45.8z"/>
</g>
<g>
	<path class="st0" d="M163.6,60h-21.2v-4.5l7.6-7.7c1.5-1.6,2.8-2.9,3.7-4c0.9-1.1,1.6-2,2-2.9s0.6-1.8,0.6-2.8c0-1.2-0.3-2.1-1-2.7
		c-0.7-0.6-1.6-0.9-2.7-0.9c-1.2,0-2.3,0.3-3.4,0.8c-1.1,0.5-2.3,1.3-3.5,2.3l-3.5-4.1c0.9-0.7,1.8-1.5,2.8-2.1
		c1-0.7,2.1-1.2,3.4-1.6c1.3-0.4,2.9-0.6,4.7-0.6c2,0,3.7,0.4,5.1,1.1s2.5,1.7,3.3,2.9s1.2,2.6,1.2,4.2c0,1.7-0.3,3.2-1,4.6
		c-0.7,1.4-1.6,2.8-2.9,4.1s-2.8,2.9-4.6,4.5l-3.9,3.7v0.3h13.2V60z"/>
	<path class="st0" d="M176.5,40.5c1.9,0,3.5,0.4,5,1.1c1.4,0.7,2.6,1.7,3.4,3.1c0.8,1.4,1.2,3.1,1.2,5.1c0,2.2-0.5,4.1-1.4,5.7
		c-0.9,1.6-2.3,2.8-4.1,3.6c-1.8,0.8-4,1.3-6.7,1.3c-1.6,0-3.1-0.1-4.5-0.4c-1.4-0.3-2.6-0.7-3.7-1.2v-5.6c1.1,0.6,2.3,1,3.8,1.4
		c1.5,0.4,2.9,0.6,4.2,0.6c1.3,0,2.3-0.2,3.2-0.5c0.9-0.3,1.5-0.9,2-1.6c0.5-0.7,0.7-1.6,0.7-2.7c0-1.5-0.5-2.6-1.5-3.4
		c-1-0.8-2.5-1.2-4.6-1.2c-0.8,0-1.6,0.1-2.5,0.2c-0.9,0.2-1.6,0.3-2.1,0.5l-2.6-1.4l1.1-15.5h16.5V35h-10.9l-0.6,6
		c0.5-0.1,1-0.2,1.5-0.3S175.5,40.5,176.5,40.5z"/>
</g>
<g>
	<path class="st0" d="M97.1,259.7H86.6v18H68.7v-18h-37v-12.8l38-56h16.9v54.5h10.4V259.7z M68.7,245.5v-14.7c0-1.4,0-3,0.1-4.9
		s0.1-3.8,0.2-5.7c0.1-1.9,0.2-3.6,0.3-5.1c0.1-1.5,0.2-2.5,0.2-3.1H69c-0.8,1.6-1.5,3.2-2.4,4.7c-0.8,1.5-1.8,3.1-2.9,4.8l-15.9,24
		H68.7z"/>
	<path class="st0" d="M130.4,222.3c5.3,0,10,1,14.2,3c4.1,2,7.4,5,9.8,8.9c2.4,3.9,3.6,8.7,3.6,14.5c0,6.3-1.3,11.6-3.9,16.2
		c-2.6,4.5-6.4,8-11.6,10.4c-5.1,2.4-11.5,3.6-19.1,3.6c-4.6,0-8.8-0.4-12.8-1.2c-4-0.8-7.5-1.9-10.5-3.5v-15.8
		c3,1.6,6.6,2.9,10.8,4s8.2,1.6,11.9,1.6c3.6,0,6.7-0.5,9.2-1.5c2.5-1,4.4-2.5,5.7-4.5c1.3-2,1.9-4.6,1.9-7.8c0-4.2-1.4-7.5-4.3-9.7
		c-2.8-2.3-7.2-3.4-13.1-3.4c-2.3,0-4.6,0.2-7,0.7c-2.4,0.4-4.5,0.9-6.1,1.3l-7.3-3.9l3.3-44.2H152v15.6h-31l-1.6,17
		c1.3-0.3,2.8-0.6,4.4-0.8C125.4,222.4,127.6,222.3,130.4,222.3z"/>
</g>
<g>
	<g>
		<path d="M51.8,344.3h-3.6v-6.4h3.6v0.7h-2.8v2.1h2.7v0.7h-2.7v2.4h2.8V344.3z"/>
		<path d="M56.8,342.6c0,0.4-0.1,0.7-0.3,1c-0.2,0.3-0.5,0.5-0.8,0.6s-0.7,0.2-1.2,0.2c-0.2,0-0.5,0-0.7,0s-0.4-0.1-0.6-0.1
			c-0.2,0-0.3-0.1-0.5-0.2v-0.7c0.2,0.1,0.5,0.2,0.8,0.3c0.3,0.1,0.6,0.1,1,0.1c0.3,0,0.6,0,0.8-0.1c0.2-0.1,0.4-0.2,0.5-0.4
			c0.1-0.2,0.2-0.4,0.2-0.6c0-0.2,0-0.4-0.1-0.6c-0.1-0.1-0.3-0.3-0.5-0.4c-0.2-0.1-0.5-0.3-0.9-0.4c-0.3-0.1-0.5-0.2-0.7-0.3
			c-0.2-0.1-0.4-0.2-0.5-0.4c-0.1-0.1-0.2-0.3-0.3-0.5s-0.1-0.4-0.1-0.7c0-0.3,0.1-0.6,0.3-0.9c0.2-0.2,0.4-0.4,0.7-0.6
			c0.3-0.1,0.7-0.2,1.1-0.2c0.3,0,0.7,0,1,0.1c0.3,0.1,0.6,0.2,0.8,0.3l-0.2,0.6c-0.2-0.1-0.5-0.2-0.7-0.2c-0.3-0.1-0.5-0.1-0.8-0.1
			s-0.5,0-0.7,0.1c-0.2,0.1-0.3,0.2-0.4,0.3s-0.1,0.3-0.1,0.5c0,0.2,0,0.4,0.1,0.6c0.1,0.1,0.2,0.3,0.5,0.4c0.2,0.1,0.5,0.2,0.8,0.4
			c0.4,0.1,0.7,0.3,1,0.4c0.3,0.2,0.5,0.3,0.6,0.6C56.7,342,56.8,342.2,56.8,342.6z"/>
		<path d="M60.1,344.3h-0.8v-5.8h-2v-0.7h4.8v0.7h-2V344.3z"/>
		<path d="M67.9,337.9v4.2c0,0.5-0.1,0.9-0.3,1.2c-0.2,0.4-0.5,0.6-0.8,0.8c-0.4,0.2-0.8,0.3-1.4,0.3c-0.8,0-1.4-0.2-1.8-0.6
			c-0.4-0.4-0.6-1-0.6-1.7v-4.1h0.8v4.2c0,0.5,0.1,1,0.4,1.3s0.7,0.4,1.3,0.4c0.4,0,0.7-0.1,1-0.2c0.3-0.1,0.4-0.3,0.6-0.6
			c0.1-0.3,0.2-0.6,0.2-0.9v-4.2H67.9z"/>
		<path d="M74.7,341c0,0.7-0.1,1.3-0.4,1.8c-0.3,0.5-0.6,0.8-1.1,1.1c-0.5,0.2-1.1,0.4-1.8,0.4h-1.7v-6.4h1.9c0.7,0,1.2,0.1,1.7,0.4
			c0.5,0.2,0.8,0.6,1.1,1.1C74.6,339.8,74.7,340.3,74.7,341z M73.9,341c0-0.6-0.1-1.1-0.3-1.4s-0.5-0.7-0.8-0.8
			c-0.4-0.2-0.8-0.3-1.4-0.3h-1.1v5.1h0.9c0.9,0,1.5-0.2,2-0.7C73.7,342.6,73.9,341.9,73.9,341z"/>
		<path d="M76.2,344.3v-6.4h0.7v6.4H76.2z"/>
		<path d="M84.2,341.1c0,0.5-0.1,0.9-0.2,1.4c-0.1,0.4-0.3,0.8-0.6,1c-0.2,0.3-0.6,0.5-0.9,0.7s-0.8,0.2-1.3,0.2
			c-0.5,0-0.9-0.1-1.3-0.2c-0.4-0.2-0.7-0.4-0.9-0.7c-0.2-0.3-0.4-0.6-0.5-1.1c-0.1-0.4-0.2-0.9-0.2-1.4c0-0.7,0.1-1.2,0.3-1.7
			s0.5-0.9,1-1.2c0.4-0.3,1-0.4,1.7-0.4c0.6,0,1.2,0.1,1.6,0.4c0.4,0.3,0.8,0.7,1,1.1C84.1,339.8,84.2,340.4,84.2,341.1z
			 M79.1,341.1c0,0.5,0.1,1,0.2,1.4c0.2,0.4,0.4,0.7,0.7,0.9c0.3,0.2,0.7,0.3,1.2,0.3c0.5,0,0.9-0.1,1.2-0.3s0.6-0.5,0.7-0.9
			c0.2-0.4,0.2-0.9,0.2-1.4c0-0.8-0.2-1.5-0.5-1.9c-0.3-0.5-0.9-0.7-1.6-0.7c-0.5,0-0.9,0.1-1.2,0.3s-0.6,0.5-0.7,0.9
			C79.2,340.1,79.1,340.5,79.1,341.1z"/>
		<path d="M49.9,354.7c0.8,0,1.4,0.2,1.8,0.5c0.4,0.3,0.6,0.8,0.6,1.4c0,0.3,0,0.5-0.1,0.8c-0.1,0.2-0.2,0.5-0.4,0.6
			c-0.2,0.2-0.5,0.3-0.8,0.4c-0.3,0.1-0.7,0.2-1.2,0.2h-0.8v2.5h-0.7v-6.4H49.9z M49.8,355.3h-0.9v2.6h0.7c0.4,0,0.8,0,1-0.1
			s0.5-0.2,0.6-0.4c0.1-0.2,0.2-0.5,0.2-0.8c0-0.4-0.1-0.7-0.4-1C50.8,355.4,50.4,355.3,49.8,355.3z"/>
		<path d="M55.3,354.7c0.5,0,1,0.1,1.3,0.2c0.3,0.1,0.6,0.3,0.8,0.6s0.3,0.6,0.3,1c0,0.3-0.1,0.6-0.2,0.9c-0.1,0.2-0.3,0.4-0.5,0.6
			s-0.4,0.2-0.6,0.3l1.8,2.9h-0.9l-1.6-2.7h-1.3v2.7h-0.7v-6.4H55.3z M55.3,355.3h-0.9v2.5h1c0.5,0,0.9-0.1,1.2-0.3
			c0.2-0.2,0.4-0.5,0.4-0.9c0-0.4-0.1-0.7-0.4-0.9S55.8,355.3,55.3,355.3z"/>
		<path d="M64.7,357.9c0,0.5-0.1,0.9-0.2,1.4c-0.1,0.4-0.3,0.8-0.6,1c-0.2,0.3-0.6,0.5-0.9,0.7s-0.8,0.2-1.3,0.2
			c-0.5,0-0.9-0.1-1.3-0.2c-0.4-0.2-0.7-0.4-0.9-0.7c-0.2-0.3-0.4-0.6-0.5-1.1c-0.1-0.4-0.2-0.9-0.2-1.4c0-0.7,0.1-1.2,0.3-1.7
			s0.5-0.9,1-1.2c0.4-0.3,1-0.4,1.7-0.4c0.6,0,1.2,0.1,1.6,0.4c0.4,0.3,0.8,0.7,1,1.1C64.6,356.6,64.7,357.2,64.7,357.9z
			 M59.6,357.9c0,0.5,0.1,1,0.2,1.4c0.2,0.4,0.4,0.7,0.7,0.9c0.3,0.2,0.7,0.3,1.2,0.3c0.5,0,0.9-0.1,1.2-0.3s0.6-0.5,0.7-0.9
			c0.2-0.4,0.2-0.9,0.2-1.4c0-0.8-0.2-1.5-0.5-1.9c-0.3-0.5-0.9-0.7-1.6-0.7c-0.5,0-0.9,0.1-1.2,0.3s-0.6,0.5-0.7,0.9
			C59.7,356.9,59.6,357.3,59.6,357.9z"/>
		<path d="M71.2,357.8c0,0.7-0.1,1.3-0.4,1.8c-0.3,0.5-0.6,0.8-1.1,1.1c-0.5,0.2-1.1,0.4-1.8,0.4h-1.7v-6.4h1.9
			c0.7,0,1.2,0.1,1.7,0.4c0.5,0.2,0.8,0.6,1.1,1.1C71.1,356.6,71.2,357.1,71.2,357.8z M70.5,357.8c0-0.6-0.1-1.1-0.3-1.4
			s-0.5-0.7-0.8-0.8c-0.4-0.2-0.8-0.3-1.4-0.3h-1.1v5.1h0.9c0.9,0,1.5-0.2,2-0.7C70.2,359.4,70.5,358.7,70.5,357.8z"/>
		<path d="M77.5,354.7v4.2c0,0.5-0.1,0.9-0.3,1.2c-0.2,0.4-0.5,0.6-0.8,0.8c-0.4,0.2-0.8,0.3-1.4,0.3c-0.8,0-1.4-0.2-1.8-0.6
			c-0.4-0.4-0.6-1-0.6-1.7v-4.1h0.8v4.2c0,0.5,0.1,1,0.4,1.3s0.7,0.4,1.3,0.4c0.4,0,0.7-0.1,1-0.2c0.3-0.1,0.4-0.3,0.6-0.6
			c0.1-0.3,0.2-0.6,0.2-0.9v-4.2H77.5z"/>
		<path d="M82,355.2c-0.4,0-0.7,0.1-1,0.2c-0.3,0.1-0.5,0.3-0.7,0.5c-0.2,0.2-0.3,0.5-0.5,0.8s-0.2,0.7-0.2,1.1c0,0.5,0.1,1,0.3,1.4
			c0.2,0.4,0.4,0.7,0.8,0.9c0.3,0.2,0.8,0.3,1.3,0.3c0.3,0,0.6,0,0.8-0.1c0.3,0,0.5-0.1,0.7-0.2v0.7c-0.2,0.1-0.5,0.2-0.7,0.2
			c-0.3,0-0.6,0.1-0.9,0.1c-0.7,0-1.2-0.1-1.6-0.4c-0.4-0.3-0.8-0.7-1-1.1c-0.2-0.5-0.3-1.1-0.3-1.8c0-0.5,0.1-0.9,0.2-1.3
			c0.1-0.4,0.3-0.8,0.6-1c0.3-0.3,0.6-0.5,1-0.7c0.4-0.2,0.8-0.2,1.3-0.2c0.3,0,0.6,0,0.9,0.1s0.6,0.2,0.8,0.3l-0.3,0.6
			c-0.2-0.1-0.4-0.2-0.7-0.2C82.5,355.3,82.3,355.2,82,355.2z"/>
		<path d="M86.9,361.1h-0.8v-5.8h-2v-0.7h4.8v0.7h-2V361.1z"/>
		<path d="M95.4,357.9c0,0.5-0.1,0.9-0.2,1.4c-0.1,0.4-0.3,0.8-0.6,1c-0.2,0.3-0.6,0.5-0.9,0.7s-0.8,0.2-1.3,0.2
			c-0.5,0-0.9-0.1-1.3-0.2c-0.4-0.2-0.7-0.4-0.9-0.7c-0.2-0.3-0.4-0.6-0.5-1.1c-0.1-0.4-0.2-0.9-0.2-1.4c0-0.7,0.1-1.2,0.3-1.7
			s0.5-0.9,1-1.2c0.4-0.3,1-0.4,1.7-0.4c0.6,0,1.2,0.1,1.6,0.4c0.4,0.3,0.8,0.7,1,1.1C95.3,356.6,95.4,357.2,95.4,357.9z
			 M90.3,357.9c0,0.5,0.1,1,0.2,1.4c0.2,0.4,0.4,0.7,0.7,0.9c0.3,0.2,0.7,0.3,1.2,0.3c0.5,0,0.9-0.1,1.2-0.3s0.6-0.5,0.7-0.9
			c0.2-0.4,0.2-0.9,0.2-1.4c0-0.8-0.2-1.5-0.5-1.9c-0.3-0.5-0.9-0.7-1.6-0.7c-0.5,0-0.9,0.1-1.2,0.3s-0.6,0.5-0.7,0.9
			C90.4,356.9,90.3,357.3,90.3,357.9z"/>
		<path d="M98.6,354.7c0.5,0,1,0.1,1.3,0.2c0.3,0.1,0.6,0.3,0.8,0.6s0.3,0.6,0.3,1c0,0.3-0.1,0.6-0.2,0.9c-0.1,0.2-0.3,0.4-0.5,0.6
			s-0.4,0.2-0.6,0.3l1.8,2.9h-0.9l-1.6-2.7h-1.3v2.7h-0.7v-6.4H98.6z M98.6,355.3h-0.9v2.5h1c0.5,0,0.9-0.1,1.2-0.3
			c0.2-0.2,0.4-0.5,0.4-0.9c0-0.4-0.1-0.7-0.4-0.9S99.1,355.3,98.6,355.3z"/>
		<path d="M50.9,368.5h2.2v3.1c-0.3,0.1-0.7,0.2-1,0.3c-0.4,0.1-0.8,0.1-1.2,0.1c-0.7,0-1.2-0.1-1.7-0.4c-0.5-0.3-0.8-0.6-1-1.1
			c-0.2-0.5-0.4-1.1-0.4-1.8c0-0.7,0.1-1.2,0.4-1.7c0.3-0.5,0.6-0.9,1.1-1.2c0.5-0.3,1.1-0.4,1.8-0.4c0.4,0,0.7,0,1,0.1
			c0.3,0.1,0.6,0.2,0.9,0.3l-0.3,0.7c-0.2-0.1-0.5-0.2-0.8-0.3c-0.3-0.1-0.6-0.1-0.9-0.1c-0.5,0-1,0.1-1.3,0.3
			c-0.4,0.2-0.7,0.5-0.9,0.9c-0.2,0.4-0.3,0.9-0.3,1.4c0,0.5,0.1,1,0.3,1.4c0.2,0.4,0.4,0.7,0.8,0.9s0.8,0.3,1.4,0.3
			c0.3,0,0.5,0,0.7,0c0.2,0,0.4-0.1,0.6-0.1v-2h-1.5V368.5z"/>
		<path d="M58.3,371.9h-3.6v-6.4h3.6v0.7h-2.8v2.1h2.7v0.7h-2.7v2.4h2.8V371.9z"/>
		<path d="M64.7,371.9h-0.9l-3.5-5.4h0c0,0.1,0,0.3,0,0.5c0,0.2,0,0.4,0,0.6c0,0.2,0,0.4,0,0.6v3.7h-0.7v-6.4h0.9l3.5,5.4h0
			c0-0.1,0-0.2,0-0.4c0-0.2,0-0.4,0-0.6c0-0.2,0-0.4,0-0.6v-3.7h0.7V371.9z"/>
		<path d="M70.1,371.9h-3.6v-6.4h3.6v0.7h-2.8v2.1h2.7v0.7h-2.7v2.4h2.8V371.9z"/>
		<path d="M73.2,365.5c0.5,0,1,0.1,1.3,0.2c0.3,0.1,0.6,0.3,0.8,0.6s0.3,0.6,0.3,1c0,0.3-0.1,0.6-0.2,0.9c-0.1,0.2-0.3,0.4-0.5,0.6
			s-0.4,0.2-0.6,0.3l1.8,2.9h-0.9l-1.6-2.7h-1.3v2.7h-0.7v-6.4H73.2z M73.2,366.1h-0.9v2.5h1c0.5,0,0.9-0.1,1.2-0.3
			c0.2-0.2,0.4-0.5,0.4-0.9c0-0.4-0.1-0.7-0.4-0.9S73.7,366.1,73.2,366.1z"/>
		<path d="M81.1,371.9l-0.8-2h-2.6l-0.8,2h-0.8l2.5-6.5h0.7l2.5,6.5H81.1z M80.1,369.2l-0.8-2c0-0.1,0-0.1-0.1-0.3
			c0-0.1-0.1-0.2-0.1-0.4s-0.1-0.2-0.1-0.3c0,0.1-0.1,0.2-0.1,0.4c0,0.1-0.1,0.2-0.1,0.3c0,0.1-0.1,0.2-0.1,0.3l-0.8,2H80.1z"/>
		<path d="M82.7,371.9v-6.4h0.7v5.8h2.9v0.7H82.7z"/>
		<path d="M48.9,388.7h-0.7v-6.4h3.6v0.7h-2.8v2.4h2.7v0.7h-2.7V388.7z"/>
		<path d="M58.4,385.5c0,0.5-0.1,0.9-0.2,1.4c-0.1,0.4-0.3,0.8-0.6,1c-0.2,0.3-0.6,0.5-0.9,0.7s-0.8,0.2-1.3,0.2
			c-0.5,0-0.9-0.1-1.3-0.2c-0.4-0.2-0.7-0.4-0.9-0.7c-0.2-0.3-0.4-0.6-0.5-1.1c-0.1-0.4-0.2-0.9-0.2-1.4c0-0.7,0.1-1.2,0.3-1.7
			s0.5-0.9,1-1.2c0.4-0.3,1-0.4,1.7-0.4c0.6,0,1.2,0.1,1.6,0.4c0.4,0.3,0.8,0.7,1,1.1C58.3,384.2,58.4,384.8,58.4,385.5z
			 M53.3,385.5c0,0.5,0.1,1,0.2,1.4c0.2,0.4,0.4,0.7,0.7,0.9c0.3,0.2,0.7,0.3,1.2,0.3c0.5,0,0.9-0.1,1.2-0.3s0.6-0.5,0.7-0.9
			c0.2-0.4,0.2-0.9,0.2-1.4c0-0.8-0.2-1.5-0.5-1.9c-0.3-0.5-0.9-0.7-1.6-0.7c-0.5,0-0.9,0.1-1.2,0.3s-0.6,0.5-0.7,0.9
			C53.4,384.5,53.3,384.9,53.3,385.5z"/>
		<path d="M61.8,388.7H61v-5.8h-2v-0.7h4.8v0.7h-2V388.7z"/>
		<path d="M70.4,385.5c0,0.5-0.1,0.9-0.2,1.4c-0.1,0.4-0.3,0.8-0.6,1c-0.2,0.3-0.6,0.5-0.9,0.7s-0.8,0.2-1.3,0.2
			c-0.5,0-0.9-0.1-1.3-0.2c-0.4-0.2-0.7-0.4-0.9-0.7c-0.2-0.3-0.4-0.6-0.5-1.1c-0.1-0.4-0.2-0.9-0.2-1.4c0-0.7,0.1-1.2,0.3-1.7
			s0.5-0.9,1-1.2c0.4-0.3,1-0.4,1.7-0.4c0.6,0,1.2,0.1,1.6,0.4c0.4,0.3,0.8,0.7,1,1.1C70.2,384.2,70.4,384.8,70.4,385.5z
			 M65.2,385.5c0,0.5,0.1,1,0.2,1.4c0.2,0.4,0.4,0.7,0.7,0.9c0.3,0.2,0.7,0.3,1.2,0.3c0.5,0,0.9-0.1,1.2-0.3s0.6-0.5,0.7-0.9
			c0.2-0.4,0.2-0.9,0.2-1.4c0-0.8-0.2-1.5-0.5-1.9c-0.3-0.5-0.9-0.7-1.6-0.7c-0.5,0-0.9,0.1-1.2,0.3s-0.6,0.5-0.7,0.9
			C65.3,384.5,65.2,384.9,65.2,385.5z M68.7,380.2L68.7,380.2c-0.1,0.2-0.1,0.3-0.2,0.4c-0.1,0.1-0.2,0.2-0.3,0.4
			c-0.1,0.1-0.2,0.3-0.4,0.4c-0.1,0.1-0.2,0.2-0.3,0.3h-0.5v-0.1c0.1-0.1,0.2-0.2,0.3-0.4c0.1-0.2,0.2-0.3,0.3-0.5
			c0.1-0.2,0.2-0.3,0.3-0.5H68.7z"/>
		<path d="M74.5,385.3h2.2v3.1c-0.3,0.1-0.7,0.2-1,0.3c-0.4,0.1-0.8,0.1-1.2,0.1c-0.7,0-1.2-0.1-1.7-0.4c-0.5-0.3-0.8-0.6-1-1.1
			c-0.2-0.5-0.4-1.1-0.4-1.8c0-0.7,0.1-1.2,0.4-1.7c0.3-0.5,0.6-0.9,1.1-1.2c0.5-0.3,1.1-0.4,1.8-0.4c0.4,0,0.7,0,1,0.1
			c0.3,0.1,0.6,0.2,0.9,0.3l-0.3,0.7c-0.2-0.1-0.5-0.2-0.8-0.3c-0.3-0.1-0.6-0.1-0.9-0.1c-0.5,0-1,0.1-1.3,0.3
			c-0.4,0.2-0.7,0.5-0.9,0.9c-0.2,0.4-0.3,0.9-0.3,1.4c0,0.5,0.1,1,0.3,1.4c0.2,0.4,0.4,0.7,0.8,0.9s0.8,0.3,1.4,0.3
			c0.3,0,0.5,0,0.7,0c0.2,0,0.4-0.1,0.6-0.1v-2h-1.5V385.3z"/>
		<path d="M80.1,382.3c0.5,0,1,0.1,1.3,0.2c0.3,0.1,0.6,0.3,0.8,0.6s0.3,0.6,0.3,1c0,0.3-0.1,0.6-0.2,0.9c-0.1,0.2-0.3,0.4-0.5,0.6
			s-0.4,0.2-0.6,0.3l1.8,2.9H82l-1.6-2.7h-1.3v2.7h-0.7v-6.4H80.1z M80,382.9h-0.9v2.5h1c0.5,0,0.9-0.1,1.2-0.3
			c0.2-0.2,0.4-0.5,0.4-0.9c0-0.4-0.1-0.7-0.4-0.9S80.6,382.9,80,382.9z"/>
		<path d="M87.9,388.7l-0.8-2h-2.6l-0.8,2H83l2.5-6.5h0.7l2.5,6.5H87.9z M86.9,386l-0.8-2c0-0.1,0-0.1-0.1-0.3
			c0-0.1-0.1-0.2-0.1-0.4s-0.1-0.2-0.1-0.3c0,0.1-0.1,0.2-0.1,0.4c0,0.1-0.1,0.2-0.1,0.3c0,0.1-0.1,0.2-0.1,0.3l-0.8,2H86.9z"/>
		<path d="M90.3,388.7h-0.7v-6.4h3.6v0.7h-2.8v2.4H93v0.7h-2.7V388.7z"/>
		<path d="M99.8,385.5c0,0.5-0.1,0.9-0.2,1.4c-0.1,0.4-0.3,0.8-0.6,1c-0.2,0.3-0.6,0.5-0.9,0.7s-0.8,0.2-1.3,0.2
			c-0.5,0-0.9-0.1-1.3-0.2c-0.4-0.2-0.7-0.4-0.9-0.7c-0.2-0.3-0.4-0.6-0.5-1.1c-0.1-0.4-0.2-0.9-0.2-1.4c0-0.7,0.1-1.2,0.3-1.7
			s0.5-0.9,1-1.2c0.4-0.3,1-0.4,1.7-0.4c0.6,0,1.2,0.1,1.6,0.4c0.4,0.3,0.8,0.7,1,1.1C99.7,384.2,99.8,384.8,99.8,385.5z
			 M94.7,385.5c0,0.5,0.1,1,0.2,1.4c0.2,0.4,0.4,0.7,0.7,0.9c0.3,0.2,0.7,0.3,1.2,0.3c0.5,0,0.9-0.1,1.2-0.3s0.6-0.5,0.7-0.9
			c0.2-0.4,0.2-0.9,0.2-1.4c0-0.8-0.2-1.5-0.5-1.9c-0.3-0.5-0.9-0.7-1.6-0.7c-0.5,0-0.9,0.1-1.2,0.3s-0.6,0.5-0.7,0.9
			C94.8,384.5,94.7,384.9,94.7,385.5z"/>
		<path d="M52.2,405.5l-0.8-2h-2.6l-0.8,2h-0.8l2.5-6.5h0.7l2.5,6.5H52.2z M51.2,402.8l-0.8-2c0-0.1,0-0.1-0.1-0.3
			c0-0.1-0.1-0.2-0.1-0.4s-0.1-0.2-0.1-0.3c0,0.1-0.1,0.2-0.1,0.4c0,0.1-0.1,0.2-0.1,0.3c0,0.1-0.1,0.2-0.1,0.3l-0.8,2H51.2z"/>
		<path d="M57.5,403.8c0,0.4-0.1,0.7-0.3,1c-0.2,0.3-0.5,0.5-0.8,0.6s-0.7,0.2-1.2,0.2c-0.2,0-0.5,0-0.7,0s-0.4-0.1-0.6-0.1
			c-0.2,0-0.3-0.1-0.5-0.2v-0.7c0.2,0.1,0.5,0.2,0.8,0.3c0.3,0.1,0.6,0.1,1,0.1c0.3,0,0.6,0,0.8-0.1c0.2-0.1,0.4-0.2,0.5-0.4
			c0.1-0.2,0.2-0.4,0.2-0.6c0-0.2,0-0.4-0.1-0.6c-0.1-0.1-0.3-0.3-0.5-0.4c-0.2-0.1-0.5-0.3-0.9-0.4c-0.3-0.1-0.5-0.2-0.7-0.3
			c-0.2-0.1-0.4-0.2-0.5-0.4c-0.1-0.1-0.2-0.3-0.3-0.5s-0.1-0.4-0.1-0.7c0-0.3,0.1-0.6,0.3-0.9c0.2-0.2,0.4-0.4,0.7-0.6
			c0.3-0.1,0.7-0.2,1.1-0.2c0.3,0,0.7,0,1,0.1c0.3,0.1,0.6,0.2,0.8,0.3l-0.2,0.6c-0.2-0.1-0.5-0.2-0.7-0.2c-0.3-0.1-0.5-0.1-0.8-0.1
			s-0.5,0-0.7,0.1c-0.2,0.1-0.3,0.2-0.4,0.3s-0.1,0.3-0.1,0.5c0,0.2,0,0.4,0.1,0.6c0.1,0.1,0.2,0.3,0.5,0.4c0.2,0.1,0.5,0.2,0.8,0.4
			c0.4,0.1,0.7,0.3,1,0.4c0.3,0.2,0.5,0.3,0.6,0.6C57.4,403.2,57.5,403.4,57.5,403.8z"/>
		<path d="M58.8,405.5v-6.4h0.7v6.4H58.8z"/>
		<path d="M64.9,403.8c0,0.4-0.1,0.7-0.3,1c-0.2,0.3-0.5,0.5-0.8,0.6s-0.7,0.2-1.2,0.2c-0.2,0-0.5,0-0.7,0s-0.4-0.1-0.6-0.1
			c-0.2,0-0.3-0.1-0.5-0.2v-0.7c0.2,0.1,0.5,0.2,0.8,0.3c0.3,0.1,0.6,0.1,1,0.1c0.3,0,0.6,0,0.8-0.1c0.2-0.1,0.4-0.2,0.5-0.4
			c0.1-0.2,0.2-0.4,0.2-0.6c0-0.2,0-0.4-0.1-0.6c-0.1-0.1-0.3-0.3-0.5-0.4c-0.2-0.1-0.5-0.3-0.9-0.4c-0.3-0.1-0.5-0.2-0.7-0.3
			c-0.2-0.1-0.4-0.2-0.5-0.4c-0.1-0.1-0.2-0.3-0.3-0.5s-0.1-0.4-0.1-0.7c0-0.3,0.1-0.6,0.3-0.9c0.2-0.2,0.4-0.4,0.7-0.6
			c0.3-0.1,0.7-0.2,1.1-0.2c0.3,0,0.7,0,1,0.1c0.3,0.1,0.6,0.2,0.8,0.3l-0.2,0.6c-0.2-0.1-0.5-0.2-0.7-0.2c-0.3-0.1-0.5-0.1-0.8-0.1
			s-0.5,0-0.7,0.1c-0.2,0.1-0.3,0.2-0.4,0.3s-0.1,0.3-0.1,0.5c0,0.2,0,0.4,0.1,0.6c0.1,0.1,0.2,0.3,0.5,0.4c0.2,0.1,0.5,0.2,0.8,0.4
			c0.4,0.1,0.7,0.3,1,0.4c0.3,0.2,0.5,0.3,0.6,0.6C64.9,403.2,64.9,403.4,64.9,403.8z"/>
		<path d="M68.2,405.5h-0.8v-5.8h-2v-0.7h4.8v0.7h-2V405.5z"/>
		<path d="M74.8,405.5h-3.6v-6.4h3.6v0.7H72v2.1h2.7v0.7H72v2.4h2.8V405.5z"/>
		<path d="M81.2,405.5h-0.9l-3.5-5.4h0c0,0.1,0,0.3,0,0.5c0,0.2,0,0.4,0,0.6c0,0.2,0,0.4,0,0.6v3.7h-0.7v-6.4h0.9l3.5,5.4h0
			c0-0.1,0-0.2,0-0.4c0-0.2,0-0.4,0-0.6c0-0.2,0-0.4,0-0.6v-3.7h0.7V405.5z"/>
		<path d="M85,405.5h-0.8v-5.8h-2v-0.7H87v0.7h-2V405.5z"/>
		<path d="M91.5,405.5h-3.6v-6.4h3.6v0.7h-2.8v2.1h2.7v0.7h-2.7v2.4h2.8V405.5z"/>
		<path d="M48.9,416.3h-0.7v-6.4h3.6v0.7h-2.8v2.4h2.7v0.7h-2.7V416.3z"/>
		<path d="M58.4,413.1c0,0.5-0.1,0.9-0.2,1.4c-0.1,0.4-0.3,0.8-0.6,1c-0.2,0.3-0.6,0.5-0.9,0.7s-0.8,0.2-1.3,0.2
			c-0.5,0-0.9-0.1-1.3-0.2c-0.4-0.2-0.7-0.4-0.9-0.7c-0.2-0.3-0.4-0.6-0.5-1.1c-0.1-0.4-0.2-0.9-0.2-1.4c0-0.7,0.1-1.2,0.3-1.7
			s0.5-0.9,1-1.2c0.4-0.3,1-0.4,1.7-0.4c0.6,0,1.2,0.1,1.6,0.4c0.4,0.3,0.8,0.7,1,1.1C58.3,411.8,58.4,412.4,58.4,413.1z
			 M53.3,413.1c0,0.5,0.1,1,0.2,1.4c0.2,0.4,0.4,0.7,0.7,0.9c0.3,0.2,0.7,0.3,1.2,0.3c0.5,0,0.9-0.1,1.2-0.3s0.6-0.5,0.7-0.9
			c0.2-0.4,0.2-0.9,0.2-1.4c0-0.8-0.2-1.5-0.5-1.9c-0.3-0.5-0.9-0.7-1.6-0.7c-0.5,0-0.9,0.1-1.2,0.3s-0.6,0.5-0.7,0.9
			C53.4,412.1,53.3,412.5,53.3,413.1z"/>
		<path d="M61.8,416.3H61v-5.8h-2v-0.7h4.8v0.7h-2V416.3z"/>
		<path d="M70.4,413.1c0,0.5-0.1,0.9-0.2,1.4c-0.1,0.4-0.3,0.8-0.6,1c-0.2,0.3-0.6,0.5-0.9,0.7s-0.8,0.2-1.3,0.2
			c-0.5,0-0.9-0.1-1.3-0.2c-0.4-0.2-0.7-0.4-0.9-0.7c-0.2-0.3-0.4-0.6-0.5-1.1c-0.1-0.4-0.2-0.9-0.2-1.4c0-0.7,0.1-1.2,0.3-1.7
			s0.5-0.9,1-1.2c0.4-0.3,1-0.4,1.7-0.4c0.6,0,1.2,0.1,1.6,0.4c0.4,0.3,0.8,0.7,1,1.1C70.2,411.8,70.4,412.4,70.4,413.1z
			 M65.2,413.1c0,0.5,0.1,1,0.2,1.4c0.2,0.4,0.4,0.7,0.7,0.9c0.3,0.2,0.7,0.3,1.2,0.3c0.5,0,0.9-0.1,1.2-0.3s0.6-0.5,0.7-0.9
			c0.2-0.4,0.2-0.9,0.2-1.4c0-0.8-0.2-1.5-0.5-1.9c-0.3-0.5-0.9-0.7-1.6-0.7c-0.5,0-0.9,0.1-1.2,0.3s-0.6,0.5-0.7,0.9
			C65.3,412.1,65.2,412.5,65.2,413.1z M68.7,407.8L68.7,407.8c-0.1,0.2-0.1,0.3-0.2,0.4c-0.1,0.1-0.2,0.2-0.3,0.4
			c-0.1,0.1-0.2,0.3-0.4,0.4c-0.1,0.1-0.2,0.2-0.3,0.3h-0.5v-0.1c0.1-0.1,0.2-0.2,0.3-0.4c0.1-0.2,0.2-0.3,0.3-0.5
			c0.1-0.2,0.2-0.3,0.3-0.5H68.7z"/>
		<path d="M74.5,412.9h2.2v3.1c-0.3,0.1-0.7,0.2-1,0.3c-0.4,0.1-0.8,0.1-1.2,0.1c-0.7,0-1.2-0.1-1.7-0.4c-0.5-0.3-0.8-0.6-1-1.1
			c-0.2-0.5-0.4-1.1-0.4-1.8c0-0.7,0.1-1.2,0.4-1.7c0.3-0.5,0.6-0.9,1.1-1.2c0.5-0.3,1.1-0.4,1.8-0.4c0.4,0,0.7,0,1,0.1
			c0.3,0.1,0.6,0.2,0.9,0.3l-0.3,0.7c-0.2-0.1-0.5-0.2-0.8-0.3c-0.3-0.1-0.6-0.1-0.9-0.1c-0.5,0-1,0.1-1.3,0.3
			c-0.4,0.2-0.7,0.5-0.9,0.9c-0.2,0.4-0.3,0.9-0.3,1.4c0,0.5,0.1,1,0.3,1.4c0.2,0.4,0.4,0.7,0.8,0.9s0.8,0.3,1.4,0.3
			c0.3,0,0.5,0,0.7,0c0.2,0,0.4-0.1,0.6-0.1v-2h-1.5V412.9z"/>
		<path d="M80.1,409.9c0.5,0,1,0.1,1.3,0.2c0.3,0.1,0.6,0.3,0.8,0.6s0.3,0.6,0.3,1c0,0.3-0.1,0.6-0.2,0.9c-0.1,0.2-0.3,0.4-0.5,0.6
			s-0.4,0.2-0.6,0.3l1.8,2.9H82l-1.6-2.7h-1.3v2.7h-0.7v-6.4H80.1z M80,410.5h-0.9v2.5h1c0.5,0,0.9-0.1,1.2-0.3
			c0.2-0.2,0.4-0.5,0.4-0.9c0-0.4-0.1-0.7-0.4-0.9S80.6,410.5,80,410.5z"/>
		<path d="M87.9,416.3l-0.8-2h-2.6l-0.8,2H83l2.5-6.5h0.7l2.5,6.5H87.9z M86.9,413.6l-0.8-2c0-0.1,0-0.1-0.1-0.3
			c0-0.1-0.1-0.2-0.1-0.4s-0.1-0.2-0.1-0.3c0,0.1-0.1,0.2-0.1,0.4c0,0.1-0.1,0.2-0.1,0.3c0,0.1-0.1,0.2-0.1,0.3l-0.8,2H86.9z"/>
		<path d="M90.3,416.3h-0.7v-6.4h3.6v0.7h-2.8v2.4H93v0.7h-2.7V416.3z"/>
		<path d="M99.8,413.1c0,0.5-0.1,0.9-0.2,1.4c-0.1,0.4-0.3,0.8-0.6,1c-0.2,0.3-0.6,0.5-0.9,0.7s-0.8,0.2-1.3,0.2
			c-0.5,0-0.9-0.1-1.3-0.2c-0.4-0.2-0.7-0.4-0.9-0.7c-0.2-0.3-0.4-0.6-0.5-1.1c-0.1-0.4-0.2-0.9-0.2-1.4c0-0.7,0.1-1.2,0.3-1.7
			s0.5-0.9,1-1.2c0.4-0.3,1-0.4,1.7-0.4c0.6,0,1.2,0.1,1.6,0.4c0.4,0.3,0.8,0.7,1,1.1C99.7,411.8,99.8,412.4,99.8,413.1z
			 M94.7,413.1c0,0.5,0.1,1,0.2,1.4c0.2,0.4,0.4,0.7,0.7,0.9c0.3,0.2,0.7,0.3,1.2,0.3c0.5,0,0.9-0.1,1.2-0.3s0.6-0.5,0.7-0.9
			c0.2-0.4,0.2-0.9,0.2-1.4c0-0.8-0.2-1.5-0.5-1.9c-0.3-0.5-0.9-0.7-1.6-0.7c-0.5,0-0.9,0.1-1.2,0.3s-0.6,0.5-0.7,0.9
			C94.8,412.1,94.7,412.5,94.7,413.1z"/>
		<path d="M49.9,426.7c0.8,0,1.4,0.2,1.8,0.5c0.4,0.3,0.6,0.8,0.6,1.4c0,0.3,0,0.5-0.1,0.8c-0.1,0.2-0.2,0.5-0.4,0.6
			c-0.2,0.2-0.5,0.3-0.8,0.4c-0.3,0.1-0.7,0.2-1.2,0.2h-0.8v2.5h-0.7v-6.4H49.9z M49.8,427.3h-0.9v2.6h0.7c0.4,0,0.8,0,1-0.1
			s0.5-0.2,0.6-0.4c0.1-0.2,0.2-0.5,0.2-0.8c0-0.4-0.1-0.7-0.4-1C50.8,427.4,50.4,427.3,49.8,427.3z"/>
		<path d="M55.3,426.7c0.5,0,1,0.1,1.3,0.2c0.3,0.1,0.6,0.3,0.8,0.6s0.3,0.6,0.3,1c0,0.3-0.1,0.6-0.2,0.9c-0.1,0.2-0.3,0.4-0.5,0.6
			s-0.4,0.2-0.6,0.3l1.8,2.9h-0.9l-1.6-2.7h-1.3v2.7h-0.7v-6.4H55.3z M55.3,427.3h-0.9v2.5h1c0.5,0,0.9-0.1,1.2-0.3
			c0.2-0.2,0.4-0.5,0.4-0.9c0-0.4-0.1-0.7-0.4-0.9S55.8,427.3,55.3,427.3z"/>
		<path d="M64.7,429.9c0,0.5-0.1,0.9-0.2,1.4c-0.1,0.4-0.3,0.8-0.6,1c-0.2,0.3-0.6,0.5-0.9,0.7s-0.8,0.2-1.3,0.2
			c-0.5,0-0.9-0.1-1.3-0.2c-0.4-0.2-0.7-0.4-0.9-0.7c-0.2-0.3-0.4-0.6-0.5-1.1c-0.1-0.4-0.2-0.9-0.2-1.4c0-0.7,0.1-1.2,0.3-1.7
			s0.5-0.9,1-1.2c0.4-0.3,1-0.4,1.7-0.4c0.6,0,1.2,0.1,1.6,0.4c0.4,0.3,0.8,0.7,1,1.1C64.6,428.6,64.7,429.2,64.7,429.9z
			 M59.6,429.9c0,0.5,0.1,1,0.2,1.4c0.2,0.4,0.4,0.7,0.7,0.9c0.3,0.2,0.7,0.3,1.2,0.3c0.5,0,0.9-0.1,1.2-0.3s0.6-0.5,0.7-0.9
			c0.2-0.4,0.2-0.9,0.2-1.4c0-0.8-0.2-1.5-0.5-1.9c-0.3-0.5-0.9-0.7-1.6-0.7c-0.5,0-0.9,0.1-1.2,0.3s-0.6,0.5-0.7,0.9
			C59.7,428.9,59.6,429.3,59.6,429.9z"/>
		<path d="M71.2,429.8c0,0.7-0.1,1.3-0.4,1.8c-0.3,0.5-0.6,0.8-1.1,1.1c-0.5,0.2-1.1,0.4-1.8,0.4h-1.7v-6.4h1.9
			c0.7,0,1.2,0.1,1.7,0.4c0.5,0.2,0.8,0.6,1.1,1.1C71.1,428.6,71.2,429.1,71.2,429.8z M70.5,429.8c0-0.6-0.1-1.1-0.3-1.4
			s-0.5-0.7-0.8-0.8c-0.4-0.2-0.8-0.3-1.4-0.3h-1.1v5.1h0.9c0.9,0,1.5-0.2,2-0.7C70.2,431.4,70.5,430.7,70.5,429.8z"/>
		<path d="M77.5,426.7v4.2c0,0.5-0.1,0.9-0.3,1.2c-0.2,0.4-0.5,0.6-0.8,0.8c-0.4,0.2-0.8,0.3-1.4,0.3c-0.8,0-1.4-0.2-1.8-0.6
			c-0.4-0.4-0.6-1-0.6-1.7v-4.1h0.8v4.2c0,0.5,0.1,1,0.4,1.3s0.7,0.4,1.3,0.4c0.4,0,0.7-0.1,1-0.2c0.3-0.1,0.4-0.3,0.6-0.6
			c0.1-0.3,0.2-0.6,0.2-0.9v-4.2H77.5z"/>
		<path d="M82,427.2c-0.4,0-0.7,0.1-1,0.2c-0.3,0.1-0.5,0.3-0.7,0.5c-0.2,0.2-0.3,0.5-0.5,0.8s-0.2,0.7-0.2,1.1c0,0.5,0.1,1,0.3,1.4
			c0.2,0.4,0.4,0.7,0.8,0.9c0.3,0.2,0.8,0.3,1.3,0.3c0.3,0,0.6,0,0.8-0.1c0.3,0,0.5-0.1,0.7-0.2v0.7c-0.2,0.1-0.5,0.2-0.7,0.2
			c-0.3,0-0.6,0.1-0.9,0.1c-0.7,0-1.2-0.1-1.6-0.4c-0.4-0.3-0.8-0.7-1-1.1c-0.2-0.5-0.3-1.1-0.3-1.8c0-0.5,0.1-0.9,0.2-1.3
			c0.1-0.4,0.3-0.8,0.6-1c0.3-0.3,0.6-0.5,1-0.7c0.4-0.2,0.8-0.2,1.3-0.2c0.3,0,0.6,0,0.9,0.1s0.6,0.2,0.8,0.3l-0.3,0.6
			c-0.2-0.1-0.4-0.2-0.7-0.2C82.5,427.3,82.3,427.2,82,427.2z"/>
		<path d="M86.9,433.1h-0.8v-5.8h-2v-0.7h4.8v0.7h-2V433.1z"/>
		<path d="M95.4,429.9c0,0.5-0.1,0.9-0.2,1.4c-0.1,0.4-0.3,0.8-0.6,1c-0.2,0.3-0.6,0.5-0.9,0.7s-0.8,0.2-1.3,0.2
			c-0.5,0-0.9-0.1-1.3-0.2c-0.4-0.2-0.7-0.4-0.9-0.7c-0.2-0.3-0.4-0.6-0.5-1.1c-0.1-0.4-0.2-0.9-0.2-1.4c0-0.7,0.1-1.2,0.3-1.7
			s0.5-0.9,1-1.2c0.4-0.3,1-0.4,1.7-0.4c0.6,0,1.2,0.1,1.6,0.4c0.4,0.3,0.8,0.7,1,1.1C95.3,428.6,95.4,429.2,95.4,429.9z
			 M90.3,429.9c0,0.5,0.1,1,0.2,1.4c0.2,0.4,0.4,0.7,0.7,0.9c0.3,0.2,0.7,0.3,1.2,0.3c0.5,0,0.9-0.1,1.2-0.3s0.6-0.5,0.7-0.9
			c0.2-0.4,0.2-0.9,0.2-1.4c0-0.8-0.2-1.5-0.5-1.9c-0.3-0.5-0.9-0.7-1.6-0.7c-0.5,0-0.9,0.1-1.2,0.3s-0.6,0.5-0.7,0.9
			C90.4,428.9,90.3,429.3,90.3,429.9z"/>
		<path d="M98.6,426.7c0.5,0,1,0.1,1.3,0.2c0.3,0.1,0.6,0.3,0.8,0.6s0.3,0.6,0.3,1c0,0.3-0.1,0.6-0.2,0.9c-0.1,0.2-0.3,0.4-0.5,0.6
			s-0.4,0.2-0.6,0.3l1.8,2.9h-0.9l-1.6-2.7h-1.3v2.7h-0.7v-6.4H98.6z M98.6,427.3h-0.9v2.5h1c0.5,0,0.9-0.1,1.2-0.3
			c0.2-0.2,0.4-0.5,0.4-0.9c0-0.4-0.1-0.7-0.4-0.9S99.1,427.3,98.6,427.3z"/>
		<path d="M106.5,433.1l-0.8-2h-2.6l-0.8,2h-0.8l2.5-6.5h0.7l2.5,6.5H106.5z M105.4,430.4l-0.8-2c0-0.1,0-0.1-0.1-0.3
			c0-0.1-0.1-0.2-0.1-0.4s-0.1-0.2-0.1-0.3c0,0.1-0.1,0.2-0.1,0.4c0,0.1-0.1,0.2-0.1,0.3c0,0.1-0.1,0.2-0.1,0.3l-0.8,2H105.4z"/>
		<path d="M53.3,440.6c0,0.7-0.1,1.3-0.4,1.8c-0.3,0.5-0.6,0.8-1.1,1.1c-0.5,0.2-1.1,0.4-1.8,0.4h-1.7v-6.4h1.9
			c0.7,0,1.2,0.1,1.7,0.4c0.5,0.2,0.8,0.6,1.1,1.1C53.2,439.4,53.3,439.9,53.3,440.6z M52.5,440.6c0-0.6-0.1-1.1-0.3-1.4
			s-0.5-0.7-0.8-0.8c-0.4-0.2-0.8-0.3-1.4-0.3h-1.1v5.1h0.9c0.9,0,1.5-0.2,2-0.7C52.3,442.2,52.5,441.5,52.5,440.6z"/>
		<path d="M58.3,443.9h-3.6v-6.4h3.6v0.7h-2.8v2.1h2.7v0.7h-2.7v2.4h2.8V443.9z"/>
		<path d="M64.9,443.9l-2.2-5.7h0c0,0.1,0,0.3,0,0.4s0,0.4,0,0.6c0,0.2,0,0.4,0,0.6v4.1H62v-6.4h1.1l2,5.3h0l2.1-5.3h1.1v6.4h-0.7
			v-4.1c0-0.2,0-0.4,0-0.6c0-0.2,0-0.4,0-0.5c0-0.2,0-0.3,0-0.4h0l-2.2,5.7H64.9z"/>
		<path d="M75.7,440.7c0,0.5-0.1,0.9-0.2,1.4c-0.1,0.4-0.3,0.8-0.6,1c-0.2,0.3-0.6,0.5-0.9,0.7s-0.8,0.2-1.3,0.2
			c-0.5,0-0.9-0.1-1.3-0.2c-0.4-0.2-0.7-0.4-0.9-0.7c-0.2-0.3-0.4-0.6-0.5-1.1c-0.1-0.4-0.2-0.9-0.2-1.4c0-0.7,0.1-1.2,0.3-1.7
			s0.5-0.9,1-1.2c0.4-0.3,1-0.4,1.7-0.4c0.6,0,1.2,0.1,1.6,0.4c0.4,0.3,0.8,0.7,1,1.1C75.6,439.4,75.7,440,75.7,440.7z M70.6,440.7
			c0,0.5,0.1,1,0.2,1.4c0.2,0.4,0.4,0.7,0.7,0.9c0.3,0.2,0.7,0.3,1.2,0.3c0.5,0,0.9-0.1,1.2-0.3s0.6-0.5,0.7-0.9
			c0.2-0.4,0.2-0.9,0.2-1.4c0-0.8-0.2-1.5-0.5-1.9c-0.3-0.5-0.9-0.7-1.6-0.7c-0.5,0-0.9,0.1-1.2,0.3s-0.6,0.5-0.7,0.9
			C70.7,439.7,70.6,440.1,70.6,440.7z"/>
		<path d="M82.2,440.6c0,0.7-0.1,1.3-0.4,1.8c-0.3,0.5-0.6,0.8-1.1,1.1c-0.5,0.2-1.1,0.4-1.8,0.4h-1.7v-6.4h1.9
			c0.7,0,1.2,0.1,1.7,0.4c0.5,0.2,0.8,0.6,1.1,1.1C82.1,439.4,82.2,439.9,82.2,440.6z M81.5,440.6c0-0.6-0.1-1.1-0.3-1.4
			s-0.5-0.7-0.8-0.8c-0.4-0.2-0.8-0.3-1.4-0.3h-1.1v5.1h0.9c0.9,0,1.5-0.2,2-0.7C81.2,442.2,81.5,441.5,81.5,440.6z"/>
		<path d="M87.7,443.9l-0.8-2h-2.6l-0.8,2h-0.8l2.5-6.5H86l2.5,6.5H87.7z M86.7,441.2l-0.8-2c0-0.1,0-0.1-0.1-0.3
			c0-0.1-0.1-0.2-0.1-0.4s-0.1-0.2-0.1-0.3c0,0.1-0.1,0.2-0.1,0.4c0,0.1-0.1,0.2-0.1,0.3c0,0.1-0.1,0.2-0.1,0.3l-0.8,2H86.7z"/>
		<path d="M52.2,460.7l-0.8-2h-2.6l-0.8,2h-0.8l2.5-6.5h0.7l2.5,6.5H52.2z M51.2,458l-0.8-2c0-0.1,0-0.1-0.1-0.3
			c0-0.1-0.1-0.2-0.1-0.4s-0.1-0.2-0.1-0.3c0,0.1-0.1,0.2-0.1,0.4c0,0.1-0.1,0.2-0.1,0.3c0,0.1-0.1,0.2-0.1,0.3l-0.8,2H51.2z"/>
		<path d="M57.5,459c0,0.4-0.1,0.7-0.3,1c-0.2,0.3-0.5,0.5-0.8,0.6s-0.7,0.2-1.2,0.2c-0.2,0-0.5,0-0.7,0s-0.4-0.1-0.6-0.1
			c-0.2,0-0.3-0.1-0.5-0.2v-0.7c0.2,0.1,0.5,0.2,0.8,0.3c0.3,0.1,0.6,0.1,1,0.1c0.3,0,0.6,0,0.8-0.1c0.2-0.1,0.4-0.2,0.5-0.4
			c0.1-0.2,0.2-0.4,0.2-0.6c0-0.2,0-0.4-0.1-0.6c-0.1-0.1-0.3-0.3-0.5-0.4c-0.2-0.1-0.5-0.3-0.9-0.4c-0.3-0.1-0.5-0.2-0.7-0.3
			c-0.2-0.1-0.4-0.2-0.5-0.4c-0.1-0.1-0.2-0.3-0.3-0.5s-0.1-0.4-0.1-0.7c0-0.3,0.1-0.6,0.3-0.9c0.2-0.2,0.4-0.4,0.7-0.6
			c0.3-0.1,0.7-0.2,1.1-0.2c0.3,0,0.7,0,1,0.1c0.3,0.1,0.6,0.2,0.8,0.3l-0.2,0.6c-0.2-0.1-0.5-0.2-0.7-0.2c-0.3-0.1-0.5-0.1-0.8-0.1
			s-0.5,0-0.7,0.1c-0.2,0.1-0.3,0.2-0.4,0.3s-0.1,0.3-0.1,0.5c0,0.2,0,0.4,0.1,0.6c0.1,0.1,0.2,0.3,0.5,0.4c0.2,0.1,0.5,0.2,0.8,0.4
			c0.4,0.1,0.7,0.3,1,0.4c0.3,0.2,0.5,0.3,0.6,0.6C57.4,458.4,57.5,458.6,57.5,459z"/>
		<path d="M58.8,460.7v-6.4h0.7v6.4H58.8z"/>
		<path d="M64.9,459c0,0.4-0.1,0.7-0.3,1c-0.2,0.3-0.5,0.5-0.8,0.6s-0.7,0.2-1.2,0.2c-0.2,0-0.5,0-0.7,0s-0.4-0.1-0.6-0.1
			c-0.2,0-0.3-0.1-0.5-0.2v-0.7c0.2,0.1,0.5,0.2,0.8,0.3c0.3,0.1,0.6,0.1,1,0.1c0.3,0,0.6,0,0.8-0.1c0.2-0.1,0.4-0.2,0.5-0.4
			c0.1-0.2,0.2-0.4,0.2-0.6c0-0.2,0-0.4-0.1-0.6c-0.1-0.1-0.3-0.3-0.5-0.4c-0.2-0.1-0.5-0.3-0.9-0.4c-0.3-0.1-0.5-0.2-0.7-0.3
			c-0.2-0.1-0.4-0.2-0.5-0.4c-0.1-0.1-0.2-0.3-0.3-0.5s-0.1-0.4-0.1-0.7c0-0.3,0.1-0.6,0.3-0.9c0.2-0.2,0.4-0.4,0.7-0.6
			c0.3-0.1,0.7-0.2,1.1-0.2c0.3,0,0.7,0,1,0.1c0.3,0.1,0.6,0.2,0.8,0.3l-0.2,0.6c-0.2-0.1-0.5-0.2-0.7-0.2c-0.3-0.1-0.5-0.1-0.8-0.1
			s-0.5,0-0.7,0.1c-0.2,0.1-0.3,0.2-0.4,0.3s-0.1,0.3-0.1,0.5c0,0.2,0,0.4,0.1,0.6c0.1,0.1,0.2,0.3,0.5,0.4c0.2,0.1,0.5,0.2,0.8,0.4
			c0.4,0.1,0.7,0.3,1,0.4c0.3,0.2,0.5,0.3,0.6,0.6C64.9,458.4,64.9,458.6,64.9,459z"/>
		<path d="M68.2,460.7h-0.8v-5.8h-2v-0.7h4.8v0.7h-2V460.7z"/>
		<path d="M74.8,460.7h-3.6v-6.4h3.6v0.7H72v2.1h2.7v0.7H72v2.4h2.8V460.7z"/>
		<path d="M81.2,460.7h-0.9l-3.5-5.4h0c0,0.1,0,0.3,0,0.5c0,0.2,0,0.4,0,0.6c0,0.2,0,0.4,0,0.6v3.7h-0.7v-6.4h0.9l3.5,5.4h0
			c0-0.1,0-0.2,0-0.4c0-0.2,0-0.4,0-0.6c0-0.2,0-0.4,0-0.6v-3.7h0.7V460.7z"/>
		<path d="M85,460.7h-0.8v-5.8h-2v-0.7H87v0.7h-2V460.7z"/>
		<path d="M91.5,460.7h-3.6v-6.4h3.6v0.7h-2.8v2.1h2.7v0.7h-2.7v2.4h2.8V460.7z"/>
		<path d="M52.7,465.1l-2.3,6.4h-0.8l-2.3-6.4h0.8l1.5,4.2c0.1,0.2,0.1,0.3,0.2,0.5c0,0.2,0.1,0.3,0.1,0.4s0.1,0.3,0.1,0.4
			c0-0.1,0.1-0.3,0.1-0.4c0-0.1,0.1-0.3,0.1-0.5c0-0.2,0.1-0.3,0.2-0.5l1.5-4.2H52.7z"/>
		<path d="M57.1,471.5h-3.6v-6.4h3.6v0.7h-2.8v2.1H57v0.7h-2.7v2.4h2.8V471.5z"/>
		<path d="M62.2,469.8c0,0.4-0.1,0.7-0.3,1c-0.2,0.3-0.5,0.5-0.8,0.6s-0.7,0.2-1.2,0.2c-0.2,0-0.5,0-0.7,0s-0.4-0.1-0.6-0.1
			c-0.2,0-0.3-0.1-0.5-0.2v-0.7c0.2,0.1,0.5,0.2,0.8,0.3c0.3,0.1,0.6,0.1,1,0.1c0.3,0,0.6,0,0.8-0.1c0.2-0.1,0.4-0.2,0.5-0.4
			c0.1-0.2,0.2-0.4,0.2-0.6c0-0.2,0-0.4-0.1-0.6c-0.1-0.1-0.3-0.3-0.5-0.4c-0.2-0.1-0.5-0.3-0.9-0.4c-0.3-0.1-0.5-0.2-0.7-0.3
			c-0.2-0.1-0.4-0.2-0.5-0.4c-0.1-0.1-0.2-0.3-0.3-0.5s-0.1-0.4-0.1-0.7c0-0.3,0.1-0.6,0.3-0.9c0.2-0.2,0.4-0.4,0.7-0.6
			c0.3-0.1,0.7-0.2,1.1-0.2c0.3,0,0.7,0,1,0.1c0.3,0.1,0.6,0.2,0.8,0.3l-0.2,0.6c-0.2-0.1-0.5-0.2-0.7-0.2c-0.3-0.1-0.5-0.1-0.8-0.1
			s-0.5,0-0.7,0.1c-0.2,0.1-0.3,0.2-0.4,0.3s-0.1,0.3-0.1,0.5c0,0.2,0,0.4,0.1,0.6c0.1,0.1,0.2,0.3,0.5,0.4c0.2,0.1,0.5,0.2,0.8,0.4
			c0.4,0.1,0.7,0.3,1,0.4c0.3,0.2,0.5,0.3,0.6,0.6C62.1,469.2,62.2,469.4,62.2,469.8z"/>
		<path d="M65.5,471.5h-0.8v-5.8h-2v-0.7h4.8v0.7h-2V471.5z"/>
		<path d="M73.3,465.1v4.2c0,0.5-0.1,0.9-0.3,1.2c-0.2,0.4-0.5,0.6-0.8,0.8c-0.4,0.2-0.8,0.3-1.4,0.3c-0.8,0-1.4-0.2-1.8-0.6
			c-0.4-0.4-0.6-1-0.6-1.7v-4.1h0.8v4.2c0,0.5,0.1,1,0.4,1.3s0.7,0.4,1.3,0.4c0.4,0,0.7-0.1,1-0.2c0.3-0.1,0.4-0.3,0.6-0.6
			c0.1-0.3,0.2-0.6,0.2-0.9v-4.2H73.3z"/>
		<path d="M79,471.5l-0.8-2h-2.6l-0.8,2h-0.8l2.5-6.5h0.7l2.5,6.5H79z M78,468.8l-0.8-2c0-0.1,0-0.1-0.1-0.3c0-0.1-0.1-0.2-0.1-0.4
			s-0.1-0.2-0.1-0.3c0,0.1-0.1,0.2-0.1,0.4c0,0.1-0.1,0.2-0.1,0.3c0,0.1-0.1,0.2-0.1,0.3l-0.8,2H78z"/>
		<path d="M82.4,465.1c0.5,0,1,0.1,1.3,0.2c0.3,0.1,0.6,0.3,0.8,0.6s0.3,0.6,0.3,1c0,0.3-0.1,0.6-0.2,0.9c-0.1,0.2-0.3,0.4-0.5,0.6
			s-0.4,0.2-0.6,0.3l1.8,2.9h-0.9l-1.6-2.7h-1.3v2.7h-0.7v-6.4H82.4z M82.4,465.7h-0.9v2.5h1c0.5,0,0.9-0.1,1.2-0.3
			c0.2-0.2,0.4-0.5,0.4-0.9c0-0.4-0.1-0.7-0.4-0.9S82.9,465.7,82.4,465.7z"/>
		<path d="M86.2,471.5v-6.4H87v6.4H86.2z"/>
		<path d="M92.4,469.8c0,0.4-0.1,0.7-0.3,1c-0.2,0.3-0.5,0.5-0.8,0.6s-0.7,0.2-1.2,0.2c-0.2,0-0.5,0-0.7,0s-0.4-0.1-0.6-0.1
			c-0.2,0-0.3-0.1-0.5-0.2v-0.7c0.2,0.1,0.5,0.2,0.8,0.3c0.3,0.1,0.6,0.1,1,0.1c0.3,0,0.6,0,0.8-0.1c0.2-0.1,0.4-0.2,0.5-0.4
			c0.1-0.2,0.2-0.4,0.2-0.6c0-0.2,0-0.4-0.1-0.6c-0.1-0.1-0.3-0.3-0.5-0.4c-0.2-0.1-0.5-0.3-0.9-0.4c-0.3-0.1-0.5-0.2-0.7-0.3
			c-0.2-0.1-0.4-0.2-0.5-0.4c-0.1-0.1-0.2-0.3-0.3-0.5s-0.1-0.4-0.1-0.7c0-0.3,0.1-0.6,0.3-0.9c0.2-0.2,0.4-0.4,0.7-0.6
			c0.3-0.1,0.7-0.2,1.1-0.2c0.3,0,0.7,0,1,0.1c0.3,0.1,0.6,0.2,0.8,0.3L92,466c-0.2-0.1-0.5-0.2-0.7-0.2c-0.3-0.1-0.5-0.1-0.8-0.1
			s-0.5,0-0.7,0.1c-0.2,0.1-0.3,0.2-0.4,0.3s-0.1,0.3-0.1,0.5c0,0.2,0,0.4,0.1,0.6c0.1,0.1,0.2,0.3,0.5,0.4c0.2,0.1,0.5,0.2,0.8,0.4
			c0.4,0.1,0.7,0.3,1,0.4c0.3,0.2,0.5,0.3,0.6,0.6C92.3,469.2,92.4,469.4,92.4,469.8z"/>
		<path d="M95.7,471.5h-0.8v-5.8h-2v-0.7h4.8v0.7h-2V471.5z"/>
		<path d="M102.7,471.5l-0.8-2h-2.6l-0.8,2h-0.8l2.5-6.5h0.7l2.5,6.5H102.7z M101.7,468.8l-0.8-2c0-0.1,0-0.1-0.1-0.3
			c0-0.1-0.1-0.2-0.1-0.4s-0.1-0.2-0.1-0.3c0,0.1-0.1,0.2-0.1,0.4c0,0.1-0.1,0.2-0.1,0.3c0,0.1-0.1,0.2-0.1,0.3l-0.8,2H101.7z"/>
	</g>
	<g>
		<g>
			<path d="M39.3,337.7v8h-8v-8H39.3 M40.3,336.7h-10v10h10V336.7L40.3,336.7z"/>
		</g>
		<polygon class="st0" points="28.8,340.2 35.3,344.8 42.8,334.2 35.3,342 		"/>
	</g>
	<g>
		<g>
			<path d="M39.3,354.7v8h-8v-8H39.3 M40.3,353.7h-10v10h10V353.7L40.3,353.7z"/>
		</g>
		<polygon class="st0" points="28.8,357.2 35.3,361.8 42.8,351.2 35.3,359 		"/>
	</g>
	<g>
		<g>
			<path d="M39.3,381.7v8h-8v-8H39.3 M40.3,380.7h-10v10h10V380.7L40.3,380.7z"/>
		</g>
		<polygon class="st0" points="28.8,384.2 35.3,388.8 42.8,378.2 35.3,386 		"/>
	</g>
	<g>
		<g>
			<path d="M39.3,399.7v8h-8v-8H39.3 M40.3,398.7h-10v10h10V398.7L40.3,398.7z"/>
		</g>
		<polygon class="st0" points="28.8,402.2 35.3,406.8 42.8,396.2 35.3,404 		"/>
	</g>
	<g>
		<g>
			<path d="M39.3,426.7v8h-8v-8H39.3 M40.3,425.7h-10v10h10V425.7L40.3,425.7z"/>
		</g>
		<polygon class="st0" points="28.8,429.2 35.3,433.8 42.8,423.2 35.3,431 		"/>
	</g>
	<g>
		<g>
			<path d="M39.3,454.7v8h-8v-8H39.3 M40.3,453.7h-10v10h10V453.7L40.3,453.7z"/>
		</g>
		<polygon class="st0" points="28.8,457.2 35.3,461.8 42.8,451.2 35.3,459 		"/>
	</g>
	<g>
		<path d="M159.3,343.5l-2.2-5.7h0c0,0.1,0,0.3,0,0.4c0,0.2,0,0.4,0,0.6c0,0.2,0,0.4,0,0.6v4.1h-0.7v-6.4h1.1l2,5.3h0l2.1-5.3h1.1
			v6.4H162v-4.1c0-0.2,0-0.4,0-0.6c0-0.2,0-0.4,0-0.5c0-0.2,0-0.3,0-0.4h0l-2.2,5.7H159.3z"/>
		<path d="M170.1,340.3c0,0.5-0.1,0.9-0.2,1.4c-0.1,0.4-0.3,0.8-0.6,1c-0.2,0.3-0.6,0.5-0.9,0.7s-0.8,0.2-1.3,0.2
			c-0.5,0-0.9-0.1-1.3-0.2c-0.4-0.2-0.7-0.4-0.9-0.7c-0.2-0.3-0.4-0.6-0.5-1.1c-0.1-0.4-0.2-0.9-0.2-1.4c0-0.7,0.1-1.2,0.3-1.7
			c0.2-0.5,0.5-0.9,1-1.2c0.4-0.3,1-0.4,1.7-0.4c0.6,0,1.2,0.1,1.6,0.4c0.4,0.3,0.8,0.7,1,1.1C170,339,170.1,339.6,170.1,340.3z
			 M165,340.3c0,0.5,0.1,1,0.2,1.4c0.2,0.4,0.4,0.7,0.7,0.9c0.3,0.2,0.7,0.3,1.2,0.3c0.5,0,0.9-0.1,1.2-0.3c0.3-0.2,0.6-0.5,0.7-0.9
			c0.2-0.4,0.2-0.9,0.2-1.4c0-0.8-0.2-1.5-0.5-1.9c-0.3-0.5-0.9-0.7-1.6-0.7c-0.5,0-0.9,0.1-1.2,0.3s-0.6,0.5-0.7,0.9
			C165.1,339.3,165,339.7,165,340.3z"/>
		<path d="M176.6,340.2c0,0.7-0.1,1.3-0.4,1.8c-0.3,0.5-0.6,0.8-1.1,1.1c-0.5,0.2-1.1,0.4-1.8,0.4h-1.7v-6.4h1.9
			c0.7,0,1.2,0.1,1.7,0.4c0.5,0.2,0.8,0.6,1.1,1.1C176.5,339,176.6,339.5,176.6,340.2z M175.9,340.2c0-0.6-0.1-1.1-0.3-1.4
			c-0.2-0.4-0.5-0.7-0.8-0.8c-0.4-0.2-0.8-0.3-1.4-0.3h-1.1v5.1h0.9c0.9,0,1.5-0.2,2-0.7C175.6,341.8,175.9,341.1,175.9,340.2z"/>
		<path d="M181.7,343.5h-3.6v-6.4h3.6v0.7h-2.8v2.1h2.7v0.7h-2.7v2.4h2.8V343.5z"/>
		<path d="M183.1,343.5v-6.4h0.7v5.8h2.9v0.7H183.1z"/>
		<path d="M193.3,340.3c0,0.5-0.1,0.9-0.2,1.4c-0.1,0.4-0.3,0.8-0.6,1c-0.2,0.3-0.6,0.5-0.9,0.7s-0.8,0.2-1.3,0.2
			c-0.5,0-0.9-0.1-1.3-0.2c-0.4-0.2-0.7-0.4-0.9-0.7c-0.2-0.3-0.4-0.6-0.5-1.1c-0.1-0.4-0.2-0.9-0.2-1.4c0-0.7,0.1-1.2,0.3-1.7
			c0.2-0.5,0.5-0.9,1-1.2c0.4-0.3,1-0.4,1.7-0.4c0.6,0,1.2,0.1,1.6,0.4c0.4,0.3,0.8,0.7,1,1.1C193.2,339,193.3,339.6,193.3,340.3z
			 M188.2,340.3c0,0.5,0.1,1,0.2,1.4c0.2,0.4,0.4,0.7,0.7,0.9c0.3,0.2,0.7,0.3,1.2,0.3c0.5,0,0.9-0.1,1.2-0.3
			c0.3-0.2,0.6-0.5,0.7-0.9c0.2-0.4,0.2-0.9,0.2-1.4c0-0.8-0.2-1.5-0.5-1.9c-0.3-0.5-0.9-0.7-1.6-0.7c-0.5,0-0.9,0.1-1.2,0.3
			s-0.6,0.5-0.7,0.9C188.3,339.3,188.2,339.7,188.2,340.3z"/>
		<path d="M160,360.3h-3.6v-6.4h3.6v0.7h-2.8v2.1h2.7v0.7h-2.7v2.4h2.8V360.3z"/>
		<path d="M167,357.1c0,0.5-0.1,1-0.2,1.4c-0.1,0.4-0.4,0.8-0.6,1.1c-0.3,0.3-0.6,0.5-1.1,0.6l1.5,1.6h-1.1l-1.2-1.5
			c0,0-0.1,0-0.1,0c0,0-0.1,0-0.1,0c-0.5,0-0.9-0.1-1.3-0.2c-0.4-0.2-0.7-0.4-0.9-0.7c-0.2-0.3-0.4-0.6-0.5-1.1
			c-0.1-0.4-0.2-0.9-0.2-1.4c0-0.7,0.1-1.2,0.3-1.7c0.2-0.5,0.5-0.9,1-1.2c0.4-0.3,1-0.4,1.7-0.4c0.6,0,1.2,0.1,1.6,0.4
			c0.4,0.3,0.8,0.7,1,1.1C166.9,355.8,167,356.4,167,357.1z M161.9,357.1c0,0.5,0.1,1,0.2,1.4c0.2,0.4,0.4,0.7,0.7,0.9
			c0.3,0.2,0.7,0.3,1.2,0.3c0.5,0,0.9-0.1,1.2-0.3c0.3-0.2,0.6-0.5,0.7-0.9c0.2-0.4,0.2-0.9,0.2-1.4c0-0.8-0.2-1.5-0.5-1.9
			c-0.3-0.5-0.9-0.7-1.6-0.7c-0.5,0-0.9,0.1-1.2,0.3s-0.6,0.5-0.7,0.9C162,356.1,161.9,356.5,161.9,357.1z"/>
		<path d="M173.3,353.9v4.2c0,0.5-0.1,0.9-0.3,1.2c-0.2,0.4-0.5,0.6-0.8,0.8c-0.4,0.2-0.8,0.3-1.4,0.3c-0.8,0-1.4-0.2-1.8-0.6
			c-0.4-0.4-0.6-1-0.6-1.7v-4.1h0.8v4.2c0,0.5,0.1,1,0.4,1.3c0.3,0.3,0.7,0.4,1.3,0.4c0.4,0,0.7-0.1,1-0.2c0.3-0.1,0.4-0.3,0.6-0.6
			c0.1-0.3,0.2-0.6,0.2-0.9v-4.2H173.3z"/>
		<path d="M175,360.3v-6.4h0.7v6.4H175z"/>
		<path d="M179.2,353.9c0.8,0,1.4,0.2,1.8,0.5c0.4,0.3,0.6,0.8,0.6,1.4c0,0.3,0,0.5-0.1,0.8c-0.1,0.2-0.2,0.5-0.4,0.6
			c-0.2,0.2-0.5,0.3-0.8,0.4c-0.3,0.1-0.7,0.2-1.2,0.2h-0.8v2.5h-0.7v-6.4H179.2z M179.1,354.5h-0.9v2.6h0.7c0.4,0,0.8,0,1-0.1
			c0.3-0.1,0.5-0.2,0.6-0.4c0.1-0.2,0.2-0.5,0.2-0.8c0-0.4-0.1-0.7-0.4-1C180.1,354.6,179.7,354.5,179.1,354.5z"/>
		<path d="M188.5,357.1c0,0.5-0.1,0.9-0.2,1.4c-0.1,0.4-0.3,0.8-0.6,1c-0.2,0.3-0.6,0.5-0.9,0.7s-0.8,0.2-1.3,0.2
			c-0.5,0-0.9-0.1-1.3-0.2c-0.4-0.2-0.7-0.4-0.9-0.7c-0.2-0.3-0.4-0.6-0.5-1.1c-0.1-0.4-0.2-0.9-0.2-1.4c0-0.7,0.1-1.2,0.3-1.7
			c0.2-0.5,0.5-0.9,1-1.2c0.4-0.3,1-0.4,1.7-0.4c0.6,0,1.2,0.1,1.6,0.4c0.4,0.3,0.8,0.7,1,1.1C188.4,355.8,188.5,356.4,188.5,357.1z
			 M183.4,357.1c0,0.5,0.1,1,0.2,1.4c0.2,0.4,0.4,0.7,0.7,0.9c0.3,0.2,0.7,0.3,1.2,0.3c0.5,0,0.9-0.1,1.2-0.3
			c0.3-0.2,0.6-0.5,0.7-0.9c0.2-0.4,0.2-0.9,0.2-1.4c0-0.8-0.2-1.5-0.5-1.9c-0.3-0.5-0.9-0.7-1.6-0.7c-0.5,0-0.9,0.1-1.2,0.3
			s-0.6,0.5-0.7,0.9C183.5,356.1,183.4,356.5,183.4,357.1z"/>
		<path d="M157.2,371.1h-0.7v-6.4h3.6v0.7h-2.8v2.4h2.7v0.7h-2.7V371.1z"/>
		<path d="M166.7,367.9c0,0.5-0.1,0.9-0.2,1.4c-0.1,0.4-0.3,0.8-0.6,1c-0.2,0.3-0.6,0.5-0.9,0.7s-0.8,0.2-1.3,0.2
			c-0.5,0-0.9-0.1-1.3-0.2c-0.4-0.2-0.7-0.4-0.9-0.7c-0.2-0.3-0.4-0.6-0.5-1.1c-0.1-0.4-0.2-0.9-0.2-1.4c0-0.7,0.1-1.2,0.3-1.7
			c0.2-0.5,0.5-0.9,1-1.2c0.4-0.3,1-0.4,1.7-0.4c0.6,0,1.2,0.1,1.6,0.4c0.4,0.3,0.8,0.7,1,1.1C166.6,366.6,166.7,367.2,166.7,367.9z
			 M161.6,367.9c0,0.5,0.1,1,0.2,1.4c0.2,0.4,0.4,0.7,0.7,0.9c0.3,0.2,0.7,0.3,1.2,0.3c0.5,0,0.9-0.1,1.2-0.3
			c0.3-0.2,0.6-0.5,0.7-0.9c0.2-0.4,0.2-0.9,0.2-1.4c0-0.8-0.2-1.5-0.5-1.9c-0.3-0.5-0.9-0.7-1.6-0.7c-0.5,0-0.9,0.1-1.2,0.3
			s-0.6,0.5-0.7,0.9C161.6,366.9,161.6,367.3,161.6,367.9z"/>
		<path d="M170.1,371.1h-0.8v-5.8h-2v-0.7h4.8v0.7h-2V371.1z"/>
		<path d="M178.6,367.9c0,0.5-0.1,0.9-0.2,1.4c-0.1,0.4-0.3,0.8-0.6,1c-0.2,0.3-0.6,0.5-0.9,0.7s-0.8,0.2-1.3,0.2
			c-0.5,0-0.9-0.1-1.3-0.2c-0.4-0.2-0.7-0.4-0.9-0.7c-0.2-0.3-0.4-0.6-0.5-1.1c-0.1-0.4-0.2-0.9-0.2-1.4c0-0.7,0.1-1.2,0.3-1.7
			c0.2-0.5,0.5-0.9,1-1.2c0.4-0.3,1-0.4,1.7-0.4c0.6,0,1.2,0.1,1.6,0.4c0.4,0.3,0.8,0.7,1,1.1C178.5,366.6,178.6,367.2,178.6,367.9z
			 M173.5,367.9c0,0.5,0.1,1,0.2,1.4c0.2,0.4,0.4,0.7,0.7,0.9c0.3,0.2,0.7,0.3,1.2,0.3c0.5,0,0.9-0.1,1.2-0.3
			c0.3-0.2,0.6-0.5,0.7-0.9c0.2-0.4,0.2-0.9,0.2-1.4c0-0.8-0.2-1.5-0.5-1.9c-0.3-0.5-0.9-0.7-1.6-0.7c-0.5,0-0.9,0.1-1.2,0.3
			s-0.6,0.5-0.7,0.9C173.6,366.9,173.5,367.3,173.5,367.9z"/>
		<path d="M182.8,367.7h2.2v3.1c-0.3,0.1-0.7,0.2-1,0.3c-0.4,0.1-0.8,0.1-1.2,0.1c-0.7,0-1.2-0.1-1.7-0.4c-0.5-0.3-0.8-0.6-1-1.1
			c-0.2-0.5-0.4-1.1-0.4-1.8c0-0.7,0.1-1.2,0.4-1.7c0.3-0.5,0.6-0.9,1.1-1.2c0.5-0.3,1.1-0.4,1.8-0.4c0.4,0,0.7,0,1,0.1
			c0.3,0.1,0.6,0.2,0.9,0.3l-0.3,0.7c-0.2-0.1-0.5-0.2-0.8-0.3c-0.3-0.1-0.6-0.1-0.9-0.1c-0.5,0-1,0.1-1.3,0.3
			c-0.4,0.2-0.7,0.5-0.9,0.9c-0.2,0.4-0.3,0.9-0.3,1.4c0,0.5,0.1,1,0.3,1.4c0.2,0.4,0.4,0.7,0.8,0.9s0.8,0.3,1.4,0.3
			c0.3,0,0.5,0,0.7,0c0.2,0,0.4-0.1,0.6-0.1v-2h-1.5V367.7z"/>
		<path d="M188.3,364.7c0.5,0,1,0.1,1.3,0.2c0.3,0.1,0.6,0.3,0.8,0.6s0.3,0.6,0.3,1c0,0.3-0.1,0.6-0.2,0.9c-0.1,0.2-0.3,0.4-0.5,0.6
			s-0.4,0.2-0.6,0.3l1.8,2.9h-0.9l-1.6-2.7h-1.3v2.7h-0.7v-6.4H188.3z M188.3,365.3h-0.9v2.5h1c0.5,0,0.9-0.1,1.2-0.3
			c0.2-0.2,0.4-0.5,0.4-0.9c0-0.4-0.1-0.7-0.4-0.9C189.2,365.4,188.8,365.3,188.3,365.3z"/>
		<path d="M196.2,371.1l-0.8-2h-2.6l-0.8,2h-0.8l2.5-6.5h0.7l2.5,6.5H196.2z M195.2,368.4l-0.8-2c0-0.1,0-0.1-0.1-0.3
			c0-0.1-0.1-0.2-0.1-0.4s-0.1-0.2-0.1-0.3c0,0.1-0.1,0.2-0.1,0.4c0,0.1-0.1,0.2-0.1,0.3c0,0.1-0.1,0.2-0.1,0.3l-0.8,2H195.2z
			 M195.4,362.6L195.4,362.6c-0.1,0.2-0.1,0.3-0.2,0.4c-0.1,0.1-0.2,0.2-0.3,0.4c-0.1,0.1-0.2,0.3-0.4,0.4c-0.1,0.1-0.2,0.2-0.3,0.3
			h-0.5v-0.1c0.1-0.1,0.2-0.2,0.3-0.4c0.1-0.2,0.2-0.3,0.3-0.5c0.1-0.2,0.2-0.3,0.3-0.5H195.4z"/>
		<path d="M198.6,371.1h-0.7v-6.4h3.6v0.7h-2.8v2.4h2.7v0.7h-2.7V371.1z"/>
		<path d="M202.5,371.1v-6.4h0.7v6.4H202.5z"/>
		<path d="M207.7,365.2c-0.4,0-0.7,0.1-1,0.2c-0.3,0.1-0.5,0.3-0.7,0.5c-0.2,0.2-0.3,0.5-0.5,0.8s-0.2,0.7-0.2,1.1
			c0,0.5,0.1,1,0.3,1.4c0.2,0.4,0.4,0.7,0.8,0.9c0.3,0.2,0.8,0.3,1.3,0.3c0.3,0,0.6,0,0.8-0.1c0.3,0,0.5-0.1,0.7-0.2v0.7
			c-0.2,0.1-0.5,0.2-0.7,0.2c-0.3,0-0.6,0.1-0.9,0.1c-0.7,0-1.2-0.1-1.6-0.4c-0.4-0.3-0.8-0.7-1-1.1c-0.2-0.5-0.3-1.1-0.3-1.8
			c0-0.5,0.1-0.9,0.2-1.3c0.1-0.4,0.3-0.8,0.6-1c0.3-0.3,0.6-0.5,1-0.7c0.4-0.2,0.8-0.2,1.3-0.2c0.3,0,0.6,0,0.9,0.1
			s0.6,0.2,0.8,0.3l-0.3,0.6c-0.2-0.1-0.4-0.2-0.7-0.2C208.3,365.3,208,365.2,207.7,365.2z"/>
		<path d="M216.2,367.9c0,0.5-0.1,0.9-0.2,1.4c-0.1,0.4-0.3,0.8-0.6,1c-0.2,0.3-0.6,0.5-0.9,0.7s-0.8,0.2-1.3,0.2
			c-0.5,0-0.9-0.1-1.3-0.2c-0.4-0.2-0.7-0.4-0.9-0.7c-0.2-0.3-0.4-0.6-0.5-1.1c-0.1-0.4-0.2-0.9-0.2-1.4c0-0.7,0.1-1.2,0.3-1.7
			c0.2-0.5,0.5-0.9,1-1.2c0.4-0.3,1-0.4,1.7-0.4c0.6,0,1.2,0.1,1.6,0.4c0.4,0.3,0.8,0.7,1,1.1C216.1,366.6,216.2,367.2,216.2,367.9z
			 M211.1,367.9c0,0.5,0.1,1,0.2,1.4c0.2,0.4,0.4,0.7,0.7,0.9c0.3,0.2,0.7,0.3,1.2,0.3c0.5,0,0.9-0.1,1.2-0.3
			c0.3-0.2,0.6-0.5,0.7-0.9c0.2-0.4,0.2-0.9,0.2-1.4c0-0.8-0.2-1.5-0.5-1.9c-0.3-0.5-0.9-0.7-1.6-0.7c-0.5,0-0.9,0.1-1.2,0.3
			s-0.6,0.5-0.7,0.9C211.2,366.9,211.1,367.3,211.1,367.9z"/>
		<path d="M160,387.9h-3.6v-6.4h3.6v0.7h-2.8v2.1h2.7v0.7h-2.7v2.4h2.8V387.9z"/>
		<path d="M166.6,384.6c0,0.7-0.1,1.3-0.4,1.8c-0.3,0.5-0.6,0.8-1.1,1.1c-0.5,0.2-1.1,0.4-1.8,0.4h-1.7v-6.4h1.9
			c0.7,0,1.2,0.1,1.7,0.4c0.5,0.2,0.8,0.6,1.1,1.1C166.4,383.4,166.6,383.9,166.6,384.6z M165.8,384.6c0-0.6-0.1-1.1-0.3-1.4
			c-0.2-0.4-0.5-0.7-0.8-0.8c-0.4-0.2-0.8-0.3-1.4-0.3h-1.1v5.1h0.9c0.9,0,1.5-0.2,2-0.7C165.5,386.2,165.8,385.5,165.8,384.6z"/>
		<path d="M168,387.9v-6.4h0.7v6.4H168z"/>
		<path d="M173.2,382c-0.4,0-0.7,0.1-1,0.2c-0.3,0.1-0.5,0.3-0.7,0.5c-0.2,0.2-0.3,0.5-0.5,0.8s-0.2,0.7-0.2,1.1
			c0,0.5,0.1,1,0.3,1.4c0.2,0.4,0.4,0.7,0.8,0.9c0.3,0.2,0.8,0.3,1.3,0.3c0.3,0,0.6,0,0.8-0.1c0.3,0,0.5-0.1,0.7-0.2v0.7
			c-0.2,0.1-0.5,0.2-0.7,0.2c-0.3,0-0.6,0.1-0.9,0.1c-0.7,0-1.2-0.1-1.6-0.4c-0.4-0.3-0.8-0.7-1-1.1c-0.2-0.5-0.3-1.1-0.3-1.8
			c0-0.5,0.1-0.9,0.2-1.3c0.1-0.4,0.3-0.8,0.6-1c0.3-0.3,0.6-0.5,1-0.7c0.4-0.2,0.8-0.2,1.3-0.2c0.3,0,0.6,0,0.9,0.1
			s0.6,0.2,0.8,0.3l-0.3,0.6c-0.2-0.1-0.4-0.2-0.7-0.2C173.8,382.1,173.5,382,173.2,382z"/>
		<path d="M176.2,387.9v-6.4h0.7v6.4H176.2z"/>
		<path d="M184.3,384.7c0,0.5-0.1,0.9-0.2,1.4c-0.1,0.4-0.3,0.8-0.6,1c-0.2,0.3-0.6,0.5-0.9,0.7s-0.8,0.2-1.3,0.2
			c-0.5,0-0.9-0.1-1.3-0.2c-0.4-0.2-0.7-0.4-0.9-0.7c-0.2-0.3-0.4-0.6-0.5-1.1c-0.1-0.4-0.2-0.9-0.2-1.4c0-0.7,0.1-1.2,0.3-1.7
			c0.2-0.5,0.5-0.9,1-1.2c0.4-0.3,1-0.4,1.7-0.4c0.6,0,1.2,0.1,1.6,0.4c0.4,0.3,0.8,0.7,1,1.1C184.1,383.4,184.3,384,184.3,384.7z
			 M179.1,384.7c0,0.5,0.1,1,0.2,1.4c0.2,0.4,0.4,0.7,0.7,0.9c0.3,0.2,0.7,0.3,1.2,0.3c0.5,0,0.9-0.1,1.2-0.3
			c0.3-0.2,0.6-0.5,0.7-0.9c0.2-0.4,0.2-0.9,0.2-1.4c0-0.8-0.2-1.5-0.5-1.9c-0.3-0.5-0.9-0.7-1.6-0.7c-0.5,0-0.9,0.1-1.2,0.3
			s-0.6,0.5-0.7,0.9C179.2,383.7,179.1,384.1,179.1,384.7z M182.6,379.4L182.6,379.4c-0.1,0.2-0.1,0.3-0.2,0.4
			c-0.1,0.1-0.2,0.2-0.3,0.4c-0.1,0.1-0.2,0.3-0.4,0.4c-0.1,0.1-0.2,0.2-0.3,0.3h-0.5v-0.1c0.1-0.1,0.2-0.2,0.3-0.4
			c0.1-0.2,0.2-0.3,0.3-0.5c0.1-0.2,0.2-0.3,0.3-0.5H182.6z"/>
		<path d="M190.7,387.9h-0.9l-3.5-5.4h0c0,0.1,0,0.3,0,0.5c0,0.2,0,0.4,0,0.6c0,0.2,0,0.4,0,0.6v3.7h-0.7v-6.4h0.9l3.5,5.4h0
			c0-0.1,0-0.2,0-0.4c0-0.2,0-0.4,0-0.6c0-0.2,0-0.4,0-0.6v-3.7h0.7V387.9z"/>
		<path d="M157.2,398.7h-0.7v-6.4h3.6v0.7h-2.8v2.4h2.7v0.7h-2.7V398.7z"/>
		<path d="M166.7,395.5c0,0.5-0.1,0.9-0.2,1.4c-0.1,0.4-0.3,0.8-0.6,1c-0.2,0.3-0.6,0.5-0.9,0.7s-0.8,0.2-1.3,0.2
			c-0.5,0-0.9-0.1-1.3-0.2c-0.4-0.2-0.7-0.4-0.9-0.7c-0.2-0.3-0.4-0.6-0.5-1.1c-0.1-0.4-0.2-0.9-0.2-1.4c0-0.7,0.1-1.2,0.3-1.7
			c0.2-0.5,0.5-0.9,1-1.2c0.4-0.3,1-0.4,1.7-0.4c0.6,0,1.2,0.1,1.6,0.4c0.4,0.3,0.8,0.7,1,1.1C166.6,394.2,166.7,394.8,166.7,395.5z
			 M161.6,395.5c0,0.5,0.1,1,0.2,1.4c0.2,0.4,0.4,0.7,0.7,0.9c0.3,0.2,0.7,0.3,1.2,0.3c0.5,0,0.9-0.1,1.2-0.3
			c0.3-0.2,0.6-0.5,0.7-0.9c0.2-0.4,0.2-0.9,0.2-1.4c0-0.8-0.2-1.5-0.5-1.9c-0.3-0.5-0.9-0.7-1.6-0.7c-0.5,0-0.9,0.1-1.2,0.3
			s-0.6,0.5-0.7,0.9C161.6,394.5,161.6,394.9,161.6,395.5z"/>
		<path d="M170.1,398.7h-0.8v-5.8h-2v-0.7h4.8v0.7h-2V398.7z"/>
		<path d="M178.6,395.5c0,0.5-0.1,0.9-0.2,1.4c-0.1,0.4-0.3,0.8-0.6,1c-0.2,0.3-0.6,0.5-0.9,0.7s-0.8,0.2-1.3,0.2
			c-0.5,0-0.9-0.1-1.3-0.2c-0.4-0.2-0.7-0.4-0.9-0.7c-0.2-0.3-0.4-0.6-0.5-1.1c-0.1-0.4-0.2-0.9-0.2-1.4c0-0.7,0.1-1.2,0.3-1.7
			c0.2-0.5,0.5-0.9,1-1.2c0.4-0.3,1-0.4,1.7-0.4c0.6,0,1.2,0.1,1.6,0.4c0.4,0.3,0.8,0.7,1,1.1C178.5,394.2,178.6,394.8,178.6,395.5z
			 M173.5,395.5c0,0.5,0.1,1,0.2,1.4c0.2,0.4,0.4,0.7,0.7,0.9c0.3,0.2,0.7,0.3,1.2,0.3c0.5,0,0.9-0.1,1.2-0.3
			c0.3-0.2,0.6-0.5,0.7-0.9c0.2-0.4,0.2-0.9,0.2-1.4c0-0.8-0.2-1.5-0.5-1.9c-0.3-0.5-0.9-0.7-1.6-0.7c-0.5,0-0.9,0.1-1.2,0.3
			s-0.6,0.5-0.7,0.9C173.6,394.5,173.5,394.9,173.5,395.5z"/>
		<path d="M182.8,395.3h2.2v3.1c-0.3,0.1-0.7,0.2-1,0.3c-0.4,0.1-0.8,0.1-1.2,0.1c-0.7,0-1.2-0.1-1.7-0.4c-0.5-0.3-0.8-0.6-1-1.1
			c-0.2-0.5-0.4-1.1-0.4-1.8c0-0.7,0.1-1.2,0.4-1.7c0.3-0.5,0.6-0.9,1.1-1.2c0.5-0.3,1.1-0.4,1.8-0.4c0.4,0,0.7,0,1,0.1
			c0.3,0.1,0.6,0.2,0.9,0.3l-0.3,0.7c-0.2-0.1-0.5-0.2-0.8-0.3c-0.3-0.1-0.6-0.1-0.9-0.1c-0.5,0-1,0.1-1.3,0.3
			c-0.4,0.2-0.7,0.5-0.9,0.9c-0.2,0.4-0.3,0.9-0.3,1.4c0,0.5,0.1,1,0.3,1.4c0.2,0.4,0.4,0.7,0.8,0.9s0.8,0.3,1.4,0.3
			c0.3,0,0.5,0,0.7,0c0.2,0,0.4-0.1,0.6-0.1v-2h-1.5V395.3z"/>
		<path d="M188.3,392.3c0.5,0,1,0.1,1.3,0.2c0.3,0.1,0.6,0.3,0.8,0.6s0.3,0.6,0.3,1c0,0.3-0.1,0.6-0.2,0.9c-0.1,0.2-0.3,0.4-0.5,0.6
			s-0.4,0.2-0.6,0.3l1.8,2.9h-0.9l-1.6-2.7h-1.3v2.7h-0.7v-6.4H188.3z M188.3,392.9h-0.9v2.5h1c0.5,0,0.9-0.1,1.2-0.3
			c0.2-0.2,0.4-0.5,0.4-0.9c0-0.4-0.1-0.7-0.4-0.9C189.2,393,188.8,392.9,188.3,392.9z"/>
		<path d="M196.2,398.7l-0.8-2h-2.6l-0.8,2h-0.8l2.5-6.5h0.7l2.5,6.5H196.2z M195.2,396l-0.8-2c0-0.1,0-0.1-0.1-0.3
			c0-0.1-0.1-0.2-0.1-0.4s-0.1-0.2-0.1-0.3c0,0.1-0.1,0.2-0.1,0.4c0,0.1-0.1,0.2-0.1,0.3c0,0.1-0.1,0.2-0.1,0.3l-0.8,2H195.2z
			 M195.4,390.2L195.4,390.2c-0.1,0.2-0.1,0.3-0.2,0.4c-0.1,0.1-0.2,0.2-0.3,0.4c-0.1,0.1-0.2,0.3-0.4,0.4c-0.1,0.1-0.2,0.2-0.3,0.3
			h-0.5v-0.1c0.1-0.1,0.2-0.2,0.3-0.4c0.1-0.2,0.2-0.3,0.3-0.5c0.1-0.2,0.2-0.3,0.3-0.5H195.4z"/>
		<path d="M198.6,398.7h-0.7v-6.4h3.6v0.7h-2.8v2.4h2.7v0.7h-2.7V398.7z"/>
		<path d="M202.5,398.7v-6.4h0.7v6.4H202.5z"/>
		<path d="M207.7,392.8c-0.4,0-0.7,0.1-1,0.2c-0.3,0.1-0.5,0.3-0.7,0.5c-0.2,0.2-0.3,0.5-0.5,0.8s-0.2,0.7-0.2,1.1
			c0,0.5,0.1,1,0.3,1.4c0.2,0.4,0.4,0.7,0.8,0.9c0.3,0.2,0.8,0.3,1.3,0.3c0.3,0,0.6,0,0.8-0.1c0.3,0,0.5-0.1,0.7-0.2v0.7
			c-0.2,0.1-0.5,0.2-0.7,0.2c-0.3,0-0.6,0.1-0.9,0.1c-0.7,0-1.2-0.1-1.6-0.4c-0.4-0.3-0.8-0.7-1-1.1c-0.2-0.5-0.3-1.1-0.3-1.8
			c0-0.5,0.1-0.9,0.2-1.3c0.1-0.4,0.3-0.8,0.6-1c0.3-0.3,0.6-0.5,1-0.7c0.4-0.2,0.8-0.2,1.3-0.2c0.3,0,0.6,0,0.9,0.1
			s0.6,0.2,0.8,0.3l-0.3,0.6c-0.2-0.1-0.4-0.2-0.7-0.2C208.3,392.9,208,392.8,207.7,392.8z"/>
		<path d="M214.7,398.7l-0.8-2h-2.6l-0.8,2h-0.8l2.5-6.5h0.7l2.5,6.5H214.7z M213.7,396l-0.8-2c0-0.1,0-0.1-0.1-0.3
			c0-0.1-0.1-0.2-0.1-0.4s-0.1-0.2-0.1-0.3c0,0.1-0.1,0.2-0.1,0.4c0,0.1-0.1,0.2-0.1,0.3c0,0.1-0.1,0.2-0.1,0.3l-0.8,2H213.7z"/>
		<path d="M159.3,415.5l-2.2-5.7h0c0,0.1,0,0.3,0,0.4c0,0.2,0,0.4,0,0.6c0,0.2,0,0.4,0,0.6v4.1h-0.7v-6.4h1.1l2,5.3h0l2.1-5.3h1.1
			v6.4H162v-4.1c0-0.2,0-0.4,0-0.6c0-0.2,0-0.4,0-0.5c0-0.2,0-0.3,0-0.4h0l-2.2,5.7H159.3z"/>
		<path d="M168.6,415.5l-0.8-2h-2.6l-0.8,2h-0.8l2.5-6.5h0.7l2.5,6.5H168.6z M167.6,412.8l-0.8-2c0-0.1,0-0.1-0.1-0.3
			c0-0.1-0.1-0.2-0.1-0.4s-0.1-0.2-0.1-0.3c0,0.1-0.1,0.2-0.1,0.4c0,0.1-0.1,0.2-0.1,0.3c0,0.1-0.1,0.2-0.1,0.3l-0.8,2H167.6z"/>
		<path d="M174.9,415.5H174l-2.3-3.1L171,413v2.5h-0.7v-6.4h0.7v3.2c0.2-0.2,0.3-0.4,0.5-0.6c0.2-0.2,0.3-0.4,0.5-0.6l1.9-2.1h0.9
			l-2.6,2.8L174.9,415.5z"/>
		<path d="M179.3,415.5h-3.6v-6.4h3.6v0.7h-2.8v2.1h2.7v0.7h-2.7v2.4h2.8V415.5z"/>
		<path d="M185.6,409.1v4.2c0,0.5-0.1,0.9-0.3,1.2c-0.2,0.4-0.5,0.6-0.8,0.8c-0.4,0.2-0.8,0.3-1.4,0.3c-0.8,0-1.4-0.2-1.8-0.6
			c-0.4-0.4-0.6-1-0.6-1.7v-4.1h0.8v4.2c0,0.5,0.1,1,0.4,1.3c0.3,0.3,0.7,0.4,1.3,0.4c0.4,0,0.7-0.1,1-0.2c0.3-0.1,0.4-0.3,0.6-0.6
			c0.1-0.3,0.2-0.6,0.2-0.9v-4.2H185.6z"/>
		<path d="M189,409.1c0.8,0,1.4,0.2,1.8,0.5c0.4,0.3,0.6,0.8,0.6,1.4c0,0.3,0,0.5-0.1,0.8c-0.1,0.2-0.2,0.5-0.4,0.6
			c-0.2,0.2-0.5,0.3-0.8,0.4c-0.3,0.1-0.7,0.2-1.2,0.2h-0.8v2.5h-0.7v-6.4H189z M188.9,409.7h-0.9v2.6h0.7c0.4,0,0.8,0,1-0.1
			c0.3-0.1,0.5-0.2,0.6-0.4c0.1-0.2,0.2-0.5,0.2-0.8c0-0.4-0.1-0.7-0.4-1C189.9,409.8,189.5,409.7,188.9,409.7z"/>
		<path d="M196.7,412.3l1.7-3.2h0.8l-2.1,3.9v2.5h-0.7V413l-2.1-4h0.8L196.7,412.3z"/>
		<path d="M204.1,409.1c0.8,0,1.4,0.2,1.8,0.5c0.4,0.3,0.6,0.8,0.6,1.4c0,0.3,0,0.5-0.1,0.8c-0.1,0.2-0.2,0.5-0.4,0.6
			c-0.2,0.2-0.5,0.3-0.8,0.4c-0.3,0.1-0.7,0.2-1.2,0.2h-0.8v2.5h-0.7v-6.4H204.1z M204,409.7h-0.9v2.6h0.7c0.4,0,0.8,0,1-0.1
			c0.3-0.1,0.5-0.2,0.6-0.4c0.1-0.2,0.2-0.5,0.2-0.8c0-0.4-0.1-0.7-0.4-1C205,409.8,204.6,409.7,204,409.7z"/>
		<path d="M211.4,415.5h-3.6v-6.4h3.6v0.7h-2.8v2.1h2.7v0.7h-2.7v2.4h2.8V415.5z"/>
		<path d="M212.8,415.5v-6.4h0.7v5.8h2.9v0.7H212.8z"/>
		<path d="M223.1,412.3c0,0.5-0.1,0.9-0.2,1.4c-0.1,0.4-0.3,0.8-0.6,1c-0.2,0.3-0.6,0.5-0.9,0.7s-0.8,0.2-1.3,0.2
			c-0.5,0-0.9-0.1-1.3-0.2c-0.4-0.2-0.7-0.4-0.9-0.7c-0.2-0.3-0.4-0.6-0.5-1.1c-0.1-0.4-0.2-0.9-0.2-1.4c0-0.7,0.1-1.2,0.3-1.7
			c0.2-0.5,0.5-0.9,1-1.2c0.4-0.3,1-0.4,1.7-0.4c0.6,0,1.2,0.1,1.6,0.4c0.4,0.3,0.8,0.7,1,1.1C223,411,223.1,411.6,223.1,412.3z
			 M218,412.3c0,0.5,0.1,1,0.2,1.4c0.2,0.4,0.4,0.7,0.7,0.9c0.3,0.2,0.7,0.3,1.2,0.3c0.5,0,0.9-0.1,1.2-0.3c0.3-0.2,0.6-0.5,0.7-0.9
			c0.2-0.4,0.2-0.9,0.2-1.4c0-0.8-0.2-1.5-0.5-1.9c-0.3-0.5-0.9-0.7-1.6-0.7c-0.5,0-0.9,0.1-1.2,0.3s-0.6,0.5-0.7,0.9
			C218.1,411.3,218,411.7,218,412.3z"/>
		<path d="M160.5,432.3l-0.8-2h-2.6l-0.8,2h-0.8l2.5-6.5h0.7l2.5,6.5H160.5z M159.5,429.6l-0.8-2c0-0.1,0-0.1-0.1-0.3
			c0-0.1-0.1-0.2-0.1-0.4s-0.1-0.2-0.1-0.3c0,0.1-0.1,0.2-0.1,0.4c0,0.1-0.1,0.2-0.1,0.3c0,0.1-0.1,0.2-0.1,0.3l-0.8,2H159.5z"/>
		<path d="M165.8,430.6c0,0.4-0.1,0.7-0.3,1c-0.2,0.3-0.5,0.5-0.8,0.6s-0.7,0.2-1.2,0.2c-0.2,0-0.5,0-0.7,0s-0.4-0.1-0.6-0.1
			c-0.2,0-0.3-0.1-0.5-0.2v-0.7c0.2,0.1,0.5,0.2,0.8,0.3c0.3,0.1,0.6,0.1,1,0.1c0.3,0,0.6,0,0.8-0.1c0.2-0.1,0.4-0.2,0.5-0.4
			c0.1-0.2,0.2-0.4,0.2-0.6c0-0.2,0-0.4-0.1-0.6c-0.1-0.1-0.3-0.3-0.5-0.4c-0.2-0.1-0.5-0.3-0.9-0.4c-0.3-0.1-0.5-0.2-0.7-0.3
			c-0.2-0.1-0.4-0.2-0.5-0.4c-0.1-0.1-0.2-0.3-0.3-0.5c-0.1-0.2-0.1-0.4-0.1-0.7c0-0.3,0.1-0.6,0.3-0.9c0.2-0.2,0.4-0.4,0.7-0.6
			c0.3-0.1,0.7-0.2,1.1-0.2c0.3,0,0.7,0,1,0.1c0.3,0.1,0.6,0.2,0.8,0.3l-0.2,0.6c-0.2-0.1-0.5-0.2-0.7-0.2c-0.3-0.1-0.5-0.1-0.8-0.1
			c-0.3,0-0.5,0-0.7,0.1c-0.2,0.1-0.3,0.2-0.4,0.3s-0.1,0.3-0.1,0.5c0,0.2,0,0.4,0.1,0.6c0.1,0.1,0.2,0.3,0.5,0.4
			c0.2,0.1,0.5,0.2,0.8,0.4c0.4,0.1,0.7,0.3,1,0.4c0.3,0.2,0.5,0.3,0.6,0.6C165.7,430,165.8,430.2,165.8,430.6z"/>
		<path d="M167.1,432.3v-6.4h0.7v6.4H167.1z"/>
		<path d="M173.2,430.6c0,0.4-0.1,0.7-0.3,1c-0.2,0.3-0.5,0.5-0.8,0.6s-0.7,0.2-1.2,0.2c-0.2,0-0.5,0-0.7,0s-0.4-0.1-0.6-0.1
			c-0.2,0-0.3-0.1-0.5-0.2v-0.7c0.2,0.1,0.5,0.2,0.8,0.3c0.3,0.1,0.6,0.1,1,0.1c0.3,0,0.6,0,0.8-0.1c0.2-0.1,0.4-0.2,0.5-0.4
			c0.1-0.2,0.2-0.4,0.2-0.6c0-0.2,0-0.4-0.1-0.6c-0.1-0.1-0.3-0.3-0.5-0.4c-0.2-0.1-0.5-0.3-0.9-0.4c-0.3-0.1-0.5-0.2-0.7-0.3
			c-0.2-0.1-0.4-0.2-0.5-0.4c-0.1-0.1-0.2-0.3-0.3-0.5c-0.1-0.2-0.1-0.4-0.1-0.7c0-0.3,0.1-0.6,0.3-0.9c0.2-0.2,0.4-0.4,0.7-0.6
			c0.3-0.1,0.7-0.2,1.1-0.2c0.3,0,0.7,0,1,0.1c0.3,0.1,0.6,0.2,0.8,0.3l-0.2,0.6c-0.2-0.1-0.5-0.2-0.7-0.2c-0.3-0.1-0.5-0.1-0.8-0.1
			c-0.3,0-0.5,0-0.7,0.1c-0.2,0.1-0.3,0.2-0.4,0.3s-0.1,0.3-0.1,0.5c0,0.2,0,0.4,0.1,0.6c0.1,0.1,0.2,0.3,0.5,0.4
			c0.2,0.1,0.5,0.2,0.8,0.4c0.4,0.1,0.7,0.3,1,0.4c0.3,0.2,0.5,0.3,0.6,0.6C173.1,430,173.2,430.2,173.2,430.6z"/>
		<path d="M176.5,432.3h-0.8v-5.8h-2v-0.7h4.8v0.7h-2V432.3z"/>
		<path d="M183.1,432.3h-3.6v-6.4h3.6v0.7h-2.8v2.1h2.7v0.7h-2.7v2.4h2.8V432.3z"/>
		<path d="M189.5,432.3h-0.9l-3.5-5.4h0c0,0.1,0,0.3,0,0.5c0,0.2,0,0.4,0,0.6c0,0.2,0,0.4,0,0.6v3.7h-0.7v-6.4h0.9l3.5,5.4h0
			c0-0.1,0-0.2,0-0.4c0-0.2,0-0.4,0-0.6c0-0.2,0-0.4,0-0.6v-3.7h0.7V432.3z"/>
		<path d="M193.2,432.3h-0.8v-5.8h-2v-0.7h4.8v0.7h-2V432.3z"/>
		<path d="M199.8,432.3h-3.6v-6.4h3.6v0.7H197v2.1h2.7v0.7H197v2.4h2.8V432.3z"/>
		<path d="M159.3,443.1l-2.2-5.7h0c0,0.1,0,0.3,0,0.4c0,0.2,0,0.4,0,0.6c0,0.2,0,0.4,0,0.6v4.1h-0.7v-6.4h1.1l2,5.3h0l2.1-5.3h1.1
			v6.4H162V439c0-0.2,0-0.4,0-0.6c0-0.2,0-0.4,0-0.5c0-0.2,0-0.3,0-0.4h0l-2.2,5.7H159.3z"/>
		<path d="M168.6,443.1l-0.8-2h-2.6l-0.8,2h-0.8l2.5-6.5h0.7l2.5,6.5H168.6z M167.6,440.4l-0.8-2c0-0.1,0-0.1-0.1-0.3
			c0-0.1-0.1-0.2-0.1-0.4s-0.1-0.2-0.1-0.3c0,0.1-0.1,0.2-0.1,0.4c0,0.1-0.1,0.2-0.1,0.3c0,0.1-0.1,0.2-0.1,0.3l-0.8,2H167.6z"/>
		<path d="M174.9,443.1H174l-2.3-3.1l-0.7,0.6v2.5h-0.7v-6.4h0.7v3.2c0.2-0.2,0.3-0.4,0.5-0.6c0.2-0.2,0.3-0.4,0.5-0.6l1.9-2.1h0.9
			l-2.6,2.8L174.9,443.1z"/>
		<path d="M179.3,443.1h-3.6v-6.4h3.6v0.7h-2.8v2.1h2.7v0.7h-2.7v2.4h2.8V443.1z"/>
		<path d="M185.6,436.7v4.2c0,0.5-0.1,0.9-0.3,1.2c-0.2,0.4-0.5,0.6-0.8,0.8c-0.4,0.2-0.8,0.3-1.4,0.3c-0.8,0-1.4-0.2-1.8-0.6
			c-0.4-0.4-0.6-1-0.6-1.7v-4.1h0.8v4.2c0,0.5,0.1,1,0.4,1.3c0.3,0.3,0.7,0.4,1.3,0.4c0.4,0,0.7-0.1,1-0.2c0.3-0.1,0.4-0.3,0.6-0.6
			c0.1-0.3,0.2-0.6,0.2-0.9v-4.2H185.6z"/>
		<path d="M189,436.7c0.8,0,1.4,0.2,1.8,0.5c0.4,0.3,0.6,0.8,0.6,1.4c0,0.3,0,0.5-0.1,0.8c-0.1,0.2-0.2,0.5-0.4,0.6
			c-0.2,0.2-0.5,0.3-0.8,0.4c-0.3,0.1-0.7,0.2-1.2,0.2h-0.8v2.5h-0.7v-6.4H189z M188.9,437.3h-0.9v2.6h0.7c0.4,0,0.8,0,1-0.1
			c0.3-0.1,0.5-0.2,0.6-0.4c0.1-0.2,0.2-0.5,0.2-0.8c0-0.4-0.1-0.7-0.4-1C189.9,437.4,189.5,437.3,188.9,437.3z"/>
		<path d="M160.2,459.9H156v-0.6l1.7-1.7c0.3-0.3,0.6-0.6,0.8-0.9c0.2-0.3,0.4-0.5,0.5-0.7c0.1-0.2,0.2-0.5,0.2-0.8
			c0-0.4-0.1-0.6-0.3-0.8c-0.2-0.2-0.5-0.3-0.9-0.3c-0.3,0-0.6,0.1-0.8,0.2c-0.2,0.1-0.5,0.3-0.7,0.4l-0.4-0.5
			c0.2-0.1,0.4-0.3,0.6-0.4c0.2-0.1,0.4-0.2,0.6-0.3c0.2-0.1,0.5-0.1,0.7-0.1c0.4,0,0.7,0.1,1,0.2s0.5,0.3,0.7,0.6
			c0.2,0.3,0.2,0.6,0.2,0.9c0,0.3-0.1,0.7-0.2,0.9c-0.1,0.3-0.3,0.6-0.6,0.9c-0.2,0.3-0.5,0.6-0.9,0.9l-1.4,1.4v0h3.3V459.9z"/>
		<path d="M165.6,453.5c0.8,0,1.4,0.2,1.8,0.5c0.4,0.3,0.6,0.8,0.6,1.4c0,0.3,0,0.5-0.1,0.8c-0.1,0.2-0.2,0.5-0.4,0.6
			c-0.2,0.2-0.5,0.3-0.8,0.4c-0.3,0.1-0.7,0.2-1.2,0.2h-0.8v2.5h-0.7v-6.4H165.6z M165.5,454.1h-0.9v2.6h0.7c0.4,0,0.8,0,1-0.1
			c0.3-0.1,0.5-0.2,0.6-0.4c0.1-0.2,0.2-0.5,0.2-0.8c0-0.4-0.1-0.7-0.4-1C166.5,454.2,166.1,454.1,165.5,454.1z"/>
		<path d="M172.9,459.9h-3.6v-6.4h3.6v0.7h-2.8v2.1h2.7v0.7h-2.7v2.4h2.8V459.9z"/>
		<path d="M176.1,453.5c0.5,0,1,0.1,1.3,0.2c0.3,0.1,0.6,0.3,0.8,0.6s0.3,0.6,0.3,1c0,0.3-0.1,0.6-0.2,0.9c-0.1,0.2-0.3,0.4-0.5,0.6
			s-0.4,0.2-0.6,0.3l1.8,2.9H178l-1.6-2.7h-1.3v2.7h-0.7v-6.4H176.1z M176,454.1h-0.9v2.5h1c0.5,0,0.9-0.1,1.2-0.3
			c0.2-0.2,0.4-0.5,0.4-0.9c0-0.4-0.1-0.7-0.4-0.9C177,454.2,176.6,454.1,176,454.1z"/>
		<path d="M182.7,454c-0.4,0-0.7,0.1-1,0.2c-0.3,0.1-0.5,0.3-0.7,0.5c-0.2,0.2-0.3,0.5-0.5,0.8s-0.2,0.7-0.2,1.1
			c0,0.5,0.1,1,0.3,1.4c0.2,0.4,0.4,0.7,0.8,0.9c0.3,0.2,0.8,0.3,1.3,0.3c0.3,0,0.6,0,0.8-0.1c0.3,0,0.5-0.1,0.7-0.2v0.7
			c-0.2,0.1-0.5,0.2-0.7,0.2c-0.3,0-0.6,0.1-0.9,0.1c-0.7,0-1.2-0.1-1.6-0.4c-0.4-0.3-0.8-0.7-1-1.1c-0.2-0.5-0.3-1.1-0.3-1.8
			c0-0.5,0.1-0.9,0.2-1.3c0.1-0.4,0.3-0.8,0.6-1c0.3-0.3,0.6-0.5,1-0.7c0.4-0.2,0.8-0.2,1.3-0.2c0.3,0,0.6,0,0.9,0.1
			s0.6,0.2,0.8,0.3l-0.3,0.6c-0.2-0.1-0.4-0.2-0.7-0.2C183.2,454.1,182.9,454,182.7,454z"/>
		<path d="M190.4,459.9h-0.7v-3h-3.4v3h-0.7v-6.4h0.7v2.7h3.4v-2.7h0.7V459.9z"/>
		<path d="M195.8,459.9h-3.6v-6.4h3.6v0.7H193v2.1h2.7v0.7H193v2.4h2.8V459.9z"/>
		<path d="M198.9,453.5c0.5,0,1,0.1,1.3,0.2c0.3,0.1,0.6,0.3,0.8,0.6s0.3,0.6,0.3,1c0,0.3-0.1,0.6-0.2,0.9c-0.1,0.2-0.3,0.4-0.5,0.6
			s-0.4,0.2-0.6,0.3l1.8,2.9h-0.9l-1.6-2.7H198v2.7h-0.7v-6.4H198.9z M198.9,454.1H198v2.5h1c0.5,0,0.9-0.1,1.2-0.3
			c0.2-0.2,0.4-0.5,0.4-0.9c0-0.4-0.1-0.7-0.4-0.9C199.9,454.2,199.4,454.1,198.9,454.1z"/>
		<path d="M208.3,456.7c0,0.5-0.1,0.9-0.2,1.4c-0.1,0.4-0.3,0.8-0.6,1c-0.2,0.3-0.6,0.5-0.9,0.7s-0.8,0.2-1.3,0.2
			c-0.5,0-0.9-0.1-1.3-0.2c-0.4-0.2-0.7-0.4-0.9-0.7c-0.2-0.3-0.4-0.6-0.5-1.1c-0.1-0.4-0.2-0.9-0.2-1.4c0-0.7,0.1-1.2,0.3-1.7
			c0.2-0.5,0.5-0.9,1-1.2c0.4-0.3,1-0.4,1.7-0.4c0.6,0,1.2,0.1,1.6,0.4c0.4,0.3,0.8,0.7,1,1.1C208.2,455.4,208.3,456,208.3,456.7z
			 M203.2,456.7c0,0.5,0.1,1,0.2,1.4c0.2,0.4,0.4,0.7,0.7,0.9c0.3,0.2,0.7,0.3,1.2,0.3c0.5,0,0.9-0.1,1.2-0.3
			c0.3-0.2,0.6-0.5,0.7-0.9c0.2-0.4,0.2-0.9,0.2-1.4c0-0.8-0.2-1.5-0.5-1.9c-0.3-0.5-0.9-0.7-1.6-0.7c-0.5,0-0.9,0.1-1.2,0.3
			s-0.6,0.5-0.7,0.9C203.3,455.7,203.2,456.1,203.2,456.7z"/>
		<path d="M213.4,458.2c0,0.4-0.1,0.7-0.3,1c-0.2,0.3-0.5,0.5-0.8,0.6s-0.7,0.2-1.2,0.2c-0.2,0-0.5,0-0.7,0s-0.4-0.1-0.6-0.1
			c-0.2,0-0.3-0.1-0.5-0.2V459c0.2,0.1,0.5,0.2,0.8,0.3c0.3,0.1,0.6,0.1,1,0.1c0.3,0,0.6,0,0.8-0.1c0.2-0.1,0.4-0.2,0.5-0.4
			c0.1-0.2,0.2-0.4,0.2-0.6c0-0.2,0-0.4-0.1-0.6c-0.1-0.1-0.3-0.3-0.5-0.4c-0.2-0.1-0.5-0.3-0.9-0.4c-0.3-0.1-0.5-0.2-0.7-0.3
			c-0.2-0.1-0.4-0.2-0.5-0.4c-0.1-0.1-0.2-0.3-0.3-0.5c-0.1-0.2-0.1-0.4-0.1-0.7c0-0.3,0.1-0.6,0.3-0.9c0.2-0.2,0.4-0.4,0.7-0.6
			c0.3-0.1,0.7-0.2,1.1-0.2c0.3,0,0.7,0,1,0.1c0.3,0.1,0.6,0.2,0.8,0.3l-0.2,0.6c-0.2-0.1-0.5-0.2-0.7-0.2c-0.3-0.1-0.5-0.1-0.8-0.1
			c-0.3,0-0.5,0-0.7,0.1c-0.2,0.1-0.3,0.2-0.4,0.3s-0.1,0.3-0.1,0.5c0,0.2,0,0.4,0.1,0.6c0.1,0.1,0.2,0.3,0.5,0.4
			c0.2,0.1,0.5,0.2,0.8,0.4c0.4,0.1,0.7,0.3,1,0.4c0.3,0.2,0.5,0.3,0.6,0.6C213.3,457.6,213.4,457.8,213.4,458.2z"/>
		<path d="M215.4,458.8l0.1,0.1c-0.1,0.2-0.1,0.4-0.2,0.7c-0.1,0.2-0.2,0.5-0.3,0.7c-0.1,0.2-0.2,0.5-0.3,0.7h-0.5
			c0.1-0.2,0.1-0.5,0.2-0.7c0.1-0.3,0.1-0.5,0.2-0.8c0-0.3,0.1-0.5,0.1-0.7H215.4z"/>
		<path d="M222.2,459.9l-2.2-5.7h0c0,0.1,0,0.3,0,0.4c0,0.2,0,0.4,0,0.6c0,0.2,0,0.4,0,0.6v4.1h-0.7v-6.4h1.1l2,5.3h0l2.1-5.3h1.1
			v6.4H225v-4.1c0-0.2,0-0.4,0-0.6c0-0.2,0-0.4,0-0.5c0-0.2,0-0.3,0-0.4h0l-2.2,5.7H222.2z"/>
		<path d="M231,459.9h-3.6v-6.4h3.6v0.7h-2.8v2.1h2.7v0.7h-2.7v2.4h2.8V459.9z"/>
		<path d="M236.1,458.2c0,0.4-0.1,0.7-0.3,1c-0.2,0.3-0.5,0.5-0.8,0.6s-0.7,0.2-1.2,0.2c-0.2,0-0.5,0-0.7,0s-0.4-0.1-0.6-0.1
			c-0.2,0-0.3-0.1-0.5-0.2V459c0.2,0.1,0.5,0.2,0.8,0.3c0.3,0.1,0.6,0.1,1,0.1c0.3,0,0.6,0,0.8-0.1c0.2-0.1,0.4-0.2,0.5-0.4
			c0.1-0.2,0.2-0.4,0.2-0.6c0-0.2,0-0.4-0.1-0.6c-0.1-0.1-0.3-0.3-0.5-0.4c-0.2-0.1-0.5-0.3-0.9-0.4c-0.3-0.1-0.5-0.2-0.7-0.3
			c-0.2-0.1-0.4-0.2-0.5-0.4c-0.1-0.1-0.2-0.3-0.3-0.5c-0.1-0.2-0.1-0.4-0.1-0.7c0-0.3,0.1-0.6,0.3-0.9c0.2-0.2,0.4-0.4,0.7-0.6
			c0.3-0.1,0.7-0.2,1.1-0.2c0.3,0,0.7,0,1,0.1c0.3,0.1,0.6,0.2,0.8,0.3l-0.2,0.6c-0.2-0.1-0.5-0.2-0.7-0.2c-0.3-0.1-0.5-0.1-0.8-0.1
			c-0.3,0-0.5,0-0.7,0.1c-0.2,0.1-0.3,0.2-0.4,0.3s-0.1,0.3-0.1,0.5c0,0.2,0,0.4,0.1,0.6c0.1,0.1,0.2,0.3,0.5,0.4
			c0.2,0.1,0.5,0.2,0.8,0.4c0.4,0.1,0.7,0.3,1,0.4c0.3,0.2,0.5,0.3,0.6,0.6C236,457.6,236.1,457.8,236.1,458.2z"/>
		<path d="M241.4,459.9l-0.8-2h-2.6l-0.8,2h-0.8l2.5-6.5h0.7l2.5,6.5H241.4z M240.4,457.2l-0.8-2c0-0.1,0-0.1-0.1-0.3
			c0-0.1-0.1-0.2-0.1-0.4s-0.1-0.2-0.1-0.3c0,0.1-0.1,0.2-0.1,0.4c0,0.1-0.1,0.2-0.1,0.3c0,0.1-0.1,0.2-0.1,0.3l-0.8,2H240.4z"/>
		<path d="M158.1,467.5l1.7-3.2h0.8l-2.1,3.9v2.5h-0.7v-2.5l-2.1-4h0.8L158.1,467.5z"/>
		<path d="M167.4,469c0,0.4-0.1,0.7-0.3,1c-0.2,0.3-0.5,0.5-0.8,0.6s-0.7,0.2-1.2,0.2c-0.2,0-0.5,0-0.7,0s-0.4-0.1-0.6-0.1
			c-0.2,0-0.3-0.1-0.5-0.2v-0.7c0.2,0.1,0.5,0.2,0.8,0.3c0.3,0.1,0.6,0.1,1,0.1c0.3,0,0.6,0,0.8-0.1c0.2-0.1,0.4-0.2,0.5-0.4
			c0.1-0.2,0.2-0.4,0.2-0.6c0-0.2,0-0.4-0.1-0.6c-0.1-0.1-0.3-0.3-0.5-0.4c-0.2-0.1-0.5-0.3-0.9-0.4c-0.3-0.1-0.5-0.2-0.7-0.3
			c-0.2-0.1-0.4-0.2-0.5-0.4c-0.1-0.1-0.2-0.3-0.3-0.5c-0.1-0.2-0.1-0.4-0.1-0.7c0-0.3,0.1-0.6,0.3-0.9c0.2-0.2,0.4-0.4,0.7-0.6
			c0.3-0.1,0.7-0.2,1.1-0.2c0.3,0,0.7,0,1,0.1c0.3,0.1,0.6,0.2,0.8,0.3l-0.2,0.6c-0.2-0.1-0.5-0.2-0.7-0.2c-0.3-0.1-0.5-0.1-0.8-0.1
			c-0.3,0-0.5,0-0.7,0.1c-0.2,0.1-0.3,0.2-0.4,0.3s-0.1,0.3-0.1,0.5c0,0.2,0,0.4,0.1,0.6c0.1,0.1,0.2,0.3,0.5,0.4
			c0.2,0.1,0.5,0.2,0.8,0.4c0.4,0.1,0.7,0.3,1,0.4c0.3,0.2,0.5,0.3,0.6,0.6C167.4,468.4,167.4,468.6,167.4,469z"/>
		<path d="M168.8,470.7v-6.4h0.7v6.4H168.8z"/>
		<path d="M171.3,470.7v-6.4h0.7v5.8h2.9v0.7H171.3z"/>
		<path d="M176,470.7v-6.4h0.7v5.8h2.9v0.7H176z"/>
		<path d="M184.7,470.7l-0.8-2h-2.6l-0.8,2h-0.8l2.5-6.5h0.7l2.5,6.5H184.7z M183.7,468l-0.8-2c0-0.1,0-0.1-0.1-0.3
			c0-0.1-0.1-0.2-0.1-0.4s-0.1-0.2-0.1-0.3c0,0.1-0.1,0.2-0.1,0.4c0,0.1-0.1,0.2-0.1,0.3c0,0.1-0.1,0.2-0.1,0.3l-0.8,2H183.7z"/>
		<path d="M190,469c0,0.4-0.1,0.7-0.3,1c-0.2,0.3-0.5,0.5-0.8,0.6s-0.7,0.2-1.2,0.2c-0.2,0-0.5,0-0.7,0s-0.4-0.1-0.6-0.1
			c-0.2,0-0.3-0.1-0.5-0.2v-0.7c0.2,0.1,0.5,0.2,0.8,0.3c0.3,0.1,0.6,0.1,1,0.1c0.3,0,0.6,0,0.8-0.1c0.2-0.1,0.4-0.2,0.5-0.4
			c0.1-0.2,0.2-0.4,0.2-0.6c0-0.2,0-0.4-0.1-0.6c-0.1-0.1-0.3-0.3-0.5-0.4c-0.2-0.1-0.5-0.3-0.9-0.4c-0.3-0.1-0.5-0.2-0.7-0.3
			c-0.2-0.1-0.4-0.2-0.5-0.4c-0.1-0.1-0.2-0.3-0.3-0.5c-0.1-0.2-0.1-0.4-0.1-0.7c0-0.3,0.1-0.6,0.3-0.9c0.2-0.2,0.4-0.4,0.7-0.6
			c0.3-0.1,0.7-0.2,1.1-0.2c0.3,0,0.7,0,1,0.1c0.3,0.1,0.6,0.2,0.8,0.3l-0.2,0.6c-0.2-0.1-0.5-0.2-0.7-0.2c-0.3-0.1-0.5-0.1-0.8-0.1
			c-0.3,0-0.5,0-0.7,0.1c-0.2,0.1-0.3,0.2-0.4,0.3s-0.1,0.3-0.1,0.5c0,0.2,0,0.4,0.1,0.6c0.1,0.1,0.2,0.3,0.5,0.4
			c0.2,0.1,0.5,0.2,0.8,0.4c0.4,0.1,0.7,0.3,1,0.4c0.3,0.2,0.5,0.3,0.6,0.6C189.9,468.4,190,468.6,190,469z"/>
	</g>
	<g>
		<g>
			<path d="M147.3,337.7v8h-8v-8H147.3 M148.3,336.7h-10v10h10V336.7L148.3,336.7z"/>
		</g>
		<polygon class="st0" points="136.8,340.2 143.3,344.8 150.8,334.2 143.3,342 		"/>
	</g>
	<g>
		<g>
			<path d="M147.3,353.7v8h-8v-8H147.3 M148.3,352.7h-10v10h10V352.7L148.3,352.7z"/>
		</g>
		<polygon class="st0" points="136.8,356.2 143.3,360.8 150.8,350.2 143.3,358 		"/>
	</g>
	<g>
		<g>
			<path d="M147.3,382.7v8h-8v-8H147.3 M148.3,381.7h-10v10h10V381.7L148.3,381.7z"/>
		</g>
		<polygon class="st0" points="136.8,385.2 143.3,389.8 150.8,379.2 143.3,387 		"/>
	</g>
	<g>
		<g>
			<path d="M147.3,409.7v8h-8v-8H147.3 M148.3,408.7h-10v10h10V408.7L148.3,408.7z"/>
		</g>
		<polygon class="st0" points="136.8,412.2 143.3,416.8 150.8,406.2 143.3,414 		"/>
	</g>
	<g>
		<g>
			<path d="M147.3,426.7v8h-8v-8H147.3 M148.3,425.7h-10v10h10V425.7L148.3,425.7z"/>
		</g>
		<polygon class="st0" points="136.8,429.2 143.3,433.8 150.8,423.2 143.3,431 		"/>
	</g>
	<g>
		<g>
			<path d="M147.3,454.7v8h-8v-8H147.3 M148.3,453.7h-10v10h10V453.7L148.3,453.7z"/>
		</g>
		<polygon class="st0" points="136.8,457.2 143.3,461.8 150.8,451.2 143.3,459 		"/>
	</g>
	<g>
		<path d="M41.8,312.5c0,0.8-0.1,1.6-0.3,2.3s-0.5,1.3-0.9,1.8s-0.9,0.9-1.6,1.2l2.8,3.1h-3.1l-2.1-2.6c0,0-0.1,0-0.1,0
			s-0.1,0-0.1,0c-0.9,0-1.7-0.1-2.4-0.4s-1.2-0.7-1.7-1.2s-0.8-1.1-1-1.9s-0.3-1.5-0.3-2.4c0-1.2,0.2-2.2,0.6-3.1s1-1.6,1.8-2
			s1.8-0.7,3.1-0.7c1.2,0,2.3,0.2,3.1,0.7s1.4,1.2,1.8,2S41.8,311.3,41.8,312.5z M33.5,312.5c0,0.8,0.1,1.5,0.3,2.1s0.5,1,0.9,1.3
			s1,0.5,1.7,0.5c0.7,0,1.2-0.2,1.7-0.5s0.7-0.8,0.9-1.3s0.3-1.3,0.3-2.1c0-1.2-0.2-2.1-0.7-2.8s-1.2-1-2.2-1
			c-0.7,0-1.2,0.2-1.7,0.5s-0.7,0.8-0.9,1.3S33.5,311.7,33.5,312.5z"/>
		<path d="M53.5,306.8v7.4c0,0.8-0.2,1.5-0.5,2.1s-0.9,1.1-1.6,1.5s-1.6,0.6-2.6,0.6c-1.5,0-2.7-0.4-3.5-1.2s-1.2-1.8-1.2-3.1v-7.4
			h2.4v7c0,0.9,0.2,1.6,0.6,2s1,0.6,1.7,0.6c0.5,0,1-0.1,1.3-0.3s0.6-0.5,0.7-0.8s0.2-0.9,0.2-1.5v-7H53.5z"/>
		<path d="M62.9,318.2h-6.6v-11.4h6.6v2h-4.2v2.5h3.9v2h-3.9v2.9h4.2V318.2z M62.7,303.3v0.2c-0.2,0.1-0.3,0.3-0.6,0.5
			s-0.5,0.4-0.8,0.7s-0.6,0.5-0.8,0.7s-0.5,0.4-0.7,0.5h-1.6v-0.2c0.2-0.2,0.4-0.4,0.6-0.7s0.5-0.6,0.7-0.8s0.4-0.6,0.6-0.8H62.7z"
			/>
		<path d="M69.4,318.2v-11.4h2.4v11.4H69.4z"/>
		<path d="M84.8,318.2h-3.1l-5-8.6h-0.1c0,0.4,0,0.7,0.1,1.1s0,0.7,0,1.1s0,0.7,0,1.1v5.4h-2.2v-11.4h3.1l5,8.6h0.1
			c0-0.4,0-0.7,0-1.1s0-0.7,0-1s0-0.7,0-1v-5.4h2.2V318.2z"/>
		<path d="M92.6,308.7c-0.5,0-0.9,0.1-1.2,0.3s-0.7,0.4-0.9,0.8s-0.4,0.7-0.6,1.2s-0.2,1-0.2,1.6c0,0.8,0.1,1.5,0.3,2.1
			s0.5,1,0.9,1.3s1,0.4,1.6,0.4c0.5,0,0.9-0.1,1.4-0.2s1-0.3,1.5-0.4v2c-0.5,0.2-1,0.4-1.5,0.4s-1,0.1-1.6,0.1
			c-1.2,0-2.1-0.2-2.9-0.7s-1.3-1.2-1.7-2s-0.5-1.9-0.5-3.1c0-0.9,0.1-1.7,0.4-2.4s0.6-1.3,1-1.9s1-0.9,1.7-1.2s1.4-0.4,2.3-0.4
			c0.6,0,1.1,0.1,1.7,0.2s1.1,0.3,1.6,0.6l-0.8,2c-0.4-0.2-0.9-0.4-1.3-0.5S93,308.7,92.6,308.7z"/>
		<path d="M97.9,318.2v-11.4h2.4v9.4h4.6v2H97.9z"/>
		<path d="M116.3,306.8v7.4c0,0.8-0.2,1.5-0.5,2.1s-0.9,1.1-1.6,1.5s-1.6,0.6-2.6,0.6c-1.5,0-2.7-0.4-3.5-1.2s-1.2-1.8-1.2-3.1v-7.4
			h2.4v7c0,0.9,0.2,1.6,0.6,2s1,0.6,1.7,0.6c0.5,0,1-0.1,1.3-0.3s0.6-0.5,0.7-0.8s0.2-0.9,0.2-1.5v-7H116.3z"/>
		<path d="M122.6,311.5l2.4-4.7h2.6l-3.8,7v4.4h-2.4v-4.4l-3.8-7.1h2.6L122.6,311.5z"/>
		<path d="M135.6,318.2H129v-11.4h6.6v2h-4.2v2.5h3.9v2h-3.9v2.9h4.2V318.2z"/>
		<path d="M137.5,310.7c0-0.5,0.1-0.8,0.4-1s0.6-0.3,1-0.3c0.4,0,0.7,0.1,1,0.3s0.4,0.5,0.4,1c0,0.5-0.1,0.8-0.4,1s-0.6,0.3-1,0.3
			c-0.4,0-0.7-0.1-1-0.3S137.5,311.1,137.5,310.7z M137.5,317.1c0-0.5,0.1-0.8,0.4-1s0.6-0.3,1-0.3c0.4,0,0.7,0.1,1,0.3
			s0.4,0.5,0.4,1c0,0.5-0.1,0.8-0.4,1s-0.6,0.3-1,0.3c-0.4,0-0.7-0.1-1-0.3S137.5,317.6,137.5,317.1z"/>
	</g>
</g>
</svg>
