<svg width="113" height="50" viewBox="0 0 113 50" fill="none" xmlns="http://www.w3.org/2000/svg">
<g clip-path="url(#clip0_1_10)">
<path d="M8.5 9.29998V30.3H2.2V9.29998H0V8.19998H2.2V5.69998C2.2 4.09998 2.8 2.79998 3.9 1.69998C5 0.599976 6.3 0.0999756 7.9 0.0999756C8.6 0.0999756 9.4 0.199976 10.1 0.499976C10.8 0.799976 11.4 1.19998 11.9 1.69998L11.1 2.49998C10.8 2.09998 10.3 1.79998 9.9 1.59998C9.4 1.39998 9 1.19998 8.5 1.19998V8.19998H13.6V9.29998H8.5Z" fill="#1D1D1B"/>
<path d="M17.4 18.8V25.2C17.4 26.3 17.8 27.2 18.6 28C19.4 28.7999 20.3 29.2 21.4 29.2C23.1 29.2 24.8 28.8 26.4 27.9C28 27 29.2 25.7999 30.1 24.2999L31.1 24.9C30.1 26.6 28.8 27.9 27 28.9C25.2 29.9 23.4 30.4 21.5 30.4C18.5 30.4 15.9 29.3 13.8 27.1C11.7 24.9 10.6 22.3 10.6 19.3C10.6 16.3 11.7 13.7 13.8 11.5C15.9 9.29995 18.5 8.19995 21.5 8.19995C23 8.19995 24.3 8.39995 25.5 8.89995C26.6 9.39995 27.6 9.99995 28.4 10.9C29.5 12 30.2 13.2 30.7 14.6C31.1 16 31.4 17.4 31.6 18.9H17.4V18.8ZM25.5 15.5V13.3C25.5 12.2 25.1 11.3 24.3 10.5C23.5 9.69995 22.6 9.29995 21.5 9.29995C20.4 9.29995 19.5 9.69995 18.7 10.5C17.9 11.3 17.5 12.2 17.5 13.3V17.7H25.5V15.5Z" fill="#1D1D1B"/>
<path d="M38.5 9.3V29.2C39.6 29.1 40.6 28.6 41.3 27.7C42.1 26.8 42.4 25.8 42.4 24.7V23.9H43.5V24.7C43.5 26.3 43 27.6 41.9 28.7C40.8 29.8 39.5 30.3 37.9 30.3C36.3 30.3 35 29.8 33.9 28.7C32.8 27.6 32.2 26.3 32.2 24.7V9.3H30.9V8.2H32.3V1.2H30.9V0H32.9C34.5 0 35.8 0.5 36.9 1.6C38 2.7 38.6 4 38.6 5.6V8.2H41.4V9.3H38.5Z" fill="#1D1D1B"/>
<path d="M51.7 28.6C50.6 29.7 49.3 30.2 47.7 30.2C46.1 30.2 44.8 29.7 43.7 28.6C42.6 27.5 42.1 26.2 42.1 24.6V9.2H40.6V8.1H42.6C44.2 8.1 45.5 8.6 46.6 9.7C47.7 10.8 48.2 12.1 48.2 13.7V29.2C49.3 29.1 50.3 28.6 51 27.7C51.8 26.8 52.1 25.8 52.1 24.7V23.9H53.2V24.7C53.4 26.2 52.8 27.5 51.7 28.6ZM47.6 5.7C47 6.3 46.2 6.7 45.3 6.7C44.4 6.7 43.6 6.4 43 5.7C42.4 5.1 42.1 4.3 42.1 3.4C42.1 2.5 42.4 1.7 43 1C43.6 0.4 44.4 0 45.3 0C46.2 0 47 0.3 47.6 1C48.2 1.6 48.6 2.4 48.6 3.4C48.6 4.3 48.3 5 47.6 5.7Z" fill="#1D1D1B"/>
<path d="M66.0999 29.4C64.6999 30 63.3 30.2 61.9 30.2H61.5C60.2 30.1 59 29.8 57.7 29.3C56.5 28.8 55.3 28 54.4 27C53.3 25.9 52.5 24.7 52 23.3C51.5 21.9 51.2 20.6 51.2 19.1C51.2 17.7 51.5 16.3 52 14.9C52.5 13.5 53.3 12.3 54.4 11.3C55.5 10.2 56.7 9.39997 58 8.89997C59.3 8.39997 60.6999 8.09998 62.0999 8.09998H62.7999C63.7999 8.19998 64.6999 8.29998 65.6999 8.69998C66.6999 8.99998 67.5 9.49998 68.4 10.1C68.8 10.4 69.1 10.7 69.3 11.1C69.5 11.5 69.5999 11.9 69.5999 12.3C69.5999 12.9 69.4 13.5 68.9 14.1C68.4 14.6 67.7999 14.9 67 14.9C66.2 14.9 65.5999 14.6 65.0999 14.1C64.5999 13.6 64.4 12.9 64.4 12.3C64.4 11.8 64.5 11.4 64.8 11C65 10.6 65.4 10.3 65.9 9.99998C65.3 9.69998 64.6999 9.49997 64.0999 9.39997C63.4999 9.29997 62.8 9.19998 62.2 9.19998C61.1 9.19998 60.2 9.59997 59.4 10.4C58.6 11.2 58.2 12.1 58.2 13.2V25.2C58.2 26.3 58.6 27.2 59.4 28C60.2 28.8 61.2 29.2 62.2 29.2C63.5 29.2 64.8 28.9 66 28.4C67.2 27.9 68.2999 27.1 69.1999 26.2L70 27C68.7 28 67.4999 28.9 66.0999 29.4Z" fill="#1D1D1B"/>
<path d="M93.3 26.5C93.1 27.2 92.6 28 91.9 28.7C91.4 29.2 90.9 29.6 90.3 29.8C89.7 30.1 89.2 30.2 88.6 30.3H88C86.6 30.3 85.3 29.8 84.1 28.8C82.9 27.8 82.4 26.4 82.4 24.7V12C82.4 11.9 82.4 11.8 82.3 11.6C82.2 11.1 81.9 10.7 81.6 10.3C81.3 9.9 80.9 9.7 80.4 9.7H79.8C79.7333 9.7 79.6666 9.73333 79.6 9.8C78.6 10.2 77.9 10.8 77.3 11.7C76.7 12.6 76.4 13.6 76.3 14.6V30.3H70V1.2H68.6V0H70.6C72.1 0 73.5 0.6 74.6 1.7C75.8 2.8 76.3 4.1 76.3 5.7V11.2C76.9 10.3 77.7 9.6 78.7 9.1C79.7 8.6 80.7 8.3 81.8 8.3C83.6 8.3 85.2 8.9 86.5 10.2C87.8 11.5 88.4 13 88.4 14.9V29.3C89.5 29.2 90.5 28.7 91.2 27.8C92 26.9 92.3 25.9 92.3 24.8V23.9H93.4C93.6 24.9 93.5 25.7 93.3 26.5Z" fill="#1D1D1B"/>
<path d="M98.3 18.8V25.2C98.3 26.3 98.7 27.2 99.5 28C100.3 28.7999 101.2 29.2 102.3 29.2C104 29.2 105.7 28.8 107.3 27.9C108.9 27 110.1 25.7999 111 24.2999L112 24.9C111 26.6 109.7 27.9 107.9 28.9C106.1 29.9 104.3 30.4 102.4 30.4C99.4 30.4 96.8 29.3 94.7 27.1C92.6 24.9 91.5 22.3 91.5 19.3C91.5 16.3 92.5 13.7 94.7 11.5C96.8 9.29995 99.4 8.19995 102.4 8.19995C103.9 8.19995 105.2 8.39995 106.4 8.89995C107.5 9.39995 108.5 9.99995 109.4 10.9C110.5 12 111.2 13.2 111.7 14.6C112.1 16 112.4 17.4 112.6 18.9H98.3V18.8ZM106.3 15.5V13.3C106.3 12.2 105.9 11.3 105.1 10.5C104.3 9.69995 103.4 9.29995 102.3 9.29995C101.2 9.29995 100.3 9.69995 99.5 10.5C98.7 11.3 98.3 12.2 98.3 13.3V17.7H106.3V15.5Z" fill="#1D1D1B"/>
<path d="M8.5 9.29998V30.3H2.2V9.29998H0V8.19998H2.2V5.69998C2.2 4.09998 2.8 2.79998 3.9 1.69998C5 0.599976 6.3 0.0999756 7.9 0.0999756C8.6 0.0999756 9.4 0.199976 10.1 0.499976C10.8 0.799976 11.4 1.19998 11.9 1.69998L11.1 2.49998C10.8 2.09998 10.3 1.79998 9.9 1.59998C9.4 1.39998 9 1.19998 8.5 1.19998V8.19998H13.6V9.29998H8.5Z" fill="#1D1D1B"/>
<path d="M17.4 18.8V25.2C17.4 26.3 17.8 27.2 18.6 28C19.4 28.7999 20.3 29.2 21.4 29.2C23.1 29.2 24.8 28.8 26.4 27.9C28 27 29.2 25.7999 30.1 24.2999L31.1 24.9C30.1 26.6 28.8 27.9 27 28.9C25.2 29.9 23.4 30.4 21.5 30.4C18.5 30.4 15.9 29.3 13.8 27.1C11.7 24.9 10.6 22.3 10.6 19.3C10.6 16.3 11.7 13.7 13.8 11.5C15.9 9.29995 18.5 8.19995 21.5 8.19995C23 8.19995 24.3 8.39995 25.5 8.89995C26.6 9.39995 27.6 9.99995 28.4 10.9C29.5 12 30.2 13.2 30.7 14.6C31.1 16 31.4 17.4 31.6 18.9H17.4V18.8ZM25.5 15.5V13.3C25.5 12.2 25.1 11.3 24.3 10.5C23.5 9.69995 22.6 9.29995 21.5 9.29995C20.4 9.29995 19.5 9.69995 18.7 10.5C17.9 11.3 17.5 12.2 17.5 13.3V17.7H25.5V15.5Z" fill="#1D1D1B"/>
<path d="M38.5 9.3V29.2C39.6 29.1 40.6 28.6 41.3 27.7C42.1 26.8 42.4 25.8 42.4 24.7V23.9H43.5V24.7C43.5 26.3 43 27.6 41.9 28.7C40.8 29.8 39.5 30.3 37.9 30.3C36.3 30.3 35 29.8 33.9 28.7C32.8 27.6 32.2 26.3 32.2 24.7V9.3H30.9V8.2H32.3V1.2H30.9V0H32.9C34.5 0 35.8 0.5 36.9 1.6C38 2.7 38.6 4 38.6 5.6V8.2H41.4V9.3H38.5Z" fill="#1D1D1B"/>
<path d="M51.7 28.6C50.6 29.7 49.3 30.2 47.7 30.2C46.1 30.2 44.8 29.7 43.7 28.6C42.6 27.5 42.1 26.2 42.1 24.6V9.2H40.6V8.1H42.6C44.2 8.1 45.5 8.6 46.6 9.7C47.7 10.8 48.2 12.1 48.2 13.7V29.2C49.3 29.1 50.3 28.6 51 27.7C51.8 26.8 52.1 25.8 52.1 24.7V23.9H53.2V24.7C53.4 26.2 52.8 27.5 51.7 28.6ZM47.6 5.7C47 6.3 46.2 6.7 45.3 6.7C44.4 6.7 43.6 6.4 43 5.7C42.4 5.1 42.1 4.3 42.1 3.4C42.1 2.5 42.4 1.7 43 1C43.6 0.4 44.4 0 45.3 0C46.2 0 47 0.3 47.6 1C48.2 1.6 48.6 2.4 48.6 3.4C48.6 4.3 48.3 5 47.6 5.7Z" fill="#1D1D1B"/>
<path d="M66.0999 29.4C64.6999 30 63.3 30.2 61.9 30.2H61.5C60.2 30.1 59 29.8 57.7 29.3C56.5 28.8 55.3 28 54.4 27C53.3 25.9 52.5 24.7 52 23.3C51.5 21.9 51.2 20.6 51.2 19.1C51.2 17.7 51.5 16.3 52 14.9C52.5 13.5 53.3 12.3 54.4 11.3C55.5 10.2 56.7 9.39997 58 8.89997C59.3 8.39997 60.6999 8.09998 62.0999 8.09998H62.7999C63.7999 8.19998 64.6999 8.29998 65.6999 8.69998C66.6999 8.99998 67.5 9.49998 68.4 10.1C68.8 10.4 69.1 10.7 69.3 11.1C69.5 11.5 69.5999 11.9 69.5999 12.3C69.5999 12.9 69.4 13.5 68.9 14.1C68.4 14.6 67.7999 14.9 67 14.9C66.2 14.9 65.5999 14.6 65.0999 14.1C64.5999 13.6 64.4 12.9 64.4 12.3C64.4 11.8 64.5 11.4 64.8 11C65 10.6 65.4 10.3 65.9 9.99998C65.3 9.69998 64.6999 9.49997 64.0999 9.39997C63.4999 9.29997 62.8 9.19998 62.2 9.19998C61.1 9.19998 60.2 9.59997 59.4 10.4C58.6 11.2 58.2 12.1 58.2 13.2V25.2C58.2 26.3 58.6 27.2 59.4 28C60.2 28.8 61.2 29.2 62.2 29.2C63.5 29.2 64.8 28.9 66 28.4C67.2 27.9 68.2999 27.1 69.1999 26.2L70 27C68.7 28 67.4999 28.9 66.0999 29.4Z" fill="#1D1D1B"/>
<path d="M93.3 26.5C93.1 27.2 92.6 28 91.9 28.7C91.4 29.2 90.9 29.6 90.3 29.8C89.7 30.1 89.2 30.2 88.6 30.3H88C86.6 30.3 85.3 29.8 84.1 28.8C82.9 27.8 82.4 26.4 82.4 24.7V12C82.4 11.9 82.4 11.8 82.3 11.6C82.2 11.1 81.9 10.7 81.6 10.3C81.3 9.9 80.9 9.7 80.4 9.7H79.8C79.7333 9.7 79.6666 9.73333 79.6 9.8C78.6 10.2 77.9 10.8 77.3 11.7C76.7 12.6 76.4 13.6 76.3 14.6V30.3H70V1.2H68.6V0H70.6C72.1 0 73.5 0.6 74.6 1.7C75.8 2.8 76.3 4.1 76.3 5.7V11.2C76.9 10.3 77.7 9.6 78.7 9.1C79.7 8.6 80.7 8.3 81.8 8.3C83.6 8.3 85.2 8.9 86.5 10.2C87.8 11.5 88.4 13 88.4 14.9V29.3C89.5 29.2 90.5 28.7 91.2 27.8C92 26.9 92.3 25.9 92.3 24.8V23.9H93.4C93.6 24.9 93.5 25.7 93.3 26.5Z" fill="#1D1D1B"/>
<path d="M98.3 18.8V25.2C98.3 26.3 98.7 27.2 99.5 28C100.3 28.7999 101.2 29.2 102.3 29.2C104 29.2 105.7 28.8 107.3 27.9C108.9 27 110.1 25.7999 111 24.2999L112 24.9C111 26.6 109.7 27.9 107.9 28.9C106.1 29.9 104.3 30.4 102.4 30.4C99.4 30.4 96.8 29.3 94.7 27.1C92.6 24.9 91.5 22.3 91.5 19.3C91.5 16.3 92.5 13.7 94.7 11.5C96.8 9.29995 99.4 8.19995 102.4 8.19995C103.9 8.19995 105.2 8.39995 106.4 8.89995C107.5 9.39995 108.5 9.99995 109.4 10.9C110.5 12 111.2 13.2 111.7 14.6C112.1 16 112.4 17.4 112.6 18.9H98.3V18.8ZM106.3 15.5V13.3C106.3 12.2 105.9 11.3 105.1 10.5C104.3 9.69995 103.4 9.29995 102.3 9.29995C101.2 9.29995 100.3 9.69995 99.5 10.5C98.7 11.3 98.3 12.2 98.3 13.3V17.7H106.3V15.5Z" fill="#1D1D1B"/>
<path d="M1.30005 38.6001H5.30005C6.40005 38.6001 6.90005 38.7001 7.50005 39.1001C8.20005 39.6001 8.60005 40.4001 8.60005 41.4001C8.60005 42.5001 8.10005 43.4001 7.30005 43.8001C6.80005 44.1001 6.20005 44.2001 5.50005 44.2001H1.90005V48.7001H1.30005V38.6001ZM5.00005 43.7001C5.90005 43.7001 6.40005 43.6001 6.80005 43.4001C7.50005 43.0001 7.90005 42.3001 7.90005 41.5001C7.90005 40.7001 7.60005 40.0001 7.00005 39.6001C6.60005 39.3001 6.10005 39.2001 5.10005 39.2001H1.90005V43.8001H5.00005V43.7001Z" fill="#1D1D1B"/>
<path d="M10.1001 38.6001H14.3001C15.3001 38.6001 15.9001 38.7001 16.4001 39.1001C17.1001 39.6001 17.5001 40.3001 17.5001 41.3001C17.5001 42.3001 17.1001 43.0001 16.4001 43.4001C16.1001 43.6001 15.8001 43.7001 15.4001 43.8001C16.1001 43.9001 16.5001 44.1001 16.8001 44.4001C17.3001 44.9001 17.3001 45.3001 17.4001 47.0001C17.4001 47.7001 17.5001 48.3001 17.7001 48.7001H17.0001C16.9001 48.5001 16.9001 48.1001 16.8001 47.2001C16.8001 45.9001 16.6001 45.2001 16.2001 44.7001C15.8001 44.2001 15.0001 44.1001 13.9001 44.1001H10.7001V48.8001H10.1001V38.6001ZM13.8001 43.5001C14.8001 43.5001 15.5001 43.4001 15.9001 43.1001C16.5001 42.7001 16.9001 42.1001 16.9001 41.3001C16.9001 40.5001 16.6001 39.9001 16.0001 39.5001C15.6001 39.2001 15.0001 39.1001 14.1001 39.1001H10.7001V43.5001H13.8001Z" fill="#1D1D1B"/>
<path d="M19.3 43.7C19.3 40.5 21.2001 38.4 24.2001 38.4C27.0001 38.4 29 40.6 29 43.8C29 47 27.1 49 24.1 49C21.2 49 19.3 46.8 19.3 43.7ZM28.3 43.7C28.3 40.9 26.6 38.9 24.1 38.9C21.6 38.9 19.9 40.8 19.9 43.7C19.9 46.6 21.6 48.5 24.1 48.5C26.6 48.4 28.3 46.5 28.3 43.7Z" fill="#1D1D1B"/>
<path d="M30.9 38.6001H34.3C35.7 38.6001 36.7 38.9001 37.5 39.7001C38.4 40.6001 38.9 41.9001 38.9 43.6001C38.9 45.4001 38.4 46.8001 37.5 47.7001C36.7 48.5001 35.8 48.8001 34.3 48.8001H30.9V38.6001ZM34.2 48.2001C35.6 48.2001 36.4 47.9001 37.1 47.3001C38 46.5001 38.4 45.2001 38.4 43.6001C38.4 42.1001 38 41.0001 37.3 40.2001C36.6 39.5001 35.7 39.2001 34.4 39.2001H31.6V48.3001H34.2V48.2001Z" fill="#1D1D1B"/>
<path d="M40.8 44.8V38.6H41.4001V44.8C41.4001 47.2 42.4 48.4 44.8 48.4C47.2 48.4 48 47.1 48 44.7V38.5H48.6V44.7C48.6 47.5 47.3001 48.9 44.7001 48.9C42.0001 49 40.8 47.5 40.8 44.8Z" fill="#1D1D1B"/>
<path d="M50.5 43.7C50.5 40.5 52.4 38.4 55.2 38.4C57.4 38.4 59.1 39.8 59.4 41.7H58.8C58.4 40 57 39 55.2 39C52.8 39 51.1 40.9 51.1 43.8C51.1 46.7 52.7 48.6 55.1 48.6C57.2 48.6 58.6 47.2 58.9 45H59.5C59.3 47.5 57.5 49.2 55.1 49.2C52.4 49 50.5 46.8 50.5 43.7Z" fill="#1D1D1B"/>
<path d="M60.9 43.7C60.9 40.5 62.8 38.4 65.6 38.4C67.8 38.4 69.5 39.8 69.8 41.7H69.2C68.8 40 67.4 39 65.6 39C63.2 39 61.5 40.9 61.5 43.8C61.5 46.7 63.1 48.6 65.5 48.6C67.6 48.6 69 47.2 69.3 45H69.9C69.7 47.5 67.9 49.2 65.5 49.2C62.8 49 60.9 46.8 60.9 43.7Z" fill="#1D1D1B"/>
<path d="M71.8 38.6001H72.4V48.8001H71.8V38.6001Z" fill="#1D1D1B"/>
<path d="M74.4 43.7C74.4 40.5 76.3 38.4 79.3 38.4C82.1 38.4 84.1 40.6 84.1 43.8C84.1 47 82.2 49 79.2 49C76.4 49 74.4 46.8 74.4 43.7ZM83.5 43.7C83.5 40.9 81.8 38.9 79.3 38.9C76.8 38.9 75.1 40.8 75.1 43.7C75.1 46.6 76.8 48.5 79.3 48.5C81.8 48.4 83.5 46.5 83.5 43.7Z" fill="#1D1D1B"/>
<path d="M86.1001 38.6001H86.8001L92.4001 46.5001C92.8001 47.1001 93.1001 47.6001 93.4001 48.0001V38.6001H94.0001V48.8001H93.3001L87.6001 40.8001L86.7001 39.4001V48.9001H86.1001V38.6001Z" fill="#1D1D1B"/>
<path d="M96.5 38.6001H103.3V39.1001H97.1V43.2001H102.9V43.7001H97.1V48.2001H103.4V48.7001H96.5V38.6001Z" fill="#1D1D1B"/>
<path d="M104.2 45.4001H104.8C104.8 47.4001 106 48.4001 108.3 48.4001C110.3 48.4001 111.5 47.5 111.5 46.1C111.5 45.4 111.1 44.8 110.5 44.5C110 44.3 109.7 44.2 108.1 43.8C106.5 43.4 106 43.3001 105.5 42.9001C104.9 42.5001 104.6 41.8 104.6 41C104.6 39.3 105.9 38.3 108.1 38.3C110.3 38.3 111.7 39.2001 111.9 41.4001H111.3C111.1 39.6001 110 38.8 108.1 38.8C106.3 38.8 105.3 39.6001 105.3 40.9001C105.3 41.7001 105.7 42.2 106.4 42.5C106.733 42.6334 107.567 42.8667 108.9 43.2001C110.3 43.5001 110.7 43.7 111.2 44C111.9 44.4 112.2 45.1001 112.2 45.9001C112.2 47.7001 110.8 48.8 108.4 48.8C105.7 48.9 104.2 47.8001 104.2 45.4001Z" fill="#1D1D1B"/>
</g>
<defs>
<clipPath id="clip0_1_10">
<rect width="112.6" height="49.2" fill="white"/>
</clipPath>
</defs>
</svg>
