<svg width="127" height="55" viewBox="0 0 127 55" fill="none" xmlns="http://www.w3.org/2000/svg" preserveAspectRatio="none">
<path d="M63.46 0L36.96 10.29V36.34H61.11L65.97 24.95H60.34V27.75H55.82V21.66H71.09V25.15L66.44 36.34H89.95V10.29L63.46 0Z" fill="black"/>
<path d="M67.58 45.27V53.19L60.71 45.27H60.12V54.33H60.82V46.41L67.71 54.33H68.29V45.27H67.59H67.58ZM47.44 52.64C46.66 51.87 46.26 50.92 46.26 49.8C46.26 48.68 46.65 47.73 47.44 46.96C48.22 46.19 49.18 45.8 50.32 45.8C51.46 45.8 52.4 46.19 53.18 46.96C53.96 47.73 54.34 48.68 54.34 49.8C54.34 50.92 53.95 51.86 53.18 52.64C52.4 53.41 51.45 53.8 50.32 53.8C49.19 53.8 48.23 53.41 47.44 52.64ZM46.9 46.51C45.97 47.41 45.51 48.51 45.51 49.81C45.51 51.11 45.97 52.2 46.9 53.1C47.83 54 48.96 54.45 50.29 54.45C51.62 54.45 52.77 54 53.7 53.1C54.63 52.2 55.1 51.1 55.1 49.81C55.1 48.52 54.63 47.41 53.7 46.51C52.77 45.61 51.63 45.16 50.29 45.16C48.95 45.16 47.82 45.61 46.9 46.51ZM38.25 45.86C38.97 45.86 39.52 46.02 39.9 46.35C40.28 46.68 40.48 47.12 40.48 47.68C40.48 48.24 40.28 48.72 39.89 49.04C39.5 49.36 38.92 49.52 38.17 49.52H36.48V45.86H38.25V45.86ZM35.78 54.33H36.48V50.1H38.21C39.2 50.1 39.95 49.88 40.46 49.45C40.97 49.01 41.23 48.42 41.23 47.67C41.23 46.92 40.98 46.35 40.47 45.92C39.96 45.49 39.23 45.28 38.28 45.28H35.78V54.34V54.33ZM26.24 45.27V54.33H31.42V53.75H26.94V45.28H26.24V45.27ZM15.49 50.61L17.43 46.34L19.38 50.61H15.48H15.49ZM17.25 45.2L13.06 54.32H13.79L15.22 51.19H19.65L21.08 54.32H21.81L17.62 45.2H17.24H17.25ZM5.67 45.15C4.27 45.15 3.11 45.59 2.19 46.47C1.27 47.35 0.809998 48.45 0.809998 49.77C0.809998 51.09 1.28 52.21 2.22 53.1C3.16 53.99 4.33001 54.44 5.74001 54.44C6.82001 54.44 7.89001 54.19 8.96001 53.68V50.21H6.34V50.79H8.25V53.23C7.53 53.6 6.7 53.79 5.77 53.79C4.48 53.79 3.46 53.41 2.7 52.65C1.95 51.89 1.57001 50.94 1.57001 49.79C1.57001 48.64 1.95001 47.69 2.71001 46.93C3.47001 46.17 4.42001 45.79 5.57001 45.79C6.64001 45.79 7.71 46.09 8.78 46.7V45.91C7.66 45.4 6.63 45.14 5.67 45.14" fill="black"/>
<path d="M126.11 52.45H122.05V50.53H125.82V48.72H122.05V47.07H126V45.27H119.34V54.26H126.11V52.45V52.45ZM114.43 45.27H105.14V47.45H108.43V54.25H111.13V47.45H114.42V45.27H114.43ZM100.68 52.45H96.62V50.53H100.39V48.72H96.62V47.07H100.57V45.27H93.91V54.26H100.68V52.45V52.45ZM88.32 45.27H85.61V54.26H88.32V45.27ZM80.08 50.38C79.84 50.04 79.52 49.74 79.1 49.48C78.69 49.22 78.13 48.93 77.44 48.6C77.05 48.41 76.78 48.26 76.63 48.13C76.48 48 76.4 47.85 76.4 47.67C76.4 47.48 76.48 47.32 76.63 47.19C76.78 47.06 77.03 47 77.36 47C77.87 47 78.36 47.1 78.81 47.31C79.26 47.52 79.67 47.75 80.04 48.02V45.91C79.94 45.84 79.75 45.75 79.47 45.62C79.19 45.49 78.84 45.39 78.42 45.29C77.99 45.19 77.53 45.14 77.03 45.14C76.33 45.14 75.73 45.26 75.24 45.49C74.75 45.72 74.39 46.04 74.15 46.43C73.91 46.82 73.79 47.26 73.79 47.74C73.79 48.22 73.91 48.68 74.14 49.04C74.38 49.41 74.68 49.71 75.05 49.96C75.42 50.2 75.85 50.43 76.35 50.64C76.8 50.82 77.13 50.99 77.37 51.16C77.6 51.33 77.72 51.53 77.72 51.77C77.72 51.9 77.65 52.05 77.52 52.2C77.38 52.35 77.08 52.43 76.62 52.43C76.12 52.43 75.65 52.34 75.21 52.15C74.77 51.96 74.33 51.73 73.87 51.45V53.65C74.35 53.86 74.82 54.02 75.27 54.13C75.72 54.24 76.08 54.3 76.35 54.33C76.62 54.35 76.85 54.37 77.03 54.37C77.7 54.37 78.29 54.26 78.8 54.04C79.31 53.82 79.72 53.51 80 53.1C80.29 52.69 80.43 52.2 80.43 51.64C80.43 51.13 80.31 50.71 80.08 50.37" fill="black"/>
</svg>
